<svg width="40" height="40" viewBox="0 0 40 40" fill="none" xmlns="http://www.w3.org/2000/svg">
<g clip-path="url(#clip0_1_30922)">
<path d="M15.443 24.6504C6.91406 24.6504 0 22.4902 0 19.8254V29.1197C2.16758 31.135 8.2625 32.5867 15.443 32.5867C22.6236 32.5867 28.7185 31.135 30.8861 29.1197V19.8254C30.8861 22.4902 23.972 24.6504 15.443 24.6504Z" fill="#80B4FB"/>
<path d="M8.30562 24.1049C3.36977 23.2997 0 21.6856 0 19.8254V29.1197C1.39477 30.4165 4.41586 31.4797 8.30562 32.0732V24.1049Z" fill="#0290F4"/>
<path d="M15.443 8.69204C6.91406 8.69204 0 7.67165 0 5.00696V12.6792C0 15.3439 6.91406 17.5041 15.443 17.5041C23.972 17.5041 30.8861 15.3439 30.8861 12.6792V5.00696C30.8861 7.67165 23.972 8.69204 15.443 8.69204Z" fill="#80B4FB"/>
<path d="M8.30562 8.39563C3.36977 7.92579 0 6.86711 0 5.00696V12.6792C0 14.5394 3.36977 16.1534 8.30562 16.9586V8.39563Z" fill="#0290F4"/>
<path d="M15.443 32.3226C6.91406 32.3226 0 30.1624 0 27.4977V34.9946C0 37.6593 6.91406 39.8195 15.443 39.8195C23.972 39.8195 30.8861 37.6593 30.8861 34.9946V27.4977C30.886 30.1624 23.972 32.3226 15.443 32.3226Z" fill="#9DC6FB"/>
<path d="M8.30562 31.7771C3.36977 30.9719 0 29.3578 0 27.4977V34.9946C0 36.8548 3.36977 38.4688 8.30562 39.274V31.7771Z" fill="#80B4FB"/>
<path d="M15.443 17.3286C6.91406 17.3286 0 15.1685 0 12.5038V20.0007C0 22.6653 6.91406 24.8256 15.443 24.8256C23.972 24.8256 30.8861 22.6654 30.8861 20.0007V12.5038C30.886 15.1685 23.972 17.3286 15.443 17.3286Z" fill="#9DC6FB"/>
<path d="M8.30562 16.7832C3.36977 15.9779 0 14.3639 0 12.5038V20.0007C0 21.8608 3.36977 23.4749 8.30562 24.2801V16.7832Z" fill="#80B4FB"/>
<path d="M15.443 9.83182C23.972 9.83182 30.8861 7.67166 30.8861 5.00697C30.8861 2.34228 23.972 0.182129 15.443 0.182129C6.91409 0.182129 0 2.34228 0 5.00697C0 7.67166 6.91409 9.83182 15.443 9.83182Z" fill="#BED8FB"/>
<path d="M7.07227 5.00693C7.07227 3.17224 8.72476 1.51826 11.3712 0.351929C4.81805 0.91021 0 2.78263 0 5.00693C0 7.2313 4.81805 9.10372 11.3712 9.66193C8.72476 8.4956 7.07227 6.84162 7.07227 5.00693Z" fill="#9DC6FB"/>
<path d="M30.8873 18.4064C35.9202 18.4064 40.0002 14.3265 40.0002 9.29355C40.0002 4.26064 35.9202 0.180664 30.8873 0.180664C25.8544 0.180664 21.7744 4.26064 21.7744 9.29355C21.7744 14.3265 25.8544 18.4064 30.8873 18.4064Z" fill="#FFE181"/>
<path d="M26.0933 9.29355C26.0933 5.0048 29.0562 1.40871 33.0465 0.438789C32.3541 0.270508 31.631 0.180664 30.8868 0.180664C25.8539 0.180664 21.7739 4.26066 21.7739 9.29355C21.7739 14.3264 25.8539 18.4064 30.8868 18.4064C31.631 18.4064 32.3541 18.3166 33.0465 18.1483C29.0562 17.1785 26.0933 13.5823 26.0933 9.29355Z" fill="#FEC458"/>
<path d="M25.8635 8.08049C25.7953 8.08049 25.726 8.06885 25.6582 8.04431C25.3447 7.93088 25.1825 7.58486 25.2959 7.27142C26.1448 4.92478 28.3916 3.34814 30.8868 3.34814C32.8316 3.34814 34.6566 4.30268 35.7687 5.9015C35.9591 6.17517 35.8915 6.55142 35.6178 6.74174C35.3441 6.93205 34.968 6.86447 34.7777 6.59088C33.891 5.31627 32.4365 4.55533 30.8868 4.55533C28.8982 4.55533 27.1077 5.81182 26.4312 7.68197C26.3424 7.92767 26.1106 8.08049 25.8635 8.08049Z" fill="#FF656F"/>
<path d="M30.887 15.239C28.8757 15.239 27.016 14.2331 25.9122 12.5481C25.7296 12.2693 25.8075 11.8951 26.0864 11.7125C26.3652 11.5298 26.7394 11.6076 26.9221 11.8866C27.802 13.2299 29.2842 14.0318 30.887 14.0318C32.8764 14.0318 34.6673 12.7747 35.3433 10.9034C35.4566 10.5898 35.8026 10.4277 36.1161 10.5407C36.4296 10.654 36.592 11 36.4787 11.3135C35.6305 13.6615 33.3833 15.239 30.887 15.239Z" fill="#FF656F"/>
<path d="M36.0913 8.98037L33.8401 7.30084C33.6801 7.18146 33.7147 6.93256 33.9012 6.86138L36.7111 5.78841C36.8976 5.71724 37.0892 5.87966 37.0495 6.07529L36.4908 8.82779C36.4539 9.00975 36.2401 9.09139 36.0913 8.98037Z" fill="#FF656F"/>
<path d="M25.5954 9.52909L27.8465 11.2086C28.0065 11.328 27.9719 11.5769 27.7854 11.6481L24.9756 12.7211C24.7891 12.7922 24.5974 12.6298 24.6371 12.4342L25.1958 9.68167C25.2327 9.49972 25.4465 9.41808 25.5954 9.52909Z" fill="#FF656F"/>
<path d="M35.1043 6.75085C34.9968 6.67062 34.979 6.53257 35.0344 6.42859L33.9012 6.86132C33.7147 6.9325 33.6801 7.1814 33.8401 7.30078L36.0912 8.98031C36.24 9.09133 36.4539 9.00976 36.4907 8.82773L36.6745 7.92234L35.1043 6.75085Z" fill="#FF4756"/>
<path d="M25.9752 11.9714L26.3557 10.0964L25.5953 9.52909C25.4465 9.41808 25.2327 9.49972 25.1958 9.68167L24.6371 12.4342C24.5974 12.6298 24.7891 12.7923 24.9756 12.7211L26.1631 12.2675C26.0392 12.2368 25.9464 12.113 25.9752 11.9714Z" fill="#FF4756"/>
</g>
<defs>
<clipPath id="clip0_1_30922">
<rect width="40" height="40" fill="white"/>
</clipPath>
</defs>
</svg>
