<svg width="600" height="453" viewBox="0 0 600 453" fill="none" xmlns="http://www.w3.org/2000/svg">
<g clip-path="url(#clip0_1_30965)">
<path d="M19.4275 124.666C27.8414 117.836 39.2332 116.846 49.6323 118.731C60.7405 120.709 70.8561 126.032 81.1134 130.508C91.7016 135.172 102.479 138.516 114.107 139.082C125.688 139.694 137.269 138.045 148.519 135.219C172.012 129.33 193.566 118.024 216.113 109.497C227.411 105.21 239.086 101.489 251.092 99.7929C257.615 98.8508 264.186 98.6152 270.756 99.3219C276.996 99.9814 283.093 101.442 289.191 102.949C302.663 106.294 316.087 109.215 329.89 110.863C344.118 112.559 358.487 113.125 372.81 112.654C373.708 112.606 373.708 111.193 372.81 111.24C346.812 112.183 320.814 109.403 295.572 103.138C283.519 100.123 271.56 97.0135 259.034 97.626C246.885 98.2384 234.879 101.442 223.44 105.352C200.515 113.219 178.96 124.761 155.704 131.78C143.887 135.313 131.644 137.763 119.259 137.81C106.686 137.857 94.8687 134.936 83.3823 129.942C72.0378 125.043 60.9296 118.966 48.5924 117.082C38.0987 115.48 26.896 116.752 18.4348 123.63C17.7258 124.242 18.7185 125.279 19.4275 124.666Z" fill="#E8E8E8"/>
<path d="M274.018 81.609C306.775 95.6945 343.976 93.3391 377.489 83.1165C395.64 77.5577 413.697 70.1145 433.03 70.1616C452.505 70.2087 470.987 76.9924 490.036 80.0073C507.337 82.7396 526.386 82.4099 541.229 72.046C541.985 71.5278 541.276 70.3029 540.52 70.8211C526.812 80.3842 509.417 81.2321 493.345 79.0651C475.147 76.6155 457.657 70.3029 439.27 68.9839C420.882 67.6649 403.534 73.1766 386.281 78.8296C369.075 84.4355 351.68 88.8166 333.576 89.853C313.534 91.0307 293.256 88.3455 274.774 80.3842C273.923 80.0073 273.214 81.2321 274.018 81.609Z" fill="#E8E8E8"/>
<path d="M1.37075 199.051C11.7226 191.702 23.9653 187.18 36.6334 185.955C42.9674 185.342 49.3487 185.578 55.5882 186.661C62.064 187.792 68.3035 189.959 74.4958 192.126C85.9821 196.083 97.3739 199.098 109.475 196.319C119.921 193.916 129.375 188.499 138.64 183.364C149.559 177.287 160.903 171.068 173.571 169.938C174.47 169.844 174.47 168.43 173.571 168.525C150.977 170.55 134.007 187.462 112.925 193.916C107.584 195.565 102.006 196.413 96.4285 196.083C89.5745 195.659 82.9096 193.539 76.4811 191.325C70.0052 189.111 63.5294 186.708 56.7227 185.437C50.8613 184.353 44.8582 184.023 38.9495 184.4C25.2416 185.248 11.8644 189.912 0.661714 197.873C-0.0945882 198.344 0.614445 199.569 1.37075 199.051Z" fill="#E8E8E8"/>
<path d="M126.681 217.141C145.068 197.779 172.106 189.865 198.246 189.629C213.419 189.488 228.545 191.655 243.34 194.811C257.426 197.779 271.087 201.642 285.646 199.71C300.867 197.685 315.095 191.184 328.708 184.353C329.512 183.929 328.803 182.704 327.999 183.128C315.047 189.629 301.576 195.8 287.159 198.062C279.785 199.192 272.363 199.098 264.989 197.92C257.521 196.743 250.242 194.764 242.82 193.209C215.783 187.556 186.996 185.154 160.431 194.34C147.337 198.862 135.236 206.07 125.688 216.104C125.073 216.811 126.066 217.8 126.681 217.141Z" fill="#E8E8E8"/>
<path d="M345.772 231.226C353.477 233.911 361.371 231.414 368.414 228.07C376.308 224.301 383.729 219.637 391.812 216.293C399.895 212.948 408.593 210.687 417.385 211.77C425.42 212.759 432.841 216.34 439.885 220.155C446.549 223.783 453.12 227.74 460.21 230.519C468.104 233.581 476.612 235.042 485.074 234.853C502.421 234.477 517.169 225.856 533.004 220.014C547.799 214.55 567.511 212.1 579.375 224.913C579.99 225.573 580.982 224.584 580.368 223.924C571.056 213.89 556.213 212.759 543.451 215.445C526.812 218.931 512.442 229.059 495.709 232.309C486.775 234.053 477.416 233.817 468.577 231.697C460.352 229.719 452.978 225.856 445.604 221.757C438.939 218.036 432.18 214.173 424.853 211.959C417.243 209.65 409.302 209.603 401.597 211.487C392.19 213.796 383.54 218.365 375.079 222.982C366.334 227.693 356.219 233.44 346.056 229.907C345.299 229.577 344.921 230.943 345.772 231.226Z" fill="#E8E8E8"/>
<path d="M470.231 253.932C489.801 255.11 505.919 241.873 524.401 237.868C529.317 236.785 534.517 236.314 539.527 237.162C544.018 237.915 548.083 239.753 551.959 242.108C558.624 246.159 565.1 251.388 573.23 251.954C583.109 252.613 591.854 246.489 599.228 240.742C599.937 240.177 598.945 239.187 598.235 239.753C591.051 245.311 582.448 251.388 572.805 250.493C564.438 249.74 557.821 243.71 550.777 239.8C534.564 230.755 517.217 237.868 501.665 244.699C491.691 249.033 481.339 253.226 470.279 252.566C469.333 252.472 469.333 253.885 470.231 253.932Z" fill="#E8E8E8"/>
<path d="M24.06 344.004C30.914 337.503 41.0768 334.959 50.1997 337.456C59.748 340.047 65.893 348.244 73.5506 353.897C88.8184 365.156 109.617 363.366 126.397 356.723C146.203 348.903 162.7 334.771 182.458 326.809C192.101 322.899 202.547 320.403 213.041 321.109C223.251 321.816 231.949 326.197 240.032 332.133C248.067 338.021 255.63 344.993 265.037 348.715C275.105 352.672 286.45 351.824 295.904 346.595C296.707 346.171 295.998 344.946 295.194 345.37C285.552 350.694 274.018 351.165 263.95 346.736C255.536 343.015 248.635 336.796 241.308 331.332C233.792 325.726 225.804 321.345 216.35 320.026C206.613 318.707 196.686 320.356 187.469 323.418C167.285 330.154 150.646 344.051 131.502 352.955C113.824 361.199 91.0873 365.062 74.3069 352.672C65.9403 346.501 59.3699 337.692 48.5926 335.619C39.4697 333.876 29.7795 336.608 23.0674 343.015C22.4056 343.627 23.3982 344.664 24.06 344.004Z" fill="#E8E8E8"/>
<path d="M205.667 370.291C213.466 365.25 222.731 362.848 232.043 363.601C240.551 364.308 248.587 367.464 256.387 370.62C263.95 373.682 271.607 376.886 279.737 378.205C288.246 379.571 296.849 378.535 305.026 376.038C314.811 373.023 323.886 368.218 332.82 363.366C333.624 362.942 332.915 361.717 332.111 362.141C315.756 370.95 297.794 380.231 278.603 376.556C262.579 373.494 248.493 363.601 231.996 362.188C222.447 361.387 212.899 363.884 204.911 369.066C204.202 369.584 204.911 370.809 205.667 370.291Z" fill="#E8E8E8"/>
<path d="M384.107 402.23C394.412 392.62 407.08 385.695 420.741 382.162C427.689 380.372 434.827 379.477 442.012 379.524C450 379.618 457.941 380.89 465.883 381.644C481.292 383.104 496.087 380.513 510.504 374.907C524.26 369.584 537.211 360.351 552.007 358.09C569.307 355.452 582.684 366.899 593.698 378.629C594.312 379.288 595.305 378.299 594.69 377.64C585.615 367.982 574.932 357.995 561.129 356.441C546.003 354.745 532.248 363.601 519.107 369.678C503.981 376.697 487.674 381.503 470.893 380.56C462.526 380.089 454.254 378.582 445.841 378.158C438.703 377.781 431.518 378.299 424.522 379.76C409.065 382.916 394.648 390.359 383.115 401.147C382.453 401.853 383.446 402.843 384.107 402.23Z" fill="#E8E8E8"/>
<path d="M107.347 104.551C120.583 114.773 137.836 110.251 152.253 105.54C170.121 99.6516 188.225 95.93 207.132 95.5532C208.03 95.5532 208.03 94.1399 207.132 94.1399C189.737 94.4697 172.579 97.4375 156.034 102.808C141.05 107.66 122.426 114.491 108.34 103.562C107.631 102.996 106.638 103.986 107.347 104.551Z" fill="#161616"/>
<path d="M234.785 18.9074C250.762 17.7297 266.171 13.3015 281.628 9.57991C297.7 5.66989 313.818 3.07891 330.41 4.86904C347.143 6.65917 363.356 11.6998 379.759 15.2801C395.546 18.7661 411.571 20.3678 427.736 19.5669C445.935 18.6719 463.897 14.8561 480.867 8.35508C481.718 8.02532 481.339 6.65917 480.489 6.98893C449.622 18.8132 415.919 21.31 383.587 14.6205C367.469 11.2758 351.681 6.37652 335.373 4.02109C319.633 1.75987 304.27 3.03181 288.766 6.42363C270.804 10.3336 253.173 16.0809 234.785 17.4471C233.887 17.5884 233.887 19.0016 234.785 18.9074Z" fill="#161616"/>
<path d="M490.604 136.962C504.406 131.874 518.729 139.129 532.531 140.448C539.952 141.154 547.326 140.448 554.559 138.752C561.649 137.056 568.55 134.559 575.782 133.476C583.534 132.298 591.806 132.769 598.519 137.15C599.275 137.668 599.984 136.444 599.228 135.925C587.316 128.199 572.757 132.345 560.184 135.831C552.29 138.045 544.396 139.647 536.171 139.317C528.324 139.034 520.809 136.867 513.151 135.266C505.541 133.711 497.694 132.863 490.273 135.596C489.375 135.878 489.753 137.244 490.604 136.962Z" fill="#161616"/>
<path d="M8.79175 279.889C20.7981 269.243 37.7203 278.664 51.0502 280.69C66.4598 283.046 81.8695 278.806 96.5701 274.707C97.4682 274.472 97.0901 273.106 96.192 273.341C79.9315 277.864 63.1037 282.339 46.2287 278.335C33.8915 275.414 18.8128 269.196 7.75183 278.9C7.09006 279.465 8.08272 280.455 8.79175 279.889Z" fill="#161616"/>
<path d="M159.958 412.17C163.787 407.648 169.695 405.198 175.651 405.952C179.055 406.376 182.174 407.931 185.294 409.297C187.894 410.427 190.541 411.369 193.235 412.123C204.816 415.327 217.248 414.856 228.545 410.898C229.396 410.616 229.018 409.25 228.167 409.532C215.499 413.913 201.507 413.913 188.887 409.202C183.403 407.177 178.298 403.926 172.201 404.397C167.048 404.774 162.274 407.224 158.918 411.134C158.351 411.888 159.391 412.877 159.958 412.17Z" fill="#161616"/>
<path d="M240.41 408.307C249.013 405.811 257.852 404.586 266.833 404.633C267.731 404.633 267.731 403.22 266.833 403.22C257.757 403.173 248.776 404.445 240.032 406.941C239.181 407.224 239.512 408.59 240.41 408.307Z" fill="#161616"/>
<path d="M251.66 42.1319C260.026 48.5387 268.015 55.4166 275.672 62.7184C276.334 63.3308 277.327 62.3415 276.665 61.7291C268.96 54.3802 260.83 47.4552 252.369 40.9542C251.66 40.3418 250.951 41.5666 251.66 42.1319Z" fill="#161616"/>
<path d="M169.696 66.9582C170.499 62.53 171.35 58.1018 172.154 53.6265C172.343 52.7314 170.972 52.3545 170.783 53.2496C169.979 57.6778 169.128 62.106 168.325 66.5813C168.183 67.4764 169.554 67.8533 169.696 66.9582Z" fill="#161616"/>
<path d="M442.248 95.0349C443.762 95.0349 444.99 93.8116 444.99 92.3026C444.99 90.7936 443.762 89.5703 442.248 89.5703C440.734 89.5703 439.506 90.7936 439.506 92.3026C439.506 93.8116 440.734 95.0349 442.248 95.0349Z" fill="#EC615B"/>
<path d="M84.0443 320.685C85.8456 320.685 87.3058 319.23 87.3058 317.435C87.3058 315.64 85.8456 314.184 84.0443 314.184C82.243 314.184 80.7827 315.64 80.7827 317.435C80.7827 319.23 82.243 320.685 84.0443 320.685Z" fill="#EC615B"/>
<path d="M68.2561 26.2093C72.3808 26.2093 75.7246 22.8769 75.7246 18.7662C75.7246 14.6554 72.3808 11.323 68.2561 11.323C64.1313 11.323 60.7876 14.6554 60.7876 18.7662C60.7876 22.8769 64.1313 26.2093 68.2561 26.2093Z" fill="#EC615B"/>
<path d="M83.2406 33.4168C84.6242 33.4168 85.7459 32.299 85.7459 30.9201C85.7459 29.5412 84.6242 28.4233 83.2406 28.4233C81.857 28.4233 80.7354 29.5412 80.7354 30.9201C80.7354 32.299 81.857 33.4168 83.2406 33.4168Z" fill="#EC615B"/>
<path d="M226.371 452.448C229.451 452.448 231.948 449.959 231.948 446.889C231.948 443.819 229.451 441.331 226.371 441.331C223.29 441.331 220.793 443.819 220.793 446.889C220.793 449.959 223.29 452.448 226.371 452.448Z" fill="#EC615B"/>
<path d="M485.593 35.9135C488.308 35.9135 490.509 33.72 490.509 31.0142C490.509 28.3084 488.308 26.1149 485.593 26.1149C482.878 26.1149 480.677 28.3084 480.677 31.0142C480.677 33.72 482.878 35.9135 485.593 35.9135Z" fill="#EC615B"/>
<path d="M491.88 25.1257C493.551 25.1257 494.906 23.7759 494.906 22.1108C494.906 20.4457 493.551 19.0958 491.88 19.0958C490.209 19.0958 488.855 20.4457 488.855 22.1108C488.855 23.7759 490.209 25.1257 491.88 25.1257Z" fill="#EC615B"/>
<path d="M75.7722 18.3891C79.8969 18.3891 83.2407 15.0567 83.2407 10.946C83.2407 6.83522 79.8969 3.50281 75.7722 3.50281C71.6475 3.50281 68.3037 6.83522 68.3037 10.946C68.3037 15.0567 71.6475 18.3891 75.7722 18.3891Z" fill="#5222D0"/>
<path d="M72.0379 325.066C74.1003 325.066 75.7722 323.4 75.7722 321.345C75.7722 319.289 74.1003 317.623 72.0379 317.623C69.9756 317.623 68.3037 319.289 68.3037 321.345C68.3037 323.4 69.9756 325.066 72.0379 325.066Z" fill="#5222D0"/>
<path d="M203.303 441.66C205.131 441.66 206.612 440.184 206.612 438.363C206.612 436.542 205.131 435.065 203.303 435.065C201.476 435.065 199.995 436.542 199.995 438.363C199.995 440.184 201.476 441.66 203.303 441.66Z" fill="#5222D0"/>
<path d="M467.442 19.0957C471.776 19.0957 475.289 15.5946 475.289 11.2757C475.289 6.95683 471.776 3.45569 467.442 3.45569C463.109 3.45569 459.596 6.95683 459.596 11.2757C459.596 15.5946 463.109 19.0957 467.442 19.0957Z" fill="#5222D0"/>
<path d="M338.256 137.527C339.196 137.527 339.958 136.768 339.958 135.831C339.958 134.894 339.196 134.135 338.256 134.135C337.317 134.135 336.555 134.894 336.555 135.831C336.555 136.768 337.317 137.527 338.256 137.527Z" fill="#5222D0"/>
<path d="M320.814 36.5731C319.822 38.8814 318.876 41.2368 317.884 43.5451C317.553 44.3931 318.924 44.7699 319.254 43.922C320.247 41.6137 321.192 39.2582 322.185 36.9499C322.516 36.102 321.145 35.7251 320.814 36.5731Z" fill="#5222D0"/>
<path d="M320.578 37.7036C322.327 39.5408 323.697 41.6136 324.596 43.9691C324.926 44.817 326.297 44.4401 325.966 43.5922C324.926 41.0012 323.461 38.74 321.57 36.7143C320.956 36.0548 319.916 37.0441 320.578 37.7036Z" fill="#5222D0"/>
<path d="M318.262 44.77C319.632 47.3138 321.192 49.7164 322.941 51.9776C323.509 52.6842 324.738 51.9776 324.17 51.271C322.421 48.9626 320.862 46.5601 319.491 44.0633C319.018 43.2625 317.836 43.9691 318.262 44.77Z" fill="#5222D0"/>
<path d="M324.69 44.0633C324.123 46.7014 323.603 49.3395 323.036 51.9776C322.847 52.8726 324.218 53.2495 324.407 52.3544C324.974 49.7163 325.494 47.0783 326.061 44.4402C326.25 43.5922 324.879 43.2153 324.69 44.0633Z" fill="#5222D0"/>
<path d="M453.971 238.245C452.836 240.318 452.08 242.532 451.749 244.887C451.607 245.783 452.978 246.159 453.12 245.264C453.451 243.05 454.113 240.977 455.2 238.999C455.625 238.151 454.396 237.444 453.971 238.245Z" fill="#5222D0"/>
<path d="M453.876 238.669C454.821 241.166 455.908 243.568 457.137 245.877C457.563 246.678 458.792 245.971 458.366 245.17C457.185 242.956 456.145 240.648 455.247 238.292C454.916 237.444 453.545 237.821 453.876 238.669Z" fill="#5222D0"/>
<path d="M451.465 245.877C452.694 247.62 453.876 249.363 455.105 251.106C455.625 251.86 456.854 251.153 456.334 250.399C455.105 248.656 453.923 246.913 452.694 245.17C452.175 244.416 450.946 245.123 451.465 245.877Z" fill="#5222D0"/>
<path d="M456.618 245.641C455.625 247.007 455.152 248.562 455.152 250.211C455.152 251.106 456.57 251.106 456.57 250.211C456.57 248.797 456.996 247.478 457.847 246.348C458.367 245.594 457.138 244.887 456.618 245.641Z" fill="#5222D0"/>
<path d="M58.5662 371.61C57.2899 374.389 56.0137 377.121 54.7374 379.901C54.3593 380.702 55.5883 381.455 55.9664 380.607C57.2427 377.828 58.5189 375.096 59.7952 372.316C60.1733 371.515 58.9916 370.809 58.5662 371.61Z" fill="#5222D0"/>
<path d="M58.8026 371.987C60.0316 374.907 61.2606 377.828 62.4896 380.749C62.8205 381.597 64.1912 381.22 63.8604 380.372C62.6314 377.451 61.4024 374.53 60.1734 371.61C59.8425 370.762 58.4717 371.139 58.8026 371.987Z" fill="#5222D0"/>
<path d="M54.4067 381.173C55.683 383.67 56.912 386.213 58.1882 388.71C58.4246 389.134 58.9918 389.134 59.3227 388.851C60.3153 388.051 60.788 386.684 61.308 385.601C62.0643 384.094 62.8206 382.586 63.5769 381.079C64.0023 380.278 62.7733 379.571 62.3479 380.372C61.6861 381.691 60.9771 383.01 60.3153 384.329C59.7481 385.46 59.2281 387.014 58.2355 387.815C58.6136 387.862 58.9918 387.909 59.3699 387.956C58.0937 385.46 56.8647 382.916 55.5884 380.419C55.2103 379.665 53.9813 380.372 54.4067 381.173Z" fill="#5222D0"/>
<path d="M534.328 152.649C532.862 155.428 531.964 158.349 531.539 161.458C531.397 162.353 532.815 162.353 532.957 161.458C533.335 158.585 534.186 155.899 535.509 153.355C535.982 152.555 534.753 151.848 534.328 152.649Z" fill="#5222D0"/>
<path d="M534.138 154.298C535.604 157.124 537.022 159.951 538.487 162.777C538.913 163.578 540.142 162.871 539.716 162.071C538.251 159.244 536.833 156.417 535.367 153.591C534.942 152.79 533.713 153.497 534.138 154.298Z" fill="#5222D0"/>
<path d="M531.633 161.647C532.815 164.473 534.233 167.111 535.935 169.608C536.455 170.362 537.684 169.655 537.164 168.901C535.509 166.499 534.091 163.955 533.004 161.27C532.673 160.469 531.302 160.846 531.633 161.647Z" fill="#5222D0"/>
<path d="M538.062 162.259C537.211 164.897 536.502 167.582 536.029 170.362C535.888 171.257 537.258 171.633 537.4 170.738C537.873 168.006 538.535 165.321 539.433 162.636C539.716 161.788 538.346 161.411 538.062 162.259Z" fill="#5222D0"/>
<path d="M528.845 381.361C528.277 383.245 527.757 385.083 527.19 386.967C526.954 387.862 528.277 388.192 528.561 387.344C529.128 385.46 529.648 383.622 530.215 381.738C530.499 380.843 529.128 380.466 528.845 381.361Z" fill="#5222D0"/>
<path d="M528.75 382.397C529.601 384.282 530.499 386.166 531.35 388.003C531.728 388.851 532.957 388.098 532.579 387.297C531.728 385.412 530.83 383.528 529.979 381.691C529.601 380.843 528.372 381.549 528.75 382.397Z" fill="#5222D0"/>
<path d="M527.568 387.862C527.994 390.076 529.034 392.055 530.499 393.751C531.113 394.457 532.106 393.421 531.492 392.761C530.168 391.254 529.317 389.464 528.939 387.532C528.75 386.59 527.379 386.967 527.568 387.862Z" fill="#5222D0"/>
<path d="M531.302 387.674C530.688 389.652 530.404 391.678 530.451 393.704C530.499 394.599 531.917 394.599 531.869 393.704C531.822 391.772 532.059 389.888 532.673 388.051C532.957 387.203 531.586 386.826 531.302 387.674Z" fill="#5222D0"/>
<path d="M40.7459 132.816C39.706 135.077 38.7134 137.338 37.6735 139.6C37.2953 140.4 38.5243 141.154 38.9024 140.306C39.9424 138.045 40.935 135.784 41.9749 133.523C42.3531 132.722 41.1241 131.968 40.7459 132.816Z" fill="#5222D0"/>
<path d="M37.8622 140.777C38.9493 143.557 39.9893 146.289 41.0764 149.068C41.4073 149.916 42.7781 149.54 42.4472 148.692C41.36 145.912 40.3201 143.18 39.233 140.4C38.9021 139.553 37.5313 139.929 37.8622 140.777Z" fill="#5222D0"/>
<path d="M40.746 132.91C42.2113 135.454 43.6766 138.045 45.142 140.589C45.6146 141.39 46.7964 140.683 46.3709 139.882C44.9056 137.339 43.4403 134.748 41.9749 132.204C41.5023 131.403 40.2733 132.11 40.746 132.91Z" fill="#5222D0"/>
<path d="M45.4729 139.977C43.9603 142.803 42.6368 145.724 41.5023 148.692C41.1714 149.54 42.5422 149.916 42.8731 149.069C43.9603 146.195 45.2365 143.368 46.7019 140.683C47.1273 139.882 45.8983 139.176 45.4729 139.977Z" fill="#5222D0"/>
<path d="M397.059 176.25C398.004 174.46 399.8 173.235 401.88 173.329C403.582 173.377 404.858 174.554 406.371 175.12C409.018 176.062 409.821 174.366 411.806 173.094C414.501 171.304 417.101 175.308 419.984 175.261C421.638 175.214 423.009 174.413 423.057 172.67C422.678 172.858 422.347 173.094 421.969 173.282C423.435 174.036 424.9 174.79 426.318 175.591C427.122 176.015 427.831 174.79 427.027 174.366C425.562 173.612 424.096 172.858 422.678 172.058C422.206 171.822 421.638 172.105 421.591 172.67C421.449 176.015 414.926 171.257 413.697 171.115C410.908 170.738 409.821 174.177 407.41 173.801C404.858 173.377 403.251 171.539 400.509 172.01C398.429 172.387 396.728 173.659 395.782 175.544C395.451 176.344 396.633 177.051 397.059 176.25Z" fill="#5222D0"/>
<path d="M415.163 166.687C417.29 164.332 420.646 167.3 423.056 167.582C425.845 167.912 428.02 164.944 430.714 166.452C432.936 167.724 437.001 170.739 438.608 166.876C438.939 166.028 437.568 165.651 437.237 166.499C436.103 169.231 432.038 165.415 430.667 164.85C428.823 164.049 427.594 164.709 425.94 165.51C423.955 166.452 422.537 166.122 420.646 165.274C419.795 164.897 418.944 164.567 417.999 164.426C416.533 164.238 415.21 164.52 414.17 165.651C413.555 166.357 414.548 167.347 415.163 166.687Z" fill="#5222D0"/>
<path d="M376.78 55.5578C377.442 54.333 378.199 54.0032 379.049 54.5685C379.428 54.7098 379.806 54.8983 380.184 55.1338C380.609 55.3223 381.035 55.6049 381.46 55.7462C382.216 55.9818 382.973 56.076 383.729 55.8876C385.762 55.3223 386.801 52.7784 388.976 52.8255C391.008 52.8726 392.474 54.8041 394.601 53.8148C395.499 53.3908 396.113 52.6371 396.964 52.166C398.855 51.1296 401.171 51.5065 402.778 52.8255C403.487 53.3908 404.48 52.4015 403.771 51.8362C401.644 50.0932 398.713 49.575 396.255 50.9412C395.168 51.5536 394.27 52.8726 392.852 52.6842C392.048 52.59 391.339 52.0246 390.583 51.742C389.449 51.318 388.409 51.1767 387.274 51.6949C385.856 52.3544 384.911 54.1917 383.351 54.5214C381.366 54.9454 380.042 52.9197 378.199 52.8726C376.45 52.8255 374.417 54.5214 375.599 56.2644C376.071 57.0182 377.3 56.3115 376.78 55.5578Z" fill="#EC615B"/>
<path d="M392.474 47.2196C393.041 44.1575 398.383 47.1254 400.273 46.7956C401.502 46.6072 402.4 45.7592 403.535 45.3352C405.331 44.6286 407.08 44.9112 408.734 45.9005C409.538 46.3716 410.247 45.1468 409.443 44.6757C408.025 43.8277 406.513 43.4038 404.906 43.5451C404.197 43.5922 403.535 43.7806 402.92 44.0162C401.03 44.817 400.273 45.7121 397.91 45.1468C395.641 44.5815 391.765 43.4509 391.15 46.8427C390.914 47.7378 392.285 48.1146 392.474 47.2196Z" fill="#EC615B"/>
<path d="M34.6008 217.47C35.2153 214.502 39.3277 218.554 40.1313 219.072C41.0294 219.684 42.022 220.108 43.1092 219.873C44.5273 219.637 45.6145 218.459 47.0798 218.13C49.4433 217.611 51.8067 218.365 53.5084 220.061C54.1701 220.721 55.1628 219.684 54.501 219.072C53.0357 217.611 51.2395 216.716 49.1596 216.575C48.1197 216.481 47.0798 216.622 46.0872 216.952C44.5273 217.47 43.2983 218.978 41.4075 218.224C39.4223 217.423 38.666 215.397 36.397 215.162C34.9317 215.021 33.5609 215.586 33.2773 217.093C33.041 217.988 34.4118 218.365 34.6008 217.47Z" fill="#EC615B"/>
<path d="M50.3414 214.078C51.3814 212.665 56.1555 215.492 57.5263 215.821C59.748 216.34 62.0169 216.34 64.2858 216.057C65.1839 215.916 64.8058 214.55 63.9076 214.691C59.9843 215.209 56.9591 214.173 53.4139 212.759C51.8068 212.147 50.1996 211.911 49.1124 213.372C48.5925 214.078 49.8215 214.785 50.3414 214.078Z" fill="#EC615B"/>
<path d="M165.583 312.818C166.339 311.64 167.521 310.887 168.986 310.887C170.215 310.887 170.972 311.64 172.059 311.97C173.146 312.347 174.044 312.112 174.989 311.499C176.833 310.274 177.731 308.767 180.236 308.861C182.505 308.908 184.679 309.992 186.665 310.981C187.468 311.405 188.177 310.18 187.374 309.756C183.64 307.872 179.102 306.082 175.509 309.144C174.706 309.803 174.611 309.992 173.382 310.227C172.011 310.51 172.153 310.321 171.113 309.897C170.215 309.521 169.364 309.379 168.372 309.473C166.623 309.662 165.252 310.651 164.354 312.064C163.881 312.865 165.11 313.572 165.583 312.818Z" fill="#EC615B"/>
<path d="M181.324 315.55C183.545 313.619 187.752 317.67 190.494 317.293C192.148 317.058 192.905 315.833 193.992 314.702C196.072 312.488 199.191 312.158 201.744 313.807C202.5 314.278 203.209 313.101 202.453 312.582C200.609 311.405 198.435 311.028 196.308 311.64C195.363 311.923 194.512 312.347 193.755 312.959C192.621 313.902 191.912 315.597 190.305 315.88C186.854 316.493 183.593 311.687 180.331 314.561C179.669 315.173 180.662 316.163 181.324 315.55Z" fill="#EC615B"/>
<path d="M116.849 13.3956C117.227 11.841 118.125 10.6162 119.638 9.9567C120.961 9.39139 122.048 9.76826 123.419 9.72115C124.932 9.62694 126.066 8.87319 126.964 7.74259C128.335 6.04667 129.233 4.30366 131.171 3.17305C133.393 1.90111 135.945 1.66558 138.403 2.41931C139.302 2.70197 139.632 1.33581 138.782 1.05316C134.244 -0.312992 129.753 1.43003 127.012 5.24583C125.924 6.75331 125.121 8.26079 123.041 8.3079C121.765 8.355 120.678 8.07235 119.449 8.49633C117.369 9.20296 115.951 10.946 115.478 13.0188C115.242 13.9138 116.612 14.2907 116.849 13.3956Z" fill="#EC615B"/>
<path d="M123.513 18.8131C121.481 13.4427 131.218 13.7253 134.149 12.6889C137.789 11.417 140.908 9.1558 143.981 6.89458C144.69 6.37639 143.981 5.15156 143.272 5.66976C141.192 7.22434 139.065 8.73182 136.796 9.95664C133.96 11.4641 131.266 11.9352 128.193 12.4063C124.932 12.9245 120.677 15.1857 122.19 19.1428C122.474 19.9908 123.844 19.661 123.513 18.8131Z" fill="#EC615B"/>
<path d="M312.022 288.887C315.615 279.512 321.712 273.388 327.999 267.029C336.271 258.69 351.634 243.192 367.28 245.641C380.609 247.714 379.144 260.48 397.437 269.761C414.69 278.57 421.308 269.855 438.514 279.324C441.066 280.737 459.076 290.96 463.188 310.274C464.89 318.283 464.465 329.259 460.919 330.295C456.902 331.473 455.531 308.39 439.459 299.345C427.169 292.42 410.247 295.765 408.876 300.711C407.411 305.94 424.38 309.379 433.976 327.563C438.183 335.477 439.081 342.685 440.357 352.578C441.539 361.905 442.863 381.031 438.514 382.162C434.921 383.104 432.983 370.338 419.795 359.88C412.847 354.368 405.426 352.107 390.583 347.584C377.206 343.533 370.447 341.554 366.807 344.852C361.418 349.751 365.578 362.188 366.334 364.402C371.628 380.231 385.147 386.826 384.155 388.522C382.831 390.642 358.157 384.518 338.02 364.873C320.814 348.055 301.576 316.069 312.022 288.887Z" fill="#EC615B"/>
<path d="M466.355 343.486C466.166 344.805 465.174 352.154 469.522 356.865C474.344 362.047 480.205 358.089 486.114 363.224C491.55 367.935 490.841 375.001 492.495 374.86C494.386 374.719 497.269 365.156 493.204 359.361C491.928 357.524 488.808 355.875 482.616 352.672C476.282 349.374 475.431 349.516 473.777 347.726C469.664 343.297 470.279 337.503 468.813 337.503C467.679 337.503 466.686 340.989 466.355 343.486Z" fill="#EC615B"/>
<path d="M425.704 398.791C423.057 402.748 423.34 406.988 423.577 411.464C423.86 416.033 424.049 419.755 426.744 423.099C429.816 426.915 434.921 428.517 435.583 427.669C436.103 427.009 433.787 425.219 431.707 421.309C431.471 420.838 428.398 415.044 428.54 408.26C428.682 399.781 433.692 394.74 432.416 393.845C431.471 393.138 427.831 395.588 425.704 398.791Z" fill="#EC615B"/>
<path d="M444.659 320.685C452.6 325.914 448.251 338.021 453.451 345.088C453.971 345.794 455.2 345.088 454.68 344.381C449.291 337.032 453.876 325.066 445.368 319.46C444.612 318.942 443.902 320.167 444.659 320.685Z" fill="#EC615B"/>
<path d="M441.823 286.579C450.331 293.08 456.239 302.36 458.603 312.771C458.792 313.666 460.163 313.289 459.974 312.394C457.516 301.606 451.371 292.09 442.579 285.401C441.775 284.788 441.066 286.013 441.823 286.579Z" fill="#5222D0"/>
<path d="M414.407 312.677C421.213 318.236 426.555 325.349 429.864 333.499C430.195 334.347 431.565 333.97 431.234 333.122C427.784 324.737 422.442 317.435 415.399 311.687C414.738 311.122 413.698 312.111 414.407 312.677Z" fill="#5222D0"/>
<path d="M433.173 341.272C434.449 344.664 435.3 348.102 435.631 351.683C435.725 352.578 437.143 352.578 437.049 351.683C436.671 347.961 435.82 344.381 434.496 340.895C434.26 340.047 432.889 340.424 433.173 341.272Z" fill="#5222D0"/>
<path d="M360.426 349.092C359.244 356.205 360.615 363.318 364.491 369.443C364.963 370.196 366.192 369.49 365.72 368.736C362.08 362.989 360.662 356.205 361.796 349.468C361.938 348.573 360.567 348.197 360.426 349.092Z" fill="#5222D0"/>
<path d="M366.382 373.306C368.083 376.415 370.258 379.194 372.858 381.597C373.519 382.209 374.512 381.22 373.85 380.608C371.345 378.252 369.265 375.567 367.611 372.599C367.185 371.798 365.956 372.505 366.382 373.306Z" fill="#5222D0"/>
<path d="M312.117 301.512C311.739 305.987 312.164 310.415 313.44 314.749C313.677 315.644 315.047 315.268 314.811 314.373C313.582 310.133 313.157 305.893 313.535 301.512C313.629 300.617 312.211 300.617 312.117 301.512Z" fill="#5222D0"/>
<path d="M314.858 319.555C315.614 323.229 316.985 326.621 318.971 329.824C319.443 330.578 320.672 329.871 320.2 329.118C318.309 326.008 316.985 322.758 316.229 319.178C316.04 318.33 314.669 318.707 314.858 319.555Z" fill="#5222D0"/>
<path d="M191.439 25.0786C190.116 28.6589 188.508 33.5582 186.949 39.4939C185.341 45.6651 181.56 61.9176 181.938 83.3049C182.316 103.938 186.381 119.107 190.116 132.628C195.93 153.732 203.02 168.901 207.227 177.711C207.227 177.711 220.604 205.929 242.773 236.172C246.696 241.496 251.707 248.232 251.707 248.232C255.347 253.084 258.466 257.136 260.641 260.056C262.39 262.035 264.611 264.249 267.495 266.369C272.883 270.373 278.225 272.399 281.959 273.435C288.104 268.206 294.249 262.93 300.394 257.701C303.183 260.339 306.019 262.93 308.808 265.568C312.684 261.611 316.134 258.455 318.829 256.146C330.552 246.018 340.242 240.836 342.511 239.611C344.449 238.575 346.103 237.774 347.237 237.256C345.488 233.77 343.74 230.284 341.991 226.751C344.827 224.301 348.088 221.71 351.728 219.166C356.644 215.727 361.371 212.948 365.672 210.781C365.625 206.824 365.105 200.841 362.505 194.246C360.567 189.299 358.251 185.955 357.258 184.541C346.339 168.854 378.529 212.1 336.46 152.272C320.152 129.094 312.022 117.459 308.288 112.654C296.612 97.4375 287.442 87.0265 280.919 79.6304C268.44 65.4507 262.815 60.1745 258.277 56.3116C252.085 50.9413 245.231 45.1469 234.879 39.7765C228.356 36.4318 222.967 34.5946 215.121 31.9094C205.431 28.6118 197.253 26.4448 191.439 25.0786Z" fill="white"/>
<path d="M189.974 25.9266C179.716 57.4423 179.716 91.4547 187.09 123.583C188.934 131.638 191.25 139.6 193.992 147.373C195.362 151.33 197.017 155.193 198.482 159.103C199.002 160.469 199.097 161.835 199.711 163.201C200.609 165.321 201.555 167.441 202.5 169.561C204.249 173.518 206.093 177.428 208.031 181.338C209.969 185.201 212.332 188.875 214.081 192.785C214.743 194.246 215.31 195.8 216.066 197.214C217.059 199.004 218.524 200.37 219.564 202.113C221.739 205.74 223.818 209.462 226.087 213.042C236.439 229.671 248.209 245.359 260.263 260.763C260.83 261.47 261.823 260.481 261.255 259.774C250.62 246.16 240.221 232.357 230.861 217.894C228.545 214.314 226.324 210.734 224.149 207.059C223.109 205.316 222.069 203.526 221.077 201.736C220.084 199.993 218.761 198.768 217.721 197.072C216.87 195.659 216.255 194.152 215.641 192.644C214.79 190.618 213.656 188.781 212.616 186.85C210.63 183.222 208.787 179.548 207.038 175.826C205.194 171.916 203.445 167.959 201.697 164.002C200.94 162.259 200.657 160.422 199.948 158.632C199.191 156.7 198.388 154.769 197.631 152.79C194.748 145.206 192.243 137.48 190.163 129.613C186.003 113.69 183.593 97.3433 183.356 80.8553C183.12 62.3416 185.672 43.8279 191.439 26.1621C191.581 25.4555 190.21 25.0786 189.974 25.9266Z" fill="black"/>
<path d="M190.636 25.9266C198.529 26.539 206.565 29.2713 213.986 31.8622C221.313 34.4532 228.545 37.2797 235.257 41.1427C248.635 48.8685 260.452 58.9968 271.229 70.0202C282.337 81.3734 292.453 93.8572 302.237 106.341C311.975 118.778 321.287 131.638 330.268 144.64C340.194 159.103 349.743 173.848 359.102 188.734C359.575 189.488 360.804 188.781 360.331 188.027C343.172 160.846 325.446 133.994 305.735 108.555C286.686 83.9173 266.266 58.7613 239.512 42.0377C232.232 37.4682 224.433 34.1706 216.397 31.2027C208.267 28.2349 199.38 25.1728 190.683 24.4662C189.737 24.4662 189.737 25.8794 190.636 25.9266Z" fill="black"/>
<path d="M262.295 260.339C284.323 237.962 309.092 218.318 335.893 201.924C343.456 197.308 351.114 192.974 358.96 188.922C359.764 188.498 359.055 187.274 358.251 187.698C330.41 202.207 304.317 220.061 280.825 240.836C274.113 246.772 267.589 252.943 261.303 259.35C260.641 260.009 261.634 260.999 262.295 260.339Z" fill="black"/>
<path d="M260.924 261.423C266.549 267.688 273.876 272.116 282.054 274.095C282.952 274.33 283.33 272.964 282.432 272.729C274.443 270.75 267.4 266.51 261.917 260.386C261.302 259.727 260.31 260.763 260.924 261.423Z" fill="black"/>
<path d="M358.724 189.299C362.411 195.753 364.538 202.867 365.011 210.263C365.058 211.158 366.476 211.158 366.429 210.263C365.956 202.584 363.734 195.282 359.953 188.593C359.528 187.792 358.299 188.499 358.724 189.299Z" fill="black"/>
<path d="M282.905 273.718C308.477 250.446 336.177 229.624 365.72 211.582C366.476 211.111 365.767 209.886 365.011 210.357C335.421 228.447 307.579 249.363 281.912 272.729C281.25 273.341 282.243 274.33 282.905 273.718Z" fill="black"/>
<path d="M300.725 258.549C303.325 261.093 305.925 263.637 308.524 266.228C308.808 266.51 309.281 266.51 309.517 266.228C317.175 258.125 325.778 250.964 335.184 244.982C337.453 243.521 339.769 242.155 342.133 240.836C343.645 239.988 346.529 239.187 347.427 237.586C348.372 235.984 346.954 233.817 346.198 232.451C344.874 230.048 343.314 227.834 341.613 225.761C341.045 225.055 340.053 226.044 340.62 226.751C342.274 228.776 343.74 230.896 344.969 233.157C345.252 233.628 345.867 234.429 345.914 234.995C345.725 235.843 345.536 236.643 345.347 237.491C345.111 237.633 344.874 237.727 344.638 237.868C343.692 238.575 342.464 238.999 341.424 239.611C337.311 241.92 333.293 244.416 329.417 247.101C321.854 252.425 314.858 258.502 308.524 265.191C308.855 265.191 309.186 265.191 309.517 265.191C306.917 262.647 304.318 260.103 301.718 257.512C301.056 256.9 300.063 257.889 300.725 258.549Z" fill="black"/>
<path d="M193.33 142.426C204.958 128.765 218.572 116.94 232.516 105.681C246.508 94.4224 261.161 83.8701 277.563 76.3798C278.414 76.003 277.658 74.7781 276.854 75.155C260.594 82.5511 246.082 93.0092 232.185 104.127C218.004 115.527 204.155 127.54 192.337 141.39C191.723 142.144 192.716 143.133 193.33 142.426Z" fill="black"/>
<path d="M277.847 82.9751C276.287 83.0694 275.625 80.4784 277.374 80.3371C277.989 80.29 278.698 80.5726 278.934 81.185C279.265 82.0801 278.414 83.0223 277.516 83.0223C276.854 83.0223 276.807 84.1057 277.516 84.1057C278.981 84.1057 280.258 82.7396 280.021 81.2792C279.832 80.0544 278.556 79.3007 277.374 79.3478C276.098 79.442 275.105 80.4784 275.247 81.7503C275.389 83.0222 276.523 84.2 277.847 84.1057C278.556 84.0115 278.556 82.928 277.847 82.9751Z" fill="black"/>
<path d="M350.026 187.179C350.073 187.179 350.073 187.179 350.121 187.132C349.979 187.132 349.837 187.085 349.695 187.085C350.215 187.321 349.932 186.331 349.884 186.19C349.884 186.049 349.932 185.86 349.979 185.719C350.121 185.436 350.357 185.154 350.641 185.012C351.255 184.73 351.917 185.201 352.106 185.813C352.484 187.038 350.688 187.651 350.215 186.567C349.932 185.955 349.034 186.473 349.317 187.085C349.884 188.404 351.822 188.498 352.768 187.509C353.855 186.331 353.051 184.353 351.586 183.929C350.026 183.505 348.514 185.154 348.892 186.661C349.034 187.274 349.837 188.027 350.452 187.415C350.924 186.944 350.452 185.908 349.743 186.19C349.128 186.426 349.412 187.415 350.026 187.179Z" fill="black"/>
<path opacity="0.15" d="M191.439 25.3613C198.907 30.1664 209.023 37.2327 220.084 46.7015C226.938 52.5901 244.711 68.3715 266.927 98.9921C291.035 132.204 303.088 148.786 305.499 167.3C306.728 176.957 308.429 204.468 284.086 238.292C294.154 230.661 304.27 222.982 314.338 215.351C318.734 222.558 323.083 229.766 327.479 236.973C322.752 240.459 318.025 243.898 313.298 247.384C315.614 250.164 317.931 252.896 320.247 255.676C323.083 252.943 326.486 250.022 330.41 247.149C336.46 242.721 342.274 239.564 347.285 237.256C345.394 233.629 343.55 229.954 341.66 226.327C349.79 221.004 357.92 215.633 366.05 210.31C365.625 206.306 364.632 200.511 362.032 194.01C359.007 186.379 355.178 181.291 353.713 179.312C343.125 165.038 348.277 168.477 326.108 137.433C310.178 115.103 301.386 102.62 287.3 86.4612C278.272 76.0973 272.269 69.2666 262.673 60.8341C252.463 51.8364 240.079 41.1427 221.171 33.3227C209.118 28.4234 198.529 26.3506 191.439 25.3613Z" fill="#494949"/>
<path opacity="0.11" d="M343.22 162.212C342.794 165.227 341.944 169.843 339.816 175.072C334.9 187.179 327.337 192.455 311.55 208.378C304.081 215.916 292.973 227.08 294.013 228.305C295.006 229.483 307.154 220.155 328.377 206.211C340.809 198.014 351.256 191.655 358.109 187.509C353.146 179.077 348.183 170.644 343.22 162.212Z" fill="#494949"/>
<path opacity="0.08" d="M359.102 188.922C358.44 189.064 360.048 194.198 358.11 200.605C356.691 205.316 354.281 207.577 348.372 214.691C345.82 217.753 342.085 222.369 337.642 228.305C346.907 221.993 356.171 215.68 365.436 209.367C361.229 192.691 359.669 188.828 359.102 188.922Z" fill="#494949"/>
<path d="M279.265 343.109C279.407 344.475 279.927 345.559 280.73 346.878C284.133 352.342 289.758 355.687 293.824 357.618C292.216 362.659 290.278 369.914 288.86 378.77C287.537 387.297 285.977 397.237 288.01 397.896C288.719 398.132 290.798 397.472 310.131 359.314C312.826 353.991 315.047 349.563 316.513 346.548C306.208 341.931 295.951 337.268 285.646 332.651C284.653 333.405 278.745 337.692 279.265 343.109Z" fill="#161616" stroke="#161616" stroke-width="2" stroke-miterlimit="10"/>
<path d="M257.71 238.905C249.013 244.935 243.388 250.776 238.377 256.052C236.344 258.172 226.607 268.489 216.35 284.694C211.812 291.855 208.456 298.167 206.14 302.925C206.423 304.857 207.085 307.636 208.834 310.416C210.772 313.525 212.946 314.891 216.35 317.906C220.509 321.58 222.022 323.747 224.433 326.197C229.112 331.002 235.683 334.63 248.634 341.743C264.895 350.646 273.64 353.897 276.334 354.886C279.643 356.064 282.432 356.959 284.417 357.571C285.362 353.19 286.497 348.527 287.915 343.627C289.191 339.246 290.562 335.148 291.933 331.332C281.864 323.983 271.513 315.739 261.019 306.411C257.379 303.208 253.881 299.958 250.525 296.754C253.929 292.656 258.703 287.285 264.753 281.491C266.502 279.795 270.189 276.309 274.68 272.635C280.352 268.065 288.908 261.941 300.725 256.288C302.757 242.768 300.347 230.143 292.925 226.044C283.661 220.956 269.575 230.708 257.71 238.905Z" fill="white"/>
<path d="M248.162 245.924C231.428 260.057 217.579 277.534 207.747 297.084C206.754 299.11 205.336 301.371 205.147 303.632C204.958 306.035 206.423 307.872 207.747 309.709C210.914 313.996 214.506 318 218.335 321.722C226.465 329.495 235.824 335.901 245.656 341.319C257.757 348.008 270.567 353.332 283.33 358.608C284.181 358.938 284.559 357.571 283.708 357.242C262.815 348.574 241.497 339.717 224.055 324.972C220.131 321.628 216.397 318.047 213.041 314.137C211.292 312.064 209.543 309.945 208.03 307.731C207.085 306.364 206.376 305.092 206.612 303.349C206.849 301.654 207.841 300.052 208.598 298.497C213.135 289.311 218.571 280.596 224.811 272.446C231.948 263.072 240.126 254.545 249.154 246.96C249.863 246.348 248.871 245.359 248.162 245.924Z" fill="black"/>
<path d="M288.246 262.176C272.032 272.635 257.852 285.872 246.365 301.324C245.845 302.077 247.074 302.784 247.594 302.03C258.939 286.767 272.978 273.671 288.955 263.354C289.711 262.93 289.002 261.705 288.246 262.176Z" fill="black"/>
<path d="M249.722 297.461C263.004 309.426 276.665 320.921 290.751 331.897C291.46 332.463 292.453 331.473 291.744 330.908C277.658 319.932 263.95 308.437 250.714 296.472C250.053 295.859 249.06 296.848 249.722 297.461Z" fill="black"/>
<path d="M290.798 331.709C287.82 340.094 285.504 348.668 283.803 357.383C283.613 358.278 284.984 358.655 285.173 357.76C286.875 349.045 289.238 340.471 292.169 332.086C292.453 331.238 291.082 330.861 290.798 331.709Z" fill="black"/>
<path opacity="0.11" d="M276.003 256.9C269.48 257.466 264.564 262.224 249.391 283.234C243.577 291.29 238.708 298.309 234.974 303.868C240.362 307.636 244.617 310.745 247.311 312.771C262.39 324.03 268.724 330.343 281.533 337.22C284.322 338.728 286.639 339.811 288.009 340.424C289.097 337.456 290.184 334.488 291.224 331.52C287.631 328.411 284.039 325.349 280.399 322.24C270.378 313.76 260.452 305.563 250.572 297.602C254.685 291.855 258.561 287.521 261.397 284.553C269.764 275.838 278.083 269.949 284.559 265.427C286.78 263.872 288.671 262.647 289.9 261.847C283.802 257.183 279.028 256.618 276.003 256.9Z" fill="#494949"/>
<path opacity="0.08" d="M277.894 269.196C273.829 270.138 268.393 271.975 262.862 275.65C249.343 284.647 244.805 298.403 243.482 303.114C250.761 308.767 258.277 314.467 266.076 320.167C273.64 325.726 281.155 331.002 288.482 336.09C289.569 334.535 290.656 332.934 291.696 331.379C281.628 324.077 271.182 315.645 260.735 305.988C257.426 302.973 254.259 299.911 251.234 296.896C252.888 294.729 254.685 292.514 256.575 290.253C263.666 281.868 270.945 274.943 277.894 269.196Z" fill="#494949"/>
<path d="M367.374 327.704C372.385 332.415 377.442 337.173 382.453 341.884C381.129 371.939 383.635 379.006 386.282 379.524C390.394 380.325 397.437 366.145 400.51 354.98C402.826 346.501 403.062 339.058 402.826 334.017C394.979 327.045 387.132 320.073 379.286 313.054C375.315 317.953 371.345 322.852 367.374 327.704Z" fill="#161616" stroke="#161616" stroke-width="2" stroke-miterlimit="10"/>
<path d="M269.007 242.956C269.433 250.776 274.916 255.534 274.916 255.534C278.319 258.502 282.148 259.303 284.039 259.538C285.551 260.151 287.064 260.81 288.624 261.423C290.987 264.815 294.485 269.62 299.118 275.084C305.263 282.433 313.535 291.195 333.766 307.778C343.74 315.927 356.597 325.962 372.148 336.985C374.37 335.901 377.017 334.3 379.664 331.944C385.478 326.809 388.172 320.827 389.401 317.435C386.66 314.797 382.595 310.84 377.868 305.94C356.88 284.318 342.889 265.804 332.206 251.577C325.163 242.202 316.134 229.719 306.161 214.644C283.33 220.862 268.44 232.922 269.007 242.956Z" fill="white"/>
<path d="M276.334 257.324C280.116 258.643 283.85 259.915 287.631 261.234C288.482 261.517 288.86 260.151 288.01 259.868C284.228 258.549 280.494 257.277 276.712 255.958C275.861 255.675 275.483 257.042 276.334 257.324Z" fill="black"/>
<path d="M286.072 259.821C303.845 284.176 326.865 303.868 350.736 322.099C357.59 327.328 364.538 332.51 371.487 337.644C372.243 338.21 372.905 336.938 372.196 336.42C348.278 318.754 324.218 300.853 303.892 279.088C297.983 272.776 292.453 266.086 287.348 259.114C286.781 258.408 285.552 259.114 286.072 259.821Z" fill="black"/>
<path d="M313.96 226.986C330.694 252.566 349.554 276.686 370.352 299.11C376.355 305.611 382.548 311.923 388.834 318.094C389.496 318.754 390.489 317.717 389.827 317.105C367.941 295.718 347.899 272.493 329.937 247.761C324.832 240.742 319.916 233.581 315.142 226.28C314.669 225.526 313.44 226.232 313.96 226.986Z" fill="black"/>
<path d="M388.03 317.199C385.289 325.302 379.995 332.839 372.006 336.42C371.155 336.796 371.912 338.021 372.715 337.644C381.035 333.923 386.518 326.008 389.354 317.576C389.685 316.728 388.314 316.351 388.03 317.199Z" fill="black"/>
<path opacity="0.09" d="M314.008 226.232C311.313 222.605 309.044 219.637 307.532 217.706C306.019 220.485 303.939 225.149 303.75 230.943C303.325 244.04 312.968 249.645 340.62 280.172C352.674 293.457 359.055 301.465 374.606 317.293C378.246 320.968 381.319 324.03 383.54 326.197C385.242 323.229 386.944 320.261 388.692 317.293C373.708 302.313 361.844 288.793 352.957 278.099C344.402 267.782 336.744 258.549 328.85 247.055C326.817 244.181 321.665 236.502 314.008 226.232Z" fill="#494949"/>
<path opacity="0.09" d="M322.374 239.47C323.036 242.721 324.407 248.232 327.101 254.639C334.9 272.917 346.434 280.643 367.185 303.491C371.156 307.872 377.3 314.797 384.485 323.747C386.14 321.392 387.794 319.084 389.449 316.728C387.936 315.315 385.525 313.101 382.595 310.274C377.206 305.092 362.6 290.63 334.711 255.346C331.686 251.577 327.432 246.112 322.374 239.47Z" fill="#494949"/>
<path d="M168.937 197.826C167.991 198.203 166.573 199.004 162.366 205.74C157.829 212.995 154.756 217.941 152.487 225.761C150.502 232.734 150.029 239.093 150.171 244.275C150.502 245.783 150.738 247.997 149.982 250.446C148.989 253.556 147.193 254.309 143.79 258.549C142.419 260.245 140.15 263.119 138.354 267.029C136.368 271.41 137.361 271.975 135.47 276.262C133.201 281.397 129.845 284.93 129.278 285.495C126.158 288.746 124.646 288.84 123.275 291.666C121.715 294.87 122.188 297.885 122.33 298.78C122.424 299.439 123.417 305.187 126.773 305.893C127.671 306.082 129.089 305.987 129.656 305.139C130.554 303.82 128.475 301.983 128.096 298.78C127.765 295.859 129.042 293.504 129.845 292.043C132.256 287.568 135.045 288.227 137.597 284.506C140.055 280.831 137.739 279.701 140.103 272.776C141.426 268.913 142.75 265.05 146.295 262.176C147.902 260.857 149.462 260.151 150.927 257.937C152.204 256.005 152.676 254.074 152.865 252.755C155.465 256.9 158.207 259.585 160.192 261.234C162.839 263.401 165.864 265.945 168.417 265.003C169.788 264.485 171.017 262.93 170.78 261.847C170.638 261.234 170.071 261.046 168.606 259.727C168.606 259.727 168.039 259.209 166.762 257.842C165.912 256.947 164.683 255.299 163.595 252.189C164.021 251.718 165.108 250.682 166.573 250.588C168.18 250.541 169.409 251.671 170.638 252.896C172.955 255.157 172.86 256.523 174.325 257.89C175.46 258.973 177.54 260.104 181.652 259.821C181.463 259.303 181.132 258.455 180.707 257.513C179.241 254.356 178.485 254.027 178.391 252.708C178.343 251.671 178.769 251.389 180.707 248.091C182.361 245.264 183.165 243.851 183.212 243.097C183.448 240.318 181.038 239.376 180.518 236.172C180.045 233.487 181.227 231.32 182.078 229.624C186.993 219.684 190.113 213.372 189.215 208.614C187.844 201.171 175.933 194.905 168.937 197.826Z" fill="#161616"/>
<path d="M166.765 199.522C159.911 206.494 155.515 215.35 152.584 224.584C149.748 233.581 147.621 243.851 152.111 252.66C152.537 253.461 153.766 252.755 153.34 251.954C148.897 243.286 151.308 233.016 154.191 224.207C157.027 215.445 161.234 207.154 167.758 200.511C168.372 199.852 167.379 198.862 166.765 199.522Z" fill="#161616"/>
<path d="M159.675 240.224C160.242 239.941 160.809 239.706 161.376 239.423C161.802 239.659 162.227 239.941 162.653 240.177C163.173 240.648 163.645 241.26 163.976 241.873C164.638 243.003 164.969 244.369 164.874 245.688C164.685 248.232 162.842 250.211 162.369 252.661C162.085 254.168 163.078 255.252 163.929 256.382C165.394 258.314 167.096 260.104 168.939 261.705C169.601 262.318 170.641 261.329 169.932 260.716C168.75 259.633 167.569 258.549 166.529 257.324C164.827 255.393 163.314 253.744 164.496 251.059C165.536 248.703 166.623 246.489 166.15 243.804C165.772 241.731 164.591 239.611 162.747 238.481C161.187 237.539 159.296 237.727 158.446 239.47C158.02 240.318 159.249 241.025 159.675 240.224Z" fill="#161616"/>
<path d="M152.206 252.849C154.948 257.23 158.729 260.857 163.314 263.26C164.685 263.966 167.285 265.615 168.939 264.909C170.499 264.249 170.216 262.365 169.79 261.093C169.507 260.245 168.136 260.622 168.419 261.47C169.507 264.909 164.921 262.506 164.023 262.035C162.558 261.281 161.187 260.386 159.864 259.35C157.264 257.324 155.137 254.875 153.388 252.095C152.962 251.388 151.733 252.095 152.206 252.849Z" fill="#161616"/>
<path d="M184.774 209.603C181.986 218.931 180.237 228.541 179.433 238.245C179.386 238.528 179.669 238.858 179.953 238.905C182.931 239.706 182.506 243.38 181.418 245.453C180.331 247.431 178.629 249.08 177.779 251.2C176.266 255.016 180.757 256.241 180.662 259.585C180.898 259.35 181.135 259.114 181.371 258.879C177.117 258.643 173.524 256.382 171.397 252.708C169.885 250.069 168.136 249.504 165.111 249.693C164.212 249.74 164.212 251.153 165.111 251.106C166.245 251.059 167.616 250.917 168.656 251.483C169.554 252.001 169.837 252.896 170.31 253.697C171.114 255.063 172.154 256.288 173.383 257.277C175.699 259.161 178.393 260.104 181.324 260.292C181.702 260.292 182.033 259.962 182.033 259.585C182.08 257.607 180.757 256.429 179.669 254.922C177.4 251.765 181.135 248.845 182.6 246.159C184.207 243.239 184.16 238.528 180.284 237.539C180.473 237.774 180.615 238.01 180.804 238.198C181.56 228.588 183.356 219.166 186.098 209.933C186.382 209.132 185.011 208.755 184.774 209.603Z" fill="#161616"/>
<path d="M149.701 244.699C150.032 247.526 149.654 250.305 148.283 252.849C147.007 255.251 144.927 256.994 142.894 258.832C139.302 262.176 137.647 265.851 136.513 270.562C135.284 275.555 133.819 279.559 130.179 283.328C127.437 286.108 124.223 288.699 122.521 292.326C120.867 295.859 121.103 299.958 123.23 303.255C124.459 305.187 128.666 309.049 130.273 305.375C130.935 303.868 130.179 301.983 129.659 300.523C129.186 299.251 128.572 297.979 128.572 296.566C128.572 294.587 129.706 292.891 131.03 291.525C134.244 288.18 138.356 286.296 139.774 281.538C140.578 278.853 140.011 276.168 140.2 273.435C140.436 270.043 142.043 267.17 144.501 264.862C148.236 261.328 153.199 258.408 153.199 252.66C153.199 251.765 151.781 251.765 151.781 252.66C151.733 258.172 146.345 260.904 142.941 264.39C140.294 267.076 138.782 270.467 138.734 274.236C138.687 276.733 139.113 279.088 138.262 281.491C137.316 284.223 135.331 286.06 133.157 287.851C130.368 290.065 127.154 292.656 127.154 296.566C127.154 298.45 128.099 300.146 128.666 301.936C128.808 302.407 129.328 303.679 129.092 304.056C128.619 304.103 128.099 304.197 127.626 304.244C126.775 304.763 126.114 304.668 125.641 303.962C124.601 303.302 123.703 301.324 123.325 300.193C121.812 295.765 123.892 291.808 126.87 288.604C129.375 285.872 132.306 283.564 134.386 280.454C136.607 277.157 137.269 273.247 138.215 269.478C138.924 266.746 139.869 264.108 141.76 261.941C143.414 260.009 145.494 258.549 147.196 256.665C150.221 253.367 151.592 249.08 151.072 244.699C151.024 243.804 149.606 243.804 149.701 244.699Z" fill="#161616"/>
<path d="M119.021 187.321C118.029 187.886 116.185 188.875 115.807 190.948C115.334 193.256 116.989 195.141 117.225 195.376C116.942 195.706 116.091 196.695 115.996 198.203C115.902 200.7 118.123 202.16 118.218 202.254C118.123 202.348 116.753 203.762 117.225 205.693C117.603 207.342 119.069 208.049 119.258 208.096C119.163 208.378 118.832 209.603 119.447 210.734C120.392 212.43 122.661 212.335 122.897 212.335C124.505 212.241 126.017 211.158 126.726 209.509C127.624 210.027 129.988 211.252 133.202 210.922C135.376 210.687 136.984 209.839 137.834 209.321C139.536 212.288 142.183 216.293 146.107 220.391C149.557 223.971 155.986 230.708 165.534 233.487C177.446 236.973 187.987 232.451 194.037 229.86C210.298 222.888 218.381 210.074 221.359 205.269C226.369 197.072 228.118 190.053 229.631 183.693C232.089 173.612 231.238 169.655 230.434 167.347C229.962 165.933 227.173 157.831 220.744 156.889C215.497 156.088 211.149 160.563 210.629 161.128C208.832 163.013 207.887 165.509 205.996 170.409C205.051 172.906 204.436 174.79 204.153 175.638C201.08 185.578 199.52 190.524 199.095 191.561C197.961 194.387 195.266 200.841 188.79 205.882C182.598 210.687 176.122 211.723 173.239 212.147C168.89 212.759 163.549 213.513 157.876 210.734C151.542 207.625 148.706 201.972 147.95 200.464C145.681 195.8 145.256 190.618 144.925 186.944C144.499 182.233 144.83 178.559 142.089 175.638C141.569 175.12 140.34 173.801 139.063 174.036C137.22 174.413 136.18 177.946 135.235 181.291C134.431 184.117 134.667 184.447 134.006 185.107C132.635 186.473 130.886 185.766 124.883 186.096C121.385 186.332 120.156 186.708 119.021 187.321Z" fill="white"/>
<path d="M128.808 185.295C123.703 184.353 114.722 185.672 115.431 192.644C116.045 198.909 123.514 199.993 128.004 197.261C128.761 196.79 128.051 195.565 127.295 196.036C123.561 198.297 116.802 197.685 116.802 192.032C116.802 186.567 124.506 185.955 128.43 186.661C129.328 186.85 129.706 185.483 128.808 185.295Z" fill="black"/>
<path d="M116.66 194.952C111.555 201.171 123.844 208.991 127.484 201.171C127.862 200.37 126.633 199.616 126.255 200.464C123.419 206.494 113.965 200.464 117.7 195.942C118.267 195.282 117.274 194.246 116.66 194.952Z" fill="black"/>
<path d="M116.943 201.265C115.856 203.715 116.612 206.824 119.118 208.096C121.576 209.368 124.648 208.19 125.924 205.834C126.35 205.034 125.121 204.327 124.695 205.128C123.75 206.777 121.623 207.719 119.827 206.871C118.03 206.023 117.369 203.715 118.172 201.972C118.55 201.171 117.321 200.464 116.943 201.265Z" fill="black"/>
<path d="M118.078 207.577C117.889 210.074 119.354 212.335 121.907 212.854C124.27 213.325 126.444 211.77 127.248 209.65C127.579 208.802 126.208 208.425 125.877 209.273C125.263 210.875 123.561 211.911 121.859 211.393C120.11 210.875 119.401 209.273 119.496 207.577C119.543 206.682 118.125 206.682 118.078 207.577Z" fill="black"/>
<path d="M122.568 192.173C123.797 192.032 125.074 192.079 126.113 192.785C127.106 193.445 127.673 194.764 127.106 195.847C126.681 196.648 127.91 197.355 128.335 196.554C129.091 195.094 128.76 193.398 127.626 192.22C126.35 190.854 124.317 190.571 122.521 190.76C121.67 190.901 121.67 192.314 122.568 192.173Z" fill="black"/>
<path d="M126.965 210.592C129.423 209.697 131.786 211.723 134.338 211.44C136.277 211.205 137.978 210.168 139.585 209.226C140.342 208.755 139.633 207.53 138.876 208.001C136.466 209.462 134.386 210.498 131.502 209.65C129.753 209.132 128.383 208.567 126.586 209.226C125.736 209.556 126.066 210.922 126.965 210.592Z" fill="black"/>
<path d="M128.43 186.52C130.888 187.368 134.196 187.509 135.567 184.824C136.323 183.316 135.851 181.479 136.182 179.878C136.56 177.711 137.789 175.92 139.49 174.554C140.2 173.989 139.207 173 138.498 173.565C136.654 175.073 135.331 177.145 134.858 179.501C134.622 180.82 134.953 182.374 134.575 183.646C133.724 186.19 130.888 185.86 128.902 185.154C127.957 184.871 127.579 186.237 128.43 186.52Z" fill="black"/>
<path d="M138.451 174.648C142.468 175.167 142.988 181.903 143.65 184.965C144.454 188.97 144.879 193.021 145.635 197.025C146.864 203.432 150.599 208.52 156.555 211.393C162.794 214.361 169.884 214.22 176.407 212.43C183.12 210.545 190.068 207.153 194.417 201.548C194.984 200.841 193.991 199.852 193.424 200.558C188.886 206.4 181.512 209.839 174.422 211.487C167.285 213.136 159.485 212.524 153.529 207.907C147.101 202.961 146.959 195.518 145.683 188.122C145.068 184.636 144.548 180.867 143.272 177.569C142.468 175.496 141.192 173.612 138.876 173.282C137.931 173.141 137.552 174.507 138.451 174.648Z" fill="black"/>
<path d="M137.411 210.168C143.13 217.141 148.661 225.102 156.224 230.237C163.645 235.23 172.815 235.749 181.418 234.335C198.907 231.415 213.75 219.59 222.258 204.327C227.127 195.659 230.01 186.049 231.287 176.203C231.381 175.308 229.963 175.308 229.869 176.203C227.694 193.021 220.32 209.509 207.179 220.627C200.704 226.091 192.999 230.19 184.727 232.168C176.171 234.241 166.292 234.524 158.493 229.954C150.173 225.102 144.359 216.434 138.403 209.132C137.836 208.473 136.843 209.462 137.411 210.168Z" fill="black"/>
<path d="M221.407 156.7C217.484 155.146 213.324 157.171 210.583 160.045C207.368 163.342 205.761 167.724 204.58 172.058C203.209 177.098 201.98 182.092 200.042 186.944C197.962 192.173 195.315 197.119 192.29 201.83C191.77 202.584 192.999 203.291 193.519 202.537C198.387 195.047 202.122 186.897 204.438 178.276C205.667 173.753 206.47 169.043 208.739 164.944C211.008 160.799 215.83 155.994 221.029 158.066C221.88 158.396 222.258 157.03 221.407 156.7Z" fill="black"/>
<path d="M124.696 206.824C126.019 206.918 125.735 209.132 125.499 209.933C125.216 210.781 126.586 211.158 126.87 210.31C127.484 208.52 127.059 205.599 124.696 205.411C123.797 205.363 123.797 206.777 124.696 206.824Z" fill="black"/>
<path d="M125.499 202.49C125.783 203.62 125.357 204.798 124.459 205.458C123.703 205.976 124.412 207.201 125.168 206.682C126.633 205.646 127.342 203.856 126.87 202.113C126.681 201.218 125.31 201.595 125.499 202.49Z" fill="black"/>
<path d="M126.303 197.59C127.579 198.203 126.728 200.228 126.114 201.029C125.546 201.736 126.775 202.443 127.343 201.736C128.43 200.323 128.997 197.308 127.012 196.366C126.208 195.989 125.499 197.214 126.303 197.59Z" fill="black"/>
<path opacity="0.11" d="M116.565 197.779C117.322 197.355 118.551 199.993 121.718 201.312C122.899 201.783 124.365 202.113 131.077 201.312C133.251 201.029 136.087 200.653 139.491 200.04C140.153 202.725 141.523 206.777 144.312 210.969C145.494 212.712 150.268 219.496 159.486 223.5C169.365 227.834 178.299 226.374 181.749 225.762C184.68 225.243 192.857 223.689 200.137 217.376C205.005 213.184 208.125 208.096 212.71 194.858C215.83 185.86 219.612 173.377 222.4 157.878C224.291 159.809 227.222 163.295 228.876 168.477C229.68 170.974 230.436 174.649 229.822 180.396C228.545 192.785 222.306 203.102 218.524 208.378C214.601 213.89 207.605 223.406 194.654 229.295C192.905 230.096 183.025 234.382 170.452 233.817C167.568 233.676 164.921 233.534 161.66 232.357C158.115 231.085 154.57 227.787 147.526 221.286C144.596 218.601 141.712 215.774 138.782 211.676C138.215 210.875 137.742 210.169 137.411 209.697C136.418 210.357 134.953 211.111 133.299 210.922C131.077 210.734 130.321 209.132 128.477 209.415C126.87 209.65 126.87 210.969 124.932 211.676C123.419 212.194 121.292 212.147 119.874 211.064C118.834 210.263 118.692 209.368 117.511 204.28C116.376 199.286 116.045 198.062 116.565 197.779Z" fill="#494949"/>
<path d="M170.591 185.531C169.693 185.719 169.362 187.509 168.795 190.289C168.464 191.985 168.322 193.445 168.275 194.482C166.384 196.696 166.195 198.721 166.148 199.522C166.1 201.171 166.668 202.443 167.755 204.798C168.511 206.494 169.315 207.813 169.882 208.708C167.849 209.179 166.431 210.498 166.337 211.912C166.242 213.278 167.471 214.361 167.944 214.738C170.071 216.575 171.631 215.209 174.325 216.67C176.5 217.847 176.311 219.166 179.478 220.909C181.463 221.993 182.077 221.757 182.314 221.616C183.117 221.098 182.834 219.402 182.692 218.271C182.503 216.905 181.936 214.832 180.376 212.43C182.219 211.77 184.063 211.111 185.859 210.498C184.535 210.64 184.252 210.687 184.252 210.687C184.252 210.64 187.513 209.321 190.302 210.498C192.618 211.488 192.807 213.56 194.745 213.702C195.833 213.796 197.062 213.184 197.582 212.289C198.669 210.451 196.636 207.766 196.164 207.154C194.226 204.61 191.389 203.856 190.113 203.621C190.539 202.678 191.011 201.171 191.106 199.287C191.2 196.083 189.877 193.728 189.262 192.738C188.411 189.959 187.608 187.18 186.757 184.353C185.433 187.415 183.968 188.357 182.834 188.593C181.557 188.876 180.848 188.263 178.769 188.593C176.783 188.923 176.689 189.535 175.554 189.488C172.907 189.205 172.009 185.248 170.591 185.531Z" fill="#161616"/>
<path d="M171.775 200.417C172.579 201.359 173.855 201.972 175.132 201.642C176.266 201.359 177.022 200.417 177.164 199.286C177.211 198.815 176.502 198.815 176.455 199.286C176.361 200.276 175.51 200.982 174.517 201.029C173.619 201.077 172.863 200.558 172.295 199.899C171.965 199.569 171.492 200.087 171.775 200.417Z" fill="white"/>
<path d="M181.891 198.863C183.073 200.558 186.901 200.7 186.76 198.015C186.712 197.543 186.003 197.543 186.051 198.015C186.192 199.946 183.309 199.663 182.505 198.486C182.222 198.109 181.607 198.486 181.891 198.863Z" fill="white"/>
<path d="M180.047 204.091C180.047 204.139 180.095 204.186 180.095 204.233C180.236 204.28 180.425 204.327 180.567 204.374C180.473 204.186 180.331 204.091 180.095 204.091C180.284 204.044 180.425 203.95 180.614 203.903C180.567 203.856 180.52 203.762 180.473 203.715C180.236 203.809 180.047 203.903 179.811 203.997C180.142 204.515 180 205.458 179.811 205.976C179.575 206.682 178.582 207.625 177.967 206.682C177.731 206.306 177.117 206.635 177.353 207.059C177.967 208.001 179.244 207.954 179.953 207.153C180.662 206.353 181.04 204.61 180.425 203.667C180.236 203.338 179.669 203.526 179.764 203.95C179.858 204.233 180 204.421 180.236 204.563C180.425 204.704 180.709 204.562 180.756 204.374C180.851 203.95 180.709 202.961 180.047 203.243C179.433 203.479 179.669 204.421 179.953 204.798C180.047 204.939 180.284 205.034 180.425 204.939C180.945 204.563 180.945 203.856 180.378 203.573C180 203.291 179.669 203.903 180.047 204.091Z" fill="white"/>
<path d="M180.095 204.233C180.284 205.316 180.662 206.635 181.938 206.824C183.214 207.012 183.593 205.787 183.593 204.798C183.593 204.327 182.883 204.327 182.883 204.798C182.883 205.505 182.647 206.494 181.702 206.023C180.993 205.693 180.898 204.751 180.804 204.044C180.709 203.62 180 203.809 180.095 204.233Z" fill="white"/>
<path d="M167.047 200.653C167.945 195.753 171.49 191.561 176.312 190.147C181.133 188.734 186.711 190.666 188.933 195.282C189.311 196.083 190.54 195.376 190.162 194.576C187.751 189.629 181.842 187.415 176.595 188.64C171.018 189.959 166.716 194.717 165.676 200.276C165.534 201.171 166.905 201.548 167.047 200.653Z" fill="#161616"/>
<path d="M169.554 193.539C169.507 191.184 169.932 188.828 170.925 186.708C171.019 186.52 171.114 186.379 171.161 186.19C171.492 185.625 171.539 185.531 171.256 185.907C170.972 186.143 171.019 186.331 171.445 186.614C171.539 186.755 171.681 186.944 171.776 187.085C172.485 188.216 173.099 189.394 173.619 190.618C173.95 191.466 175.321 191.089 174.99 190.241C174.517 189.111 172.343 183.364 170.499 184.636C169.601 185.248 169.034 187.321 168.75 188.31C168.23 190.006 168.041 191.796 168.089 193.586C168.183 194.434 169.601 194.434 169.554 193.539Z" fill="#161616"/>
<path d="M183.971 189.723C184.443 188.923 184.916 188.122 185.436 187.321C185.672 186.991 186.003 186.661 186.145 186.284C186.476 186.096 186.523 185.908 186.334 185.672C186.145 185.342 186.192 185.437 186.429 185.955C187.232 187.98 187.799 189.959 188.036 192.173C188.13 193.068 189.548 193.068 189.454 192.173C189.312 190.618 189.028 189.111 188.603 187.604C188.319 186.756 187.894 184.824 187.09 184.306C186.476 183.929 185.956 184.212 185.53 184.73C184.443 186.002 183.592 187.556 182.742 189.017C182.269 189.77 183.498 190.477 183.971 189.723Z" fill="#161616"/>
<path d="M165.77 199.899C165.439 207.813 172.624 214.597 180.613 212.948C184.3 212.194 187.703 209.792 189.452 206.447C191.295 202.914 192.335 197.308 189.925 193.822C189.405 193.068 188.176 193.775 188.696 194.529C190.823 197.685 189.783 202.867 188.081 206.023C186.521 208.897 183.449 210.922 180.235 211.582C173.097 212.995 166.905 206.871 167.188 199.899C167.188 198.957 165.77 198.957 165.77 199.899Z" fill="#161616"/>
<path d="M166.765 212.335C167.899 208.143 173.572 208.378 176.549 210.216C179.716 212.1 181.324 215.774 181.655 219.307C181.749 220.297 182.127 221.286 180.473 220.674C179.858 220.438 179.055 219.543 178.582 219.072C177.731 218.224 176.975 217.329 176.03 216.622C174.99 215.821 173.902 215.35 172.626 215.115C170.641 214.738 167.048 214.973 166.859 212.147C166.812 211.252 165.394 211.252 165.441 212.147C165.583 213.984 166.765 215.209 168.466 215.821C169.79 216.293 171.255 216.198 172.626 216.528C174.328 216.952 175.462 217.847 176.644 219.072C177.826 220.25 179.858 222.888 181.891 222.511C183.593 222.181 183.214 220.25 183.073 218.978C182.553 214.455 180.142 209.98 175.699 208.237C171.964 206.777 166.576 207.625 165.441 212.006C165.158 212.854 166.528 213.23 166.765 212.335Z" fill="#161616"/>
<path d="M185.625 206.212C187.563 203.621 191.959 204.657 193.992 206.4C195.173 207.389 195.977 208.755 196.355 210.263C196.45 210.734 196.686 211.723 196.544 212.241C196.072 213.608 195.079 213.184 194.228 212.524C193.046 211.629 192.148 210.357 190.683 209.792C189.974 209.509 189.265 209.462 188.509 209.509C187.799 209.509 187.138 209.698 186.429 209.603C185.105 209.415 183.262 208.19 185.483 206.494C186.192 205.929 185.2 204.94 184.491 205.505C183.403 206.353 182.836 207.625 183.309 208.991C183.971 210.781 185.672 211.158 187.421 211.064C189.17 210.969 190.305 211.017 191.723 212.194C192.385 212.76 192.952 213.419 193.708 213.937C194.701 214.644 196.166 215.303 197.253 214.314C199.758 212.006 196.875 206.871 194.89 205.269C192.054 202.961 186.854 202.301 184.491 205.552C183.876 206.212 185.105 206.918 185.625 206.212Z" fill="#161616"/>
<path d="M169.506 208.426C172.579 207.436 177.258 209.368 179.149 211.865C179.291 212.053 179.575 211.864 179.433 211.676C177.448 208.991 172.721 207.012 169.412 208.096C169.175 208.143 169.27 208.473 169.506 208.426Z" fill="white"/>
<path d="M185.956 206.4C187.327 204.798 189.312 204.092 191.392 204.515C191.628 204.563 191.723 204.233 191.486 204.186C189.312 203.762 187.138 204.468 185.72 206.164C185.578 206.353 185.814 206.588 185.956 206.4Z" fill="white"/>
<path d="M171.255 186.332C171.728 187.556 172.059 188.781 172.201 190.053C172.295 190.006 172.39 189.959 172.484 189.912C172.248 189.676 172.012 189.535 171.728 189.394C171.586 189.347 171.445 189.394 171.445 189.535C171.445 189.959 171.397 190.336 171.397 190.76C171.492 190.713 171.586 190.666 171.681 190.618C171.019 189.865 170.499 191.561 170.31 191.89C170.216 192.079 170.499 192.267 170.594 192.079C170.641 191.985 171.255 190.666 171.397 190.854C171.492 190.995 171.681 190.854 171.681 190.713C171.681 190.289 171.728 189.912 171.728 189.488C171.634 189.535 171.539 189.582 171.445 189.629C171.728 189.723 171.917 189.865 172.106 190.1C172.201 190.195 172.437 190.147 172.39 189.959C172.201 188.64 171.917 187.368 171.397 186.143C171.492 186.049 171.161 186.143 171.255 186.332Z" fill="white"/>
<path d="M185.862 185.719C185.342 186.709 185.058 187.698 184.963 188.828C184.963 188.923 185.105 189.017 185.2 189.017C185.862 188.828 185.956 189.347 186.003 189.912C186.003 190.053 186.192 190.147 186.287 190.053C186.523 190.43 186.712 190.76 186.949 191.137C186.901 191.372 187.28 191.467 187.28 191.231C187.374 190.571 186.949 188.876 186.051 189.818C186.145 189.865 186.24 189.912 186.334 189.959C186.287 189.535 186.192 189.158 186.098 188.734C186.098 188.64 186.003 188.593 185.909 188.593C185.578 188.593 185.342 188.64 185.058 188.734C185.152 188.781 185.2 188.828 185.294 188.923C185.342 187.886 185.625 186.944 186.145 186.002C186.287 185.672 185.956 185.484 185.862 185.719Z" fill="white"/>
<path d="M215.499 157.782C216.161 162.305 217.437 169.465 220.084 177.945C225.662 195.657 232.232 203.242 240.93 223.781C243.104 228.916 246.177 236.642 249.202 246.393C254.827 248.231 265.273 250.727 278.036 248.513C299.023 244.886 311.36 231.036 314.811 226.843C307.626 213.653 300.394 199.379 293.351 184.069C286.355 168.9 280.257 154.296 274.963 140.399C270.52 138.75 258.892 135.076 244.617 138.562C227.553 142.66 218.146 154.296 215.499 157.782Z" fill="#EC615B"/>
<path opacity="0.13" d="M257.001 136.962C258.797 140.73 261.066 145.865 263.477 152.084C271.04 171.869 273.781 188.122 274.774 193.916C276.901 205.882 278.745 224.442 275.719 248.279C282.29 248.091 287.159 246.583 290.231 245.406C299.023 241.92 305.404 235.843 311.549 229.954C312.967 228.635 314.055 227.457 314.764 226.751C312.731 223.265 309.659 217.8 306.066 210.969C295.667 191.278 288.86 174.931 283.141 161.081C281.108 156.229 278.319 149.257 275.058 140.825C272.458 139.741 269.196 138.658 265.368 137.951C262.248 137.339 259.412 137.056 257.001 136.962Z" fill="#494949"/>
<path opacity="0.1" d="M288.293 174.319C289.097 182.751 289.758 189.817 290.231 194.905C292.027 214.832 292.358 220.344 292.5 223.877C292.878 232.215 292.878 239.046 292.831 243.521C295.761 242.485 299.543 240.789 303.466 238.057C308.382 234.618 311.691 230.849 313.818 228.07C305.31 210.121 296.801 192.22 288.293 174.319Z" fill="#494949"/>
<path d="M254.73 128.67C252.461 129.33 251.232 132.58 250.475 135.925C248.963 142.756 249.766 148.597 250.05 150.623C251.421 159.621 253.879 166.357 254.682 168.571C256.762 174.036 259.598 181.338 265.791 189.111C269.336 193.539 272.361 197.355 277.939 200.181C281.2 201.877 287.96 205.316 294.908 202.584C295.239 202.443 302.046 199.663 303.795 193.727C304.173 192.408 304.267 191.089 304.409 188.498C304.504 186.944 304.551 184.212 304.22 180.82C303.747 176.344 302.755 172.858 301.999 170.362C298.642 159.291 296.988 153.779 293.49 148.974C290.607 145.017 287.345 140.495 281.957 139.882C281.484 139.835 276.048 139.317 272.834 143.086C270.612 145.724 270.754 148.974 270.801 151.141C270.943 155.287 272.55 158.255 275.055 162.824C277.561 167.347 278.553 167.912 281.531 173.282C285.596 180.631 285.171 181.338 284.982 181.526C284.178 182.233 280.964 180.019 280.255 179.501C279.593 179.03 278.648 178.37 277.466 177.098C273.779 173 271.605 166.828 271.605 166.828C269.667 163.013 267.114 157.595 264.514 150.717C265.318 147.655 266.547 145.488 267.539 144.075C269.147 141.814 270.943 140.259 271.368 137.433C271.557 136.349 271.463 135.407 271.368 134.795C272.172 134.041 272.408 132.91 271.983 131.968C271.463 130.885 270.187 130.366 268.958 130.743C268.958 130.602 268.816 129.377 267.729 128.718C266.83 128.152 265.601 128.246 264.703 128.906C263.285 127.823 262.104 127.54 261.253 127.493C260.26 127.446 259.787 127.681 257.424 128.105C255.439 128.623 255.297 128.529 254.73 128.67Z" fill="white"/>
<path d="M266.597 148.55C267.873 145.394 269.48 142.521 271.229 139.6C272.127 138.092 273.167 136.208 271.938 134.559C269.149 130.979 265.368 135.548 264.186 137.904C263.76 138.705 264.989 139.411 265.415 138.611C266.124 137.197 266.927 135.454 268.582 134.983C269.055 134.748 269.527 134.748 270.047 134.889C270.189 135.972 270.331 137.056 270.52 138.139C270.378 138.752 269.527 139.741 269.196 140.306C267.684 142.803 266.455 145.441 265.32 148.126C264.895 149.022 266.266 149.351 266.597 148.55Z" fill="black"/>
<path d="M251.14 154.627C250.431 149.587 250.336 144.452 250.903 139.411C251.423 134.795 252.416 127.775 258.845 129.094C259.743 129.283 260.121 127.917 259.223 127.728C254.165 126.692 250.998 130.272 250.147 134.842C248.871 141.484 248.824 148.268 249.769 155.004C249.911 155.899 251.281 155.522 251.14 154.627Z" fill="black"/>
<path d="M257.048 132.91C257.568 131.685 258.135 130.414 259.128 129.471C260.83 127.823 263.004 128.718 264.848 129.613C265.651 130.037 266.36 128.812 265.557 128.388C263.619 127.399 261.444 126.456 259.364 127.54C257.568 128.482 256.623 130.414 255.866 132.157C255.488 133.052 256.717 133.758 257.048 132.91Z" fill="black"/>
<path d="M261.255 133.334C263.004 131.073 265.32 128.718 268.346 130.508C269.149 130.979 269.858 129.754 269.055 129.283C265.462 127.163 262.437 129.471 260.263 132.298C259.695 133.052 260.688 134.041 261.255 133.334Z" fill="black"/>
<path d="M264.422 134.371C265.32 133.429 266.266 132.439 267.495 131.968C268.96 131.356 271.654 131.733 271.087 133.947C270.898 134.842 272.222 135.219 272.458 134.324C272.931 132.392 271.654 130.602 269.716 130.272C267.117 129.801 265.084 131.686 263.43 133.381C262.815 134.041 263.808 135.03 264.422 134.371Z" fill="black"/>
<path d="M264.99 147.844C263.335 151.377 265.368 154.957 266.786 158.208C268.771 162.777 270.851 167.347 273.404 171.587C276.712 177.145 283.897 187.132 291.413 181.432C292.122 180.867 291.413 179.642 290.704 180.207C283.472 185.719 276.76 174.601 273.829 169.467C272.127 166.452 270.615 163.342 269.197 160.186C267.779 157.03 264.611 152.084 266.266 148.55C266.597 147.75 265.368 146.996 264.99 147.844Z" fill="black"/>
<path d="M271.087 144.263C266.928 158.349 279.69 169.278 284.37 181.338C284.701 182.186 286.071 181.809 285.741 180.961C281.203 169.278 268.44 158.255 272.458 144.64C272.694 143.745 271.324 143.368 271.087 144.263Z" fill="black"/>
<path d="M249.719 154.25C252.129 167.441 257.754 179.925 266.027 190.524C270.044 195.612 274.63 200.558 280.964 202.631C286.352 204.374 293.773 205.269 298.784 202.019C304.267 198.533 304.976 191.419 305.212 185.531C305.26 184.636 303.842 184.636 303.794 185.531C303.511 193.115 301.809 201.5 292.781 202.584C284.461 203.573 276.709 200.276 271.084 194.293C260.638 183.222 253.784 168.76 251.042 153.874C250.948 152.979 249.577 153.355 249.719 154.25Z" fill="black"/>
<path d="M272.033 146.148C273.545 140.118 280.825 139.694 285.362 142.332C289.995 145.017 293.162 149.869 295.478 154.533C297.889 159.433 299.638 164.709 301.339 169.891C303.277 175.826 304.743 182.045 303.75 188.31C303.608 189.205 304.979 189.582 305.121 188.687C306.255 181.526 304.459 174.601 302.143 167.818C300.016 161.647 297.936 155.287 294.391 149.728C291.413 145.017 286.97 140.118 281.108 139.317C276.57 138.705 271.749 141.154 270.615 145.771C270.425 146.666 271.796 147.043 272.033 146.148Z" fill="black"/>
<path opacity="0.1" d="M256.48 128.058C260.261 126.551 263.948 128.199 264.846 128.623C262.199 132.109 256.574 140.542 256.101 152.46C255.392 169.42 265.555 180.679 269.148 184.683C273.78 189.818 279.83 196.507 287.63 195.565C292.026 195.047 296.185 192.126 298.312 188.404C300.44 184.683 300.298 180.631 297.745 170.173C293.822 154.345 289.52 145.064 290.135 144.782C290.749 144.499 295.855 152.46 299.683 162.447C300.061 163.484 303.228 171.869 304.363 183.411C305.072 190.524 304.457 193.445 302.992 196.036C300.723 200.04 297.036 201.83 295.618 202.443C289.899 204.845 284.415 203.149 281.816 202.254C272.504 199.145 267.54 191.608 262.53 184.023C254.825 172.293 252.698 162.259 250.665 152.602C249.247 145.912 248.302 138.139 251.847 132.439C252.462 131.262 253.832 129.142 256.48 128.058Z" fill="#494949"/>
<path d="M188.225 105.116C188.083 107.33 188.887 109.827 190.588 114.821C192.479 120.427 194.512 126.409 199.617 132.298C202.878 136.067 206.849 140.683 213.608 142.002C218.95 143.039 223.44 141.531 225.709 140.589C226.229 142.002 226.938 143.51 227.836 145.064C230.2 149.21 233.13 152.131 235.447 154.062C237.196 153.874 240.599 153.167 243.53 150.529C245.798 148.456 246.886 146.007 247.547 144.405C248.351 142.521 248.776 140.872 248.965 139.694C247.547 138.846 245.988 137.715 244.475 136.161C239.748 131.356 238.472 125.656 238.094 122.923C238.708 117.506 239.37 112.041 239.984 106.624C240.693 106.718 242.206 106.812 243.53 105.917C244.995 104.928 245.279 103.279 245.657 101.442C246.035 99.6045 246.46 97.2491 245.42 94.5639C244.948 93.3862 243.435 89.6175 240.221 89.382C238.046 89.1936 235.825 90.6539 234.548 92.9151C231.807 90.2771 225.946 85.6133 217.721 84.8596C203.493 83.5405 189.029 94.611 188.225 105.116Z" fill="white"/>
<path d="M209.212 126.645C208.834 127.634 209.921 129.047 210.725 129.754C212.946 131.685 216.87 131.591 219.706 130.272C223.677 128.435 224.953 124.478 225.52 122.688C226.182 120.709 227.033 118.118 225.662 115.81C224.48 113.784 222.4 113.078 221.597 112.842C220.793 114.491 220.179 115.716 219.706 116.517C219.139 117.506 218.95 117.836 218.619 118.589C218.146 119.579 218.099 119.955 217.437 120.85C214.743 124.337 211.056 125.608 211.056 125.608C210.205 125.797 209.449 125.985 209.212 126.645Z" fill="black"/>
<path d="M188.981 110.769C192.716 122.405 197.395 135.973 209.449 141.437C214.365 143.651 220.226 144.075 225.237 141.908C230.862 139.506 234.17 133.947 236.439 128.576C239.417 121.557 240.693 113.926 240.221 106.341C240.174 105.446 238.755 105.446 238.803 106.341C239.275 114.255 237.857 122.217 234.501 129.424C231.24 136.444 226.087 142.05 217.815 141.955C201.177 141.767 194.417 123.489 190.258 110.44C190.068 109.497 188.745 109.874 188.981 110.769Z" fill="black"/>
<path d="M235.068 94.2341C235.116 91.4076 238.046 89.7117 240.646 90.5125C243.057 91.3134 244.57 93.6688 245.089 96.0242C245.562 98.2854 245.373 100.924 244.664 103.091C244.097 104.881 243.388 105.823 241.213 105.823C240.457 105.823 239.701 105.54 238.897 105.54C237.999 105.54 237.999 106.953 238.897 106.953C240.504 106.953 242.064 107.707 243.624 106.906C244.759 106.341 245.42 105.21 245.893 104.033C247.122 100.829 247.264 96.4953 245.704 93.339C244.428 90.7481 241.686 88.534 238.661 88.8637C235.872 89.1464 233.698 91.4076 233.65 94.187C233.65 95.1292 235.068 95.1292 235.068 94.2341Z" fill="black"/>
<path d="M237.857 120.05C237.715 127.823 241.166 135.266 247.311 140.118C248.02 140.683 249.013 139.694 248.304 139.129C242.442 134.512 239.133 127.54 239.275 120.05C239.275 119.155 237.857 119.155 237.857 120.05Z" fill="black"/>
<path d="M225.662 141.154C227.458 146.101 230.389 150.435 234.312 153.921C234.974 154.533 236.014 153.544 235.305 152.931C231.523 149.587 228.734 145.488 226.986 140.777C226.702 139.929 225.331 140.306 225.662 141.154Z" fill="black"/>
<path d="M234.643 154.392C238.708 155.852 242.773 152.413 245.279 149.54C247.926 146.525 250.242 142.615 249.107 138.516C248.871 137.621 247.5 137.998 247.737 138.893C248.682 142.473 246.555 145.959 244.239 148.55C242.064 151 238.519 154.298 234.974 153.026C234.17 152.696 233.792 154.062 234.643 154.392Z" fill="black"/>
<path d="M194.275 105.823C193.661 104.08 195.079 102.195 196.119 100.971C197.679 99.0392 200.09 98.521 201.886 100.5C203.966 102.761 204.533 106.812 204.816 109.733C205.006 111.759 204.296 114.349 205.478 116.14C206.754 118.071 209.118 119.202 211.34 119.626C212.238 119.814 212.616 118.448 211.718 118.26C210.536 118.024 209.496 117.647 208.456 116.988C206.754 115.857 206.376 114.632 206.329 112.606C206.282 110.863 206.235 109.168 205.951 107.425C205.478 104.551 204.675 100.876 202.311 98.945C200.326 97.2962 197.868 97.3433 195.93 98.9921C194.086 100.594 191.959 103.656 192.857 106.153C193.236 107.048 194.606 106.671 194.275 105.823Z" fill="black"/>
<path d="M207.369 95.6474C207.7 89.9472 214.837 87.8744 218.146 92.5382C218.666 93.2919 219.895 92.5853 219.375 91.8316C215.263 85.9901 206.376 88.4868 205.951 95.6474C205.904 96.5424 207.322 96.5424 207.369 95.6474Z" fill="black"/>
<path d="M200.94 109.592C200.278 108.697 199.9 107.707 199.853 106.624C199.475 106.812 199.144 107.048 198.766 107.236C199.853 107.943 200.42 109.073 200.373 110.345C200.656 110.11 200.987 109.874 201.271 109.686C200.089 109.262 199.333 107.943 199.569 106.718C199.238 106.859 198.86 107.001 198.529 107.142C199.097 107.472 199.569 107.943 199.9 108.555C200.042 108.838 200.136 109.12 200.184 109.45C200.184 109.686 200.184 109.403 200.136 109.309C200.042 109.12 199.947 108.979 199.853 108.791C199.475 107.943 198.246 108.697 198.624 109.497C198.907 110.157 199.38 110.864 200.231 110.911C200.94 110.958 201.554 110.487 201.649 109.78C201.791 108.225 200.562 106.671 199.286 105.964C198.907 105.729 198.34 105.917 198.246 106.388C197.868 108.414 199.002 110.392 200.94 111.099C201.413 111.24 201.838 110.864 201.838 110.44C201.885 108.649 201.035 107.048 199.522 106.106C199.097 105.823 198.435 106.2 198.435 106.718C198.482 108.037 198.907 109.309 199.711 110.392C200.278 111.052 201.507 110.345 200.94 109.592Z" fill="black"/>
<path d="M214.175 100.5C213.939 100.217 213.75 99.8872 213.655 99.5103C213.655 99.4161 213.561 98.8508 213.655 98.8037C213.75 98.7566 213.986 99.5103 214.034 99.5574C214.128 99.9343 214.081 100.358 213.892 100.688C214.223 100.594 214.553 100.5 214.884 100.452C213.703 99.7929 213.135 98.5681 213.325 97.2491C212.946 97.4375 212.615 97.6731 212.237 97.8615C213.561 98.4268 214.317 99.7929 213.986 101.206C214.27 101.065 214.554 100.876 214.837 100.735C214.128 100.5 213.561 99.8872 213.419 99.1334C213.419 99.0863 213.419 98.6623 213.372 98.6623C213.277 98.7094 213.183 98.7566 213.041 98.8037C213.088 98.8979 213.183 99.0392 213.23 99.1334C213.419 99.6516 213.419 100.17 213.372 100.735C213.797 100.547 214.175 100.405 214.601 100.217C214.175 99.8872 213.844 99.5103 213.608 98.9921C213.183 98.1912 211.954 98.8979 212.379 99.6987C212.663 100.264 213.088 100.782 213.608 101.206C214.128 101.63 214.743 101.348 214.837 100.688C214.932 99.7458 214.837 98.4739 214.128 97.7673C213.561 97.202 212.521 97.1548 212.143 98.0028C211.387 99.6516 212.994 101.583 214.459 102.101C214.837 102.243 215.263 101.96 215.31 101.63C215.83 99.6516 214.837 97.4846 212.899 96.6838C212.379 96.4482 211.906 96.7309 211.812 97.2962C211.576 99.0863 212.521 100.829 214.081 101.724C214.364 101.913 214.884 101.819 215.073 101.489C215.452 100.594 215.546 99.6987 215.215 98.8037C214.932 98.097 214.317 97.3433 213.514 97.4375C211.434 97.673 212.332 100.641 213.183 101.583C213.797 102.195 214.79 101.159 214.175 100.5Z" fill="black"/>
<path d="M226.513 141.013C226.513 141.06 226.513 141.06 226.465 141.107C226.749 140.966 227.033 140.777 227.316 140.636C227.269 140.636 227.222 140.589 227.174 140.589C227.316 140.919 227.458 141.296 227.6 141.625C227.694 141.437 228.971 140.825 229.349 140.495C230.2 139.788 230.909 138.846 231.57 137.951C233.036 136.019 234.123 133.9 235.021 131.685C234.548 131.544 234.123 131.45 233.65 131.309C232.232 135.36 231.239 141.013 227.269 143.416C227.6 143.745 227.931 144.075 228.262 144.405C229.207 142.992 230.152 141.531 231.098 140.118C231.523 139.458 230.53 138.658 229.963 139.27C229.207 140.071 228.403 140.919 227.647 141.72C227.978 142.049 228.309 142.379 228.64 142.709C229.349 141.861 230.011 140.966 230.625 140.071C231.098 139.411 230.058 138.61 229.491 139.223C228.829 139.929 228.167 140.448 227.316 140.872C227.694 141.06 228.025 141.296 228.403 141.484C228.403 141.343 228.356 141.201 228.356 141.06C228.262 140.165 226.843 140.165 226.938 141.06C226.938 141.201 226.985 141.343 226.985 141.484C227.033 142.002 227.553 142.379 228.072 142.096C229.018 141.578 229.774 141.013 230.53 140.212C230.152 139.929 229.774 139.647 229.396 139.364C228.829 140.165 228.262 140.966 227.647 141.72C227.08 142.426 228.025 143.416 228.64 142.709C229.396 141.908 230.2 141.06 230.956 140.259C230.578 139.977 230.2 139.694 229.821 139.411C228.876 140.825 227.931 142.285 226.985 143.698C226.607 144.311 227.363 145.017 227.978 144.687C232.327 142.049 233.461 136.208 235.021 131.733C235.305 130.837 233.981 130.555 233.65 131.356C232.658 133.758 231.381 136.114 229.68 138.092C228.876 139.034 227.6 139.553 226.843 140.401C226.654 140.589 226.465 140.636 226.371 140.872C226.134 141.296 226.324 141.72 226.796 141.908C226.843 141.908 226.891 141.955 226.938 141.955C227.316 142.096 227.694 141.814 227.789 141.484C227.789 141.437 227.789 141.437 227.836 141.39C228.214 140.542 226.843 140.165 226.513 141.013Z" fill="black"/>
<path d="M231.759 139.6C232.185 139.129 232.468 138.658 232.61 138.092C232.847 137.244 231.759 136.962 231.334 137.527C230.341 138.846 229.349 140.165 228.356 141.484C227.789 142.191 229.018 142.897 229.585 142.191C230.578 140.872 231.57 139.553 232.563 138.234C232.138 138.045 231.712 137.857 231.287 137.668C231.192 137.998 231.05 138.281 230.814 138.563C230.152 139.317 231.192 140.306 231.759 139.6Z" fill="black"/>
<path d="M209.921 127.917C208.598 125.279 210.016 124.289 212.663 123.583C212.994 123.489 213.325 123.442 213.608 123.3C214.743 122.782 215.405 121.651 215.877 120.568C216.634 118.966 217.059 117.223 218.052 115.763C220.131 112.607 223.818 112.748 225 116.517C226.182 120.285 224.717 124.478 222.211 127.352C220.982 128.765 219.47 130.084 217.673 130.696C216.114 131.262 214.743 131.073 213.23 130.414C212.143 129.942 210.158 129 209.874 127.776C209.685 126.88 208.314 127.257 208.503 128.152C209.023 130.602 212.71 132.109 214.932 132.439C217.343 132.816 219.611 131.638 221.455 130.131C225.567 126.739 228.12 120.756 226.135 115.574C224.007 109.968 218.241 112.041 216.114 116.469C215.452 117.836 215.121 120.144 214.034 121.133C212.663 122.405 210.914 121.934 209.496 122.923C207.511 124.337 207.7 126.833 208.692 128.765C209.118 129.471 210.347 128.765 209.921 127.917Z" fill="black"/>
<path d="M208.976 126.456C216.303 126.268 219.848 119.484 221.455 113.266C221.691 112.371 220.32 111.994 220.084 112.889C218.666 118.448 215.594 124.855 208.976 125.043C208.078 125.09 208.078 126.504 208.976 126.456Z" fill="black"/>
<path d="M189.548 110.016C188.698 110.487 183.545 104.881 181.371 97.3904C179.764 91.9258 180.236 87.0736 180.804 84.0116C181.607 81.5619 182.742 78.9238 184.302 76.2386C191.014 64.7441 201.602 59.3266 207.085 57.0183C205.951 58.1018 204.627 59.5151 203.398 61.3052C201.697 63.6606 200.609 65.8747 199.9 67.712C201.507 66.3458 203.351 64.9797 205.336 63.6606C209.78 60.6928 214.081 58.5729 217.815 57.0654C217.248 59.468 216.633 61.8705 216.066 64.2259C217.39 63.4722 219.233 62.3887 221.502 61.3052C224.007 60.1275 229.16 57.6778 229.963 58.7613C230.2 59.0911 229.916 59.468 229.491 60.8341C228.923 62.6242 228.734 64.1317 228.64 65.121C230.105 64.8855 231.76 64.697 233.556 64.6499C235.541 64.5557 237.337 64.6499 238.944 64.7912C238.377 66.9582 237.81 69.0781 237.243 71.2451C238.377 71.6691 239.984 72.4699 241.639 73.789C246.082 77.4164 247.358 82.3156 247.689 84.2471C248.398 88.8637 247.264 92.7267 246.413 94.8465C244.144 90.0415 239.653 88.1571 237.101 89.3348C235.541 90.0415 233.745 92.3027 233.934 94.611C233.981 95.1292 234.123 95.6003 234.265 95.9301C232.61 94.4226 230.105 92.3969 226.844 90.5126C223.582 88.6282 219.942 86.5083 215.121 85.8959C206.045 84.7182 198.955 89.6646 197.064 91.0308C194.133 93.1035 189.359 96.4482 188.508 101.772C187.658 106.247 190.21 109.686 189.548 110.016Z" fill="#5222D0"/>
<path opacity="0.11" d="M225.52 89.3348C226.986 92.6324 228.971 97.7672 230.058 104.221C231.193 110.628 232.611 118.872 229.16 128.011C227.978 131.12 225.189 137.103 218.572 142.709C220.132 142.662 222.826 142.379 225.662 140.872C230.294 138.469 232.327 134.465 232.941 133.052C235.163 135.219 238.141 138.61 240.41 143.415C241.686 146.101 242.49 148.597 242.962 150.67C244.239 149.54 246.602 147.09 247.689 143.227C248.115 141.72 248.257 140.353 248.257 139.223C245.515 137.715 243.766 135.878 242.773 134.7C242.348 134.182 238.141 128.906 238.377 121.604C238.472 118.966 239.039 118.919 239.465 114.868C239.843 111.24 239.654 108.178 239.465 106.153C241.875 107.142 243.104 106.671 243.672 106.341C244.759 105.681 245.042 104.504 246.035 98.521C246.555 95.3176 246.839 93.7159 246.933 92.8679C247.5 88.2984 247.784 85.9901 247.5 84.1528C246.697 78.9238 243.341 75.4377 242.206 74.3542C240.315 72.517 238.377 71.4806 237.101 70.9153C237.668 68.9367 238.188 66.9111 238.756 64.9325C236.061 68.0888 233.556 70.2558 231.854 71.669C227.6 75.0609 225.142 75.8617 222.211 79.1122C219.895 81.6561 218.572 84.247 217.815 85.9901C220.415 87.1678 222.968 88.2513 225.52 89.3348Z" fill="#494949"/>
<path opacity="0.17" d="M206.045 57.5365C204.438 58.2431 200.656 60.2217 198.009 64.4144C197.348 65.4507 195.882 68.0417 195.457 71.6691C194.984 75.6733 195.977 78.8296 196.544 80.3842C196.733 76.4741 197.679 70.1616 201.46 63.6606C202.925 61.211 204.533 59.1853 206.045 57.5365Z" fill="#494949"/>
<path opacity="0.08" d="M239.464 106.388C239.322 106.341 239.039 106.859 237.999 110.44C236.581 115.292 235.824 118.872 235.399 120.662C234.785 123.253 233.745 126.928 231.807 131.356C235.163 132.015 238.519 132.675 241.875 133.287C240.646 130.602 239.181 126.739 238.613 121.934C237.715 113.69 239.937 106.483 239.464 106.388Z" fill="#494949"/>
</g>
<defs>
<clipPath id="clip0_1_30965">
<rect width="600" height="453" fill="white"/>
</clipPath>
</defs>
</svg>
