<svg width="40" height="40" viewBox="0 0 40 40" fill="none" xmlns="http://www.w3.org/2000/svg">
<g clip-path="url(#clip0_1_30947)">
<path d="M17.3279 10.9004C17.0996 10.5192 16.6753 10.3004 16.2323 10.3341L6.7093 11.0697C5.74516 11.1442 4.88634 11.6495 4.35291 12.4563L0.356456 18.5009C-0.0479937 19.1127 -0.112368 19.8782 0.184348 20.5488C0.480987 21.2195 1.09075 21.6867 1.81535 21.799L9.53717 22.995C9.59724 23.0043 9.65724 23.0089 9.71677 23.0089C10.1123 23.0088 10.4865 22.8083 10.704 22.4681L17.3099 12.1336C17.5492 11.7592 17.5561 11.2817 17.3279 10.9004V10.9004Z" fill="#E45A6E"/>
<path d="M29.0992 22.6721C28.7179 22.4438 28.2403 22.4508 27.866 22.6901L17.5315 29.296C17.1402 29.5462 16.9335 30.0038 17.0045 30.4628L18.2005 38.1846C18.3127 38.9093 18.7801 39.519 19.4508 39.8157C19.7297 39.9391 20.025 39.9999 20.3189 39.9999C20.7315 39.9999 21.1414 39.8798 21.4987 39.6436L27.5434 35.6471C28.3501 35.1138 28.8555 34.2549 28.9299 33.2907L29.6655 23.7678C29.6998 23.3247 29.4804 22.9005 29.0992 22.6721V22.6721Z" fill="#D82E44"/>
<path d="M15.0681 32.209C15.5345 32.6754 16.1972 32.8936 16.8478 32.7848C26.3877 31.1896 33.9368 23.2909 36.8107 17.7345C40.002 11.5647 40.1202 5.04475 39.9534 1.98696C39.8963 0.939155 39.061 0.103927 38.0132 0.0467399C34.9554 -0.119978 28.4356 -0.00177531 22.2657 3.18953C16.7093 6.06349 8.81064 13.6126 7.2155 23.1525C7.10675 23.803 7.32487 24.4658 7.79127 24.9322L15.0681 32.209Z" fill="#F1F1FB"/>
<path d="M39.3544 0.645386L11.4292 28.5706L15.0676 32.209C15.534 32.6754 16.1967 32.8935 16.8473 32.7847C26.3872 31.1896 33.9363 23.2909 36.8102 17.7345C40.0016 11.5648 40.1198 5.0448 39.953 1.98702C39.9244 1.46311 39.7012 0.992336 39.3544 0.645386V0.645386Z" fill="#D7D6FB"/>
<path d="M27.4009 18.456C25.9002 18.4561 24.4001 17.885 23.2577 16.7426C22.151 15.6359 21.5415 14.1644 21.5415 12.5994C21.5415 11.0343 22.151 9.56284 23.2577 8.45621C25.5422 6.1717 29.2594 6.17162 31.544 8.45621C32.6507 9.56284 33.2602 11.0343 33.2602 12.5994C33.2602 14.1644 32.6507 15.6359 31.544 16.7426C30.4019 17.8847 28.9011 18.4558 27.4009 18.456V18.456ZM24.0863 9.28488H24.0871H24.0863Z" fill="#466288"/>
<path d="M7.2155 23.1526C7.10675 23.8031 7.32487 24.4658 7.79127 24.9322L15.0681 32.2091C15.5345 32.6755 16.1972 32.8936 16.8478 32.7848C18.9236 32.4377 20.905 31.7919 22.7647 30.937L9.0633 17.2357C8.20838 19.0953 7.5626 21.0768 7.2155 23.1526V23.1526Z" fill="#466288"/>
<path d="M1.19576 32.9636C1.49561 32.9636 1.79561 32.8492 2.02436 32.6204L5.85037 28.7943C6.30803 28.3368 6.30803 27.5947 5.85037 27.1371C5.39279 26.6794 4.65084 26.6794 4.19311 27.1371L0.367168 30.9631C-0.0904883 31.4207 -0.0904883 32.1627 0.367168 32.6204C0.595996 32.8493 0.89584 32.9636 1.19576 32.9636V32.9636Z" fill="#FDB43A"/>
<path d="M9.35678 30.6435C8.8992 30.1859 8.15717 30.1859 7.69951 30.6435L0.34373 37.9993C-0.113926 38.4568 -0.113926 39.1989 0.34373 39.6565C0.572559 39.8853 0.87248 39.9997 1.1724 39.9997C1.47232 39.9997 1.77225 39.8853 2.001 39.6564L9.35678 32.3007C9.81443 31.8431 9.81443 31.1011 9.35678 30.6435V30.6435Z" fill="#FDB43A"/>
<path d="M12.8631 34.1498C12.4055 33.6922 11.6635 33.6922 11.2058 34.1498L7.37986 37.9758C6.92221 38.4333 6.92221 39.1754 7.37986 39.633C7.60869 39.8618 7.90861 39.9763 8.20846 39.9763C8.5083 39.9763 8.8083 39.8618 9.03705 39.633L12.8631 35.807C13.3207 35.3494 13.3207 34.6074 12.8631 34.1498V34.1498Z" fill="#F57A21"/>
<path d="M0.343262 39.6567C0.57209 39.8855 0.872012 39.9999 1.17193 39.9999C1.47186 39.9999 1.77178 39.8854 2.00053 39.6566L9.35631 32.3008C9.81396 31.8432 9.81396 31.1012 9.35631 30.6436L0.343262 39.6567Z" fill="#F57A21"/>
<path d="M11.4292 28.5704L15.0676 32.2088C15.534 32.6752 16.1967 32.8934 16.8473 32.7846C18.9231 32.4375 20.9045 31.7917 22.7642 30.9368L15.9135 24.0862L11.4292 28.5704Z" fill="#354A67"/>
<path d="M23.2573 16.7426C24.3997 17.885 25.8998 18.4562 27.4005 18.456C28.9008 18.4559 30.4015 17.8847 31.5437 16.7426C32.6504 15.6359 33.2598 14.1645 33.2598 12.5994C33.2598 11.0343 32.6504 9.56282 31.5437 8.45618L23.2573 16.7426Z" fill="#354A67"/>
<path d="M27.4004 9.08533C26.5002 9.08533 25.5998 9.42798 24.9145 10.1134C24.2505 10.7774 23.8848 11.6602 23.8848 12.5992C23.8848 13.5383 24.2505 14.4211 24.9145 15.0851C26.2852 16.4558 28.5157 16.4559 29.8864 15.0851C30.5504 14.421 30.9161 13.5382 30.9161 12.5992C30.9161 11.6601 30.5504 10.7773 29.8864 10.1133C29.201 9.42798 28.3008 9.08533 27.4004 9.08533V9.08533Z" fill="#4BBEFD"/>
<path d="M29.8863 10.1136L24.9146 15.0855C26.2853 16.4562 28.5157 16.4562 29.8863 15.0855C30.5503 14.4214 30.916 13.5386 30.916 12.5995C30.916 11.6604 30.5504 10.7776 29.8863 10.1136V10.1136Z" fill="#0590FB"/>
</g>
<defs>
<clipPath id="clip0_1_30947">
<rect width="40" height="40" fill="white"/>
</clipPath>
</defs>
</svg>
