<svg width="568" height="453" viewBox="0 0 568 453" fill="none" xmlns="http://www.w3.org/2000/svg">
<g clip-path="url(#clip0_1_30149)">
<path d="M110.98 376.453C150.971 376.453 190.963 376.453 230.954 376.453C270.815 376.453 310.675 376.453 350.492 376.453C373.02 376.453 395.591 376.453 418.119 376.453C418.949 376.453 418.949 375.143 418.119 375.143C378.128 375.143 338.136 375.143 298.145 375.143C258.285 375.143 218.424 375.143 178.607 375.143C156.079 375.143 133.508 375.143 110.98 375.143C110.151 375.143 110.151 376.453 110.98 376.453Z" fill="#E8E8E8"/>
<path d="M426.196 349.307C425.847 361.876 427.113 374.445 429.995 386.708C430.169 387.537 431.435 387.188 431.261 386.359C428.423 374.227 427.157 361.789 427.55 349.307C427.506 348.478 426.196 348.478 426.196 349.307Z" fill="#E8E8E8"/>
<path d="M478.194 350.311C479.417 361.92 478.674 373.66 476.011 385.006C475.837 385.836 477.059 386.185 477.277 385.356C479.984 373.878 480.77 362.051 479.504 350.311C479.417 349.482 478.107 349.482 478.194 350.311Z" fill="#E8E8E8"/>
<path d="M430.518 387.93C445.624 391.771 461.603 391.247 476.404 386.359C477.189 386.097 476.84 384.832 476.054 385.094C461.429 389.894 445.755 390.461 430.868 386.665C430.038 386.49 429.689 387.756 430.518 387.93Z" fill="#E8E8E8"/>
<path d="M426.807 349.918C443.791 353.541 461.385 353.453 478.325 349.7C479.154 349.526 478.805 348.26 477.975 348.435C461.254 352.144 443.878 352.188 427.157 348.653C426.327 348.478 425.978 349.744 426.807 349.918Z" fill="#E8E8E8"/>
<path d="M437.154 350.399C434.884 345.292 436.936 339.052 438.639 334.033C440.385 328.84 442.874 323.908 445.93 319.369C445.581 319.413 445.231 319.457 444.882 319.5C445.886 320.635 446.978 321.421 448.331 322.075C448.855 322.293 449.423 321.944 449.292 321.333C448.768 318.977 447.851 316.664 448.899 314.307C449.641 312.649 450.689 310.99 451.562 309.419C451.256 309.506 450.951 309.594 450.645 309.637C451.562 310.205 452.479 310.728 453.396 311.296C454.007 311.688 454.531 310.947 454.312 310.379C453.395 308.372 452.784 306.364 454.05 304.357C454.793 303.135 455.753 302.044 456.583 300.909C458.416 298.465 460.337 296.021 462.258 293.621C465.926 289.038 469.724 284.587 473.653 280.223C473.304 280.179 472.955 280.136 472.605 280.092C478.194 287.424 481.73 296.196 482.69 305.36C483.171 309.768 483.04 314.307 482.254 318.671C481.861 320.897 481.293 323.079 480.595 325.217C480.464 325.654 480.289 326.09 480.158 326.483C479.678 327.705 478.892 328.229 477.626 328.49C476.753 328.665 476.273 328.534 475.53 329.101C475.181 329.363 475.094 329.8 475.399 330.149C476.36 331.153 476.753 331.327 476.404 332.68C476.185 333.553 475.661 334.469 475.268 335.342C474.483 337.088 473.609 338.79 472.693 340.448C470.815 343.852 468.676 347.082 466.275 350.137C465.751 350.791 466.668 351.708 467.192 351.053C471.819 345.118 475.487 338.615 478.237 331.633C478.325 331.414 478.237 331.153 478.063 330.978C477.495 330.411 476.928 329.8 476.316 329.232C476.273 329.582 476.229 329.931 476.185 330.28C477.189 329.581 478.325 330.062 479.372 329.625C480.202 329.32 480.639 328.709 480.988 327.923C481.948 325.872 482.56 323.515 483.083 321.333C484.175 316.533 484.524 311.601 484.175 306.713C483.433 296.85 479.809 287.293 473.784 279.437C473.566 279.132 473.086 278.957 472.736 279.306C467.89 284.674 463.219 290.217 458.766 295.89C456.757 298.421 454.618 300.953 452.872 303.702C451.3 306.19 452.042 308.546 453.134 311.077C453.439 310.772 453.745 310.466 454.05 310.161C453.134 309.594 452.217 309.07 451.3 308.503C450.994 308.328 450.558 308.415 450.383 308.721C449.292 310.728 447.589 312.954 446.978 315.18C446.454 317.144 447.545 319.718 447.982 321.639C448.287 321.377 448.637 321.159 448.942 320.897C447.676 320.329 446.672 319.588 445.755 318.54C445.45 318.191 444.926 318.322 444.707 318.671C441.302 323.734 438.639 329.276 436.805 335.124C435.233 340.186 433.705 345.947 435.932 351.01C436.369 351.795 437.504 351.14 437.154 350.399Z" fill="#E8E8E8"/>
<path d="M472.693 290.13C470.946 309.899 457.412 325.741 451.78 344.332C451.518 345.162 452.784 345.467 453.046 344.682C458.678 325.959 472.256 310.074 474.002 290.13C474.09 289.257 472.736 289.3 472.693 290.13Z" fill="#E8E8E8"/>
<path d="M456.19 300.647C457.587 307.848 459.202 314.962 461.036 322.032C461.254 322.861 462.52 322.512 462.302 321.682C460.468 314.613 458.853 307.455 457.456 300.298C457.325 299.469 456.059 299.818 456.19 300.647Z" fill="#E8E8E8"/>
<path d="M470.947 305.273C474.745 302.524 478.019 299.25 480.857 295.454C481.381 294.799 480.246 294.144 479.722 294.799C477.059 298.378 473.915 301.52 470.292 304.138C469.637 304.662 470.292 305.797 470.947 305.273Z" fill="#E8E8E8"/>
<path d="M466.886 286.594C468.065 290.348 468.763 294.93 471.645 297.767C472.256 298.378 473.173 297.418 472.562 296.85C469.899 294.188 469.2 289.693 468.108 286.245C467.89 285.46 466.624 285.809 466.886 286.594Z" fill="#E8E8E8"/>
<path d="M434.535 350.049C431.872 347.955 430.257 345.031 428.903 341.976C427.375 338.397 426.065 334.731 424.887 331.022C422.66 323.908 421.045 316.576 420.084 309.201C418.12 293.752 419.691 278.128 417.814 262.635C417.421 262.766 416.984 262.854 416.591 262.984C421.481 273.982 432.92 280.572 442.438 287.118C442.35 286.813 442.263 286.507 442.219 286.202C440.909 288.078 439.6 289.955 438.29 291.832C437.984 292.268 438.377 292.835 438.857 292.835C440.56 292.835 442.045 292.617 443.66 292.05C443.398 291.962 443.18 291.832 442.918 291.744C444.533 294.232 446.148 296.719 447.764 299.207C447.808 298.945 447.851 298.683 447.851 298.421C447.065 299.163 446.41 299.993 445.756 300.909C445.537 301.214 445.756 301.825 446.148 301.869C449.729 302.393 450.995 305.797 451.911 308.852C452.173 309.637 453.44 309.332 453.178 308.503C452.086 305.055 450.514 301.171 446.498 300.603C446.629 300.909 446.76 301.258 446.891 301.564C447.458 300.691 448.026 300.08 448.768 299.382C448.986 299.207 449.03 298.814 448.855 298.596C447.24 296.108 445.625 293.621 444.009 291.133C443.878 290.915 443.573 290.741 443.267 290.828C441.783 291.308 440.342 291.57 438.814 291.526C438.988 291.875 439.207 292.181 439.381 292.53C440.691 290.653 442.001 288.777 443.311 286.9C443.529 286.595 443.354 286.202 443.092 285.984C433.749 279.568 422.529 273.153 417.727 262.33C417.465 261.762 416.417 262.024 416.504 262.679C418.425 278.739 416.722 294.974 418.993 310.99C420.084 318.715 421.874 326.308 424.363 333.684C426.371 339.663 428.467 346.951 433.575 351.01C434.273 351.49 435.19 350.573 434.535 350.049Z" fill="#E8E8E8"/>
<path d="M416.853 263.945C420.39 273.72 423.359 284.02 428.117 293.315C430.475 297.898 433.051 302.393 435.277 307.062C437.679 312.125 439.818 317.275 442.001 322.381C442.306 323.166 443.442 322.468 443.136 321.726C441.084 316.838 438.988 311.95 436.762 307.15C434.579 302.436 432.047 297.941 429.602 293.359C424.712 284.02 421.7 273.546 418.076 263.639C417.814 262.81 416.548 263.159 416.853 263.945Z" fill="#E8E8E8"/>
<path d="M418.512 297.112C423.227 297.68 428.379 297.941 431.959 301.476C432.57 302.087 433.487 301.127 432.876 300.56C429.034 296.807 423.577 296.458 418.512 295.847C417.683 295.716 417.683 297.025 418.512 297.112Z" fill="#E8E8E8"/>
<path d="M431.129 279.437C430.344 282.274 429.82 285.198 429.601 288.166C429.427 290.697 429.121 293.665 429.994 296.109C430.256 296.894 431.522 296.545 431.26 295.759C430.431 293.446 430.737 290.566 430.911 288.122C431.129 285.285 431.653 282.492 432.396 279.743C432.614 278.957 431.348 278.608 431.129 279.437Z" fill="#E8E8E8"/>
<path d="M421.481 320.897C424.886 320.984 428.161 321.028 431.479 321.944C434.753 322.861 437.984 323.821 441.258 324.781C442.088 324.999 442.437 323.733 441.608 323.515C438.115 322.511 434.666 321.42 431.13 320.504C427.942 319.675 424.755 319.718 421.481 319.631C420.652 319.544 420.652 320.853 421.481 320.897Z" fill="#E8E8E8"/>
<path d="M469.244 348.828C472.169 348.435 475.051 348.435 477.976 348.828C477.845 348.522 477.714 348.173 477.583 347.867C477.321 348.26 474.701 348.304 474.177 348.348C472.999 348.522 471.776 348.697 470.597 348.958C470.423 349.002 469.244 349.133 469.2 349.264C469.288 349.046 471.034 349.089 471.296 349.089C472.562 349.089 473.828 349.22 475.094 349.308C475.094 348.871 475.094 348.435 475.094 347.998C474.003 347.955 473.042 348.086 471.951 348.391C471.252 348.566 471.383 349.657 472.125 349.657C473.828 349.657 475.356 349.308 477.015 348.871C477.845 348.653 477.495 347.387 476.666 347.606C475.182 347.998 473.697 348.348 472.125 348.348C472.169 348.784 472.256 349.22 472.3 349.613C473.217 349.351 474.134 349.264 475.094 349.264C475.924 349.264 475.924 347.998 475.094 347.955C473.173 347.867 470.379 347.169 468.633 348.26C467.934 348.697 466.93 349.831 467.847 350.53C468.24 350.835 468.676 350.661 469.157 350.617C470.466 350.355 471.732 350.05 473.042 349.831C474.57 349.569 477.626 349.962 478.674 348.522C478.892 348.217 478.674 347.606 478.281 347.562C475.225 347.126 472.256 347.126 469.2 347.518C468.414 347.606 468.414 348.915 469.244 348.828Z" fill="#E8E8E8"/>
<path d="M427.375 349.657C427.986 349.482 428.598 349.351 429.209 349.308C429.514 349.308 429.776 349.264 430.082 349.308C430.213 349.308 430.824 349.264 430.868 349.308C430.824 349.089 430.737 348.871 430.693 348.653C430.693 348.697 430.65 348.74 430.65 348.74C430.912 348.609 431.173 348.435 431.435 348.304C431.392 348.304 431.348 348.304 431.348 348.304C431.479 348.435 431.654 348.609 431.785 348.74C431.785 348.697 431.785 348.653 431.741 348.653C431.523 347.824 430.3 348.173 430.475 349.002C430.475 349.046 430.475 349.089 430.519 349.089C430.562 349.308 430.781 349.482 430.955 349.526C430.999 349.526 431.043 349.526 431.043 349.526C431.392 349.613 431.697 349.439 431.828 349.089C431.828 349.046 431.872 349.002 431.872 349.002C431.959 348.784 431.872 348.522 431.697 348.347C431.217 347.867 430.169 347.955 429.558 347.955C428.685 347.955 427.768 348.129 426.939 348.347C426.24 348.609 426.589 349.875 427.375 349.657Z" fill="#E8E8E8"/>
<path d="M428.379 358.429C444.314 361.178 460.861 362.487 476.578 357.774C477.364 357.512 477.059 356.29 476.229 356.508C460.774 361.134 444.445 359.869 428.728 357.163C427.899 357.032 427.55 358.298 428.379 358.429Z" fill="#E8E8E8"/>
<path d="M483.258 376.365C511.244 376.365 539.273 376.365 567.258 376.365C568.087 376.365 568.087 375.056 567.258 375.056C539.273 375.056 511.244 375.056 483.258 375.056C482.385 375.056 482.385 376.365 483.258 376.365Z" fill="#E8E8E8"/>
<path d="M462.084 404.427C488.453 404.427 514.867 404.427 541.237 404.427C542.066 404.427 542.066 403.118 541.237 403.118C514.867 403.118 488.453 403.118 462.084 403.118C461.254 403.118 461.254 404.427 462.084 404.427Z" fill="#E8E8E8"/>
<path d="M474.09 404.296C470.946 406.914 467.803 409.489 464.703 412.108C464.048 412.631 464.965 413.548 465.62 413.024C468.764 410.406 471.907 407.831 475.007 405.212C475.662 404.689 474.701 403.729 474.09 404.296Z" fill="#E8E8E8"/>
<path d="M465.096 413.504C465.925 413.504 465.925 412.195 465.096 412.195C464.267 412.195 464.267 413.504 465.096 413.504Z" fill="#E8E8E8"/>
<path d="M478.412 412.195C451.824 412.195 425.236 412.195 398.648 412.195C397.818 412.195 397.818 413.504 398.648 413.504C425.236 413.504 451.824 413.504 478.412 413.504C479.242 413.504 479.242 412.195 478.412 412.195Z" fill="#E8E8E8"/>
<path d="M398.517 425.724C403.232 421.796 408.078 418.043 413.055 414.421C413.71 413.941 413.099 412.806 412.4 413.286C407.336 416.952 402.402 420.793 397.6 424.764C396.945 425.331 397.862 426.248 398.517 425.724Z" fill="#E8E8E8"/>
<path d="M1.04743 401.896C31.8705 401.896 62.6936 401.896 93.5166 401.896C102.248 401.896 110.98 401.896 119.712 401.896C120.541 401.896 120.541 400.586 119.712 400.586C88.8888 400.586 58.0657 400.586 27.2427 400.586C18.5109 400.586 9.77918 400.586 1.04743 400.586C0.217914 400.586 0.217914 401.896 1.04743 401.896Z" fill="#E8E8E8"/>
<path d="M17.1579 413.286C21.3055 409.751 25.4967 406.216 29.6443 402.681C30.2992 402.114 29.3387 401.197 28.7274 401.765C24.5799 405.3 20.3886 408.835 16.2411 412.37C15.5862 412.893 16.5467 413.853 17.1579 413.286Z" fill="#E8E8E8"/>
<path d="M2.13923 414.552C30.7794 414.552 59.4195 414.552 88.0596 414.552C88.8891 414.552 88.8891 413.242 88.0596 413.242C59.4195 413.242 30.7794 413.242 2.13923 413.242C1.30971 413.242 1.30971 414.552 2.13923 414.552Z" fill="#E8E8E8"/>
<path d="M78.0614 414.29C74.787 417.956 71.4253 421.534 68.0199 425.113C67.4523 425.724 68.3692 426.64 68.9367 426.029C72.3421 422.451 75.6602 418.872 78.9782 415.206C79.5895 414.595 78.629 413.679 78.0614 414.29Z" fill="#E8E8E8"/>
<path d="M55.7086 427.208C80.8997 427.208 106.047 427.208 131.238 427.208C132.068 427.208 132.068 425.898 131.238 425.898C106.047 425.898 80.8997 425.898 55.7086 425.898C54.879 425.898 54.879 427.208 55.7086 427.208Z" fill="#E8E8E8"/>
<path d="M37.8521 379.944C48.5048 379.944 59.1576 379.944 69.854 379.944C70.6835 379.944 70.6835 378.635 69.854 378.635C59.2012 378.635 48.5485 378.635 37.8521 378.635C37.0226 378.635 37.0226 379.944 37.8521 379.944Z" fill="#E8E8E8"/>
<path d="M77.9308 384.221C81.2052 384.221 84.5232 384.221 87.7976 384.221C88.6272 384.221 88.6272 382.912 87.7976 382.912C84.5232 382.912 81.2052 382.912 77.9308 382.912C77.0576 382.912 77.0576 384.221 77.9308 384.221Z" fill="#E8E8E8"/>
<path d="M54.2241 150.869C54.2241 157.983 54.2241 165.14 54.2241 172.253C54.2241 173.083 55.5334 173.083 55.5334 172.253C55.5334 165.14 55.5334 157.983 55.5334 150.869C55.5334 150.04 54.2241 150.04 54.2241 150.869Z" fill="#E8E8E8"/>
<path d="M32.2637 173.301C49.8145 173.301 67.3654 173.301 84.9162 173.301C85.7457 173.301 85.7457 171.992 84.9162 171.992C67.3654 171.992 49.8145 171.992 32.2637 171.992C31.4342 171.992 31.4342 173.301 32.2637 173.301Z" fill="#E8E8E8"/>
<path d="M69.0244 173.912C69.0244 179.411 69.0244 184.866 69.0244 190.365C69.0244 191.194 70.3337 191.194 70.3337 190.365C70.3337 184.866 70.3337 179.411 70.3337 173.912C70.3337 173.039 69.0244 173.039 69.0244 173.912Z" fill="#E8E8E8"/>
<path d="M54.4859 192.634C68.4567 192.634 82.4712 192.634 96.442 192.634C97.2715 192.634 97.2715 191.325 96.442 191.325C82.4712 191.325 68.4567 191.325 54.4859 191.325C53.6128 191.325 53.6128 192.634 54.4859 192.634Z" fill="#E8E8E8"/>
<path d="M406.812 135.551C406.812 137.297 406.812 138.999 406.812 140.744C406.812 141.573 408.121 141.573 408.121 140.744C408.121 138.999 408.121 137.297 408.121 135.551C408.121 134.722 406.812 134.722 406.812 135.551Z" fill="#E8E8E8"/>
<path d="M407.859 136.598C437.897 136.598 467.934 136.598 497.971 136.598C498.801 136.598 498.801 135.289 497.971 135.289C467.934 135.289 437.897 135.289 407.859 135.289C407.03 135.289 407.03 136.598 407.859 136.598Z" fill="#E8E8E8"/>
<path d="M408.646 141.399C438.421 141.399 468.196 141.399 497.928 141.399C498.757 141.399 498.757 140.09 497.928 140.09C468.152 140.09 438.377 140.09 408.646 140.09C407.816 140.09 407.816 141.399 408.646 141.399Z" fill="#E8E8E8"/>
<path d="M497.753 135.551C497.578 137.34 497.666 139.129 497.971 140.919C498.102 141.748 499.368 141.399 499.237 140.57C498.931 138.911 498.888 137.209 499.062 135.551C499.15 134.722 497.84 134.722 497.753 135.551Z" fill="#E8E8E8"/>
<path d="M414.015 135.595C414.015 123.419 414.015 111.242 414.015 99.0665C414.015 98.2373 412.706 98.2373 412.706 99.0665C412.706 111.242 412.706 123.419 412.706 135.595C412.706 136.467 414.015 136.467 414.015 135.595Z" fill="#E8E8E8"/>
<path d="M414.015 99.2847C417.726 97.8009 421.656 98.0191 425.105 100.07C425.847 100.507 426.502 99.372 425.76 98.9356C422.049 96.7535 417.639 96.4043 413.666 98.0191C412.88 98.3246 413.23 99.5902 414.015 99.2847Z" fill="#E8E8E8"/>
<path d="M424.887 99.7647C424.887 111.461 424.887 123.2 424.887 134.896C424.887 135.725 426.196 135.725 426.196 134.896C426.196 123.2 426.196 111.461 426.196 99.7647C426.196 98.9355 424.887 98.9355 424.887 99.7647Z" fill="#E8E8E8"/>
<path d="M426.371 109.54C429.034 108.449 431.828 108.624 434.317 110.151C435.059 110.588 435.714 109.453 434.972 109.017C432.221 107.358 428.99 107.053 426.022 108.275C425.236 108.58 425.585 109.846 426.371 109.54Z" fill="#E8E8E8"/>
<path d="M434.055 110.108C434.055 118.312 434.055 126.473 434.055 134.678C434.055 135.507 435.364 135.507 435.364 134.678C435.364 126.473 435.364 118.312 435.364 110.108C435.364 109.279 434.055 109.279 434.055 110.108Z" fill="#E8E8E8"/>
<path d="M414.19 109.322C417.901 108.493 421.569 108.755 425.149 110.02C425.934 110.282 426.284 109.017 425.498 108.755C421.699 107.402 417.77 107.227 413.841 108.057C413.055 108.231 413.404 109.497 414.19 109.322Z" fill="#E8E8E8"/>
<path d="M425.454 124.466C428.248 123.724 431.043 123.637 433.88 124.248C434.71 124.422 435.059 123.157 434.23 122.982C431.173 122.327 428.161 122.371 425.105 123.2C424.319 123.418 424.625 124.684 425.454 124.466Z" fill="#E8E8E8"/>
<path d="M450.557 135.158C450.557 132.714 450.557 130.27 450.557 127.826C450.557 126.997 449.248 126.997 449.248 127.826C449.248 130.27 449.248 132.714 449.248 135.158C449.248 135.987 450.557 135.987 450.557 135.158Z" fill="#E8E8E8"/>
<path d="M449.903 128.219C464.092 128.219 478.237 128.219 492.427 128.219C493.256 128.219 493.256 126.91 492.427 126.91C478.237 126.91 464.092 126.91 449.903 126.91C449.03 126.91 449.03 128.219 449.903 128.219Z" fill="#E8E8E8"/>
<path d="M492.863 128.917C493.692 128.917 493.692 127.608 492.863 127.608C491.99 127.608 491.99 128.917 492.863 128.917Z" fill="#E8E8E8"/>
<path d="M492.208 128.263C492.208 130.488 492.208 132.714 492.208 134.94C492.208 135.769 493.517 135.769 493.517 134.94C493.517 132.714 493.517 130.488 493.517 128.263C493.517 127.434 492.208 127.434 492.208 128.263Z" fill="#E8E8E8"/>
<path d="M458.809 127.346C458.809 125.033 458.809 122.764 458.809 120.451C458.809 119.622 457.5 119.622 457.5 120.451C457.5 122.764 457.5 125.033 457.5 127.346C457.5 128.175 458.809 128.175 458.809 127.346Z" fill="#E8E8E8"/>
<path d="M458.154 120.887C472.081 120.887 486.009 120.887 499.979 120.887C500.809 120.887 500.809 119.578 499.979 119.578C486.052 119.578 472.125 119.578 458.154 119.578C457.325 119.578 457.325 120.887 458.154 120.887Z" fill="#E8E8E8"/>
<path d="M499.543 120.233C499.543 122.153 499.543 124.073 499.543 125.993C499.543 126.823 500.852 126.823 500.852 125.993C500.852 124.073 500.852 122.153 500.852 120.233C500.852 119.36 499.543 119.36 499.543 120.233Z" fill="#E8E8E8"/>
<path d="M491.946 128.437C494.479 128.437 497.011 128.437 499.543 128.437C500.372 128.437 500.372 127.128 499.543 127.128C497.011 127.128 494.479 127.128 491.946 127.128C491.073 127.128 491.073 128.437 491.946 128.437Z" fill="#E8E8E8"/>
<path d="M499.455 126.037C499.368 126.517 499.368 126.954 499.499 127.39C499.586 127.739 499.979 127.957 500.285 127.826C500.634 127.739 500.852 127.346 500.721 127.041C500.677 126.823 500.634 126.561 500.677 126.386C500.721 126.037 500.59 125.644 500.241 125.601C499.935 125.513 499.499 125.688 499.455 126.037Z" fill="#E8E8E8"/>
<path d="M468.109 120.538C468.676 122.764 468.807 125.033 468.501 127.346C468.414 128.175 469.723 128.175 469.811 127.346C470.116 124.946 469.942 122.546 469.374 120.189C469.156 119.403 467.89 119.753 468.109 120.538Z" fill="#E8E8E8"/>
<path d="M477.976 128.132C478.281 130.314 478.106 132.452 477.583 134.547C477.365 135.376 478.63 135.725 478.848 134.896C479.459 132.54 479.59 130.183 479.241 127.783C479.154 126.953 477.888 127.303 477.976 128.132Z" fill="#E8E8E8"/>
<path d="M469.418 181.244C469.418 184.691 469.418 188.095 469.418 191.543C469.418 192.372 470.728 192.372 470.728 191.543C470.728 188.095 470.728 184.691 470.728 181.244C470.728 180.371 469.418 180.371 469.418 181.244Z" fill="#E8E8E8"/>
<path d="M459.29 191.718C468.021 191.718 476.753 191.718 485.485 191.718C486.314 191.718 486.314 190.408 485.485 190.408C476.753 190.408 468.021 190.408 459.29 190.408C458.46 190.408 458.46 191.718 459.29 191.718Z" fill="#E8E8E8"/>
<path d="M444.402 44.9072C444.402 52.7627 444.402 60.6618 444.402 68.5173C444.402 69.3465 445.711 69.3465 445.711 68.5173C445.711 60.6618 445.711 52.7627 445.711 44.9072C445.711 44.078 444.402 44.078 444.402 44.9072Z" fill="#E8E8E8"/>
<path d="M446.061 44.8636C456.015 44.8636 465.926 44.8636 475.88 44.8636C476.71 44.8636 476.71 43.5543 475.88 43.5543C465.926 43.5543 456.015 43.5543 446.061 43.5543C445.232 43.5543 445.232 44.8636 446.061 44.8636Z" fill="#E8E8E8"/>
<path d="M475.923 44.689C475.923 52.2827 475.923 59.8763 475.923 67.4263C475.923 68.2555 477.233 68.2555 477.233 67.4263C477.233 59.8327 477.233 52.239 477.233 44.689C477.233 43.8598 475.923 43.8598 475.923 44.689Z" fill="#E8E8E8"/>
<path d="M444.882 69.2592C455.447 69.2592 466.013 69.2592 476.578 69.2592C477.408 69.2592 477.408 67.95 476.578 67.95C466.013 67.95 455.447 67.95 444.882 67.95C444.052 67.95 444.052 69.2592 444.882 69.2592Z" fill="#E8E8E8"/>
<path d="M447.327 47.613C447.327 53.5919 447.327 59.5271 447.327 65.506C447.327 66.3352 448.636 66.3352 448.636 65.506C448.636 59.5271 448.636 53.5919 448.636 47.613C448.636 46.7838 447.327 46.7838 447.327 47.613Z" fill="#E8E8E8"/>
<path d="M448.288 48.1366C456.452 48.1366 464.66 48.1366 472.824 48.1366C473.653 48.1366 473.653 46.8274 472.824 46.8274C464.66 46.8274 456.452 46.8274 448.288 46.8274C447.458 46.8274 447.458 48.1366 448.288 48.1366Z" fill="#E8E8E8"/>
<path d="M472.344 47.613C472.344 53.1555 472.344 58.6543 472.344 64.1968C472.344 65.026 473.653 65.026 473.653 64.1968C473.653 58.6543 473.653 53.1555 473.653 47.613C473.653 46.7838 472.344 46.7838 472.344 47.613Z" fill="#E8E8E8"/>
<path d="M448.288 66.1607C456.408 66.1607 464.529 66.1607 472.693 66.1607C473.522 66.1607 473.522 64.8514 472.693 64.8514C464.572 64.8514 456.452 64.8514 448.288 64.8514C447.458 64.8514 447.458 66.1607 448.288 66.1607Z" fill="#E8E8E8"/>
<path d="M463.743 58.3051C460.294 55.6866 465.446 50.2314 467.847 53.5045C470.073 56.4722 466.45 60.0508 463.35 58.3924C462.608 57.9996 461.953 59.1343 462.695 59.5271C464.703 60.6181 467.367 60.3126 468.807 58.436C470.292 56.5595 470.117 53.5918 468.24 52.0207C466.275 50.406 463.481 51.497 462.127 53.33C460.687 55.3375 461.123 57.956 463.088 59.4398C463.786 59.9199 464.398 58.7852 463.743 58.3051Z" fill="#E8E8E8"/>
<path d="M459.595 64.7641C459.42 61.3164 463.655 60.0072 466.318 60.0072C469.593 60.0072 470.641 62.9312 471.994 65.4187C472.387 66.1606 473.522 65.506 473.129 64.7641C472.212 63.1057 471.339 60.9236 469.811 59.7017C468.414 58.6106 466.668 58.6543 465.009 58.8288C461.953 59.178 458.067 61.0546 458.285 64.7641C458.329 65.5933 459.639 65.5933 459.595 64.7641Z" fill="#E8E8E8"/>
<path d="M448.855 61.6219C449.815 59.8326 453.352 60.5308 454.661 61.2291C456.015 61.971 456.801 63.193 457.15 64.6768C457.325 65.506 458.591 65.1568 458.416 64.3277C457.892 62.0583 456.321 60.269 454.05 59.5271C452.129 58.9161 448.855 58.8725 447.763 60.9236C447.327 61.7092 448.462 62.3638 448.855 61.6219Z" fill="#E8E8E8"/>
<path d="M451.387 58.3925C449.946 58.3489 450.296 56.2104 450.907 55.4685C451.693 54.5084 453.265 54.3775 454.181 55.294C454.924 55.9922 455.142 57.3015 454.531 58.1307C454.094 58.7416 453.439 58.8726 452.741 58.8726C452.479 58.8726 451.387 58.9162 451.213 58.698C450.732 57.9997 449.597 58.6544 450.077 59.3526C450.601 60.1382 451.693 60.1818 452.566 60.1818C453.614 60.2255 454.618 59.9636 455.36 59.1781C456.757 57.6506 456.277 55.0757 454.618 53.9411C452.828 52.7627 450.339 53.4174 449.423 55.3376C448.637 57.0396 449.204 59.6145 451.387 59.6581C452.26 59.7454 452.26 58.4362 451.387 58.3925Z" fill="#E8E8E8"/>
<path d="M184.196 160.907C186.248 162.565 188.78 161.867 190.701 160.252C193.408 158.026 194.762 154.23 195.285 150.869C196.639 142.315 193.19 134.198 191.836 125.906C189.392 110.501 196.115 94.0041 208.601 84.7521C214.67 80.2134 224.668 75.3692 222.31 66.0735C222.092 65.2443 220.826 65.5934 221.044 66.4226C223.271 75.2819 212.967 79.777 207.335 84.0538C202.271 87.9379 198.167 92.9567 195.242 98.5865C192.36 104.042 190.614 110.108 190.134 116.261C189.566 123.724 191.531 130.663 193.146 137.864C194.107 142.228 194.718 146.81 193.888 151.262C193.495 153.313 192.797 155.321 191.705 157.11C190.483 159.03 187.558 161.998 185.113 160.034C184.502 159.467 183.541 160.383 184.196 160.907Z" fill="#E8E8E8"/>
<path d="M221.83 65.5497C216.897 65.768 212.574 61.9275 212.836 56.8651C213.098 51.5844 219.341 46.6966 224.624 48.0931C229.339 49.3587 232.963 54.5521 231.784 59.3963C230.605 64.2405 225.148 65.2879 220.957 65.9862C220.127 66.1171 220.477 67.3827 221.306 67.2518C226.72 66.3789 233.007 64.4587 233.356 57.9125C233.618 52.5882 228.859 46.8275 223.402 46.6093C217.639 46.3474 211.832 51.0607 211.527 56.9087C211.265 62.6694 216.198 67.1208 221.83 66.9026C222.66 66.8153 222.66 65.5061 221.83 65.5497Z" fill="#E8E8E8"/>
<path d="M215.368 62.1457C217.464 56.865 228.641 55.9922 229.951 62.2766C230.125 63.1058 231.391 62.7566 231.217 61.9275C229.601 54.2465 216.635 55.3812 214.102 61.7965C213.797 62.5821 215.063 62.8876 215.368 62.1457Z" fill="#E8E8E8"/>
<path d="M221.917 56.2541C221.001 55.5995 220.651 54.3339 221.263 53.3737C221.961 52.1954 223.445 52.0645 224.581 52.6755C225.454 53.1555 225.628 54.2466 225.105 55.0758C224.45 56.0795 223.053 56.2105 221.961 55.9486C221.132 55.774 220.782 57.0396 221.612 57.2142C223.358 57.607 225.454 57.2142 226.327 55.5122C227.113 53.9847 226.545 52.1518 224.974 51.4099C223.227 50.6243 221.132 50.9735 220.127 52.6755C219.123 54.2902 219.778 56.2977 221.263 57.3451C221.961 57.9125 222.616 56.7778 221.917 56.2541Z" fill="#E8E8E8"/>
<path d="M240.429 42.8124C245.013 30.6801 258.198 24.4829 270.466 23.6538C278.586 23.0864 286.707 24.352 294.653 25.8795C302.162 27.3633 309.977 29.7199 317.661 29.4581C323.991 29.2399 330.497 26.6214 333.465 20.7298C333.858 19.9879 332.723 19.3332 332.33 20.0751C328.881 26.8832 320.935 28.6289 313.906 28.0616C305.699 27.4069 297.622 24.963 289.545 23.6101C276.447 21.428 262.476 21.1225 250.819 28.498C245.537 31.8584 241.346 36.5717 239.119 42.4633C238.857 43.2488 240.123 43.598 240.429 42.8124Z" fill="#E8E8E8"/>
<path d="M338.748 19.9878C350.274 19.9878 361.844 19.9878 373.369 19.9878C374.199 19.9878 374.199 18.6786 373.369 18.6786C361.844 18.6786 350.274 18.6786 338.748 18.6786C337.875 18.6786 337.875 19.9878 338.748 19.9878Z" fill="#E8E8E8"/>
<path d="M338.268 18.5913C336.216 16.5838 338.443 13.1797 340.058 11.6523C342.023 9.73205 344.729 8.99014 347.349 10.0375C347.567 10.1248 348.004 9.9939 348.091 9.73205C349.663 6.06616 353.374 3.40401 357.434 3.57858C361.669 3.75315 365.249 6.93899 366.297 10.954C366.384 11.3468 366.908 11.565 367.257 11.3468C369.178 10.1685 371.143 11.565 371.929 13.3543C372.627 15.0127 372.453 16.8893 372.278 18.6786C372.191 19.5078 373.5 19.5078 373.588 18.6786C373.85 16.0601 374.024 12.9615 371.929 10.954C370.444 9.55749 368.392 9.12107 366.646 10.2121C366.952 10.343 367.301 10.474 367.607 10.6049C366.428 6.24072 362.673 2.74939 358.089 2.31298C353.374 1.83292 348.833 4.75691 347 9.07743C347.262 8.99014 347.48 8.85922 347.742 8.77194C344.249 7.37541 340.582 8.85922 338.312 11.7396C336.609 13.878 335.124 17.3257 337.438 19.5514C337.962 20.1188 338.879 19.2023 338.268 18.5913Z" fill="#E8E8E8"/>
<path d="M363.109 25.0066C368.479 24.3957 371.623 30.0254 372.452 34.5641C373.326 39.2338 372.496 43.9035 372.016 48.5731C371.274 55.5994 371.754 64.0659 378.434 68.1682C379.132 68.6046 379.831 67.4699 379.089 67.0335C369.964 61.4474 373.762 49.0095 374.111 40.4558C374.373 33.9532 371.798 22.7373 363.109 23.6974C362.28 23.7847 362.28 25.0939 363.109 25.0066Z" fill="#E8E8E8"/>
<path d="M385.681 60.7928C381.752 70.6994 377.866 80.6061 373.937 90.4691C373.631 91.2546 374.897 91.6038 375.203 90.8182C379.132 80.9116 383.018 71.0049 386.947 61.1419C387.253 60.3564 385.987 60.0509 385.681 60.7928Z" fill="#E8E8E8"/>
<path d="M386.293 61.622C393.103 61.2728 399.87 61.4474 406.638 62.2329C406.419 61.9711 406.201 61.6656 406.026 61.4037C402.796 71.7468 400.176 82.2208 398.08 92.8257C397.906 93.6549 399.172 94.004 399.347 93.1748C401.442 82.5699 404.105 72.0959 407.292 61.7529C407.423 61.3165 407.074 60.9673 406.681 60.9237C399.914 60.1381 393.147 59.9636 386.336 60.3127C385.463 60.3563 385.463 61.6656 386.293 61.622Z" fill="#E8E8E8"/>
<path d="M374.243 91.7346C378.259 91.9092 382.232 92.1274 386.249 92.3893C390.135 92.6075 394.282 92.5202 397.949 94.004C398.735 94.3095 399.085 93.0439 398.299 92.7384C394.806 91.2982 390.833 91.3855 387.122 91.1673C382.844 90.9054 378.565 90.6872 374.243 90.469C373.413 90.3817 373.413 91.691 374.243 91.7346Z" fill="#E8E8E8"/>
<path d="M386.903 65.9862C391.095 66.0735 395.286 66.379 399.434 66.9463C400.263 67.0772 400.612 65.8116 399.783 65.6807C395.504 65.0697 391.226 64.7206 386.903 64.6333C386.03 64.6333 386.03 65.9426 386.903 65.9862Z" fill="#E8E8E8"/>
<path d="M385.637 68.9538C387.995 68.8665 390.352 68.9101 392.71 69.1283C393.539 69.2156 393.539 67.9064 392.71 67.8191C390.352 67.6009 387.995 67.5136 385.637 67.6445C384.808 67.6882 384.808 68.9974 385.637 68.9538Z" fill="#E8E8E8"/>
<path d="M382.756 74.8454C387.777 74.5399 392.536 74.1035 397.469 75.3254C398.298 75.5437 398.648 74.278 397.818 74.0598C392.754 72.8379 387.908 73.2306 382.756 73.5361C381.883 73.5798 381.883 74.889 382.756 74.8454Z" fill="#E8E8E8"/>
<path d="M382.975 78.6858C385.856 78.4676 388.737 78.4676 391.619 78.7295C392.448 78.8168 392.448 77.5075 391.619 77.4202C388.737 77.1584 385.856 77.1584 382.975 77.3766C382.145 77.4639 382.101 78.7731 382.975 78.6858Z" fill="#E8E8E8"/>
<path d="M380.704 83.7483C384.633 83.4864 388.475 83.6174 392.361 84.1411C393.191 84.272 393.191 82.9627 392.361 82.8318C388.475 82.3081 384.59 82.1772 380.704 82.439C379.875 82.4827 379.875 83.7919 380.704 83.7483Z" fill="#E8E8E8"/>
<path d="M163.458 25.1813C165.205 27.5379 167.737 28.498 170.313 29.6764C173.369 31.0729 176.163 32.9495 178.433 35.4371C183.585 40.9795 185.288 48.4423 185.419 55.8177C185.724 69.6521 181.053 84.1411 187.34 97.2336C187.689 97.9755 188.824 97.3209 188.475 96.579C181.882 82.7882 187.733 67.3391 186.597 52.8501C186.117 46.5657 184.327 40.4122 180.267 35.5243C178.346 33.2113 175.988 31.2038 173.369 29.72C170.444 28.0616 166.645 27.3197 164.593 24.5266C164.113 23.872 162.978 24.5266 163.458 25.1813Z" fill="#E8E8E8"/>
<path d="M148.527 6.72085C147.392 5.28067 147.479 4.27692 148.789 3.70958C149.356 3.40408 149.924 3.18588 150.579 3.05495C151.408 2.88039 152.325 2.83674 153.198 2.88038C155.818 3.01131 158.481 3.70958 158.35 6.89542C158.219 10.6486 157.52 14.3581 156.604 17.9804C155.643 21.6899 154.464 25.3122 153.198 28.9344C152.936 29.72 152.718 30.6365 152.325 31.3784C151.539 32.7313 150.317 32.6876 149.007 32.6876C147.392 32.6876 145.34 32.9058 143.768 32.4694C142.022 31.9893 141.629 30.2437 143.331 29.109C144.117 28.5853 145.209 28.498 146.125 28.498C147.304 28.498 148.352 28.7599 149.356 27.9743C151.277 26.4905 151.583 22.4755 152.019 20.337C152.674 17.2385 153.766 13.4417 153.547 10.2995C153.373 7.89917 151.015 7.81189 149.313 6.80813C148.57 6.37172 147.915 7.5064 148.658 7.94281C150.011 8.72836 151.976 8.81565 152.238 10.605C152.543 12.6998 151.67 15.5365 151.277 17.6312C150.884 19.6388 150.448 21.6463 149.924 23.6102C149.531 25.094 149.356 26.8833 147.392 27.276C146.606 27.4506 145.645 27.1888 144.816 27.3197C142.72 27.6252 140.668 29.109 140.974 31.4656C141.367 34.4333 144.903 33.9096 147.086 33.9969C149.793 34.0841 152.5 34.4769 153.722 31.5966C155.25 28.018 156.342 24.0902 157.389 20.3807C158.481 16.5402 159.31 12.5688 159.616 8.59744C159.878 5.49888 160.009 3.01131 156.56 2.18212C153.547 1.44021 149.4 1.09108 147.042 3.53501C145.471 5.14975 145.863 8.33559 148.57 8.11738C149.356 7.94282 149.356 6.63356 148.527 6.72085Z" fill="#E8E8E8"/>
<path d="M143.244 11.3905C143.201 11.3468 143.157 11.3032 143.113 11.2595C142.939 11.085 142.677 11.0413 142.458 11.085C141.192 11.5214 140.712 13.5725 140.363 14.7072C139.752 16.802 139.621 18.9404 139.926 21.1225C140.014 21.9517 141.323 21.9517 141.236 21.1225C141.061 19.5951 141.018 18.1113 141.28 16.5838C141.411 15.7983 142.764 12.7433 142.284 12.3069C142.895 12.9179 143.812 12.0014 143.244 11.3905Z" fill="#E8E8E8"/>
<path d="M138.835 6.58995C134.818 11.696 132.242 17.8495 133.945 24.3957C134.163 25.2249 135.429 24.8758 135.211 24.0466C133.639 18.0241 136.084 12.2197 139.751 7.50642C140.275 6.8518 139.358 5.93533 138.835 6.58995Z" fill="#E8E8E8"/>
<path d="M133.334 0.698278C126.654 9.47024 123.51 20.5552 124.646 31.5529C124.733 32.3821 126.043 32.3821 125.955 31.5529C124.864 20.7734 127.876 9.99394 134.469 1.3529C134.949 0.698278 133.814 0.043654 133.334 0.698278Z" fill="#E8E8E8"/>
<path d="M124.034 45.3C120.673 46.9148 117.529 49.1405 115.041 51.9336C112.509 54.8139 111.723 57.9124 111.33 61.6656C110.457 70.263 107.27 79.6896 98.6251 83.3119C97.8392 83.6174 98.1885 84.883 98.9744 84.5775C105.872 81.6971 109.889 75.1509 111.592 68.081C112.596 63.8477 112.116 58.8289 114.342 55.0321C116.612 51.148 120.716 48.3113 124.689 46.3911C125.475 46.0856 124.82 44.9509 124.034 45.3Z" fill="#E8E8E8"/>
<path d="M80.1573 106.486C77.2759 106.573 74.0015 105.351 72.9537 102.383C71.7312 98.8919 74.3507 95.4878 77.1449 93.6985C82.5586 90.2072 89.8496 88.8543 96.1364 88.767C99.3235 88.7234 102.947 88.767 105.741 90.469C109.321 92.6511 109.933 96.7534 107.138 99.852C102.904 104.565 95.6125 105.045 89.7623 105.482C88.9328 105.525 88.9328 106.835 89.7623 106.791C95.6125 106.355 102.161 105.831 106.876 101.903C111.199 98.3245 111.504 92.3893 106.44 89.2907C101.201 86.1049 93.2113 87.1523 87.5357 88.3742C82.0783 89.5526 74.6127 91.691 72.1678 97.3208C69.6356 103.081 74.4817 107.882 80.2447 107.707C81.0305 107.751 81.0305 106.442 80.1573 106.486Z" fill="#E8E8E8"/>
<path d="M79.9392 107.009C78.8478 108.755 77.7999 110.501 76.7085 112.203C76.3592 112.77 77.0577 113.381 77.6253 113.119C80.2885 111.679 83.17 110.762 85.8768 109.497C87.3612 108.842 88.8019 108.057 90.199 107.184C90.6793 106.878 91.2468 106.704 91.3778 106.093C91.4651 105.787 91.2905 105.351 90.9412 105.307C90.8976 105.307 90.8539 105.307 90.8102 105.264C90.5046 105.22 90.068 105.351 90.0244 105.7C90.0244 105.744 90.0244 105.744 90.0244 105.787C89.8498 106.616 91.1159 106.966 91.2905 106.136C91.2905 106.093 91.2905 106.093 91.2905 106.049C91.0285 106.18 90.7666 106.355 90.5046 106.486C90.5483 106.486 90.5919 106.486 90.6356 106.529C90.5046 106.267 90.33 106.005 90.199 105.744C90.068 106.18 87.6232 107.184 87.0992 107.489C85.7895 108.188 84.4361 108.755 83.039 109.322C80.987 110.151 78.9787 110.937 77.0577 111.984C77.3634 112.29 77.669 112.595 77.9746 112.901C79.066 111.155 80.1139 109.41 81.2053 107.708C81.5109 106.966 80.3758 106.311 79.9392 107.009Z" fill="#E8E8E8"/>
<path d="M81.3798 99.4593C81.3361 99.372 81.3361 99.1974 81.4671 99.1974C81.8163 99.1974 81.4234 99.6338 81.3798 99.6775C81.1615 99.8084 80.4193 99.983 80.4629 99.5466C80.5066 99.0229 81.5107 98.4555 81.6854 99.2411C81.729 99.4593 81.5544 99.7211 81.3361 99.7648C81.2051 99.8084 81.1178 99.8084 81.0305 99.7211C80.9868 99.6775 80.8995 99.6338 80.9868 99.6338C81.8163 99.6775 81.8163 98.3682 80.9868 98.3246C80.1136 98.2373 79.4588 99.1538 79.6771 99.983C79.8954 100.812 80.8558 101.249 81.6417 101.03C82.4276 100.812 83.0388 100.114 83.0388 99.2847C83.0388 98.4555 82.3839 97.7573 81.6417 97.5827C80.0263 97.1899 78.3236 99.5466 79.7207 100.725C80.8558 101.685 83.1261 100.812 82.9951 99.1974C82.9078 98.3246 81.9473 97.6263 81.0741 97.9318C80.201 98.2373 79.8517 99.3284 80.2883 100.114C80.6376 100.856 81.7727 100.201 81.3798 99.4593Z" fill="#E8E8E8"/>
<path d="M91.0284 98.281C90.9847 98.0191 90.8537 97.67 91.1157 97.4518C91.2466 97.3209 91.4649 97.3209 91.6396 97.3209C92.0762 97.4082 91.9888 97.8882 91.6832 98.1064C91.5086 98.2373 91.334 98.2373 91.203 98.0628C91.072 97.8882 91.1157 97.8446 91.2466 97.7573C91.334 97.7136 91.072 97.7573 91.2903 97.7136C91.8142 97.6264 90.941 98.2373 91.072 97.8009C90.8101 98.6301 92.0762 98.9356 92.3381 98.1501C92.5564 97.3645 91.8142 96.579 91.0284 96.7099C90.1115 96.8845 89.8932 97.9755 90.4608 98.6301C90.9847 99.2411 91.9452 99.1102 92.3381 98.4119C92.731 97.7136 92.4691 96.7972 91.6832 96.5353C90.8974 96.2735 90.0242 96.7535 89.8496 97.5391C89.6313 98.4119 90.2425 99.2847 91.1157 99.5029C92.6874 99.8521 93.9972 97.7136 92.862 96.5353C92.2945 95.968 91.3776 95.9243 90.6791 96.2298C89.7186 96.7099 89.6749 97.7136 89.8496 98.6301C89.8932 99.4593 91.1593 99.1102 91.0284 98.281Z" fill="#E8E8E8"/>
<path d="M100.721 95.357C100.895 95.357 101.07 95.4007 101.288 95.4007V95.357C101.332 95.3134 101.332 95.2261 101.376 95.1824C101.419 95.0952 101.55 95.0079 101.637 94.9642C101.856 94.877 102.074 94.877 102.205 95.0952C102.38 95.4443 102.074 96.0989 101.637 95.8371C101.376 95.6625 101.332 95.2261 101.725 95.3134C101.812 95.3134 101.856 95.357 101.899 95.4007C101.899 95.4007 101.899 95.4879 101.899 95.4007C101.899 95.3134 101.899 95.4443 101.856 95.4443C101.725 95.5316 101.681 95.6189 101.55 95.5316C101.245 95.3134 100.808 95.4879 100.633 95.7498C100.459 96.0989 100.59 96.4481 100.852 96.6663C102.118 97.5827 103.82 95.7498 102.816 94.5278C101.899 93.4368 99.9348 94.135 100.022 95.5752C100.066 96.3171 100.633 96.9718 101.332 97.1463C102.03 97.3209 102.773 96.9717 103.166 96.3608C104.039 95.0079 102.816 93.1313 101.201 93.655C100.459 93.9168 99.8038 94.6587 99.8911 95.4879C99.9785 96.4044 101.288 96.8845 101.768 95.968C102.205 95.2697 101.114 94.6151 100.721 95.357Z" fill="#E8E8E8"/>
<path d="M127.09 57.3014C132.46 54.3338 137.132 50.4061 141.017 45.6491C141.541 44.9945 140.624 44.078 140.101 44.7327C136.302 49.4023 131.718 53.2428 126.435 56.1668C125.693 56.5595 126.348 57.6942 127.09 57.3014Z" fill="#E8E8E8"/>
<path d="M192.404 58.4362C191.444 63.935 191.051 69.4775 191.313 75.0636C191.356 75.8928 192.666 75.8928 192.622 75.0636C192.36 69.6084 192.709 64.1532 193.669 58.7853C193.8 57.9561 192.535 57.607 192.404 58.4362Z" fill="#E8E8E8"/>
<path d="M185.724 186.001C185.724 179.323 188.868 172.995 194.238 168.98C194.893 168.5 194.238 167.366 193.583 167.846C187.82 172.123 184.458 178.8 184.458 186.001C184.414 186.83 185.724 186.83 185.724 186.001Z" fill="#E8E8E8"/>
<path d="M258.852 362.226C259.551 368.51 260.642 375.405 262.389 382.868C264.746 392.949 267.759 401.765 270.771 409.184C269.942 409.926 267.453 411.89 263.786 412.152C261.472 412.326 259.638 411.759 258.59 411.366C257.019 405.911 255.491 400.237 254.094 394.346C251.212 382.213 249.116 370.648 247.588 359.869C251.387 360.654 255.141 361.44 258.852 362.226Z" fill="#191919"/>
<path d="M356.867 358.123C356.299 364.364 355.338 371.303 353.723 378.766C351.453 389.327 348.44 398.492 345.384 406.216C345.821 406.609 348.309 408.966 352.151 408.791C355.469 408.66 357.609 406.696 358.133 406.216C359.137 400.936 360.097 395.611 361.058 390.287C363.153 378.635 365.031 367.157 366.821 355.81C363.503 356.552 360.185 357.338 356.867 358.123Z" fill="#191919"/>
<path d="M278.805 340.71C279.809 347.387 280.988 354.283 282.341 361.353C284.306 371.608 286.532 381.384 288.89 390.636C287.886 391.247 285.877 392.251 283.127 392.426C280.813 392.556 278.979 392.033 277.932 391.64C276.622 385.443 275.356 379.158 274.09 372.874C271.776 361.222 269.636 349.744 267.584 338.397C271.339 339.139 275.05 339.925 278.805 340.71Z" fill="#191919"/>
<path d="M340.407 339.401C339.228 345.991 338.181 352.886 337.264 360.043C335.998 369.906 335.124 379.333 334.601 388.323C335.343 388.803 337.089 389.807 339.578 389.938C342.241 390.025 344.205 388.978 344.948 388.541C344.511 383.392 344.336 377.675 344.598 371.565C345.122 357.992 347.611 346.296 350.361 337.088C347.043 337.83 343.725 338.615 340.407 339.401Z" fill="#191919"/>
<path d="M417.989 193.376C425.629 206.992 419.735 222.049 405.415 259.45C398.517 277.43 385.899 310.467 368.087 357.556C350.58 363.928 321.59 371.783 285.746 369.295C264.921 367.855 247.458 363.36 234.229 358.734C232.264 355.199 225.454 341.976 230.562 329.145C233.4 322.032 239.119 316.926 251.256 310.903C263.218 304.968 284.306 296.632 314.954 295.105C302.948 235.359 323.511 186.393 355.513 175.09C376.513 167.715 407.467 174.654 417.989 193.376Z" fill="white" stroke="#191919" stroke-width="2" stroke-miterlimit="10"/>
<path d="M415.194 198.308C402.533 214.324 399.652 235.839 394.806 255.085C389.61 275.684 383.629 296.239 374.679 315.573C369.746 326.178 363.939 336.39 356.997 345.816C356.517 346.515 357.652 347.169 358.133 346.471C370.313 329.887 378.914 311.078 385.55 291.701C392.274 271.975 396.727 251.638 401.966 231.519C404.935 220.085 408.733 208.651 416.155 199.268C416.635 198.569 415.718 197.653 415.194 198.308Z" fill="#191919"/>
<path d="M234.491 349.264C263.611 359.956 295.351 363.098 326 358.341C334.775 356.989 343.463 354.981 351.976 352.363C352.762 352.101 352.457 350.835 351.627 351.097C321.939 360.262 290.068 361.658 259.682 355.199C251.256 353.41 242.917 350.966 234.84 347.998C234.054 347.693 233.705 348.958 234.491 349.264Z" fill="#191919"/>
<path d="M337.002 314.962C344.336 317.362 350.579 322.206 354.771 328.753C355.207 329.451 356.342 328.796 355.906 328.098C351.54 321.29 345.035 316.227 337.351 313.696C336.521 313.434 336.172 314.7 337.002 314.962Z" fill="#191919"/>
<path d="M205.677 371.478C209.169 376.715 212.662 381.995 216.111 387.232C193.758 407.307 190.876 413.024 192.535 414.421C195.853 417.17 219.647 404.951 222.092 403.685C230.955 399.146 237.635 394.739 242.088 391.596C240.516 387.319 238.421 382.519 235.539 377.456C231.741 370.779 227.55 365.15 223.577 360.567C217.595 364.146 211.614 367.812 205.677 371.478Z" fill="#191919"/>
<path d="M336.303 268.614C337.875 272.018 339.534 276.863 339.796 282.71C340.189 291.526 337.307 298.552 335.124 302.611C333.946 304.139 331.85 306.67 328.75 309.419C328.75 309.419 321.721 315.616 310.545 320.373C299.15 325.261 266.013 331.153 221.001 332.287C222.31 337.874 224.668 344.725 228.859 352.101C231.173 356.159 233.705 359.738 236.194 362.837C234.535 365.019 229.82 370.561 220.433 374.052C211.396 377.413 203.101 377.02 199.826 376.758C195.111 372.438 190.265 367.288 185.768 361.135C172.539 342.936 169.44 325.348 168.872 314.045C172.146 311.689 176.949 308.459 183.236 305.011C196.333 297.811 208.34 293.883 218.206 290.959C235.19 285.984 251.431 282.536 288.803 276.208C300.503 274.244 316.701 271.538 336.303 268.614Z" fill="white" stroke="#191919" stroke-width="2" stroke-miterlimit="10"/>
<path opacity="0.19" d="M294.828 276.121C293.562 284.456 289.982 295.279 278.892 302C268.109 308.546 259.071 305.884 237.46 311.121C221.918 314.874 201.354 319.85 195.635 330.891C189.654 342.5 200.961 358.865 220.739 372.307C222.398 372.089 224.494 371.652 226.72 370.779C232.439 368.51 235.234 364.8 236.281 363.186C233.749 360.131 231.13 356.596 228.728 352.537C224.188 344.943 221.743 337.873 220.346 332.156C243.485 331.196 262.913 329.189 277.67 327.269C295.439 324.956 307.751 322.643 319.495 316.009C329.318 310.467 333.247 305.011 334.644 302.917C338.879 296.501 339.229 290.653 339.403 287.38C339.84 279.394 337.22 272.891 335.037 268.789C321.634 271.233 308.231 273.677 294.828 276.121Z" fill="#6C6D6D"/>
<path opacity="0.19" d="M335.474 269.705C334.601 277.823 331.501 290.653 319.146 300.778C311.549 307.019 303.385 309.812 271.339 318.453C257.194 322.25 240.08 326.745 220.608 331.633C245.362 331.371 265.489 329.32 279.94 327.356C294.915 325.305 302.25 323.515 309.846 320.242C317.05 317.144 331.588 310.859 337.526 297.636C343.245 284.805 337.482 273.284 335.474 269.705Z" fill="#6C6D6D"/>
<path opacity="0.22" d="M220.739 332.287C220.564 338.048 220.826 344.638 221.917 351.882C222.965 359.04 224.668 365.455 226.502 371.041C227.986 370.168 229.689 368.99 231.348 367.55C233.356 365.804 234.84 364.146 235.932 362.706C233.4 359.389 230.824 355.548 228.423 351.228C224.537 344.245 222.223 337.786 220.739 332.287Z" fill="#6C6D6D"/>
<path d="M218.73 396.528C222.092 403.117 225.41 409.707 228.772 416.341C207.292 441.566 204.498 448.723 206.113 450.469C209.3 453.96 232.177 438.554 234.535 436.983C243.048 431.266 249.51 425.724 253.788 421.796C252.26 416.428 250.252 410.406 247.458 403.99C243.834 395.611 239.774 388.541 235.976 382.737C230.213 387.363 224.45 391.945 218.73 396.528Z" fill="#191919"/>
<path d="M344.293 267.261C345.821 271.582 347.393 277.604 347.655 284.98C348.048 296.065 345.253 304.88 343.158 309.986C342.023 311.907 340.014 315.092 337.046 318.584C337.046 318.584 330.322 326.396 319.582 332.374C308.624 338.484 276.753 345.947 233.531 347.344C234.797 354.37 237.023 362.967 241.084 372.219C243.31 377.325 245.755 381.82 248.156 385.705C246.585 388.454 242.044 395.393 233.007 399.801C224.319 404.034 216.373 403.554 213.186 403.161C208.645 397.75 203.974 391.247 199.695 383.522C186.947 360.654 183.978 338.528 183.454 324.344C186.598 321.42 191.225 317.318 197.25 312.998C209.868 303.964 221.35 298.989 230.867 295.323C247.152 289.082 262.826 284.762 298.757 276.775C309.846 274.288 325.476 270.927 344.293 267.261Z" fill="white" stroke="#191919" stroke-width="2" stroke-miterlimit="10"/>
<path opacity="0.19" d="M304.432 276.688C303.21 287.162 299.761 300.734 289.108 309.201C278.761 317.449 270.029 314.089 249.291 320.678C234.36 325.392 214.583 331.676 209.082 345.554C203.319 360.13 214.19 380.729 233.181 397.575C234.797 397.313 236.805 396.746 238.944 395.655C244.445 392.818 247.108 388.148 248.112 386.097C245.668 382.257 243.135 377.805 240.821 372.699C236.456 363.142 234.098 354.282 232.788 347.082C255.054 345.86 273.696 343.372 287.929 340.972C305.043 338.091 316.831 335.167 328.139 326.832C337.569 319.849 341.367 312.998 342.677 310.379C346.737 302.305 347.087 294.974 347.261 290.871C347.654 280.834 345.166 272.673 343.07 267.523C330.191 270.534 317.312 273.589 304.432 276.688Z" fill="#6C6D6D"/>
<path opacity="0.19" d="M343.463 268.614C342.634 278.783 339.665 294.93 327.79 307.673C320.455 315.529 312.64 319.02 281.861 329.887C268.239 334.687 251.824 340.317 233.094 346.471C256.888 346.122 276.273 343.59 290.156 341.103C304.564 338.528 311.636 336.302 318.884 332.2C325.825 328.272 339.753 320.417 345.515 303.746C350.973 287.598 345.428 273.153 343.463 268.614Z" fill="#6C6D6D"/>
<path opacity="0.22" d="M233.225 347.3C233.051 354.544 233.312 362.836 234.36 371.914C235.408 380.948 236.98 388.978 238.77 395.96C240.211 394.826 241.826 393.385 243.441 391.552C245.362 389.37 246.803 387.276 247.851 385.486C245.406 381.297 242.917 376.496 240.647 371.041C236.893 362.313 234.622 354.152 233.225 347.3Z" fill="#6C6D6D"/>
<path d="M216.242 199.442C215.412 199.049 213.753 198.307 213.797 197.478C213.884 196.125 218.381 195.209 221.743 195.252C224.013 195.252 228.204 195.733 233.094 199.137C228.51 200.577 221.743 201.886 216.242 199.442Z" fill="white" stroke="#191919" stroke-width="2" stroke-miterlimit="10"/>
<path d="M321.241 142.839C312.946 141.748 305.48 154.186 304.782 155.32C302.249 159.641 301.944 162.521 300.198 170.42C295.963 189.666 293.692 199.442 287.406 205.334C281.73 210.614 275.094 211.88 273.347 212.142C265.882 213.32 259.115 210.527 245.93 204.897C234.797 200.14 233.443 198.395 227.375 197.696C224.275 197.347 215.238 196.344 209.256 202.148C205.414 205.857 203.712 211.793 205.109 213.015C206.899 214.586 214.234 209.043 214.321 209.174C214.365 209.262 212.138 210.309 210.304 212.578C209.387 213.669 207.816 216.026 208.383 216.637C209.387 217.859 215.543 210.44 222.31 211.749C226.938 212.622 227.811 216.811 233.181 217.597C236.325 218.077 239.075 217.117 240.822 216.288C243.878 219.605 248.855 224.318 256.059 228.158C260.337 230.428 275.443 238.24 293.911 233.701C313.513 228.9 323.38 213.582 326.48 208.781C328.226 206.032 341.062 185.52 334.863 162.521C333.771 158.812 329.798 143.974 321.241 142.839Z" fill="white" stroke="#191919" stroke-width="2" stroke-miterlimit="10"/>
<path opacity="0.25" d="M320.368 142.97C317.53 144.454 323.031 154.753 322.332 169.504C321.677 183.688 315.609 194.162 312.902 198.962C309.235 205.377 304.389 213.757 294.74 219.212C281.773 226.544 265.707 225.453 254.268 220.477C250.863 218.994 247.414 214.193 239.905 211.269C236.63 210.003 234.054 209.48 231.042 208.869C223.664 207.429 217.115 206.119 211.046 209.174C208.165 210.658 205.764 212.927 205.938 213.233C206.113 213.538 209.475 211.836 212.443 210.222C208.863 214.979 208.296 216.331 208.558 216.593C208.863 216.855 209.955 215.851 212.749 214.28C215.761 212.622 217.944 211.444 220.607 211.662C221.961 211.793 223.009 212.229 223.62 212.491C226.021 213.538 226.589 214.76 228.99 215.982C230.474 216.724 231.697 217.03 232.352 217.161C233.749 217.466 236.63 217.859 240.429 216.506C243.747 219.997 258.983 235.446 281.293 235.141C292.775 234.966 301.201 230.69 304.52 228.988C322.725 219.517 329.973 202.715 331.806 198.089C337.482 183.775 339.49 162.565 329.099 149.254C326.611 146.025 322.332 141.966 320.368 142.97Z" fill="#6C6D6D"/>
<path d="M205.894 213.015C207.597 210.483 209.824 208.476 212.487 207.036C213.054 206.73 212.53 205.901 212.007 206.207C209.212 207.734 206.855 209.873 205.065 212.535C204.672 213.058 205.545 213.538 205.894 213.015Z" fill="#191919"/>
<path d="M206.419 207.385C208.121 204.723 210.872 203.326 213.622 201.973C214.19 201.711 213.71 200.839 213.142 201.144C210.217 202.541 207.335 204.068 205.545 206.905C205.24 207.428 206.069 207.909 206.419 207.385Z" fill="#191919"/>
<path opacity="0.29" d="M332.898 158.681C332.243 163.089 331.064 169.46 328.969 176.967C324.865 191.805 321.154 205.159 311.461 215.764C299.455 228.857 283.171 232.435 273.828 233.526C280.769 235.141 286.227 234.836 289.676 234.355C315.871 230.69 330.016 202.541 333.858 190.234C334.513 188.052 335.91 183.557 336.085 177.403C336.391 169.199 334.382 162.609 332.898 158.681Z" fill="#6C6D6D"/>
<path opacity="0.26" d="M223.184 211.225C225.672 212.447 229.078 213.8 233.269 214.586C236.587 215.197 239.556 215.328 241.913 215.24C235.932 218.426 232.832 218.033 231.086 216.986C229.994 216.331 228.772 215.022 225.41 212.709C224.493 212.055 223.707 211.531 223.184 211.225Z" fill="#6C6D6D"/>
<path d="M134.906 282.972C134.906 303.92 134.906 324.912 134.906 345.86C134.906 348.391 138.835 348.391 138.835 345.86C138.835 324.912 138.835 303.92 138.835 282.972C138.835 280.485 134.906 280.441 134.906 282.972Z" fill="#161616"/>
<path d="M206.331 282.143C206.331 285.503 206.331 288.864 206.331 292.224C206.331 294.755 210.26 294.755 210.26 292.224C210.26 288.864 210.26 285.503 210.26 282.143C210.26 279.612 206.331 279.612 206.331 282.143Z" fill="#161616"/>
<path d="M80.6816 280.397C101.856 260.453 123.031 240.465 144.249 220.521C178.521 221.132 212.749 221.743 247.021 222.354C241.433 241.731 235.845 261.064 230.256 280.441C180.398 280.397 130.54 280.397 80.6816 280.397Z" fill="white" stroke="#191919" stroke-width="2" stroke-miterlimit="10"/>
<path d="M81.9475 282.667C120.236 282.667 158.481 282.667 196.77 282.667C207.51 282.667 218.206 282.667 228.946 282.667C231.479 282.667 231.479 278.739 228.946 278.739C190.658 278.739 152.413 278.739 114.124 278.739C103.384 278.739 92.6875 278.739 81.9475 278.739C79.4153 278.739 79.4153 282.667 81.9475 282.667Z" fill="#161616"/>
<path d="M93.168 282.012C93.168 325.435 93.168 368.859 93.168 412.239C93.168 424.415 93.168 436.547 93.168 448.723C93.168 451.254 97.0973 451.254 97.0973 448.723C97.0973 405.3 97.0973 361.876 97.0973 318.496C97.0973 306.32 97.0973 294.188 97.0973 282.012C97.0973 279.481 93.168 279.481 93.168 282.012Z" fill="#161616"/>
<path d="M212.924 282.012C212.924 325.435 212.924 368.859 212.924 412.239C212.924 424.415 212.924 436.547 212.924 448.723C212.924 451.254 216.853 451.254 216.853 448.723C216.853 405.3 216.853 361.876 216.853 318.496C216.853 306.32 216.853 294.188 216.853 282.012C216.853 279.481 212.924 279.481 212.924 282.012Z" fill="#161616"/>
<path d="M95.1326 363.054C125.956 363.054 156.779 363.054 187.602 363.054C196.333 363.054 205.065 363.054 213.797 363.054C216.329 363.054 216.329 359.127 213.797 359.127C182.974 359.127 152.151 359.127 121.328 359.127C112.596 359.127 103.864 359.127 95.1326 359.127C92.6003 359.127 92.6003 363.054 95.1326 363.054Z" fill="#161616"/>
<path d="M246.497 222.354C241.52 241.774 235.801 261.02 229.252 279.961C228.685 281.576 231.217 282.23 231.784 280.659C238.333 261.675 244.053 242.473 249.03 223.052C249.423 221.437 246.934 220.739 246.497 222.354Z" fill="#161616"/>
<path d="M37.4592 453C60.642 453 83.7811 453 106.964 453C109.496 453 109.496 449.072 106.964 449.072C83.7811 449.072 60.642 449.072 37.4592 449.072C34.927 449.072 34.927 453 37.4592 453Z" fill="#161616"/>
<path d="M116.7 452.127C122.026 452.127 127.396 452.127 132.723 452.127C135.255 452.127 135.255 448.199 132.723 448.199C127.396 448.199 122.026 448.199 116.7 448.199C114.168 448.199 114.168 452.127 116.7 452.127Z" fill="#161616"/>
<path d="M186.204 452.694C207.073 452.694 227.942 452.694 248.855 452.694C251.387 452.694 251.387 448.767 248.855 448.767C227.986 448.767 207.117 448.767 186.204 448.767C183.672 448.767 183.672 452.694 186.204 452.694Z" fill="#161616"/>
<path d="M263.131 451.298C266.842 451.298 270.553 451.298 274.308 451.298C276.84 451.298 276.84 447.37 274.308 447.37C270.597 447.37 266.886 447.37 263.131 447.37C260.599 447.37 260.599 451.298 263.131 451.298Z" fill="#161616"/>
<path d="M16.4158 439.166C25.4531 439.166 34.4905 439.166 43.4842 439.166C46.0164 439.166 46.0164 435.238 43.4842 435.238C34.4468 435.238 25.4095 435.238 16.4158 435.238C13.8836 435.238 13.8836 439.166 16.4158 439.166Z" fill="#161616"/>
<path d="M207.379 272.149C180.441 271.451 153.46 270.796 126.523 270.098C142.502 254.824 158.437 239.505 174.417 224.231C192.841 225.191 211.308 226.151 229.732 227.111C222.267 242.167 214.845 257.137 207.379 272.149Z" fill="white" stroke="#191919" stroke-width="2" stroke-miterlimit="10"/>
<path d="M173.5 223.925C157.826 239.069 142.153 254.256 126.479 269.4C125.781 245.135 125.038 220.827 124.34 196.562C140.232 186.524 156.123 176.487 172.015 166.449C172.452 185.608 172.976 204.767 173.5 223.925Z" fill="white" stroke="#191919" stroke-width="2" stroke-miterlimit="10"/>
<path d="M125.78 198.875C127.047 220.478 127.876 242.124 128.313 263.77C128.313 264.206 128.967 264.206 128.967 263.77C128.531 242.124 127.701 220.478 126.435 198.875C126.392 198.482 125.737 198.482 125.78 198.875Z" fill="#191919"/>
<path d="M126.13 198.962C140.755 189.448 155.381 179.934 170.007 170.421C170.356 170.202 170.05 169.635 169.657 169.853C155.032 179.367 140.406 188.881 125.78 198.395C125.431 198.657 125.737 199.224 126.13 198.962Z" fill="#191919"/>
<path d="M169.832 170.377C169.788 187.79 170.312 205.247 171.447 222.616C171.49 223.052 172.145 223.052 172.101 222.616C171.01 205.203 170.443 187.79 170.487 170.377C170.487 169.984 169.832 169.984 169.832 170.377Z" fill="#191919"/>
<path d="M128.75 264.686C143.07 250.852 157.433 237.018 171.753 223.227C172.059 222.921 171.579 222.485 171.273 222.747C156.953 236.581 142.589 250.416 128.269 264.206C128.007 264.512 128.444 264.992 128.75 264.686Z" fill="#191919"/>
<path d="M195.067 257.268C197.73 253.034 200.394 248.757 202.969 244.437C203.188 244.088 202.62 243.739 202.402 244.088C199.826 248.408 197.163 252.685 194.5 256.918C194.238 257.268 194.805 257.617 195.067 257.268Z" fill="#191919"/>
<path d="M202.795 244.306C206.244 244.437 209.693 244.437 213.142 244.262C213.578 244.262 213.578 243.608 213.142 243.608C209.693 243.739 206.244 243.739 202.795 243.651C202.358 243.651 202.358 244.306 202.795 244.306Z" fill="#191919"/>
<path d="M212.705 244.088C210.74 248.365 208.732 252.641 206.724 256.918C206.549 257.311 207.117 257.617 207.291 257.268C209.3 252.991 211.308 248.714 213.273 244.437C213.447 244 212.88 243.695 212.705 244.088Z" fill="#191919"/>
<path d="M194.849 257.617C198.691 258.184 202.751 257.922 206.636 257.747C207.073 257.747 207.073 257.093 206.636 257.093C202.838 257.267 198.822 257.529 195.023 257.006C194.587 256.918 194.412 257.573 194.849 257.617Z" fill="#191919"/>
<path d="M209.169 244.131C207.422 248.495 205.414 252.729 203.144 256.831C202.926 257.18 203.493 257.529 203.711 257.18C205.982 252.991 208.034 248.714 209.824 244.306C209.955 243.913 209.343 243.739 209.169 244.131Z" fill="#191919"/>
<path d="M145.907 263.901C155.512 252.03 165.466 240.422 175.726 229.075C175.988 228.769 175.551 228.289 175.246 228.595C164.986 239.898 155.032 251.507 145.427 263.421C145.165 263.77 145.645 264.206 145.907 263.901Z" fill="#191919"/>
<path d="M157.52 264.643C166.121 252.641 175.202 241.033 184.72 229.773C184.982 229.468 184.545 228.988 184.239 229.293C174.678 240.596 165.597 252.249 156.953 264.294C156.691 264.643 157.258 264.992 157.52 264.643Z" fill="#191919"/>
<path d="M170.007 266.432C177.472 253.951 185.637 241.906 194.456 230.341C194.718 229.991 194.15 229.686 193.888 229.991C185.069 241.556 176.905 253.602 169.439 266.083C169.221 266.432 169.789 266.781 170.007 266.432Z" fill="#191919"/>
<path d="M180.485 267.523C187.82 253.863 196.508 240.989 206.462 229.119C206.724 228.813 206.287 228.333 205.982 228.639C195.984 240.553 187.252 253.471 179.874 267.174C179.699 267.567 180.267 267.916 180.485 267.523Z" fill="#191919"/>
<path d="M151.495 256.831C162.672 255.653 173.849 257.049 184.982 258.533C185.418 258.577 185.375 257.922 184.982 257.878C173.892 256.395 162.716 254.954 151.495 256.176C151.102 256.22 151.102 256.875 151.495 256.831Z" fill="#191919"/>
<path d="M157.128 250.459C167.693 250.066 178.259 250.852 188.649 252.86C189.042 252.947 189.217 252.292 188.824 252.249C178.389 250.241 167.737 249.455 157.128 249.848C156.735 249.805 156.735 250.459 157.128 250.459Z" fill="#191919"/>
<path d="M162.192 244.306C172.365 243.651 182.537 244.568 192.448 247.012C192.841 247.099 193.015 246.488 192.622 246.401C182.668 243.913 172.452 242.997 162.192 243.651C161.756 243.695 161.756 244.35 162.192 244.306Z" fill="#191919"/>
<path d="M167.431 238.152C177.21 238.196 186.903 239.2 196.464 241.164C196.857 241.251 197.032 240.596 196.639 240.553C187.034 238.589 177.254 237.585 167.431 237.541C167.038 237.498 167.038 238.152 167.431 238.152Z" fill="#191919"/>
<path d="M172.626 232.435C181.926 232.61 191.181 233.701 200.219 235.752C200.612 235.839 200.786 235.228 200.393 235.141C191.269 233.09 181.969 231.955 172.626 231.824C172.19 231.781 172.19 232.435 172.626 232.435Z" fill="#191919"/>
<path d="M202.576 239.069C198.298 245.353 194.063 251.638 189.784 257.922C189.566 258.271 190.134 258.62 190.352 258.271C194.631 251.987 198.865 245.702 203.144 239.418C203.406 239.025 202.838 238.72 202.576 239.069Z" fill="#191919"/>
<path d="M130.278 229.555C135.735 227.242 141.629 228.551 147.392 228.464C152.238 228.42 156.866 227.067 161.013 224.623C161.363 224.405 161.057 223.838 160.664 224.056C155.556 227.067 150.142 228.028 144.292 227.766C139.402 227.547 134.556 227.067 129.928 229.031C129.579 229.162 129.885 229.73 130.278 229.555Z" fill="#191919"/>
<path d="M144.99 226.849C154.333 221.569 158.656 210.44 168.392 205.77C168.784 205.596 168.435 205.029 168.042 205.203C158.263 209.916 153.984 221.001 144.641 226.282C144.292 226.5 144.598 227.068 144.99 226.849Z" fill="#191919"/>
<path d="M156.866 195.733C155.25 194.467 155.512 192.416 156.429 190.801C156.866 190.016 157.521 189.187 158.263 188.706C159.616 187.834 160.882 188.532 161.93 189.448C162.236 189.71 162.716 189.274 162.41 188.968C160.228 187.135 158.176 187.31 156.386 189.667C154.945 191.587 154.203 194.467 156.386 196.213C156.735 196.475 157.215 195.995 156.866 195.733Z" fill="#191919"/>
<path d="M291.335 163.831C279.372 177.098 276.142 191.674 274.395 199.922C271.208 215.197 274.57 221.307 274.788 250.328C274.875 262.679 274.352 272.673 273.959 278.957C276.665 281.052 293.43 293.534 315.827 289.431C332.418 286.42 342.416 276.033 345.559 272.498C346.301 268.352 347.349 262.242 348.571 254.823C355.033 214.804 358.22 194.511 354.203 179.978C351.802 171.162 345.865 157.197 329.012 142.752C321.94 144.236 304.956 148.774 291.335 163.831Z" fill="#EC615B"/>
<path opacity="0.19" d="M303.516 155.801C307.663 168.195 309.89 178.8 311.2 186.568C314.649 207.123 319.844 237.934 305.218 267.785C300.547 277.299 295.09 284.282 291.248 288.602C296.312 289.78 306.353 291.395 318.316 288.297C332.549 284.631 341.455 276.382 345.122 272.629C347.96 256.395 350.23 242.473 351.977 231.606C354.989 212.491 355.688 206.687 355.382 198.526C355.033 188.052 354.553 177.054 348.266 165.184C342.241 153.837 333.771 147.029 328.576 143.537C324.341 144.279 318.36 145.85 312.029 149.516C308.536 151.611 305.699 153.837 303.516 155.801Z" fill="#6C6D6D"/>
<path opacity="0.18" d="M353.112 176.618C352.326 176.661 353.985 188.75 351.409 205.421C346.65 236.276 331.37 257.66 325.476 265.254C320.543 271.582 312.815 280.31 301.507 288.908C305.568 289.519 310.981 289.78 317.181 288.602C331.894 285.853 341.237 276.819 344.817 272.935C345.734 267.61 347.218 259.275 349.095 248.975C353.505 224.885 354.378 222.005 355.077 214.499C356.998 194.031 354.029 176.618 353.112 176.618Z" fill="#6C6D6D"/>
<path d="M214.408 209.044C213.578 208.476 211.919 207.429 212.094 206.556C212.443 205.159 217.464 204.941 221.088 205.552C223.532 205.945 227.986 207.211 232.657 211.618C227.418 212.36 219.865 212.578 214.408 209.044Z" fill="white" stroke="#191919" stroke-width="2" stroke-miterlimit="10"/>
<path d="M337.656 167.235C328.881 164.66 318.621 176.487 317.704 177.622C314.212 181.767 313.382 184.735 310.108 192.765C302.162 212.404 298.014 222.311 290.156 227.46C283.127 232.086 275.748 232.261 273.784 232.261C265.532 232.217 258.722 228.115 245.449 219.91C234.273 212.971 233.138 210.876 226.676 209.131C223.402 208.258 213.797 205.639 206.331 210.746C201.572 213.975 198.647 219.998 199.957 221.525C201.616 223.489 210.522 218.863 210.566 219.037C210.61 219.125 207.99 219.867 205.633 221.961C204.454 222.965 202.358 225.147 202.838 225.933C203.712 227.417 211.657 220.609 218.73 223.14C223.533 224.842 223.795 229.424 229.427 231.213C232.745 232.261 235.888 231.693 237.896 231.126C240.603 235.185 245.187 240.989 252.26 246.27C256.495 249.412 271.426 260.235 292.164 258.62C314.168 256.918 327.528 242.386 331.675 237.891C334.076 235.316 351.496 215.808 348.833 190.409C348.44 186.263 346.738 169.941 337.656 167.235Z" fill="white" stroke="#191919" stroke-width="2" stroke-miterlimit="10"/>
<path opacity="0.25" d="M336.696 167.235C333.378 168.326 337.526 180.153 334.164 195.645C330.977 210.527 322.594 220.565 318.796 225.147C313.688 231.301 307.008 239.331 295.613 243.433C280.333 248.932 263.175 245.048 251.693 237.847C248.287 235.665 245.406 230.035 237.765 225.627C234.447 223.707 231.784 222.747 228.597 221.569C220.913 218.775 214.015 216.244 206.986 218.47C203.624 219.517 200.612 221.525 200.787 221.874C200.961 222.267 204.847 221.001 208.339 219.823C203.668 224.231 202.795 225.584 203.013 225.933C203.275 226.282 204.672 225.365 207.947 224.231C211.527 222.965 214.015 222.136 216.897 222.834C218.337 223.183 219.385 223.838 220.04 224.231C222.441 225.714 222.834 227.155 225.192 228.857C226.632 229.904 227.942 230.428 228.641 230.69C230.082 231.257 233.138 232.173 237.46 231.388C240.429 235.665 254.181 254.605 278.324 258.097C290.767 259.886 300.59 256.831 304.476 255.565C325.781 248.67 336.565 232.173 339.359 227.591C348.004 213.451 353.898 191.369 344.991 175.483C342.896 171.512 338.966 166.493 336.696 167.235Z" fill="#6C6D6D"/>
<path d="M200.743 221.656C203.056 219.256 205.763 217.51 208.907 216.463C209.518 216.244 209.256 215.328 208.645 215.502C205.37 216.637 202.445 218.47 200.044 220.958C199.607 221.438 200.306 222.136 200.743 221.656Z" fill="#191919"/>
<path d="M202.314 215.808C204.628 213.233 207.859 212.229 211.09 211.313C211.701 211.138 211.439 210.178 210.828 210.353C207.466 211.356 204.061 212.447 201.66 215.11C201.179 215.59 201.878 216.244 202.314 215.808Z" fill="#191919"/>
<path opacity="0.29" d="M347.48 186.001C345.995 190.539 343.594 197.086 340.058 204.679C333.029 219.648 326.698 233.134 314.343 242.691C299.106 254.474 280.856 255.478 270.597 254.998C277.8 257.922 283.782 258.533 287.58 258.62C316.482 259.231 336.74 231.868 343.027 219.561C344.118 217.379 346.388 212.84 347.698 206.381C349.401 197.697 348.397 190.409 347.48 186.001Z" fill="#6C6D6D"/>
<path opacity="0.26" d="M219.778 222.703C222.223 224.405 225.672 226.413 230.081 227.984C233.574 229.206 236.761 229.817 239.293 230.122C232.264 232.435 228.99 231.519 227.287 230.122C226.239 229.25 225.148 227.635 221.873 224.624C221.044 223.794 220.302 223.14 219.778 222.703Z" fill="#6C6D6D"/>
<path d="M269.985 79.2096C269.505 82.0026 269.025 84.7957 268.632 87.7197C266.929 99.5902 266.231 110.806 266.187 121.236C268.588 120.975 270.946 120.713 273.347 120.495C273.085 122.808 272.343 131.274 277.757 139.653C282.865 147.552 290.199 150.433 292.47 151.218C292.208 155.495 291.989 159.728 291.727 164.005C296.443 159.816 302.86 154.884 311.025 150.476C317.268 147.116 323.162 144.803 328.182 143.232C322.55 136.249 320.411 129.659 319.494 125.862C317.923 119.316 318.228 113.686 318.534 108.711C318.839 103.605 319.582 99.372 320.237 96.4044C322.288 87.0651 316.918 72.2706 306.222 66.9463C295.657 61.6656 279.896 66.1171 269.985 79.2096Z" fill="white" stroke="#161616" stroke-width="2" stroke-miterlimit="10"/>
<path d="M272.343 120.8C273.565 120.625 274.831 120.495 276.054 120.364C276.49 120.32 276.49 119.665 276.054 119.709C274.744 119.84 273.478 120.014 272.168 120.189C271.775 120.189 271.95 120.844 272.343 120.8Z" fill="#161616"/>
<path d="M311.723 85.974C306.44 87.3269 305.48 91.9093 298.8 101.467C292.033 111.155 287.754 117.221 280.114 120.756C275.181 123.026 272.736 122.415 270.553 125.339C266.798 130.401 269.33 138.737 271.557 143.014C274.133 147.945 278.062 150.913 281.293 153.357C284.393 155.67 287.231 157.197 289.239 158.114C287.1 154.84 286.969 153.837 287.231 153.531C287.929 152.833 290.898 156.586 294.391 156.106C295.395 155.975 297.185 155.408 301.158 149.167C303.865 144.934 305.698 142.01 306.921 137.82C309.584 128.83 305.829 126.386 306.921 114.559C307.095 112.77 308.318 98.761 313.295 97.8445C315.085 97.4954 316.918 98.9792 317.792 100.114C319.625 102.514 319.407 106.355 317.137 109.671C317.879 109.148 324.995 104.347 324.908 96.5353C324.908 95.3133 324.864 90.8182 321.459 87.8942C317.573 84.5775 312.16 85.8867 311.723 85.974Z" fill="#161616" stroke="#161616" stroke-width="2" stroke-miterlimit="10"/>
<path d="M276.534 105.831C277.547 105.831 278.368 104.365 278.368 102.558C278.368 100.75 277.547 99.2847 276.534 99.2847C275.522 99.2847 274.701 100.75 274.701 102.558C274.701 104.365 275.522 105.831 276.534 105.831Z" fill="#161616"/>
<path d="M262.564 107.358C263.576 107.358 264.397 105.893 264.397 104.085C264.397 102.278 263.576 100.812 262.564 100.812C261.551 100.812 260.73 102.278 260.73 104.085C260.73 105.893 261.551 107.358 262.564 107.358Z" fill="#161616"/>
<path d="M259.813 98.7173C260.992 97.3644 262.826 97.2335 264.135 98.5428C264.747 99.1537 265.663 98.1936 265.052 97.6263C263.262 95.8806 260.512 95.9243 258.853 97.8009C258.372 98.4555 259.289 99.372 259.813 98.7173Z" fill="#161616"/>
<path d="M274.133 96.448C275.661 95.1824 277.67 95.357 278.979 96.7972C279.547 97.4081 280.464 96.4917 279.896 95.8807C278.062 93.9168 275.225 93.8295 273.173 95.5316C272.561 96.0553 273.478 96.9717 274.133 96.448Z" fill="#161616"/>
<path d="M268.501 84.4029C268.981 81.2607 270.204 76.111 273.565 70.7867C274.744 68.9102 277.276 64.9388 281.293 62.233C288.977 57.1269 300.808 57.5197 309.409 63.8041C317.835 69.9576 322.027 80.9552 320.193 91.8656C302.948 89.4217 285.746 86.9341 268.501 84.4029Z" fill="#5222D0"/>
<path d="M240.298 84.7956C266.798 88.1997 293.343 91.6037 319.844 94.9641C322.332 95.2696 322.332 91.3419 319.844 91.0364C293.343 87.6323 266.798 84.2283 240.298 80.8679C237.809 80.5188 237.809 84.4465 240.298 84.7956Z" fill="#161616"/>
<path d="M290.942 59.0471C297.753 60.5309 302.904 66.0297 303.778 72.6196C304.563 78.3803 302.031 84.2283 297.229 87.8069C304.782 88.8107 312.378 89.8581 319.931 90.8618C320.324 88.8543 320.673 85.7994 320.193 82.2208C319.058 73.8416 314.212 68.4737 312.64 66.8589C310.938 65.1133 304.913 59.2653 295.963 58.7416C293.911 58.6543 292.164 58.8289 290.942 59.0471Z" fill="#321693"/>
</g>
<defs>
<clipPath id="clip0_1_30149">
<rect width="568" height="453" fill="white"/>
</clipPath>
</defs>
</svg>
