<svg width="46" height="29" viewBox="0 0 46 29" fill="none" xmlns="http://www.w3.org/2000/svg">
<g clip-path="url(#clip0_1_30004)">
<path d="M45.9953 10.5233C45.9953 10.1632 45.7662 9.7347 45.0605 9.32175L31.4131 0.901258C30.5061 0.500726 29.0451 0.215075 27.3272 0.969566L2.843 14.8205C2.843 14.8205 -0.153302 16.6897 0.00456092 19.6828L26.8877 6.51802C28.6892 5.7418 29.8035 5.94051 31.2986 6.67327L45.0574 13.8611C45.7631 14.1995 45.9984 14.5225 45.9953 14.6653V10.5233Z" fill="white"/>
<path d="M45.9981 15.7897C45.9981 15.4296 45.7628 14.9669 45.0602 14.6161L31.4159 7.83188C30.5089 7.43135 29.0479 7.14881 27.33 7.90019C27.33 7.90019 12.9954 14.585 7.82002 16.9913C7.81692 16.9944 4.0375 18.8015 3.61963 22.4032L26.8936 13.4518C28.8251 12.9457 30.6451 13.4331 31.3044 13.607L45.0633 19.1555C45.7907 19.4442 46.0043 19.6771 46.0012 19.8168V15.7897H45.9981Z" fill="white"/>
<path d="M45.9952 20.7978C45.9952 20.4376 45.7166 20.1147 45.0604 19.9098L31.4161 14.8892C30.7568 14.7153 29.2586 14.4514 27.3302 14.9575C27.3302 14.9575 13.0018 20.0743 12.5035 20.2575C8.55382 21.6951 7.91309 25.6414 7.91309 25.6414L26.8907 20.509C28.8222 20.0029 30.6422 20.4904 31.3016 20.6643L45.0604 24.4492C45.7661 24.6696 46.0014 24.8466 45.9983 24.9894L45.9952 20.7978Z" fill="white"/>
<path d="M45.0577 24.4463L38.4429 22.6299L25.6777 24.6015C25.6746 24.6015 20.9078 25.3839 20.6787 28.5013L44.9401 25.415L45.0546 25.3995C45.491 25.3249 46.9366 25.0331 45.0577 24.4463Z" fill="#DDDBE4"/>
</g>
<defs>
<clipPath id="clip0_1_30004">
<rect width="46" height="28" fill="white" transform="translate(0 0.5)"/>
</clipPath>
</defs>
</svg>
