<svg width="40" height="40" viewBox="0 0 40 40" fill="none" xmlns="http://www.w3.org/2000/svg">
<g clip-path="url(#clip0_1_31873)">
<path fill-rule="evenodd" clip-rule="evenodd" d="M39.2459 15.9247C39.7382 16.9348 39.996 18.043 40 19.1667C39.996 20.2904 39.7382 21.3987 39.2459 22.4087C38.7535 23.4188 38.0394 24.3046 37.1567 25C38.3778 25.9627 39.2681 27.2825 39.7032 28.7753C40.1383 30.2682 40.0966 31.8596 39.5839 33.3276C39.0712 34.7956 38.113 36.0669 36.8432 36.9643C35.5733 37.8617 34.055 38.3403 32.5 38.3334H7.50002C5.94508 38.3403 4.42677 37.8617 3.15688 36.9643C1.88699 36.0669 0.928871 34.7956 0.416173 33.3276C-0.0965254 31.8596 -0.138229 30.2682 0.296879 28.7753C0.731988 27.2825 1.62221 25.9627 2.84335 25C1.95759 24.3074 1.2412 23.4222 0.748497 22.4115C0.255798 21.4008 -0.000262192 20.2911 -0.000262192 19.1667C-0.000262192 18.0423 0.255798 16.9327 0.748497 15.9219C1.2412 14.9112 1.95759 14.026 2.84335 13.3334H37.1567C38.0394 14.0288 38.7535 14.9146 39.2459 15.9247ZM35.4463 33.7797C36.2277 32.9983 36.6667 31.9384 36.6667 30.8334C36.6667 29.7283 36.2277 28.6685 35.4463 27.8871C34.6649 27.1057 33.6051 26.6667 32.5 26.6667H18.3334V28.3334C18.3334 28.7754 18.1578 29.1993 17.8452 29.5119C17.5326 29.8244 17.1087 30 16.6667 30C16.2247 30 15.8007 29.8244 15.4882 29.5119C15.1756 29.1993 15 28.7754 15 28.3334V26.6667H11.6667V28.3334C11.6667 28.7754 11.4911 29.1993 11.1785 29.5119C10.866 29.8244 10.442 30 10 30C9.55799 30 9.13407 29.8244 8.82151 29.5119C8.50895 29.1993 8.33335 28.7754 8.33335 28.3334V26.6667H7.50002C6.39495 26.6667 5.33514 27.1057 4.55374 27.8871C3.77234 28.6685 3.33335 29.7283 3.33335 30.8334C3.33335 31.9384 3.77234 32.9983 4.55374 33.7797C5.33514 34.5611 6.39495 35 7.50002 35H32.5C33.6051 35 34.6649 34.5611 35.4463 33.7797ZM4.55374 22.113C5.33514 22.8944 6.39495 23.3334 7.50002 23.3334H32.5C33.6051 23.3334 34.6649 22.8944 35.4463 22.113C36.2277 21.3316 36.6667 20.2718 36.6667 19.1667C36.6667 18.0616 36.2277 17.0018 35.4463 16.2204C34.6649 15.439 33.6051 15 32.5 15H18.3334V16.6667C18.3334 17.1087 18.1578 17.5327 17.8452 17.8452C17.5326 18.1578 17.1087 18.3334 16.6667 18.3334C16.2247 18.3334 15.8007 18.1578 15.4882 17.8452C15.1756 17.5327 15 17.1087 15 16.6667V15H11.6667V16.6667C11.6667 17.1087 11.4911 17.5327 11.1785 17.8452C10.866 18.1578 10.442 18.3334 10 18.3334C9.55799 18.3334 9.13407 18.1578 8.82151 17.8452C8.50895 17.5327 8.33335 17.1087 8.33335 16.6667V15H7.50002C6.39495 15 5.33514 15.439 4.55374 16.2204C3.77234 17.0018 3.33335 18.0616 3.33335 19.1667C3.33335 20.2718 3.77234 21.3316 4.55374 22.113Z" fill="url(#paint0_linear_1_31873)"/>
<path fill-rule="evenodd" clip-rule="evenodd" d="M2.84335 13.3334H37.1567C38.3778 12.3708 39.2681 11.051 39.7032 9.55813C40.1383 8.0653 40.0966 6.47388 39.5839 5.00588C39.0712 3.53788 38.113 2.26652 36.8432 1.36915C35.5733 0.471788 34.055 -0.00682823 32.5 7.36084e-05H7.50002C5.94508 -0.00682823 4.42677 0.471788 3.15688 1.36915C1.88699 2.26652 0.928871 3.53788 0.416173 5.00588C-0.0965254 6.47388 -0.138229 8.0653 0.296879 9.55813C0.731988 11.051 1.62221 12.3708 2.84335 13.3334ZM4.55374 4.55379C3.77234 5.3352 3.33335 6.395 3.33335 7.50007C3.33335 8.60514 3.77234 9.66495 4.55374 10.4464C5.33514 11.2278 6.39495 11.6667 7.50002 11.6667H32.5C33.6051 11.6667 34.6649 11.2278 35.4463 10.4464C36.2277 9.66495 36.6667 8.60514 36.6667 7.50007C36.6667 6.395 36.2277 5.3352 35.4463 4.55379C34.6649 3.77239 33.6051 3.33341 32.5 3.33341H18.3334V5.00007C18.3334 5.4421 18.1578 5.86602 17.8452 6.17858C17.5326 6.49114 17.1087 6.66674 16.6667 6.66674C16.2247 6.66674 15.8007 6.49114 15.4882 6.17858C15.1756 5.86602 15 5.4421 15 5.00007V3.33341H11.6667V5.00007C11.6667 5.4421 11.4911 5.86602 11.1785 6.17858C10.866 6.49114 10.442 6.66674 10 6.66674C9.55799 6.66674 9.13407 6.49114 8.82151 6.17858C8.50895 5.86602 8.33335 5.4421 8.33335 5.00007V3.33341H7.50002C6.39495 3.33341 5.33514 3.77239 4.55374 4.55379Z" fill="url(#paint1_linear_1_31873)"/>
</g>
<defs>
<linearGradient id="paint0_linear_1_31873" x1="35.1527" y1="38.2293" x2="19.4279" y2="6.79316" gradientUnits="userSpaceOnUse">
<stop stop-color="#5222D0"/>
<stop offset="1" stop-color="#5222D0" stop-opacity="0.25"/>
</linearGradient>
<linearGradient id="paint1_linear_1_31873" x1="32.2241" y1="10.7563" x2="27.3313" y2="-3.51147" gradientUnits="userSpaceOnUse">
<stop stop-color="#EC615B"/>
<stop offset="1" stop-color="#EC615B" stop-opacity="0.5"/>
</linearGradient>
<clipPath id="clip0_1_31873">
<rect width="40" height="40" fill="white"/>
</clipPath>
</defs>
</svg>
