<svg width="40" height="40" viewBox="0 0 40 40" fill="none" xmlns="http://www.w3.org/2000/svg">
<g clip-path="url(#clip0_1_31861)">
<path d="M30.9685 3.5678L20.5268 0.0861338C20.185 -0.0277347 19.8154 -0.0277347 19.4735 0.0861338L9.03183 3.5678C7.37167 4.11927 5.92752 5.1799 4.90457 6.59898C3.88162 8.01807 3.33189 9.72345 3.3335 11.4728V20.0011C3.3335 32.6061 18.6668 39.5678 19.3235 39.8578C19.5365 39.9524 19.7671 40.0014 20.0002 40.0014C20.2333 40.0014 20.4638 39.9524 20.6768 39.8578C21.3335 39.5678 36.6668 32.6061 36.6668 20.0011V11.4728C36.6684 9.72345 36.1187 8.01807 35.0958 6.59898C34.0728 5.1799 32.6287 4.11927 30.9685 3.5678V3.5678ZM33.3335 20.0011C33.3335 29.0928 22.8018 35.0561 20.0002 36.4828C17.1952 35.0611 6.66683 29.1161 6.66683 20.0011V11.4728C6.66693 10.4233 6.99729 9.40037 7.61111 8.54904C8.22493 7.69771 9.09107 7.06112 10.0868 6.72947L20.0002 3.42447L29.9135 6.72947C30.9093 7.06112 31.7754 7.69771 32.3892 8.54904C33.003 9.40037 33.3334 10.4233 33.3335 11.4728V20.0011Z" fill="url(#paint0_linear_1_31861)"/>
<path d="M25.4998 13.8339L18.5198 20.834L14.7798 16.934C14.6297 16.7698 14.4483 16.6374 14.2463 16.5445C14.0442 16.4516 13.8256 16.4001 13.6033 16.393C13.381 16.3859 13.1596 16.4233 12.952 16.5031C12.7444 16.5829 12.5549 16.7034 12.3946 16.8576C12.2343 17.0117 12.1065 17.1964 12.0187 17.4008C11.9309 17.6051 11.8849 17.8249 11.8833 18.0473C11.8818 18.2697 11.9248 18.4901 12.0098 18.6956C12.0948 18.9012 12.22 19.0876 12.3782 19.244L16.2215 23.244C16.5081 23.5536 16.8545 23.8018 17.2398 23.9737C17.6251 24.1456 18.0413 24.2375 18.4632 24.244H18.5182C18.9316 24.2453 19.3412 24.1646 19.7231 24.0063C20.1051 23.8481 20.4518 23.6156 20.7432 23.3223L27.8632 16.2023C28.0187 16.0471 28.1421 15.8628 28.2264 15.6599C28.3106 15.4571 28.3541 15.2396 28.3544 15.0199C28.3546 14.8002 28.3116 14.5826 28.2277 14.3796C28.1439 14.1765 28.0208 13.992 27.8657 13.8364C27.7105 13.6809 27.5262 13.5575 27.3233 13.4732C27.1204 13.3889 26.9029 13.3454 26.6833 13.3452C26.4636 13.345 26.246 13.388 26.0429 13.4719C25.8399 13.5557 25.6553 13.6788 25.4998 13.8339V13.8339Z" fill="url(#paint1_linear_1_31861)"/>
</g>
<defs>
<linearGradient id="paint0_linear_1_31861" x1="32.6264" y1="39.8347" x2="1.21011" y2="7.12605" gradientUnits="userSpaceOnUse">
<stop stop-color="#5222D0"/>
<stop offset="1" stop-color="#5222D0" stop-opacity="0.25"/>
</linearGradient>
<linearGradient id="paint1_linear_1_31861" x1="22.4298" y1="17.2104" x2="13.2436" y2="17.2104" gradientUnits="userSpaceOnUse">
<stop stop-color="#EC615B"/>
<stop offset="1" stop-color="#EC615B" stop-opacity="0.5"/>
</linearGradient>
<clipPath id="clip0_1_31861">
<rect width="40" height="40" fill="white"/>
</clipPath>
</defs>
</svg>
