<svg width="40" height="40" viewBox="0 0 40 40" fill="none" xmlns="http://www.w3.org/2000/svg">
<g clip-path="url(#clip0_1_31867)">
<path d="M24.3335 35.5004C23.8335 35.877 23.3018 36.2737 22.8502 36.667H26.6668C27.1089 36.667 27.5328 36.8426 27.8453 37.1552C28.1579 37.4677 28.3335 37.8917 28.3335 38.3337C28.3335 38.7757 28.1579 39.1997 27.8453 39.5122C27.5328 39.8248 27.1089 40.0004 26.6668 40.0004H20.0002C19.5581 40.0004 19.1342 39.8248 18.8217 39.5122C18.5091 39.1997 18.3335 38.7757 18.3335 38.3337C18.3335 35.8337 20.4585 34.2404 22.3335 32.8337C23.5835 31.897 25.0002 30.8337 25.0002 30.0004C25.0002 29.5583 24.8246 29.1344 24.512 28.8219C24.1994 28.5093 23.7755 28.3337 23.3335 28.3337C22.8915 28.3337 22.4675 28.5093 22.155 28.8219C21.8424 29.1344 21.6668 29.5583 21.6668 30.0004C21.6668 30.4424 21.4912 30.8663 21.1787 31.1789C20.8661 31.4914 20.4422 31.667 20.0002 31.667C19.5581 31.667 19.1342 31.4914 18.8217 31.1789C18.5091 30.8663 18.3335 30.4424 18.3335 30.0004C18.3335 28.6743 18.8603 27.4025 19.798 26.4648C20.7356 25.5272 22.0074 25.0004 23.3335 25.0004C24.6596 25.0004 25.9313 25.5272 26.869 26.4648C27.8067 27.4025 28.3335 28.6743 28.3335 30.0004C28.3335 32.5004 26.2085 34.0937 24.3335 35.5004ZM38.3335 25.0004C37.8915 25.0004 37.4675 25.176 37.155 25.4885C36.8424 25.8011 36.6668 26.225 36.6668 26.667V31.667H35.0002C34.5581 31.667 34.1342 31.4914 33.8217 31.1789C33.5091 30.8663 33.3335 30.4424 33.3335 30.0004V26.667C33.3335 26.225 33.1579 25.8011 32.8453 25.4885C32.5328 25.176 32.1089 25.0004 31.6668 25.0004C31.2248 25.0004 30.8009 25.176 30.4883 25.4885C30.1758 25.8011 30.0002 26.225 30.0002 26.667V30.0004C30.0002 31.3265 30.5269 32.5982 31.4646 33.5359C32.4023 34.4736 33.6741 35.0004 35.0002 35.0004H36.6668V38.3337C36.6668 38.7757 36.8424 39.1997 37.155 39.5122C37.4675 39.8248 37.8915 40.0004 38.3335 40.0004C38.7755 40.0004 39.1994 39.8248 39.512 39.5122C39.8246 39.1997 40.0002 38.7757 40.0002 38.3337V26.667C40.0002 26.225 39.8246 25.8011 39.512 25.4885C39.1994 25.176 38.7755 25.0004 38.3335 25.0004Z" fill="url(#paint0_linear_1_31867)"/>
<path d="M21.6672 19.9999V11.6666C21.6672 11.2246 21.4916 10.8006 21.179 10.4881C20.8664 10.1755 20.4425 9.99992 20.0005 9.99992C19.5585 9.99992 19.1345 10.1755 18.822 10.4881C18.5094 10.8006 18.3338 11.2246 18.3338 11.6666V18.3333H13.3338C12.8918 18.3333 12.4679 18.5088 12.1553 18.8214C11.8427 19.134 11.6671 19.5579 11.6671 19.9999C11.6671 20.4419 11.8427 20.8659 12.1553 21.1784C12.4679 21.491 12.8918 21.6666 13.3338 21.6666H20.0005C20.4425 21.6666 20.8664 21.491 21.179 21.1784C21.4916 20.8659 21.6672 20.4419 21.6672 19.9999ZM38.3338 3.33325C37.8918 3.33325 37.4679 3.50885 37.1553 3.82141C36.8427 4.13397 36.6672 4.55789 36.6672 4.99992V8.95658C34.9306 6.33587 32.6007 4.16145 29.8665 2.60976C27.1322 1.05806 24.0707 0.172792 20.9303 0.0257856C17.7899 -0.121221 14.6591 0.474173 11.7919 1.76366C8.92465 3.05314 6.40179 5.0004 4.42801 7.44742C2.45423 9.89445 1.08512 12.7723 0.431773 15.8475C-0.221578 18.9227 -0.140767 22.1086 0.667648 25.1468C1.47606 28.1849 2.98931 30.9896 5.08461 33.3335C7.17991 35.6773 9.79824 37.4941 12.7271 38.6366C12.9207 38.7112 13.1264 38.7497 13.3338 38.7499C13.7227 38.7505 14.0996 38.6151 14.3992 38.3671C14.6988 38.119 14.9022 37.774 14.9742 37.3918C15.0463 37.0096 14.9823 36.6143 14.7935 36.2742C14.6047 35.9342 14.303 35.6709 13.9405 35.5299C11.4539 34.5684 9.23418 33.0244 7.46779 31.0274C5.7014 29.0305 4.43983 26.639 3.789 24.0536C3.13816 21.4682 3.11706 18.7644 3.72744 16.1691C4.33783 13.5739 5.5619 11.163 7.29689 9.13871C9.03189 7.11445 11.2272 5.53595 13.6985 4.53571C16.1698 3.53547 18.845 3.14269 21.4995 3.39033C24.1541 3.63797 26.7104 4.51881 28.9541 5.95891C31.1978 7.399 33.0632 9.35633 34.3938 11.6666H30.0005C29.5585 11.6666 29.1345 11.8422 28.822 12.1547C28.5094 12.4673 28.3338 12.8912 28.3338 13.3333C28.3338 13.7753 28.5094 14.1992 28.822 14.5118C29.1345 14.8243 29.5585 14.9999 30.0005 14.9999H35.0005C36.3266 14.9999 37.5983 14.4731 38.536 13.5355C39.4737 12.5978 40.0005 11.326 40.0005 9.99992V4.99992C40.0005 4.55789 39.8249 4.13397 39.5123 3.82141C39.1998 3.50885 38.7758 3.33325 38.3338 3.33325Z" fill="url(#paint1_linear_1_31867)"/>
</g>
<defs>
<linearGradient id="paint0_linear_1_31867" x1="32.2067" y1="30.3201" x2="20.1228" y2="30.3201" gradientUnits="userSpaceOnUse">
<stop stop-color="#EC615B"/>
<stop offset="1" stop-color="#EC615B" stop-opacity="0.5"/>
</linearGradient>
<linearGradient id="paint1_linear_1_31867" x1="35.1514" y1="38.5885" x2="5.65702" y2="0.541113" gradientUnits="userSpaceOnUse">
<stop stop-color="#5222D0"/>
<stop offset="1" stop-color="#5222D0" stop-opacity="0.25"/>
</linearGradient>
<clipPath id="clip0_1_31867">
<rect width="40" height="40" fill="white"/>
</clipPath>
</defs>
</svg>
