<svg width="40" height="40" viewBox="0 0 40 40" fill="none" xmlns="http://www.w3.org/2000/svg">
<g clip-path="url(#clip0_1_31773)">
<path d="M21.1719 14.8545V20.3232C21.1719 20.9701 20.6469 21.4951 20 21.4951C19.3531 21.4951 18.8281 20.9701 18.8281 20.3232V14.8545C18.8281 14.2076 19.3531 13.6826 20 13.6826C20.6469 13.6826 21.1719 14.2076 21.1719 14.8545Z" fill="#5E54AC"/>
<path d="M21.1719 29.6982V34.524C21.1719 35.1709 20.6469 35.6959 20 35.6959C19.3531 35.6959 18.8281 35.1709 18.8281 34.524V29.6982C18.8281 29.0514 19.3531 28.5264 20 28.5264C20.6469 28.5264 21.1719 29.0514 21.1719 29.6982Z" fill="#5E54AC"/>
<path d="M33.3203 21.9381V28.0834C33.3203 29.6201 32.0703 30.8701 30.5336 30.8701H9.46641C7.92969 30.8701 6.67969 29.6201 6.67969 28.0834V21.9381C6.67969 20.4014 7.92969 19.1514 9.46641 19.1514H30.5336C32.0703 19.1514 33.3203 20.4014 33.3203 21.9381Z" fill="#4793FF"/>
<path d="M21.1719 14.8545V20.3232C21.1719 20.9701 20.6469 21.4951 20 21.4951V13.6826C20.6469 13.6826 21.1719 14.2076 21.1719 14.8545Z" fill="#453D81"/>
<path d="M21.1719 29.6982V34.524C21.1719 35.1709 20.6469 35.6959 20 35.6959V28.5264C20.6469 28.5264 21.1719 29.0514 21.1719 29.6982Z" fill="#453D81"/>
<path d="M33.3203 21.9381V28.0834C33.3203 29.6201 32.0703 30.8701 30.5336 30.8701H20V19.1514H30.5336C32.0703 19.1514 33.3203 20.4014 33.3203 21.9381Z" fill="#525CDD"/>
<path d="M21.1719 1.17188V5.47891C21.1719 6.12578 20.6469 6.65078 20 6.65078C19.3531 6.65078 18.8281 6.12578 18.8281 5.47891V1.17188C18.8281 0.525 19.3531 0 20 0C20.6469 0 21.1719 0.525 21.1719 1.17188Z" fill="#5E54AC"/>
<path d="M33.3203 7.09434V13.2396C33.3203 14.7764 32.0703 16.0264 30.5336 16.0264H9.46641C7.92969 16.0264 6.67969 14.7764 6.67969 13.2396V7.09434C6.67969 5.55762 7.92969 4.30762 9.46641 4.30762H30.5336C32.0703 4.30762 33.3203 5.55762 33.3203 7.09434Z" fill="#4793FF"/>
<path d="M21.1719 1.17188V5.47891C21.1719 6.12578 20.6469 6.65078 20 6.65078V0C20.6469 0 21.1719 0.525 21.1719 1.17188Z" fill="#453D81"/>
<path d="M33.3203 7.09434V13.2396C33.3203 14.7764 32.0703 16.0264 30.5336 16.0264H20V4.30762H30.5336C32.0703 4.30762 33.3203 5.55762 33.3203 7.09434Z" fill="#525CDD"/>
<path d="M17.6562 38.0391H7.85156C7.20437 38.0391 6.67969 37.5144 6.67969 36.8672C6.67969 36.22 7.20437 35.6953 7.85156 35.6953H17.6562C18.3034 35.6953 18.8281 36.22 18.8281 36.8672C18.8281 37.5144 18.3034 38.0391 17.6562 38.0391Z" fill="#5E54AC"/>
<path d="M32.1484 38.0391H22.3438C21.6966 38.0391 21.1719 37.5144 21.1719 36.8672C21.1719 36.22 21.6966 35.6953 22.3438 35.6953H32.1484C32.7956 35.6953 33.3203 36.22 33.3203 36.8672C33.3203 37.5144 32.7956 38.0391 32.1484 38.0391Z" fill="#453D81"/>
<path d="M20 40C21.7302 40 23.1328 38.5974 23.1328 36.8672C23.1328 35.137 21.7302 33.7344 20 33.7344C18.2698 33.7344 16.8672 35.137 16.8672 36.8672C16.8672 38.5974 18.2698 40 20 40Z" fill="#FABE2C"/>
<path d="M12.5392 11.4027C13.2221 11.4027 13.7757 10.8491 13.7757 10.1662C13.7757 9.48328 13.2221 8.92969 12.5392 8.92969C11.8563 8.92969 11.3027 9.48328 11.3027 10.1662C11.3027 10.8491 11.8563 11.4027 12.5392 11.4027Z" fill="#F0F7FF"/>
<path d="M17.3556 11.4027C18.0385 11.4027 18.5921 10.8491 18.5921 10.1662C18.5921 9.48328 18.0385 8.92969 17.3556 8.92969C16.6727 8.92969 16.1191 9.48328 16.1191 10.1662C16.1191 10.8491 16.6727 11.4027 17.3556 11.4027Z" fill="#F0F7FF"/>
<path d="M27.4607 11.3389H22.043C21.3958 11.3389 20.8711 10.8142 20.8711 10.167C20.8711 9.51981 21.3958 8.99512 22.043 8.99512H27.4607C28.1079 8.99512 28.6326 9.51981 28.6326 10.167C28.6326 10.8142 28.1079 11.3389 27.4607 11.3389Z" fill="#DFE7F4"/>
<path d="M12.5392 26.2464C13.2221 26.2464 13.7757 25.6928 13.7757 25.0099C13.7757 24.327 13.2221 23.7734 12.5392 23.7734C11.8563 23.7734 11.3027 24.327 11.3027 25.0099C11.3027 25.6928 11.8563 26.2464 12.5392 26.2464Z" fill="#F0F7FF"/>
<path d="M17.3556 26.2464C18.0385 26.2464 18.5921 25.6928 18.5921 25.0099C18.5921 24.327 18.0385 23.7734 17.3556 23.7734C16.6727 23.7734 16.1191 24.327 16.1191 25.0099C16.1191 25.6928 16.6727 26.2464 17.3556 26.2464Z" fill="#F0F7FF"/>
<path d="M27.4607 26.1826H22.043C21.3958 26.1826 20.8711 25.6579 20.8711 25.0107C20.8711 24.3636 21.3958 23.8389 22.043 23.8389H27.4607C28.1079 23.8389 28.6326 24.3636 28.6326 25.0107C28.6326 25.6579 28.1079 26.1826 27.4607 26.1826Z" fill="#DFE7F4"/>
<path d="M23.1328 36.8672C23.1328 38.5945 21.7273 40 20 40V33.7344C21.7273 33.7344 23.1328 35.1398 23.1328 36.8672Z" fill="#FF9100"/>
</g>
<defs>
<clipPath id="clip0_1_31773">
<rect width="40" height="40" fill="white"/>
</clipPath>
</defs>
</svg>
