<svg width="40" height="40" viewBox="0 0 40 40" fill="none" xmlns="http://www.w3.org/2000/svg">
<g clip-path="url(#clip0_1_31846)">
<path d="M0.000488281 19.9994C0.000488281 27.9153 4.60034 34.757 11.2717 37.9976L1.7314 11.8604C0.623049 14.3467 0.000488281 17.0995 0.000488281 19.9994Z" fill="#1C769B"/>
<path d="M20.3507 21.748L14.3496 39.1849C16.1425 39.712 18.0359 39.9997 19.9997 39.9997C22.3281 39.9997 24.5622 39.5972 26.6408 38.8662C26.5879 38.7798 26.5382 38.6901 26.4983 38.5907L20.3507 21.748Z" fill="#1C769B"/>
<path d="M33.5012 18.991C33.5012 16.5182 32.6122 14.8073 31.8522 13.4757C30.8374 11.8261 29.8864 10.4313 29.8864 8.78488C29.8864 6.94558 31.2806 5.23403 33.245 5.23403C33.3341 5.23403 33.4179 5.24628 33.5031 5.2508C29.9477 1.99026 25.2059 0 19.9997 0C13.0115 0 6.8659 3.58505 3.29053 9.0139C3.76019 9.02874 4.20211 9.03842 4.57694 9.03842C6.66784 9.03842 9.90773 8.78423 9.90773 8.78423C10.9851 8.71972 11.1116 10.3048 10.0342 10.4313C10.0342 10.4313 8.95099 10.559 7.74522 10.6229L15.0282 32.2848L19.4055 19.1587L16.2914 10.6229C15.2127 10.559 14.1921 10.4313 14.1921 10.4313C13.1147 10.3674 13.2405 8.72036 14.3198 8.78423C14.3198 8.78423 17.6223 9.03842 19.5874 9.03842C21.679 9.03842 24.9176 8.78423 24.9176 8.78423C25.9962 8.71972 26.1227 10.3048 25.0447 10.4313C25.0447 10.4313 23.9602 10.559 22.7563 10.6229L29.9839 32.1203L31.9806 25.4553C32.8418 22.6877 33.5012 20.7019 33.5012 18.991Z" fill="#1C769B"/>
<path d="M37.6853 12.4608C37.6853 14.4897 37.3059 16.7709 36.1634 19.6244L30.0552 37.2851C36.0008 33.8194 39.9994 27.3771 39.9994 19.9999C39.9994 16.5219 39.111 13.253 37.5498 10.4041C37.6369 11.0415 37.6853 11.724 37.6853 12.4608Z" fill="#1C769B"/>
<path d="M29.8876 8.78423C29.8876 6.94494 31.2817 5.23338 33.2462 5.23338C33.3352 5.23338 33.4191 5.24564 33.5042 5.25015C29.9482 1.99026 25.2064 0 20.0002 0C13.012 0 6.86638 3.58505 3.29102 9.0139C3.76068 9.02874 4.2026 9.03842 4.57743 9.03842C6.66833 9.03842 9.90822 8.78423 9.90822 8.78423C10.9856 8.71972 11.1121 10.3048 10.0347 10.4313C10.0347 10.4313 8.95148 10.559 7.74571 10.6229L10.523 18.8833C12.4127 19.5503 14.4597 19.9174 16.5977 19.9174C17.4873 19.9174 18.3615 19.8536 19.2163 19.7316L19.4066 19.1594L16.2925 10.6235C15.2139 10.5597 14.1932 10.4319 14.1932 10.4319C13.1159 10.3681 13.2417 8.72101 14.321 8.78488C14.321 8.78488 17.6235 9.03906 19.5886 9.03906C21.6801 9.03906 24.9187 8.78488 24.9187 8.78488C25.9974 8.72036 26.1238 10.3055 25.0458 10.4319C25.0458 10.4319 23.9613 10.5597 22.7575 10.6235L25.1639 17.782C27.6064 16.4685 29.676 14.6137 31.185 12.3886C30.4579 11.1816 29.8876 10.0577 29.8876 8.78423Z" fill="#2795B7"/>
<path d="M20 0C13.7247 0 8.13524 2.89668 4.46826 7.41783C7.68687 8.08684 11.2216 8.45779 14.9311 8.45779C21.9554 8.45779 28.3552 7.13074 33.1673 4.95403C29.65 1.8722 25.0444 0 20 0Z" fill="#3FB5D1"/>
</g>
<defs>
<clipPath id="clip0_1_31846">
<rect width="40" height="40" fill="white"/>
</clipPath>
</defs>
</svg>
