<svg width="16" height="16" viewBox="0 0 16 16" fill="none" xmlns="http://www.w3.org/2000/svg">
<path d="M7.99984 14.6667C5.0545 14.6667 2.6665 12.9453 2.6665 9.99999V9.94133C2.6665 8.52933 3.45917 7.39999 4.6665 6.66666C5.82117 5.96533 6.5045 4.67333 6.33317 3.33333L5.99984 1.33333L7.23584 1.86333C9.46213 2.81731 11.3167 4.47109 12.5185 6.57399C13.0525 7.50856 13.3333 8.56631 13.3332 9.64266V9.99999C13.3332 11.0413 13.0345 11.93 12.5185 12.6433" stroke="white" stroke-width="1.5" stroke-linecap="round" stroke-linejoin="round"/>
<path d="M8 14.6667C6.89533 14.6667 6 13.7113 6 12.5333C6 11.6 6.67733 10.8527 7.27333 10.168L8 9.33334L8.72667 10.168C9.32267 10.8533 10 11.6 10 12.5333C10 13.7113 9.10467 14.6667 8 14.6667Z" stroke="white" stroke-width="1.5" stroke-linecap="round" stroke-linejoin="round"/>
</svg>
