<svg width="570" height="545" viewBox="0 0 570 545" fill="none" xmlns="http://www.w3.org/2000/svg">
<g clip-path="url(#clip0_1_30641)">
<path d="M14.0368 531.104H143.21C145.427 531.104 145.427 527.688 143.21 527.688C100.133 527.688 57.0567 527.688 14.0368 527.688C11.8204 527.688 11.8204 531.104 14.0368 531.104Z" fill="#E8E8E8"/>
<path d="M56.1475 517.722H185.776H222.544C224.761 517.722 224.761 514.305 222.544 514.305C179.354 514.305 136.163 514.305 92.9162 514.305C80.641 514.305 68.3658 514.305 56.1475 514.305C53.988 514.305 53.988 517.722 56.1475 517.722Z" fill="#E8E8E8"/>
<path d="M219.76 496.65H307.505C309.721 496.65 309.721 493.234 307.505 493.234C278.237 493.234 248.97 493.234 219.76 493.234C217.544 493.234 217.544 496.65 219.76 496.65Z" fill="#E8E8E8"/>
<path d="M294.888 544.487H477.595H528.685C530.901 544.487 530.901 541.07 528.685 541.07C467.764 541.07 406.842 541.07 345.978 541.07C328.929 541.07 311.937 541.07 294.888 541.07C292.672 541.07 292.672 544.487 294.888 544.487Z" fill="#E8E8E8"/>
<path d="M438.838 531.104H559.6C561.817 531.104 561.817 527.688 559.6 527.688C519.365 527.688 479.073 527.688 438.838 527.688C436.621 527.688 436.621 531.104 438.838 531.104Z" fill="#E8E8E8"/>
<path d="M120.649 116.517C117.694 117.03 113.034 118.226 108.147 121.244C105.078 123.123 98.8266 127.679 94.9053 136.051C93.4846 139.012 90.3021 145.903 91.8934 154.445C94.2234 167.088 105.305 173.409 107.067 174.377C112.693 165.778 118.262 157.122 123.888 148.522C122.752 137.873 121.672 127.224 120.649 116.517Z" fill="#EC615B"/>
<path d="M124.854 147.497C133.152 142.998 141.392 138.5 149.689 133.944C151.508 136.222 154.917 141.29 154.86 148.124C154.86 149.661 154.69 151.085 154.406 152.395C144.518 150.743 134.686 149.092 124.854 147.497Z" fill="#5222D0"/>
<path d="M35.8594 186.792C36.8823 200.175 37.8484 213.615 38.8713 226.998C42.5084 226.77 46.1455 226.485 49.7258 226.258C48.5324 212.647 47.3389 199.093 46.1455 185.482C42.6789 185.938 39.2691 186.336 35.8594 186.792Z" fill="#5222D0"/>
<path d="M56.1475 200.745C56.7158 209.002 57.2841 217.203 57.9092 225.46C61.5463 225.119 65.1834 224.834 68.7636 224.492C67.968 216.235 67.2292 208.034 66.4336 199.776C62.967 200.061 59.5572 200.403 56.1475 200.745Z" fill="#EC615B"/>
<path d="M185.434 251.771C129.06 256.953 72.7416 262.078 16.3667 267.261C11.1952 184.571 5.9669 101.881 0.79541 19.1348C56.9998 17.1416 113.261 15.1484 169.465 13.1552C174.807 92.7127 180.149 172.27 185.434 251.771V251.771Z" stroke="#161616" stroke-width="2" stroke-miterlimit="10"/>
<path d="M58.9323 3.47388C59.5574 7.97284 60.2393 12.4718 60.8645 16.9707C61.035 18.0528 62.683 17.5972 62.5125 16.5152C61.8874 12.0162 61.2055 7.51725 60.5803 3.01829C60.4098 1.93626 58.7618 2.39186 58.9323 3.47388Z" fill="#E8E8E8"/>
<path d="M60.1257 3.35998C72.9124 2.50574 85.7558 1.99321 98.5425 1.70846C99.6222 1.70846 99.6222 0 98.5425 0C85.699 0.284744 72.9124 0.854229 60.1257 1.65151C59.046 1.70846 59.046 3.41692 60.1257 3.35998Z" fill="#E8E8E8"/>
<path d="M98.031 1.02507C98.5993 5.86572 99.0539 10.6494 99.3381 15.4901C99.3949 16.5721 101.1 16.5721 101.043 15.4901C100.759 10.6494 100.304 5.80877 99.7359 1.02507C99.5654 -0.0569601 97.8605 -0.0569601 98.031 1.02507Z" fill="#E8E8E8"/>
<path d="M60.1827 3.30304C60.5805 7.51725 60.9783 11.7884 61.3761 16.0026C61.4329 16.4582 61.7171 16.8569 62.2285 16.8569C74.4469 16.9707 86.6084 15.0345 98.8836 15.4331C99.9633 15.4901 99.9633 13.7816 98.8836 13.7247C86.6652 13.326 74.5037 15.2053 62.2285 15.1484L63.081 16.0026C62.6832 11.7884 62.2854 7.51725 61.8876 3.30304C61.7739 2.22101 60.069 2.22101 60.1827 3.30304Z" fill="#E8E8E8"/>
<path d="M61.0919 3.87249C62.9672 5.01147 65.4109 4.44198 67.4568 4.32809C70.8665 4.15724 74.2763 3.98639 77.6861 3.81554C84.5056 3.47385 91.2683 3.07521 98.0879 2.73352C97.8037 2.44877 97.5196 2.16403 97.2354 1.87929C97.4059 5.58096 97.5764 9.28262 97.7469 13.0412C97.8037 14.1233 99.5086 14.1233 99.4518 13.0412C99.2813 9.33957 99.1108 5.63791 98.9403 1.87929C98.9403 1.4237 98.5425 1.02505 98.0879 1.02505C92.0639 1.36675 85.9832 1.65149 79.9593 1.99318C76.9473 2.16403 73.9353 2.33488 70.8665 2.44877C68.4797 2.56267 64.047 3.70164 61.9443 2.39182C61.035 1.82233 60.1826 3.30301 61.0919 3.87249Z" fill="#E8E8E8"/>
<path d="M61.0349 4.21422C61.8873 7.68809 62.4556 11.2189 62.7966 14.8067C63.3649 14.7498 63.9332 14.6359 64.4446 14.5789C63.8195 11.5037 63.99 8.48538 64.5583 5.35319C63.99 5.29624 63.4217 5.18235 62.9102 5.1254C63.0239 8.54233 63.2512 11.7884 64.5583 14.9206C64.9561 15.8318 66.3768 15.1484 66.0927 14.2372C65.1266 10.5925 64.2173 7.00471 65.1834 3.24609C64.6151 3.24609 64.1036 3.24609 63.5353 3.24609C64.0468 6.66302 64.5583 10.0799 65.0698 13.4969C65.2402 14.5789 66.8883 14.1233 66.7178 13.0413C66.2063 9.62435 65.6949 6.20742 65.1834 2.7905C65.0698 1.93626 63.7058 2.05016 63.5353 2.7905C62.5124 6.83386 63.4217 10.7633 64.4446 14.6928C64.9561 14.465 65.4676 14.2372 65.979 14.0094C64.7856 11.162 64.672 8.08674 64.5583 5.06845C64.5583 4.15727 63.0807 3.87253 62.9102 4.84066C62.2851 8.25759 62.0578 11.5606 62.7966 14.9775C62.9671 15.8887 64.5583 15.7179 64.4446 14.7497C64.1036 11.0481 63.4785 7.3464 62.6261 3.70168C62.3988 2.6766 60.8075 3.13219 61.0349 4.21422Z" fill="#E8E8E8"/>
<path d="M65.411 7.23249C66.0361 6.20741 66.6612 5.18234 67.2864 4.15726C66.7749 3.87251 66.3203 3.58777 65.8088 3.30303C65.07 4.95454 64.3881 6.60605 63.6493 8.25757C63.3083 9.05485 64.3312 10.1369 65.0132 9.28265C66.1498 7.85893 67.2295 6.37826 68.3661 4.95454C67.9115 4.66979 67.4 4.38505 66.9454 4.10031C66.4907 5.46708 65.9225 6.71995 65.1268 7.97283C64.6154 8.77011 65.8656 9.79519 66.4907 8.99791C67.3432 7.91588 68.1956 6.83385 69.1049 5.75183C68.6503 5.41013 68.1956 5.06844 67.741 4.72675C66.6044 7.40334 65.4678 10.023 64.3312 12.6996C63.9903 13.4969 65.0132 14.5789 65.6951 13.7247C67.741 11.162 69.8437 8.54231 71.8895 5.97962C71.4349 5.63792 70.9803 5.29623 70.5256 4.95454C68.9912 7.46028 67.4568 10.023 65.9225 12.5287C65.5246 13.1552 66.1498 14.0094 66.8886 13.7816C67.7978 13.4969 67.9115 13.383 68.5934 12.8135C68.1388 12.5287 67.6273 12.244 67.1727 11.9592C66.8317 12.9274 66.2634 13.6677 65.411 14.2941C64.5585 14.9206 65.2973 16.3443 66.2634 15.7748C67.1727 15.2623 68.0251 14.9206 69.0481 14.8067C68.7071 14.465 68.3661 14.1233 68.0251 13.7816C66.5476 13.0413 66.0929 12.0162 66.6612 10.6494C66.8317 9.90908 67.1159 9.2257 67.4569 8.59927C67.9115 7.80198 68.7639 5.86572 69.6164 7.57419C70.2415 8.82706 67.6273 15.8318 67.2864 11.5036C67.2295 10.3647 67.3432 9.2257 67.6842 8.20062C67.9115 7.40333 68.2525 6.663 68.6503 5.92266C69.2186 4.78369 69.5027 4.78369 69.5595 5.92266C70.6393 8.20062 69.3322 11.7884 68.2525 13.7816C68.7639 13.8386 69.2754 13.8955 69.7868 14.0094C69.3322 12.4148 69.1617 10.8772 69.5027 9.28265C69.6164 8.65621 70.1847 5.63793 70.8098 6.60606C72.1169 8.48537 69.9573 12.7565 69.0481 14.408C69.5595 14.5789 70.1278 14.6928 70.6393 14.8636C70.4688 13.326 70.412 11.8453 70.6961 10.3077C70.8666 9.28265 71.4917 5.97962 72.5715 5.86572C74.1059 5.69488 71.1508 12.6996 70.4688 13.7247C70.9803 13.7816 71.4917 13.8386 72.0032 13.9525C71.4917 11.3898 71.4917 5.92266 74.9583 5.06843C74.6174 4.89759 74.2764 4.66979 73.9354 4.49894C74.5605 7.97282 73.5944 11.3328 71.2076 13.8955C71.6622 14.0094 72.1737 14.1233 72.6283 14.2941C72.2305 12.6996 72.1737 11.162 72.5715 9.56739C72.7988 8.71316 73.9922 5.12539 75.1288 5.41013C75.9244 5.58098 74.9015 8.884 74.6742 9.62434C74.0491 11.4467 73.083 13.0413 71.6622 14.408C72.1169 14.5219 72.6283 14.6358 73.083 14.8067C72.1737 10.9911 73.7649 7.17554 77.1179 5.12539C76.7201 4.95454 76.2654 4.7837 75.8676 4.61285C77.1747 8.08673 73.8217 12.5857 71.6054 14.9206C72.06 15.0345 72.5715 15.1484 73.0261 15.3192C72.6283 13.6677 72.6283 12.0731 73.1398 10.4216C73.3103 9.90909 75.0152 6.03657 75.8108 6.32131C76.9474 6.71995 75.0152 10.1938 74.6742 10.7064C74.2764 11.4467 73.5376 12.7565 72.7988 13.2121C71.9464 13.7816 72.0032 13.8955 71.9464 12.6426C71.8896 10.9342 73.0261 8.99791 73.9922 7.74503C74.5037 7.06165 75.3561 5.97962 76.1518 5.69487C77.061 5.29623 76.9474 5.18233 76.8337 6.37826C76.4359 9.90908 74.4469 13.0982 71.9464 15.547C72.401 15.6609 72.9125 15.7748 73.3671 15.9457C72.8557 12.5857 73.9922 9.1118 76.4927 6.7769C77.2315 6.09351 78.084 5.63792 78.3681 7.06164C78.4818 7.63113 77.7998 8.9979 77.5725 9.51044C76.7769 11.3898 75.6403 12.9843 74.2196 14.408H75.413C74.3901 13.2121 75.6971 10.5925 76.3222 9.4535C76.6064 8.94096 79.0501 5.18233 79.732 5.52402C80.5276 5.92267 78.7659 9.73824 78.5386 10.1369C77.743 11.6745 76.7201 13.0413 75.5266 14.2941C76.0381 14.5219 76.4927 14.6928 77.0042 14.9206C77.061 10.7633 78.9932 7.23249 82.5167 5.01149C82.062 4.78369 81.6642 4.49895 81.2096 4.27115C81.2664 8.08672 79.9025 11.4467 77.1747 14.1233C77.6861 14.3511 78.1408 14.5219 78.6523 14.7497C78.9932 10.5925 80.9254 7.0047 84.1079 4.32811C83.6533 4.27116 83.1986 4.21421 82.744 4.15726C84.5625 6.8908 80.5845 12.0162 78.9932 14.0663C79.5047 14.2941 79.9593 14.465 80.4708 14.6928C80.5276 13.0982 80.8118 11.6176 81.4369 10.1369C81.7779 9.2257 83.1986 6.09352 84.2216 5.86572C85.5855 5.58098 84.1647 8.20062 83.7101 9.16875C82.9145 10.8203 81.8347 12.244 80.5845 13.5538C81.0391 13.8386 81.5506 14.1233 82.0052 14.408C82.5167 10.8772 83.9374 6.20742 87.6313 4.89759C87.2903 4.61285 86.8925 4.3281 86.5515 4.10031C86.0969 7.97282 84.392 11.2759 81.5506 13.8955C82.062 14.1233 82.5167 14.2941 83.0281 14.5219C83.1986 12.6996 83.5964 10.9342 84.392 9.2257C84.9035 8.14367 86.2674 5.29623 87.5177 5.06843C88.1428 4.95454 87.5177 5.92267 87.2903 6.54911C86.9494 7.46029 86.4947 8.31452 86.0401 9.1118C85.1308 10.7064 83.9942 12.1301 82.6872 13.4399C83.1986 13.6677 83.6533 13.8386 84.1647 14.0663C84.392 10.4216 86.0969 7.28944 88.9384 5.06843C88.5406 4.72674 88.0859 4.442 87.6881 4.10031C87.2335 6.7769 85.8696 8.88401 84.0511 10.8772C82.9713 12.0731 82.6303 11.7884 82.5167 10.1938C82.403 8.02977 83.7101 5.86572 85.8696 5.29623C85.5286 5.01149 85.1308 4.72674 84.7898 4.49894C84.6194 7.91587 83.5964 10.9911 81.7779 13.8386C82.2893 14.0094 82.8576 14.1233 83.3691 14.2941C83.5396 12.5857 83.9942 10.9342 84.7898 9.39655C85.3013 8.37147 86.6084 5.80877 87.745 5.52402C89.393 5.06843 87.745 8.31452 87.3472 9.1118C86.5516 10.7064 85.4718 12.0731 84.2216 13.383C84.733 13.6108 85.1876 13.7816 85.6991 14.0094C85.4718 9.85214 87.9723 6.20741 91.8935 4.95454C91.5526 4.66979 91.1547 4.38505 90.8138 4.15726C90.3591 8.20062 88.4269 11.6175 85.3013 14.2372C85.8128 14.465 86.2674 14.6358 86.7789 14.8636C87.2335 10.9342 89.2225 7.57419 92.4618 5.29623C92.064 5.12539 91.6094 4.95454 91.2116 4.78369C92.1208 7.74503 88.9952 11.6176 87.2903 13.7247C87.8018 13.9525 88.2564 14.1233 88.7679 14.3511C88.9952 11.4467 90.6433 6.15046 94.1099 5.63792C93.7689 5.29623 93.4279 4.95454 93.0869 4.61285C92.4618 7.85893 91.1548 10.7633 89.0521 13.326C89.5635 13.5538 90.0181 13.7247 90.5296 13.9525C90.7001 10.4786 92.064 7.46029 94.4509 5.01149C93.9962 4.95454 93.5416 4.89759 93.0869 4.84064C94.394 7.23249 91.723 11.4467 90.5296 13.5538L92.064 14.2372C92.6323 11.5037 93.0869 6.8908 95.6443 5.23928C95.3033 5.18233 94.9623 5.12539 94.6213 5.12539C96.0421 6.71995 93.3143 12.0731 92.6891 13.6677C93.2574 13.8386 93.7689 13.9525 94.3372 14.1233C95.1328 11.2189 95.8716 8.37147 96.6672 5.46708C96.0989 5.41013 95.5306 5.29623 95.0192 5.23928C95.1328 7.97282 94.735 10.5355 93.8257 13.1552C94.394 13.2121 94.9623 13.326 95.4738 13.383C95.7579 10.8203 95.4738 6.83385 96.9514 4.66979C96.4399 4.61284 95.9284 4.5559 95.417 4.442C96.2126 7.23249 95.9284 9.90909 95.5306 12.8135C96.0989 12.8704 96.6672 12.9843 97.1787 13.0413C96.9514 9.85213 96.724 6.60605 96.4967 3.41692C95.9852 3.64472 95.5306 3.81557 95.0192 4.04336C97.1787 6.26436 96.3262 9.16875 95.3601 11.7315C95.8716 11.6745 96.3831 11.6175 96.8945 11.5036C96.2694 10.3077 95.0191 8.31452 95.076 6.8908C94.5077 5.97962 94.735 5.52403 95.8148 5.58098C96.3262 6.49216 96.4967 7.46029 96.2694 8.42842C96.7809 8.20062 97.2355 8.02977 97.747 7.80198C96.8377 6.71995 96.3831 5.69487 96.0989 4.38505C95.7011 4.72674 95.2465 5.01148 94.8487 5.35318C95.076 5.97961 95.3033 6.663 95.5306 7.28944C96.0421 7.34639 96.5535 7.40334 97.065 7.51723C96.6672 6.37826 96.4967 5.35318 96.5535 4.15726C96.2126 4.442 95.8148 4.72674 95.4738 4.95454C97.6901 5.86572 96.1557 11.7884 95.8716 13.326C96.1557 13.0982 96.4399 12.9274 96.6672 12.6996C92.3482 12.8135 88.0291 12.9274 83.7101 13.0413C82.6303 13.0982 82.6303 14.6928 83.7101 14.7497C87.5177 14.8636 91.2684 14.2941 95.0192 13.7247C94.8487 13.1552 94.735 12.6426 94.5645 12.0731C90.1318 13.2691 85.6991 14.0663 81.1527 14.408C80.073 14.465 80.073 16.0596 81.1527 16.1165C85.5854 16.2874 89.9045 14.7497 94.3372 14.9206C94.2804 14.3511 94.1667 13.7816 94.1099 13.2691C90.7001 14.408 87.2903 14.7497 83.7101 14.3511V16.0596C87.8018 15.6609 91.8935 15.2623 95.9852 14.8636C95.9284 14.2941 95.8148 13.7247 95.7579 13.2121C93.0301 14.0094 90.3591 14.2941 87.5177 14.1802V15.8887C90.3023 15.8887 92.9733 15.547 95.6443 14.8636C96.724 14.5789 96.2694 12.9843 95.1896 13.2121C92.0072 13.8955 88.8247 14.2372 85.5855 14.2372V15.9457C89.4499 15.4331 93.3143 14.8067 97.1787 14.0094C98.0879 13.8386 97.9175 12.244 96.9514 12.3579C93.2574 12.8135 89.6203 12.7565 85.9833 12.187C84.9035 12.0162 84.4489 13.6677 85.5286 13.8386C89.3362 14.408 93.1438 14.5219 96.9514 14.0663C96.8945 13.4969 96.7809 12.9274 96.724 12.4148C93.0301 13.1552 89.3362 13.8386 85.5855 14.2941C84.5057 14.408 84.4489 16.0026 85.5855 16.0026C88.9952 16.0026 92.2913 15.6609 95.6443 14.9206C95.4738 14.3511 95.3601 13.8386 95.1896 13.2691C92.6323 13.8955 90.1318 14.2372 87.5177 14.2372C86.4379 14.2372 86.4379 15.8887 87.5177 15.9457C90.4728 16.0596 93.3143 15.7179 96.2126 14.9206C97.1218 14.6358 96.9513 13.1552 95.9852 13.2691C91.8935 13.6677 87.8018 14.0663 83.7101 14.465C82.6303 14.5789 82.6303 16.0596 83.7101 16.1735C87.4608 16.5721 91.0411 16.1735 94.5645 15.0345C95.4738 14.7497 95.3033 13.383 94.3372 13.383C89.9045 13.2121 85.5854 14.7497 81.1527 14.5789V16.2874C85.8696 15.9457 90.4728 15.1484 95.0192 13.8955C96.0989 13.6108 95.6443 12.0731 94.5645 12.244C90.9274 12.8135 87.3472 13.326 83.7101 13.2121V14.9206C88.0291 14.8067 92.3482 14.6928 96.6672 14.5789C97.0082 14.5789 97.406 14.2941 97.4628 13.9525C98.0311 10.7633 99.7928 5.12539 95.8716 3.47387C95.3033 3.24608 94.8487 3.81556 94.7918 4.27115C94.6782 5.69487 94.8487 6.7769 95.3601 8.08672C95.5874 8.71316 96.5535 8.99791 96.8945 8.31452C97.6901 6.66301 97.2355 5.01149 95.5875 4.04336C94.9055 3.64472 94.1667 4.27115 94.3372 5.01149C94.6782 6.663 95.3601 7.91587 96.4399 9.2257C96.9514 9.85213 97.8606 9.28265 97.9174 8.59927C98.0879 6.7769 96.4967 1.36677 93.5984 3.01828C90.9843 4.5559 94.4509 10.7633 95.3033 12.5287C95.6443 13.2691 96.6104 12.9274 96.8377 12.3009C98.0879 9.05486 98.6562 5.63792 96.0421 2.96133C95.5306 2.44879 94.5077 2.79049 94.5645 3.58777C94.7918 6.7769 95.0192 10.023 95.2465 13.2121C95.3033 14.1233 96.7809 14.465 96.8945 13.4399C97.3492 10.3077 97.6901 7.28944 96.7809 4.15726C96.5535 3.41692 95.6443 3.35997 95.2465 3.92946C93.4848 6.4352 93.8257 10.5925 93.5416 13.4969C93.4279 14.5219 94.9055 14.5789 95.1896 13.7247C96.1557 10.9911 96.5536 8.25757 96.4399 5.35318C96.3831 4.38505 95.0191 4.15726 94.7918 5.12539C93.9962 8.02977 93.2574 10.8772 92.4618 13.7816C92.1777 14.8636 93.7121 15.2623 94.1099 14.2372C95.1328 11.6175 97.8606 6.60605 95.5875 3.98641C95.3601 3.70167 94.8487 3.64472 94.5645 3.87251C91.4389 5.92267 90.8706 10.5355 90.1887 13.8955C90.0182 14.8067 91.2684 15.4331 91.723 14.5789C93.2574 11.7884 95.9852 7.28944 94.2804 4.10031C93.9962 3.64471 93.3143 3.53082 92.9165 3.92946C90.1886 6.7769 88.7111 10.1369 88.4838 14.0663C88.4269 14.7497 89.4499 15.2623 89.9613 14.6928C92.2913 11.9023 93.7689 8.77011 94.4509 5.23928C94.5645 4.5559 94.053 4.1003 93.4279 4.2142C89.1657 4.84064 87.1198 10.8772 86.8357 14.5789C86.7789 15.3192 87.8018 15.7179 88.3133 15.2053C90.5296 12.5287 93.8257 8.31452 92.6891 4.61285C92.5187 4.10031 91.8935 3.75861 91.4389 4.10031C87.6881 6.71995 85.415 10.5355 84.9035 15.0914C84.7898 15.8887 85.8696 16.1165 86.3811 15.7179C89.8477 12.8135 91.8367 8.88401 92.3482 4.442C92.405 3.87251 91.7799 3.47387 91.2684 3.64471C86.6084 5.12538 83.5396 9.45349 83.8237 14.3511C83.8806 15.0914 84.733 15.4901 85.3013 14.9775C86.6084 13.6677 93.4279 4.38505 89.1657 3.35997C87.404 2.90438 85.415 5.63792 84.5625 6.7769C82.8008 9.1118 81.8915 11.7884 81.5506 14.6928C81.4369 15.604 82.744 15.7748 83.1418 15.1484C85.1876 12.0731 86.2674 8.65621 86.4379 4.95454C86.4379 4.38505 85.8696 3.98641 85.3581 4.15726C83.0281 4.78369 81.6074 6.49216 81.0391 8.82706C80.6413 10.3077 80.2435 13.0982 81.8347 14.0663C83.3691 15.0345 84.6193 13.326 85.4718 12.3009C87.2903 10.1938 88.7679 7.91588 89.2225 5.12539C89.3362 4.49895 88.6542 3.64472 87.9723 4.15726C84.5625 6.7769 82.6303 10.3647 82.3462 14.6358C82.2893 15.3762 83.3123 15.7179 83.8237 15.2623C85.1876 13.8955 92.4618 4.89759 88.5406 3.41692C86.7789 2.73354 84.9035 5.58098 84.1079 6.71995C82.3462 9.2257 81.4937 12.0162 81.2096 15.0345C81.1528 15.8318 82.1757 16.1165 82.6872 15.6609C85.8696 12.6996 87.745 8.9979 88.1996 4.66979C88.2564 4.15725 87.6313 3.70167 87.1198 3.87251C82.8008 5.41013 80.9254 10.3647 80.3003 14.5789C80.1866 15.3762 81.0959 16.1165 81.721 15.4331C83.0849 14.0094 89.5635 5.06843 85.5855 3.92946C83.7669 3.41692 81.7779 6.5491 80.9823 7.80198C79.5047 10.0799 78.8227 12.6996 78.7091 15.3762C78.6523 16.0596 79.6752 16.5721 80.1867 16.0026C82.3462 13.326 86.5516 7.63114 84.2216 4.04336C83.8806 3.53082 83.3123 3.53082 82.8576 3.87251C79.3342 6.83385 77.2883 10.9342 76.8905 15.547C76.8337 16.2874 77.8566 16.629 78.3681 16.1735C81.3801 13.1552 82.9145 9.3396 82.8576 5.12539C82.8576 4.49895 82.1189 4.04336 81.5506 4.38505C77.5157 6.8908 75.2425 11.0481 75.1857 15.7748C75.1857 16.5151 76.1518 16.9138 76.6632 16.4013C78.8227 14.1233 80.5845 11.3898 81.3232 8.31452C81.6642 7.0047 81.8915 4.442 79.7888 4.5559C77.5725 4.66979 75.2425 8.54231 74.4469 10.2508C73.5944 12.187 72.6852 14.6928 74.2196 16.4582C74.5037 16.7999 75.1288 16.7429 75.413 16.4582C77.6862 14.2372 79.391 11.4467 80.0162 8.31452C80.3003 6.8908 80.414 4.49894 78.3681 4.49894C76.2086 4.49894 73.8786 7.68808 73.0261 9.33959C71.6622 11.7884 71.3212 14.465 71.7759 17.1985C71.8895 17.8819 72.7988 17.9958 73.1966 17.5972C75.7539 15.0914 77.6293 11.9592 78.4249 8.42842C78.7659 6.8908 79.2205 4.27116 76.9474 4.32811C73.0261 4.442 67.6273 14.2941 71.3213 16.8568C71.6054 17.0277 71.9464 16.9707 72.1737 16.8568C74.1627 15.8887 81.2096 6.32131 76.8905 5.06843C75.072 4.49894 73.0261 7.57419 72.3442 8.88401C71.0371 11.3328 70.753 14.0094 71.3781 16.629C71.4917 17.2555 72.401 17.4833 72.7988 17.0277C75.4698 14.1802 79.0501 9.1118 77.5157 5.06843C77.3452 4.55589 76.7769 4.27115 76.2654 4.5559C72.2305 7.0047 70.3552 11.6175 71.4349 16.1735C71.6054 16.7999 72.401 16.9707 72.8557 16.5721C75.1288 14.3511 76.3791 11.5606 76.9474 8.42842C77.1747 7.06165 77.6862 4.5559 75.9244 3.98641C74.0491 3.41692 72.2874 6.60605 71.6622 7.97283C70.5256 10.4216 70.3551 13.0982 70.9803 15.7748C71.1508 16.4012 71.9464 16.629 72.401 16.1735C75.2425 13.0982 76.3791 9.2257 75.5835 5.12539C75.4698 4.66979 74.9583 4.442 74.5605 4.5559C70.1278 5.63792 69.6732 11.9023 70.412 15.547C70.5825 16.3443 71.6054 16.2873 71.9464 15.7748C73.4239 13.6677 74.39 11.3328 74.6174 8.71316C74.731 7.46029 75.072 4.84064 73.3671 4.38505C71.6622 3.92946 70.6393 6.4352 70.1278 7.63113C68.9344 10.3077 68.6503 13.1552 68.9912 16.0596C69.1049 16.8568 70.1278 17.3124 70.5825 16.5151C72.3442 13.4399 73.8218 8.82706 72.2305 5.41013C72.1169 5.12539 71.7759 4.95454 71.4917 5.01149C67.2864 5.06844 67.5137 13.0982 68.2525 15.7748C68.423 16.4582 69.4459 16.629 69.7868 16.0026C71.3781 13.2121 72.401 9.1118 71.0371 5.97962C70.071 3.75861 68.3093 4.78369 67.2295 6.43521C65.6951 8.82706 64.729 13.326 66.2634 15.9457C67.4569 17.9958 68.9912 16.4582 69.8437 14.9206C70.8666 13.0413 72.5147 8.42842 70.8098 6.43521C69.2754 4.6698 67.2864 7.11859 66.4339 8.37147C65.1268 10.3647 63.8766 14.0094 65.5246 16.1735C66.7749 17.825 69.0481 17.4833 69.73 15.604C70.0142 14.9206 69.2754 14.465 68.7071 14.5789C67.5137 14.7497 66.5476 15.0914 65.5246 15.7179C65.8088 16.2304 66.0929 16.686 66.3771 17.1985C67.5705 16.2873 68.3661 15.2623 68.9344 13.8386C69.2754 12.9843 68.082 12.5287 67.5137 12.9843C67.1727 13.1552 66.8886 13.326 66.5476 13.4969C66.8886 13.8955 67.1727 14.3511 67.5137 14.7497C69.0481 12.244 70.5825 9.68129 72.1169 7.17555C72.6283 6.37826 71.3781 5.35318 70.753 6.15047C68.7071 8.71316 66.6044 11.3328 64.5585 13.8955C65.0132 14.2372 65.4678 14.5789 65.9225 14.9206C67.059 12.244 68.1956 9.62434 69.3322 6.94775C69.6732 6.15046 68.6503 5.06843 67.9683 5.92266C67.1159 7.00469 66.2634 8.08673 65.3542 9.16875C65.8088 9.51045 66.2634 9.85213 66.7181 10.1938C67.5705 8.82705 68.1956 7.46028 68.7071 5.92266C68.9344 5.12538 67.7978 4.38505 67.2864 5.06843C66.1498 6.49215 65.07 7.97283 63.9334 9.39655C64.3881 9.73824 64.8427 10.0799 65.2973 10.4216C66.0361 8.77011 66.7181 7.1186 67.4569 5.46708C67.9115 4.49895 66.5476 3.64472 65.9793 4.61285C65.3542 5.63793 64.729 6.663 64.1039 7.68808C63.3651 7.34639 64.8427 8.20062 65.411 7.23249Z" fill="#E8E8E8"/>
<path d="M96.2694 2.39183C96.2694 4.32809 96.3263 6.3213 96.3831 8.25756C96.4399 9.68128 97.0651 12.6996 96.1558 13.7816C95.5875 14.465 96.3263 15.6609 97.1787 15.1484C97.5765 14.8636 97.6902 14.8067 98.0312 14.465C98.3721 14.0094 98.3153 13.2121 97.6334 13.0413C96.6104 12.8135 95.8716 12.8135 94.8487 13.1552C93.8258 13.4969 94.2236 15.1484 95.3034 14.8067C95.9285 14.7497 96.5536 14.7497 97.1787 14.6928C97.0651 14.2372 96.9514 13.7246 96.7809 13.2691C96.6104 13.4399 96.4399 13.5538 96.3263 13.7247C96.6673 14.1802 97.0082 14.6358 97.3492 15.0914C98.5995 13.6108 98.2585 12.5857 98.1448 10.5925C98.0312 7.91587 97.9743 5.18232 97.9743 2.50573C97.9743 1.25286 96.2694 1.25286 96.2694 2.39183Z" fill="#E8E8E8"/>
<path d="M12.2185 51.9943C35.5754 50.6844 58.9892 50.1719 82.403 50.4566C83.4827 50.4566 83.4827 48.7482 82.403 48.7482C58.9892 48.4634 35.5754 48.976 12.2185 50.2858C11.1388 50.3427 11.1388 52.0512 12.2185 51.9943Z" fill="#E8E8E8"/>
<path d="M15.2307 67.5982C31.9954 65.8328 48.8169 64.9216 65.6385 64.9216C66.7182 64.9216 66.7182 63.2132 65.6385 63.2132C48.8169 63.2132 31.9954 64.0674 15.2307 65.8898C14.1509 66.0037 14.0941 67.7121 15.2307 67.5982Z" fill="#E8E8E8"/>
<path d="M16.7649 96.699C39.1557 94.3641 61.6034 93.0543 84.1079 92.8835C85.1876 92.8835 85.1876 91.175 84.1079 91.175C61.6034 91.3459 39.1557 92.6557 16.7649 94.9906C15.6851 95.1045 15.6851 96.8129 16.7649 96.699Z" fill="#E8E8E8"/>
<path d="M108.715 174.605C97.6903 170.334 91.1549 158.09 92.2347 146.472C93.3713 134.684 102.123 124.604 112.636 119.877C119.854 116.631 127.81 115.948 134.914 119.763C140.483 122.725 145.257 127.281 148.61 132.634C155.6 143.796 155.088 157.293 147.7 168.227C143.268 174.776 134.914 176.655 127.583 177.794C120.308 178.933 112.636 178.534 106.499 174.035C105.59 173.409 104.737 174.89 105.646 175.516C111.329 179.673 118.319 180.528 125.139 179.844C131.902 179.161 139.915 177.68 145.37 173.352C150.769 169.081 154.008 160.994 155.145 154.388C156.225 148.067 155.031 141.689 152.36 135.88C146.393 122.952 132.64 112.588 118.035 116.176C105.419 119.251 94.2805 129.445 91.2118 142.258C87.9156 155.869 95.0193 171.074 108.204 176.2C109.284 176.655 109.738 175.004 108.715 174.605Z" fill="#E8E8E8"/>
<path d="M120.706 116.46C121.388 126.996 122.07 137.531 122.809 148.067C122.866 149.149 124.57 149.149 124.514 148.067C123.832 137.531 123.15 126.996 122.411 116.46C122.354 115.378 120.649 115.378 120.706 116.46Z" fill="#E8E8E8"/>
<path d="M124.4 149.092C133.038 144.365 141.562 139.411 149.973 134.171C150.883 133.602 150.03 132.121 149.121 132.691C140.767 137.93 132.242 142.885 123.548 147.611C122.581 148.181 123.434 149.661 124.4 149.092Z" fill="#E8E8E8"/>
<path d="M124.741 149.377C134.516 149.377 144.177 151.712 153.781 153.363C154.861 153.534 155.315 151.882 154.236 151.712C144.518 150.06 134.686 147.668 124.741 147.668C123.661 147.668 123.661 149.377 124.741 149.377Z" fill="#E8E8E8"/>
<path d="M123.263 148.238C117.808 157.293 112.352 166.291 106.84 175.345C106.271 176.314 107.749 177.168 108.317 176.2C113.773 167.145 119.229 158.147 124.741 149.092C125.309 148.181 123.832 147.27 123.263 148.238Z" fill="#E8E8E8"/>
<path d="M26.4827 228.934C51.2035 227.055 75.8675 224.891 100.475 222.328C101.554 222.214 101.554 220.506 100.475 220.62C75.8107 223.125 51.1467 225.346 26.4827 227.226C25.4029 227.34 25.4029 229.048 26.4827 228.934Z" fill="#E8E8E8"/>
<path d="M34.8936 186.963C35.8029 200.061 36.769 213.216 37.6783 226.315C37.7351 227.397 39.44 227.397 39.3831 226.315C38.4739 213.216 37.5078 200.061 36.5985 186.963C36.4848 185.881 34.78 185.881 34.8936 186.963Z" fill="#E8E8E8"/>
<path d="M36.5418 187.134C39.7811 186.564 43.0203 186.393 46.3165 186.564C46.0323 186.28 45.7482 185.995 45.464 185.71C46.3165 199.036 47.5667 212.305 49.1011 225.517C49.2148 226.599 50.9196 226.599 50.806 225.517C49.2148 212.305 48.0213 198.979 47.1689 185.71C47.1121 185.254 46.8279 184.856 46.3165 184.856C42.8499 184.685 39.4969 184.913 36.0871 185.482C35.0074 185.71 35.5188 187.362 36.5418 187.134Z" fill="#E8E8E8"/>
<path d="M54.443 200.46C55.7501 208.376 56.5457 216.405 56.8299 224.435C56.8867 225.517 58.5916 225.517 58.5347 224.435C58.2506 216.235 57.455 208.091 56.0911 200.004C55.9206 198.922 54.2725 199.378 54.443 200.46Z" fill="#E8E8E8"/>
<path d="M56.4885 201.314C59.7846 201.314 63.0239 201.143 66.2632 200.688C65.9791 200.403 65.6949 200.118 65.4108 199.833C66.2064 207.749 67.0588 215.608 67.8544 223.524C67.9681 224.606 69.673 224.606 69.5593 223.524C68.7637 215.608 67.9113 207.749 67.1157 199.833C67.0588 199.435 66.7747 198.922 66.2632 198.979C63.0239 199.378 59.7278 199.606 56.4885 199.606C55.4088 199.606 55.4088 201.314 56.4885 201.314Z" fill="#E8E8E8"/>
<path d="M74.6744 186.849C76.0383 199.15 76.8907 211.451 77.2317 223.866C77.2885 224.948 78.9934 224.948 78.9366 223.866C78.5388 211.508 77.6863 199.15 76.3793 186.849C76.2656 185.767 74.5607 185.767 74.6744 186.849Z" fill="#E8E8E8"/>
<path d="M75.5265 187.532C77.3451 187.646 79.2205 187.703 81.039 187.817C83.5963 187.931 83.6532 187.988 83.71 190.551C83.8805 194.252 84.051 197.897 84.2783 201.599C84.7897 208.66 85.5854 215.665 86.8924 222.613C87.1198 223.695 88.711 223.239 88.5405 222.157C86.8924 213.387 86.0968 204.446 85.6422 195.505C85.5285 193.455 85.4717 191.462 85.358 189.412C85.3012 188.614 85.4149 187.419 84.7898 186.735C84.1078 186.052 82.9144 186.166 82.0619 186.109C79.8456 185.995 77.6861 185.881 75.4697 185.767C74.4468 185.767 74.4468 187.475 75.5265 187.532Z" fill="#E8E8E8"/>
<path d="M97.6332 241.064C119.569 239.527 141.449 236.736 163.044 232.693C164.124 232.465 163.669 230.87 162.589 231.041C141.108 235.085 119.399 237.818 97.6332 239.356C96.4966 239.413 96.4966 241.121 97.6332 241.064Z" fill="#E8E8E8"/>
<path d="M131.049 230.187C140.369 229.219 149.746 228.251 159.066 227.283C160.146 227.169 160.146 225.46 159.066 225.574C149.746 226.542 140.369 227.51 131.049 228.479C129.969 228.592 129.969 230.301 131.049 230.187Z" fill="#E8E8E8"/>
<path d="M146.961 218.797C151.224 218.626 155.543 218.456 159.805 218.285C160.885 218.228 160.885 216.519 159.805 216.576C155.543 216.747 151.224 216.918 146.961 217.089C145.825 217.146 145.825 218.854 146.961 218.797Z" fill="#E8E8E8"/>
<path d="M101.952 27.2785C103.032 30.4106 103.486 33.5998 103.316 36.9028C103.259 37.9848 104.964 37.9848 105.021 36.9028C105.191 33.4289 104.737 30.1259 103.6 26.8229C103.202 25.7978 101.554 26.2534 101.952 27.2785Z" fill="#E8E8E8"/>
<path d="M103.373 27.4493C119.001 25.8548 134.629 24.8297 150.314 24.3172C151.394 24.2602 151.394 22.5517 150.314 22.6087C134.629 23.1212 118.944 24.1463 103.373 25.7409C102.293 25.8548 102.293 27.5632 103.373 27.4493Z" fill="#E8E8E8"/>
<path d="M105.021 37.814C120.593 36.675 136.107 35.536 151.678 34.3971C152.758 34.3401 152.758 32.6316 151.678 32.6886C136.107 33.8276 120.593 34.9665 105.021 36.1055C103.941 36.1625 103.941 37.8709 105.021 37.814Z" fill="#E8E8E8"/>
<path d="M150.542 24.6019C151.053 28.1327 151.565 31.6066 152.076 35.1374C152.247 36.2194 153.895 35.7638 153.724 34.6818C153.213 31.151 152.701 27.6771 152.19 24.1463C152.019 23.0643 150.371 23.5198 150.542 24.6019Z" fill="#E8E8E8"/>
<path d="M425.369 70.9582C425.426 73.1222 425.54 75.2293 425.824 77.3934C425.994 78.4754 427.699 78.4754 427.529 77.3934C427.245 75.2863 427.074 73.1222 427.074 70.9582C427.074 69.8762 425.369 69.8762 425.369 70.9582Z" fill="#E8E8E8"/>
<path d="M426.619 71.8124H536.926C538.005 71.8124 538.005 70.104 536.926 70.104C500.157 70.104 463.388 70.104 426.619 70.104C425.54 70.104 425.54 71.8124 426.619 71.8124Z" fill="#E8E8E8"/>
<path d="M535.902 71.6416V75.4002C535.902 76.4822 537.607 76.4822 537.607 75.4002C537.607 74.1473 537.607 72.8945 537.607 71.6416C537.607 70.5026 535.902 70.5026 535.902 71.6416Z" fill="#E8E8E8"/>
<path d="M427.642 78.0199H536.527C537.607 78.0199 537.607 76.3114 536.527 76.3114C500.213 76.3114 463.899 76.3114 427.642 76.3114C426.505 76.3114 426.505 78.0199 427.642 78.0199Z" fill="#E8E8E8"/>
<path d="M427.472 51.3109C428.893 57.7461 430.086 64.2383 431.052 70.7304C431.223 71.8124 432.871 71.3568 432.7 70.2748C431.677 63.7827 430.484 57.2905 429.12 50.8553C428.836 49.7732 427.245 50.2288 427.472 51.3109Z" fill="#E8E8E8"/>
<path d="M428.495 51.1969C435.94 51.4247 443.725 52.3359 451.17 51.4247C452.25 51.3108 452.25 49.6024 451.17 49.7163C443.725 50.6275 435.94 49.7163 428.495 49.4885C427.415 49.4315 427.415 51.14 428.495 51.1969Z" fill="#E8E8E8"/>
<path d="M450.317 51.7665C449.522 57.9169 448.783 64.0674 447.987 70.2748C447.874 71.3569 449.579 71.3569 449.692 70.2748C450.488 64.1244 451.227 57.9739 452.022 51.7665C452.136 50.6844 450.431 50.6844 450.317 51.7665Z" fill="#E8E8E8"/>
<path d="M436.962 49.3177C435.826 48.8051 434.462 48.2926 433.609 47.3814C432.132 45.9007 432.245 43.9075 432.018 41.9713C431.677 39.4086 430.256 37.1306 430.086 34.511C429.631 34.7388 429.233 35.0235 428.779 35.2513C434.064 38.6682 438.724 43.5089 438.554 50.2289C438.497 51.3109 440.202 51.3109 440.258 50.2289C440.486 42.8825 435.428 37.5293 429.631 33.7707C429.12 33.429 428.324 33.8846 428.324 34.511C428.438 36.0486 428.892 37.4154 429.404 38.896C430.143 40.9462 430.143 42.9394 430.541 45.0465C431.166 48.1787 433.325 49.5455 436.053 50.7983C437.076 51.197 437.928 49.7733 436.962 49.3177Z" fill="#E8E8E8"/>
<path d="M438.61 42.0282C437.985 37.7001 440.827 33.5428 442.418 29.7273C443.668 26.709 444.577 23.6338 444.407 20.3307C443.839 20.3877 443.27 20.5016 442.759 20.5585C444.862 30.4107 447.476 39.7503 442.986 49.4316C442.532 50.3997 444.009 51.3109 444.464 50.2858C446.51 45.8438 447.589 41.0601 447.362 36.1625C447.078 30.7524 445.544 25.3992 444.407 20.1029C444.236 19.1348 442.702 19.3626 442.759 20.3307C443.1 28.2466 435.826 34.6249 437.019 42.4838C437.133 43.5658 438.781 43.1102 438.61 42.0282Z" fill="#E8E8E8"/>
<path d="M466.4 9.05485C467.082 29.7842 467.309 50.4566 466.911 71.186C466.911 72.268 468.616 72.268 468.616 71.186C468.957 50.4566 468.787 29.7273 468.105 9.05485C468.105 7.91588 466.4 7.91588 466.4 9.05485Z" fill="#E8E8E8"/>
<path d="M467.707 9.3396C470.151 7.28944 474.299 8.20062 477.027 9.05485C478.05 9.39655 478.505 7.74503 477.482 7.40334C474.015 6.32131 469.469 5.63793 466.513 8.14368C465.661 8.82706 466.854 10.023 467.707 9.3396Z" fill="#E8E8E8"/>
<path d="M476.345 9.05485C476.459 29.4995 476.573 49.8871 476.686 70.3318C476.686 71.4138 478.391 71.4138 478.391 70.3318C478.277 49.8871 478.164 29.4995 478.05 9.05485C478.05 7.91588 476.345 7.91588 476.345 9.05485Z" fill="#E8E8E8"/>
<path d="M468.957 22.8365C471.231 20.9572 474.584 21.128 476.686 23.1212C477.482 23.8616 478.675 22.6656 477.88 21.9253C475.038 19.2487 470.719 19.1918 467.764 21.6406C466.912 22.3239 468.105 23.5199 468.957 22.8365Z" fill="#E8E8E8"/>
<path d="M468.218 16.2874C470.719 14.1233 474.299 14.0664 476.913 16.0596C477.823 16.743 478.618 15.2053 477.766 14.5789C474.47 12.1301 470.037 12.4718 466.968 15.0914C466.173 15.8318 467.423 17.0277 468.218 16.2874Z" fill="#E8E8E8"/>
<path d="M478.107 23.6907C480.664 23.6907 483.165 23.9755 485.665 24.6019C485.438 24.3172 485.267 24.0324 485.04 23.8046C485.381 39.1808 485.21 54.5 484.415 69.8762C484.358 70.9582 486.063 70.9582 486.12 69.8762C486.915 54.557 487.086 39.1808 486.745 23.8046C486.745 23.4629 486.461 23.0643 486.12 23.0073C483.449 22.3239 480.835 22.0392 478.107 22.0392C476.97 21.9823 476.97 23.6907 478.107 23.6907Z" fill="#E8E8E8"/>
<path d="M478.505 39.8642C480.778 38.3835 483.506 38.3265 485.836 39.6933C486.802 40.2628 487.654 38.7821 486.688 38.2126C483.847 36.5042 480.38 36.5611 477.652 38.3835C476.743 38.953 477.596 40.4336 478.505 39.8642Z" fill="#E8E8E8"/>
<path d="M478.221 31.7205C480.21 30.7523 482.483 30.6954 484.529 31.5496C485.552 31.9483 486.404 30.5245 485.381 30.069C482.71 28.93 479.982 28.9869 477.368 30.2398C476.402 30.7523 477.255 32.233 478.221 31.7205Z" fill="#E8E8E8"/>
<path d="M490.495 70.047C490.495 69.0789 489.87 65.5481 490.439 64.8647C491.234 63.8966 495.61 64.2383 496.747 64.1813C500.668 63.9535 504.646 63.7827 508.567 63.7257C516.467 63.6118 524.366 63.8966 532.208 64.523C531.924 64.2383 531.64 63.9535 531.356 63.6688C531.697 66.2315 531.867 68.7942 531.811 71.4138C531.811 72.4958 533.515 72.4958 533.515 71.4138C533.515 68.7942 533.402 66.2315 533.061 63.6688C533.004 63.1562 532.72 62.8715 532.208 62.8145C522.491 62.0742 512.659 61.8464 502.941 62.1881C500.668 62.2451 498.452 62.3589 496.178 62.5298C494.53 62.6437 491.462 62.302 489.927 63.0423C487.711 64.0674 488.734 68.2247 488.791 70.104C488.791 71.1291 490.495 71.186 490.495 70.047Z" fill="#E8E8E8"/>
<path d="M496.349 62.2451C496.236 61.6186 495.667 59.7393 495.781 59.1129C496.179 57.4044 497.827 57.8031 499.077 57.8031C501.123 57.7461 503.226 57.7461 505.271 57.6892C509.591 57.6322 513.91 57.5183 518.285 57.4614C522.434 57.4044 526.583 57.2905 530.731 57.2336C533.004 57.1766 535.278 57.1766 537.494 57.1197C539.085 57.1197 539.994 56.5502 540.506 58.6003C540.733 59.5115 540.563 60.7075 540.506 61.6186C540.449 62.7007 542.154 62.7007 542.211 61.6186C542.268 60.138 542.722 57.2336 541.529 55.9807C540.449 54.8987 538.233 55.4112 536.926 55.4682C530.504 55.582 524.139 55.6959 517.717 55.8098C511.523 55.9237 505.271 56.0376 499.077 56.1515C497.827 56.1515 495.156 55.639 494.247 56.778C493.167 58.0878 494.474 61.3339 494.701 62.7576C494.929 63.7827 496.577 63.3271 496.349 62.2451Z" fill="#E8E8E8"/>
<path d="M531.867 64.4661C534.425 64.523 537.039 64.5799 539.596 64.4091C540.847 64.2952 542.097 63.8396 541.983 62.3589C541.869 61.2769 540.165 61.2769 540.278 62.3589C540.335 62.9854 532.606 62.8145 531.867 62.7576C530.788 62.7006 530.788 64.4091 531.867 64.4661Z" fill="#E8E8E8"/>
<path d="M501.35 56.4932C501.293 55.5251 501.009 54.2153 501.123 53.2471C501.237 52.1082 500.953 51.9373 502.26 51.7665C504.078 51.5387 506.408 52.1651 508.227 52.279C512.034 52.5637 515.899 52.7346 519.706 52.7915C523.514 52.8485 527.378 52.8485 531.186 52.6776C532.891 52.6207 534.937 52.1651 536.642 52.3929C537.437 52.0512 538.062 52.279 538.46 53.0193C539.085 53.3041 539.312 53.8166 539.256 54.4431C539.426 54.8986 539.483 55.4681 539.653 55.9807C540.051 57.0057 541.699 56.5502 541.302 55.5251C540.79 54.2722 541.131 52.3929 540.108 51.3109C539.199 50.3427 537.892 50.5705 536.642 50.6275C531.015 50.9122 525.332 51.0831 519.706 51.0261C514.251 50.9122 508.795 50.6275 503.339 50.1149C502.203 50.001 500.441 49.5455 499.645 50.6844C498.736 52.0512 499.532 54.9556 499.645 56.4363C499.759 57.5752 501.464 57.5752 501.35 56.4932Z" fill="#E8E8E8"/>
<path d="M287.671 417.662C283.863 414.587 278.692 413.961 274.486 416.068C269.542 418.574 266.871 424.439 268.121 430.305C269.144 438.107 270.167 445.966 271.19 453.768C250.447 463.278 240.559 469.486 241.412 472.333C242.435 475.807 259.256 474.327 291.933 468.005C290.512 451.205 289.092 434.462 287.671 417.662Z" fill="#191919"/>
<path d="M273.805 232.807C273.009 244.253 271.702 262.819 269.486 285.826C266.758 314.699 265.621 343.8 261.757 372.559C257.779 402.4 253.403 422.845 263.462 429.963C267.099 432.526 271.475 432.526 274.6 432.127C277.896 431.273 281.193 430.362 284.489 429.508C287.728 431.102 292.104 432.64 295.627 430.818C305.97 425.521 296.196 398.357 296.934 359.404C297.446 333.72 302.39 308.093 308.982 274.436C313.983 248.752 317.791 235.426 310.687 228.877C302.049 220.847 282.897 228.535 273.805 232.807Z" fill="white" stroke="#161616" stroke-width="2" stroke-miterlimit="10"/>
<path opacity="0.14" d="M290.115 227.453C292.274 237.533 294.718 252.796 294.547 271.361C294.263 301.316 287.273 320.223 282.215 342.718C277.612 363.106 273.18 392.833 275.169 431.159C278.181 430.59 281.249 429.963 284.261 429.394C284.943 429.906 287.728 431.786 291.592 431.444C292.161 431.387 295.911 430.989 298.355 428.198C301.367 424.781 300.742 419.713 300.401 417.264C299.094 406.614 298.81 395.851 297.73 385.145C296.593 373.869 296.764 365.099 296.821 359.803C296.877 355.816 297.162 348.356 298.582 336.226C301.083 315.098 303.356 311.51 308.3 280.814C312.051 257.693 310.403 261.908 311.824 256.668C313.131 251.998 315.347 245.222 314.154 236.622C313.585 232.579 312.562 230.301 310.914 228.649C307.505 225.289 302.447 225.346 299.435 225.403C295.4 225.46 292.104 226.599 290.115 227.453Z" fill="#6D6C6C"/>
<path opacity="0.1" d="M306.311 285.541C302.049 294.995 297.559 307.41 294.832 322.387C290.058 348.811 294.775 362.251 290.74 390.498C289.262 400.92 286.478 414.018 281.022 428.824C283.068 429.109 285.114 429.394 287.216 429.736C290.285 430.818 294.15 431.615 296.934 429.736C301.935 426.376 300.23 416.523 298.98 404.963C298.98 404.963 297.446 390.726 297.218 363.675C297.105 348.697 298.469 337.649 300.458 321.533C302.219 307.068 304.379 294.824 306.311 285.541Z" fill="#6D6C6C"/>
<path d="M359.39 413.334C355.582 410.259 350.411 409.633 346.206 411.74C341.261 414.246 338.59 420.111 339.841 425.977C340.864 433.779 341.887 441.638 342.909 449.44C322.167 458.95 312.278 465.158 313.131 468.005C314.154 471.479 330.975 469.998 363.652 463.677C362.175 446.877 360.754 430.134 359.39 413.334Z" fill="#191919"/>
<path d="M338.192 231.041C341.488 258.092 345.012 285.997 348.763 314.984C351.32 334.916 351.945 339.643 353.934 347.388C357.344 360.828 361.947 372.274 365.925 393.061C367.801 402.742 368.767 410.601 364.277 416.524C360.924 420.966 354.389 424.496 352.911 423.13C352.286 422.503 352.684 420.909 353.252 419.485C351.888 420.795 343.25 428.938 336.374 426.091C332.339 424.439 330.691 419.713 329.895 417.15C321.825 392.377 320.518 367.548 320.518 367.548C320.007 357.98 318.757 348.185 316.313 328.538C314.494 314.13 311.085 293.286 303.754 267.944C302.674 267.261 292.104 260.199 291.422 247.158C291.365 246.19 290.967 236.338 297.161 229.675C305.345 220.847 322.848 220.221 338.192 231.041Z" fill="white" stroke="#161616" stroke-width="2" stroke-miterlimit="10"/>
<path d="M292.331 237.875C290.285 243.798 289.717 250.461 292.956 256.099C295.741 260.939 300.23 266.236 305.686 267.944C306.709 268.286 307.164 266.634 306.141 266.293C301.14 264.755 296.934 259.687 294.434 255.245C291.422 250.005 292.104 243.855 293.979 238.331C294.377 237.306 292.729 236.85 292.331 237.875Z" fill="white"/>
<path d="M290.626 248.468C291.138 257.352 296.821 264.755 305.459 267.204C306.539 267.489 306.993 265.837 305.913 265.552C298.071 263.331 292.843 256.611 292.331 248.468C292.274 247.386 290.57 247.386 290.626 248.468Z" fill="white"/>
<path opacity="0.14" d="M315.802 223.638C317.279 228.08 319.553 235.255 322.053 244.14C329.327 269.88 341.886 314.471 342.682 368.117C342.796 377.058 343.137 422.56 347.228 422.788C348.195 422.845 349.786 420.339 351.945 420.909C353.423 421.307 353.48 422.674 354.787 423.187C357.628 424.269 362.345 419.371 364.618 415.783C365.414 414.53 367.232 411.683 367.63 407.639C367.858 405.817 367.687 404.507 367.062 400.635C366.153 394.655 365.698 391.694 365.357 390.213C362.913 378.653 358.538 367.548 354.957 351.887C353.423 345.281 352.4 339.358 351.15 332.524C350.752 330.36 349.672 324.039 348.479 316.18C345.808 298.184 344.955 285.826 343.194 270.051C342.227 261.452 340.75 249.322 338.477 234.572C337.908 233.319 336.885 231.383 335.067 229.618C334.442 229.048 332.51 227.283 327.281 225.631C324.724 224.72 320.803 223.752 315.802 223.638Z" fill="#6D6C6C"/>
<path opacity="0.2" d="M352.741 343.401C355.866 357.98 357.969 370.452 359.39 380.247C361.663 396.193 361.777 402.002 358.822 408.152C354.389 417.435 345.182 422.959 345.751 423.699C345.978 423.984 347.456 423.414 352.57 420.111C352.741 421.478 353.139 423.016 354.275 423.528C357.173 424.781 363.595 418.517 366.38 412.537C370.187 404.28 367.403 395.794 364.845 387.65C361.663 377.343 357.401 362.65 352.741 343.401Z" fill="#6D6C6C"/>
<path d="M277.157 134.228C271.588 133.488 266.474 140.777 256.528 155.299C249.709 165.208 244.935 173.922 241.809 179.958C235.047 179.617 228.284 179.275 221.521 178.876C215.213 178.534 208.905 178.193 202.597 177.794C200.097 176.94 196.346 175.687 191.743 174.605C184.298 172.783 168.897 169.764 167.931 172.441C167.647 173.295 168.67 175.061 175.262 179.218C174.807 180.357 173.159 185.141 175.262 190.665C175.603 191.519 177.478 196.132 181.911 198.523C187.594 201.542 195.437 199.89 201.176 194.252C205.609 196.929 229.648 210.995 252.266 201.371C259.654 198.239 264.825 193.455 269.429 189.241C277.783 181.553 288.751 171.473 289.035 157.463C289.262 147.327 283.92 135.14 277.157 134.228Z" fill="white" stroke="#161616" stroke-width="2" stroke-miterlimit="10"/>
<path d="M167.477 173.124C169.693 175.345 171.853 177.737 174.353 179.617C176.797 181.439 179.581 182.464 182.423 183.432C183.219 183.717 183.56 182.464 182.764 182.179C179.752 181.154 176.854 180.015 174.353 177.965C172.194 176.2 170.318 174.149 168.386 172.213C167.818 171.644 166.909 172.555 167.477 173.124Z" fill="#161616"/>
<path d="M194.357 178.99C192.197 179.787 190.208 181.04 188.674 182.749C187.594 183.945 186.003 185.824 186.401 187.532C186.799 189.469 189.185 189.469 190.777 189.469C193.334 189.412 195.778 188.671 197.994 187.362C198.676 186.963 198.051 185.824 197.369 186.28C195.948 187.134 194.414 187.76 192.766 188.045C191.345 188.273 187.196 188.785 187.935 186.109C188.674 183.375 192.311 181.154 194.755 180.243C195.437 179.958 195.096 178.705 194.357 178.99Z" fill="#161616"/>
<path d="M174.523 180.243C173.33 184.058 173.33 187.76 177.422 189.583C180.434 190.949 184.809 190.266 186.344 187.02C186.685 186.279 185.605 185.653 185.264 186.393C184.014 189.07 180.434 189.526 177.933 188.387C174.466 186.849 174.807 183.717 175.774 180.585C176.001 179.787 174.807 179.446 174.523 180.243Z" fill="#161616"/>
<path d="M174.239 188.671C174.466 191.917 176.455 195.107 179.865 195.733C182.877 196.303 185.662 194.48 186.742 191.747C187.026 191.006 185.832 190.665 185.491 191.405C184.582 193.683 182.025 195.05 179.581 194.366C177.081 193.626 175.66 191.12 175.489 188.671C175.489 187.874 174.182 187.874 174.239 188.671Z" fill="#161616"/>
<path d="M186.515 192.373C190.947 191.576 189.47 199.492 186.23 199.207C185.435 199.15 185.435 200.403 186.23 200.517C188.958 200.745 190.436 197.385 190.606 195.107C190.777 192.601 188.617 190.778 186.174 191.234C185.378 191.291 185.719 192.487 186.515 192.373Z" fill="#161616"/>
<path d="M186.174 187.76C186.174 187.703 186.23 187.703 186.23 187.646C186.003 187.703 185.833 187.76 185.605 187.817C186.06 187.931 186.117 189.412 186.06 189.696C186.003 190.437 185.719 191.12 185.151 191.69C184.582 192.259 185.492 193.17 186.06 192.601C186.912 191.747 187.367 190.551 187.31 189.298C187.253 188.387 186.969 186.792 185.889 186.564C185.662 186.507 185.435 186.564 185.264 186.735C185.264 186.792 185.207 186.792 185.207 186.849C184.753 187.475 185.605 188.387 186.174 187.76Z" fill="#161616"/>
<path d="M183.105 183.546C184.468 183.603 185.321 184.913 184.98 186.223C184.753 187.02 186.003 187.362 186.23 186.564C186.799 184.457 185.378 182.35 183.161 182.293C182.252 182.236 182.252 183.546 183.105 183.546Z" fill="#161616"/>
<path opacity="0.12" d="M285.568 143.397C283.92 148.238 281.193 154.787 276.873 161.962C272.441 169.309 267.497 177.452 257.892 184.286C254.369 186.792 243.742 194.195 228 194.765C213.168 195.277 202.256 189.469 197.937 186.849C194.527 189.412 192.197 189.583 190.663 189.241C189.299 188.899 188.788 188.216 186.401 187.475C184.355 186.849 182.707 186.735 181.798 186.678C178.502 186.45 175.092 186.223 174.183 187.76C172.989 189.867 176.854 194.366 179.865 196.815C181.229 197.897 183.616 199.776 186.969 200.289C194.868 201.542 200.722 194.651 201.063 194.252C202.995 195.448 205.78 197.1 209.303 198.694C215.043 201.371 223.17 205.073 233.967 205.016C246.242 205.016 255.108 200.175 256.926 199.15C259.086 197.897 263.121 194.366 271.134 187.248C278.578 180.642 281.306 177.737 283.807 173.751C285.284 171.416 287.16 168.398 288.239 164.24C290.569 155.356 287.444 147.27 285.568 143.397Z" fill="#6D6C6C"/>
<path opacity="0.15" d="M288.58 150.231C287.501 153.99 285.625 159.286 282.386 165.151C279.374 170.619 271.418 184.685 254.54 193.341C249.539 195.904 240.9 200.232 228.909 200.004C215.611 199.719 206.064 194.025 202.029 191.291C199.756 192.715 196.346 194.537 191.913 195.733C186.003 197.271 181.741 196.758 181.627 197.612C181.514 198.467 185.605 200.289 189.868 200.175C195.835 200.004 200.04 196.075 201.574 194.48C205.496 197.328 220.158 207.351 239.366 204.788C254.199 202.795 263.575 194.423 271.816 187.02C277.953 181.496 285.057 174.947 287.785 164.013C289.206 158.432 288.978 153.534 288.58 150.231Z" fill="#6D6C6C"/>
<path d="M271.134 134.456C269.997 135.766 268.008 138.556 266.303 151.882C264.03 169.992 265.223 184.343 266.303 195.05C267.554 207.749 269.315 223.068 271.873 240.495C281.761 243.57 298.185 247.044 317.904 243.912C326.827 242.488 334.442 240.039 340.579 237.476C339.272 223.239 339.443 211.736 339.841 204.161C341.773 165.038 343.535 154.16 343.535 154.16C344.842 146.358 346.035 141.518 343.137 137.133C340.238 132.634 334.726 131.096 317.166 129.957C290.513 128.135 277.101 127.394 271.134 134.456Z" fill="#EC615B"/>
<path opacity="0.14" d="M309.494 130.071C311.255 136.335 312.733 142.998 313.983 150.06C320.462 187.191 315.915 220.107 309.494 244.652C312.79 244.424 316.256 244.026 319.95 243.399C327.793 242.089 334.669 240.039 340.352 237.932C339.557 226.599 339.329 216.918 339.329 209.23C339.386 187.76 341.261 171.359 342.057 164.81C343.08 156.837 344.16 150.174 345.069 145.333C345.296 143.967 345.524 141.461 344.33 138.841C342.966 135.823 340.409 134.228 339.329 133.602C335.635 131.381 331.885 131.381 329.839 131.381C324.951 131.21 318.473 130.925 309.494 130.071Z" fill="#6D6C6C"/>
<path opacity="0.16" d="M344.614 143.511C334.555 169.65 332.453 188.33 332.68 200.915C332.737 205.642 333.248 216.975 327.224 228.877C323.53 236.11 318.7 241.178 315.006 244.367C318.416 243.912 322.166 243.228 326.201 242.146C331.373 240.78 335.862 239.071 339.67 237.42C339.158 222.727 339.215 206.781 340.181 189.753C341.034 173.124 342.625 157.691 344.614 143.511Z" fill="#6D6C6C"/>
<path d="M336.885 134.627C343.875 131.552 353.366 140.55 359.503 146.301C366.209 152.623 379.791 165.436 380.473 186.393C381.042 203.877 372.347 216.519 368.028 221.816C361.265 230.073 353.593 234.401 349.047 236.508C348.99 238.445 348.706 241.52 347.399 244.88C346.66 246.702 342.909 256.27 335.749 256.668C334.782 256.725 331.486 256.725 327.679 253.137C327.451 253.137 326.315 252.967 325.576 251.941C324.894 250.973 324.837 249.55 325.519 248.411C325.349 248.297 323.871 247.556 323.53 245.791C323.132 243.855 324.439 242.431 324.553 242.374C324.61 241.406 324.837 240.153 325.747 239.527C326.769 238.843 327.849 239.413 329.497 239.299C330.577 239.185 332.111 238.786 333.93 237.192C331.884 236.622 327.281 235.142 327.395 233.49C327.451 231.554 334.1 230.415 335.578 230.13C339.215 229.504 342.341 229.618 344.443 229.788C345.694 227.51 347.512 224.15 349.672 220.107C353.309 213.273 355.127 209.856 356.207 207.408C358.253 202.852 360.526 195.961 361.151 186.336C358.594 183.831 354.673 180.243 349.672 176.313C338.874 167.885 335.237 167.714 332.282 162.93C326.713 153.99 329.384 137.93 336.885 134.627Z" fill="white" stroke="#161616" stroke-width="2" stroke-miterlimit="10"/>
<path d="M323.985 241.691C324.894 246.133 331.714 245.108 334.442 243.513C335.124 243.114 334.499 241.975 333.817 242.431C331.828 243.627 325.917 244.937 325.235 241.406C325.065 240.552 323.815 240.893 323.985 241.691Z" fill="#161616"/>
<path d="M324.667 248.809C328.077 251.258 333.078 250.119 336.658 248.468C337.397 248.126 336.772 247.044 336.033 247.386C332.851 248.809 328.361 249.834 325.349 247.727C324.667 247.215 324.042 248.354 324.667 248.809Z" fill="#161616"/>
<path d="M327.224 253.821C330.748 255.529 334.84 255.301 338.079 253.023C338.761 252.568 338.136 251.429 337.454 251.941C334.612 253.935 331.032 254.276 327.906 252.739C327.168 252.34 326.486 253.422 327.224 253.821Z" fill="#161616"/>
<path opacity="0.18" d="M334.442 136.791C333.305 140.664 346.603 144.365 358.253 156.894C362.288 161.222 370.528 170.049 372.461 183.147C374.904 199.378 366.437 212.362 363.311 217.032C357.287 226.201 349.956 231.611 345.523 234.401C345.523 235.996 345.296 241.805 340.863 246.702C339.954 247.727 336.374 251.657 331.146 252.226C328.134 252.568 325.406 251.714 325.292 252.055C325.235 252.397 327.338 252.853 330.066 254.732C331.828 255.928 331.884 256.44 332.737 256.839C336.26 258.491 341.829 253.479 342.455 252.967C348.251 247.67 348.933 239.811 349.047 236.907C350.354 236.167 352.116 235.142 354.162 233.775C356.264 232.351 362.459 228.251 367.346 222.841C368.653 221.417 375.302 213.843 378.541 201.713C379.678 197.442 382.804 185.084 377.803 171.587C375.586 165.721 372.745 161.905 367.63 155.242C363.084 149.263 359.731 146.301 353.252 140.55C348.592 136.392 345.808 134.456 342.057 134.228C339.5 134.057 335.067 134.684 334.442 136.791Z" fill="#6D6C6C"/>
<path opacity="0.18" d="M373.37 162.874C375.302 167.657 378.087 176.37 377.689 187.475C377.291 199.549 373.37 208.319 371.835 211.337C364.789 225.574 353.65 233.205 348.194 236.394C352.627 234.743 359.049 231.611 365.13 225.745C382.917 208.547 380.303 184.286 380.076 182.578C379.053 174.036 375.984 167.373 373.37 162.874Z" fill="#6D6C6C"/>
<path d="M308.243 90.7764C311.653 102.223 312.903 108.886 317.734 119.365C320.007 124.262 322.166 128.135 323.701 130.698C318.757 133.032 310.744 136.051 300.458 136.449C294.377 136.677 289.148 135.88 285.114 134.969C285.511 131.836 285.739 127.907 285.455 123.465C285.057 117.884 283.863 113.157 282.727 109.683C277.271 109 271.759 108.26 266.303 107.576C265.223 105.184 264.144 102.736 263.064 100.344C261.586 100.287 260.052 100.23 258.574 100.173C259.711 96.8699 261.416 91.6876 263.405 85.2524C267.099 73.1223 267.042 71.4138 269.031 68.6803C274.543 61.22 286.875 56.4363 295.002 60.4796C299.832 62.8145 302.674 72.1541 308.243 90.7764Z" fill="white" stroke="#161616" stroke-width="2" stroke-miterlimit="10"/>
<path d="M258.688 101.084C261.529 101.141 264.314 100.913 267.099 100.515C268.178 100.344 267.724 98.6923 266.644 98.8631C263.973 99.2618 261.359 99.4326 258.688 99.3757C257.608 99.3757 257.608 101.084 258.688 101.084Z" fill="#161616"/>
<path d="M257.608 79.3297C259.199 78.4755 261.302 78.9311 262.325 80.4117C262.95 81.3229 264.428 80.4687 263.802 79.5575C262.211 77.2795 259.199 76.5392 256.756 77.849C255.789 78.3616 256.642 79.8422 257.608 79.3297Z" fill="#161616"/>
<path d="M271.02 81.3229C273.066 80.6965 275.282 81.3799 276.476 83.2022C277.101 84.1134 278.578 83.2592 277.953 82.348C276.305 79.9561 273.35 78.8172 270.566 79.7283C269.543 80.0131 269.94 81.6646 271.02 81.3229Z" fill="#161616"/>
<path d="M271.418 87.7012C271.361 87.0747 271.475 86.4483 271.816 85.8788C271.873 85.7649 271.986 85.5941 272.1 85.4802C271.873 85.1954 271.759 85.1385 271.816 85.4232C271.702 85.5371 271.759 86.1066 271.702 86.2774C271.645 86.5622 271.532 86.8469 271.418 87.1317C271.361 87.2456 271.304 87.3595 271.247 87.4164C271.532 87.929 271.702 87.9859 271.816 87.5873C272.043 87.3595 272.157 86.8469 272.327 86.5622C272.498 86.2205 272.668 85.8788 272.839 85.5371C273.293 84.6829 272.214 83.8286 271.475 84.512C271.077 84.9107 270.85 85.3093 270.679 85.8219C270.395 86.9039 272.043 87.3595 272.327 86.2774C272.384 85.9927 272.498 85.8788 272.668 85.708C272.214 85.3663 271.759 85.0246 271.304 84.6829C270.906 85.4802 270.452 86.2774 270.111 87.1317C269.827 87.7581 269.884 88.4985 270.509 88.8971C272.043 89.8652 273.009 87.872 273.293 86.6761C273.521 85.5371 273.521 83.1453 271.645 83.6578C270.168 84.1134 269.599 86.2774 269.656 87.5873C269.77 88.7832 271.475 88.7832 271.418 87.7012Z" fill="#161616"/>
<path d="M267.042 71.6416C267.44 69.1928 268.406 65.0925 271.077 60.8783C272.043 59.3976 274.032 56.2654 277.271 54.1583C283.466 50.115 292.956 50.4566 299.833 55.4112C306.595 60.2518 309.948 68.9081 308.471 77.5643C294.718 75.628 280.852 73.6348 267.042 71.6416Z" fill="#5222D0"/>
<path d="M244.424 71.8125C265.735 74.489 286.989 77.1656 308.3 79.8422C311.54 80.2409 311.54 75.1155 308.3 74.7168C286.989 72.0403 265.735 69.3637 244.424 66.6871C241.128 66.2884 241.185 71.4138 244.424 71.8125Z" fill="#161616"/>
<path d="M294.718 76.9948C290.967 78.3615 288.751 80.9812 286.25 83.9995C280.908 90.4916 282.5 92.8835 278.749 96.9269C272.782 103.362 266.701 99.5465 261.359 105.868C256.813 111.221 257.438 118.453 257.608 120.105C257.779 121.7 258.574 128.135 263.859 132.577C268.463 136.392 274.6 137.247 274.998 136.392C275.112 136.108 274.657 135.31 271.247 133.032C272.213 133.716 273.805 134.57 275.794 134.969C278.124 135.367 280.34 134.969 280.34 134.627C280.34 134.342 279.09 134.399 278.124 133.374C277.555 132.748 277.328 132.064 277.158 131.438C279.033 132.634 281.363 133.716 283.579 133.032C289.66 131.21 290.74 117.713 291.081 113.214C292.217 98.7492 288.069 90.8333 293.127 85.7079C293.524 85.2523 295.57 83.2022 297.844 83.6578C300.685 84.1703 302.845 88.5554 301.935 91.4598C301.14 93.9655 298.298 94.6489 298.469 95.1614C298.753 95.7309 303.527 94.8197 307.561 91.6306C309.039 90.4916 310.232 89.5235 310.858 87.815C311.937 84.7968 310.687 81.3798 308.982 79.3297C305.459 75.2294 298.81 75.5141 294.718 76.9948Z" fill="#161616" stroke="#161616" stroke-width="2" stroke-miterlimit="10"/>
<path opacity="0.22" d="M300.344 95.674C299.435 95.7879 298.128 95.7879 298.071 95.5032C298.014 95.3323 298.355 95.1045 298.355 95.1045C298.355 95.1045 297.275 96.4713 295.912 96.6421C295.286 96.6991 294.718 96.5282 294.32 96.3004C296.707 101.369 299.151 107.462 301.253 114.524C303.527 122.269 304.834 129.274 305.573 135.31C308.016 135.31 311.483 135.026 315.461 133.773C318.7 132.748 321.257 131.381 323.19 130.185C318.075 122.155 315.461 115.72 313.983 111.335C313.301 109.285 311.824 104.444 311.142 102.052C309.835 97.7242 308.755 94.1364 308.073 91.7445C307.732 92.0862 307.107 92.5988 306.368 93.1113C305.288 93.9086 303.186 95.3893 300.344 95.674Z" fill="#6D6C6C"/>
<path d="M285.057 51.6526C290.569 52.7346 294.718 57.1766 295.4 62.3589C296.138 68.5664 291.592 72.8375 291.137 73.1792C297.048 73.9195 302.901 74.6029 308.811 75.3433C308.925 73.9765 308.982 72.0972 308.584 69.9331C307.448 62.9854 303.356 58.6573 302.503 57.803C301.139 56.4363 296.309 51.8234 289.092 51.4248C287.444 51.3678 286.023 51.5387 285.057 51.6526Z" fill="#321693"/>
<path d="M159.975 300.917C160.259 303.993 160.487 307.125 160.771 310.2L450.09 310.713C450.942 307.637 451.795 304.505 452.647 301.43C355.128 301.259 257.551 301.088 159.975 300.917Z" fill="white"/>
<path d="M163.839 301.316H166.908C167.988 301.316 167.988 299.608 166.908 299.608C165.885 299.608 164.862 299.608 163.839 299.608C162.703 299.608 162.703 301.316 163.839 301.316Z" fill="#161616"/>
<path d="M160.714 302.968H274.771C274.771 302.968 350.809 302.968 388.828 302.968H453.499C455.716 302.968 455.716 299.551 453.499 299.551C415.481 299.551 377.462 299.551 339.443 299.551C301.424 299.551 263.405 299.551 225.386 299.551C203.847 299.551 182.252 299.551 160.714 299.551C158.554 299.551 158.554 302.968 160.714 302.968Z" fill="#161616"/>
<path d="M161.509 311.396H386.1H449.635C451.851 311.396 451.851 307.979 449.635 307.979C374.791 307.979 299.889 307.979 225.045 307.979C203.847 307.979 182.707 307.979 161.509 307.979C159.293 307.979 159.293 311.396 161.509 311.396Z" fill="#161616"/>
<path d="M170.545 319.711V462.823V503.712C170.545 505.933 173.955 505.933 173.955 503.712C173.955 455.989 173.955 408.266 173.955 360.6C173.955 346.989 173.955 333.321 173.955 319.711C173.955 317.547 170.545 317.547 170.545 319.711Z" fill="#161616"/>
<path d="M407.979 317.433V446.991V483.78C407.979 486.001 411.389 486.001 411.389 483.78C411.389 440.613 411.389 397.389 411.389 354.222C411.389 341.978 411.389 329.734 411.389 317.433C411.389 315.212 407.979 315.212 407.979 317.433Z" fill="#161616"/>
<path d="M4.54654 463.848H65.6951H196.289H269.543C271.759 463.848 271.759 460.431 269.543 460.431C226.182 460.431 182.878 460.431 139.517 460.431C95.9852 460.431 121.331 460.431 77.7998 460.431C53.3631 460.431 28.9832 460.431 4.54654 460.431C2.33019 460.431 2.33019 463.848 4.54654 463.848Z" fill="#161616"/>
<path d="M334.896 465.386H450.09H526.071H550.11C552.326 465.386 552.326 461.969 550.11 461.969C511.693 461.969 514.534 461.969 514.762 461.969C476.572 461.969 438.326 461.969 400.136 461.969C378.371 461.969 356.662 461.969 334.896 461.969C332.68 461.969 332.68 465.386 334.896 465.386Z" fill="#161616"/>
<path d="M171.228 319.654V459.634V499.498C171.228 501.719 174.637 501.719 174.637 499.498C174.637 452.857 174.637 406.159 174.637 359.518C174.637 346.249 174.637 332.98 174.637 319.654C174.637 317.433 171.228 317.433 171.228 319.654Z" fill="#161616"/>
<path d="M171.966 320.394V459.805V499.498C171.966 501.719 175.376 501.719 175.376 499.498C175.376 453.028 175.376 406.558 175.376 360.087C175.376 346.875 175.376 333.663 175.376 320.394C175.376 318.23 171.966 318.23 171.966 320.394Z" fill="#161616"/>
<path d="M407.695 316.578V443.403V479.623C407.695 481.844 411.105 481.844 411.105 479.623C411.105 437.367 411.105 395.054 411.105 352.798C411.105 340.725 411.105 328.652 411.105 316.578C411.105 314.414 407.695 314.414 407.695 316.578Z" fill="#161616"/>
<path d="M408.491 317.376V443.119V478.939C408.491 481.16 411.901 481.16 411.901 478.939C411.901 437.025 411.901 395.111 411.901 353.197C411.901 341.237 411.901 329.278 411.901 317.376C411.901 315.155 408.491 315.155 408.491 317.376Z" fill="#161616"/>
<path d="M163.385 311.681C166.34 315.269 168.954 319.027 171.284 323.014C172.421 324.893 175.376 323.185 174.239 321.305C171.739 317.091 168.898 313.105 165.772 309.289C164.351 307.58 161.964 309.972 163.385 311.681Z" fill="#161616"/>
<path d="M174.921 321.818C179.127 318.287 183.275 314.699 187.481 311.168C189.129 309.745 186.742 307.353 185.094 308.776C180.889 312.307 176.74 315.895 172.535 319.426C170.83 320.85 173.273 323.241 174.921 321.818Z" fill="#161616"/>
<path d="M398.204 313.446C401.728 315.667 405.251 317.888 408.774 320.109C410.65 321.305 412.355 318.344 410.479 317.148C406.956 314.927 403.433 312.706 399.909 310.485C398.034 309.346 396.329 312.307 398.204 313.446Z" fill="#161616"/>
<path d="M418.72 309.403C415.765 311.795 412.923 314.357 410.252 317.034C408.718 318.572 411.105 321.02 412.639 319.426C415.31 316.749 418.152 314.187 421.107 311.795C422.812 310.428 420.425 308.036 418.72 309.403Z" fill="#161616"/>
<path d="M400.875 313.617C405.422 314.3 409.854 314.471 414.401 314.016C414.116 312.934 413.832 311.909 413.548 310.827C411.673 312.022 409.741 312.364 407.524 312.592C406.274 312.763 405.024 314.471 406.331 315.496C408.093 316.92 409.854 317.376 412.071 316.806C414.173 316.294 413.321 312.991 411.161 313.503C410.309 313.845 409.456 313.674 408.718 313.048C408.32 314.016 407.922 314.984 407.524 315.952C410.252 315.667 412.923 315.269 415.253 313.674C416.56 312.82 416.219 310.314 414.401 310.485C410.195 310.883 405.933 310.827 401.728 310.2C399.625 309.972 398.716 313.275 400.875 313.617Z" fill="#161616"/>
<path d="M417.356 310.371C415.765 310.029 414.173 310.257 412.809 311.168C412.071 311.681 411.73 312.649 412.184 313.503C412.639 314.243 413.776 314.642 414.514 314.13C415.139 313.674 415.765 313.503 416.39 313.674C417.299 313.845 418.208 313.389 418.492 312.478C418.776 311.624 418.265 310.542 417.356 310.371Z" fill="#161616"/>
<path d="M167.249 313.275C168.272 313.959 172.08 315.724 171.909 317.205L173.614 315.496C173.387 315.496 172.705 312.877 172.535 312.421C172.023 313.275 171.569 314.13 171.057 314.984C174.467 314.813 177.706 314.13 180.832 312.877C180.263 311.909 179.752 310.997 179.184 310.029C177.251 312.023 175.206 313.902 172.989 315.61L175.319 317.945C177.365 314.471 174.467 311.624 171.512 310.143C171.228 311.225 170.943 312.25 170.659 313.332C172.989 313.218 175.319 313.161 177.649 313.275C179.866 313.389 179.809 309.972 177.649 309.858C175.319 309.745 172.989 309.745 170.659 309.915C169.068 310.029 168.216 312.307 169.807 313.105C170.83 313.617 173.33 314.699 172.421 316.237C171.625 317.603 173.33 319.654 174.751 318.572C177.195 316.692 179.525 314.699 181.627 312.478C182.707 311.339 181.627 308.947 179.979 309.631C177.081 310.77 174.183 311.453 171.114 311.624C169.75 311.681 169.125 312.991 169.636 314.187C170.602 316.351 170.546 318.97 173.671 318.913C174.694 318.913 175.262 318.116 175.376 317.205C175.831 313.788 171.341 311.852 169.068 310.371C167.136 309.118 165.431 312.079 167.249 313.275Z" fill="#161616"/>
<path d="M185.889 299.152C185.889 296.362 185.889 293.571 185.889 290.724C185.889 289.642 184.185 289.642 184.185 290.724V299.152C184.185 300.291 185.889 300.291 185.889 299.152Z" fill="#E8E8E8"/>
<path d="M185.037 291.464H232.205C233.285 291.464 233.285 289.755 232.205 289.755C216.464 289.755 200.779 289.755 185.037 289.755C183.957 289.755 183.957 291.464 185.037 291.464Z" fill="#E8E8E8"/>
<path d="M231.353 290.61V298.64C231.353 299.722 233.058 299.722 233.058 298.64C233.058 295.963 233.058 293.286 233.058 290.61C233.058 289.471 231.353 289.471 231.353 290.61Z" fill="#E8E8E8"/>
<path d="M187.197 294.653H223.283C224.363 294.653 224.363 292.945 223.283 292.945C211.235 292.945 199.244 292.945 187.197 292.945C186.117 292.945 186.117 294.653 187.197 294.653Z" fill="#E8E8E8"/>
<path d="M195.209 297.899H222.885C223.965 297.899 223.965 296.191 222.885 296.191C213.679 296.191 204.416 296.191 195.209 296.191C194.129 296.191 194.129 297.899 195.209 297.899Z" fill="#E8E8E8"/>
<path d="M197.141 290.439C197.141 288.503 197.141 286.623 197.141 284.687C197.141 283.605 195.437 283.605 195.437 284.687V290.439C195.437 291.521 197.141 291.521 197.141 290.439Z" fill="#E8E8E8"/>
<path d="M197.369 285.2H238.457C239.536 285.2 239.536 283.491 238.457 283.491C224.761 283.491 211.065 283.491 197.369 283.491C196.289 283.491 196.289 285.2 197.369 285.2Z" fill="#E8E8E8"/>
<path d="M232.717 291.065H238.059C239.139 291.065 239.139 289.357 238.059 289.357C236.297 289.357 234.479 289.357 232.717 289.357C231.637 289.357 231.637 291.065 232.717 291.065Z" fill="#E8E8E8"/>
<path d="M237.604 284.516V290.04C237.604 291.122 239.309 291.122 239.309 290.04C239.309 288.218 239.309 286.339 239.309 284.516C239.309 283.377 237.604 283.377 237.604 284.516Z" fill="#E8E8E8"/>
<path d="M205.609 288.047H215.441C216.521 288.047 216.521 286.339 215.441 286.339C212.145 286.339 208.905 286.339 205.609 286.339C204.473 286.339 204.473 288.047 205.609 288.047Z" fill="#E8E8E8"/>
<path d="M222.544 289.471H231.296C232.376 289.471 232.376 287.762 231.296 287.762C228.398 287.762 225.443 287.762 222.544 287.762C221.464 287.762 221.464 289.471 222.544 289.471Z" fill="#E8E8E8"/>
<path d="M206.689 282.694C205.325 281.384 205.041 279.391 205.155 277.568C205.382 274.55 208.11 274.436 210.383 275.347C211.406 275.746 211.86 274.095 210.838 273.696C208.28 272.671 204.927 272.728 203.791 275.746C202.825 278.309 203.507 282.01 205.496 283.89C206.291 284.687 207.485 283.434 206.689 282.694Z" fill="#E8E8E8"/>
<path d="M210.098 274.493C215.44 272.101 217.657 281.099 213.054 283.377C212.088 283.89 212.94 285.313 213.906 284.858C220.498 281.555 216.634 269.709 209.246 273.013C208.223 273.468 209.132 274.949 210.098 274.493Z" fill="#E8E8E8"/>
<path d="M210.269 274.038C209.985 272.215 209.303 270.564 208.223 269.083C207.598 268.172 206.121 269.026 206.746 269.937C207.712 271.304 208.337 272.785 208.621 274.493C208.792 275.575 210.44 275.12 210.269 274.038Z" fill="#E8E8E8"/>
<path d="M209.474 271.133C209.644 270.678 209.871 270.279 210.156 269.88C210.269 269.71 210.44 269.482 210.61 269.311C210.667 269.197 210.781 269.14 210.894 269.026C210.61 268.457 210.44 268.343 210.326 268.627C210.042 268.912 209.758 269.653 209.587 270.051C209.303 270.564 208.962 271.019 208.621 271.475C207.996 272.386 209.474 273.24 210.099 272.329C210.724 271.475 211.292 270.564 211.747 269.596C212.145 268.798 212.372 267.773 211.349 267.375C209.644 266.748 208.337 269.425 207.882 270.621C207.428 271.703 209.076 272.158 209.474 271.133Z" fill="#E8E8E8"/>
<path d="M488.734 385.771C488.961 388.448 489.188 391.181 489.416 393.858C515.614 393.63 541.813 393.402 568.011 393.174C567.727 390.612 567.443 388.049 567.159 385.543C540.96 385.657 514.875 385.714 488.734 385.771Z" fill="white"/>
<path d="M489.246 394.769H567.784C570 394.769 570 391.352 567.784 391.352C541.586 391.352 515.444 391.352 489.246 391.352C487.086 391.352 487.029 394.769 489.246 394.769Z" fill="#161616"/>
<path d="M489.757 386.967H566.817C569.034 386.967 569.034 383.55 566.817 383.55C541.13 383.55 515.443 383.55 489.757 383.55C487.54 383.55 487.54 386.967 489.757 386.967Z" fill="#161616"/>
<path d="M487.086 385.771V391.58C487.086 393.801 490.496 393.801 490.496 391.58C490.496 389.644 490.496 387.707 490.496 385.771C490.496 383.55 487.086 383.55 487.086 385.771Z" fill="#161616"/>
<path d="M566.079 385.771V393.516C566.079 395.737 569.488 395.737 569.488 393.516C569.488 390.954 569.488 388.334 569.488 385.771C569.488 383.55 566.079 383.55 566.079 385.771Z" fill="#161616"/>
<path d="M527.775 394.029V492.152C527.775 494.373 531.185 494.373 531.185 492.152C531.185 459.463 531.185 426.774 531.185 394.029C531.185 391.808 527.775 391.808 527.775 394.029Z" fill="#161616"/>
<path d="M527.662 491.639C521.809 495.113 515.955 498.587 510.045 502.061C508.17 503.2 509.875 506.161 511.75 505.022C517.603 501.548 523.457 498.074 529.367 494.6C531.299 493.461 529.537 490.5 527.662 491.639Z" fill="#161616"/>
<path d="M528.628 494.088C535.277 497.789 541.87 501.548 548.519 505.25C550.451 506.332 552.156 503.37 550.224 502.288C543.574 498.587 536.982 494.828 530.333 491.126C528.401 490.044 526.696 493.006 528.628 494.088Z" fill="#161616"/>
<path d="M511.068 506.275C523.684 506.161 536.243 505.762 548.86 505.136C551.019 505.022 551.076 501.605 548.86 501.719C536.3 502.345 523.684 502.744 511.068 502.858C508.852 502.858 508.852 506.275 511.068 506.275Z" fill="#161616"/>
<path d="M512.943 395.282C518.058 402.571 522.718 410.202 526.923 418.061C527.946 419.997 530.901 418.289 529.878 416.353C525.673 408.494 521.013 400.863 515.898 393.573C514.648 391.751 511.693 393.459 512.943 395.282Z" fill="#161616"/>
<path d="M547.098 392.833C539.653 399.951 533.288 408.038 528.116 416.922C526.98 418.801 529.935 420.567 531.072 418.631C536.129 409.974 542.324 402.172 549.541 395.282C551.132 393.744 548.689 391.295 547.098 392.833Z" fill="#161616"/>
<path d="M408.206 459.805C407.752 467.948 407.354 476.092 406.899 484.236C385.19 493.689 374.734 499.897 375.586 502.744C376.552 506.161 393.26 504.965 425.596 499.27C425.823 485.318 426.051 471.365 426.221 457.413C420.254 458.21 414.23 459.007 408.206 459.805Z" fill="#161616"/>
<path d="M475.606 327.854C470.776 332.182 463.899 338.447 455.886 346.192C436.791 364.757 422.755 378.368 413.264 392.434C405.422 404.109 393.772 426.319 392.862 462.652C400.705 464.816 410.593 466.639 422.073 466.525C425.937 466.468 429.631 466.24 432.984 465.841C431.506 457.584 430.313 444.656 433.325 429.508C435.428 418.858 438.951 410.316 442.133 404.109C467.707 392.719 484.983 378.767 496.008 368.117C507.146 357.354 519.819 345.053 516.41 336.34C513.284 328.082 496.633 324.893 475.606 327.854Z" fill="#EC615B"/>
<path opacity="0.18" d="M502.486 327.911C493.905 339.358 483.619 351.773 471.287 364.415C455.83 380.304 440.542 393.118 426.846 403.311C422.073 424.325 417.299 445.34 412.525 466.297C414.571 466.638 416.901 466.923 419.459 466.923C424.63 467.037 429.063 466.297 432.473 465.386C431.393 458.21 430.654 448.358 432.018 436.911C433.723 422.788 438.042 411.683 441.565 404.336C454.409 398.414 464.581 392.377 471.912 387.593C471.912 387.593 494.871 372.673 512.659 349.779C513.057 349.267 514.421 347.502 515.5 344.768C516.353 342.547 517.433 339.813 516.58 336.966C515.785 334.403 513.852 332.98 511.807 331.556C510.215 330.474 507.09 328.595 502.486 327.911Z" fill="#6D6C6C"/>
<path opacity="0.16" d="M441.11 404.621C438.667 409.177 436.28 413.961 433.95 418.972C426.107 435.886 420.652 452.06 416.844 466.752C422.073 466.525 427.244 466.297 432.472 466.126C431.279 459.235 430.37 449.952 431.393 439.189C432.813 423.984 437.417 412.138 441.11 404.621Z" fill="#6D6C6C"/>
<path d="M443.27 467.664C445.884 475.807 448.498 483.951 451.113 492.095C431.791 503.712 422.641 510.717 423.721 513.052C425.028 515.899 441.679 511.685 473.731 500.409C469.298 487.482 464.865 474.554 460.433 461.627C454.693 463.563 448.953 465.613 443.27 467.664Z" fill="#161616"/>
<path d="M536.982 338.902C541.017 359.461 534.936 371.021 532.038 375.463C526.241 384.347 518.513 387.081 495.951 398.3C487.143 402.685 473.731 409.519 457.307 418.574C458.444 425.806 460.262 434.121 463.161 443.176C465.888 451.718 469.071 459.178 472.14 465.442C469.128 468.347 463.047 473.472 453.784 476.434C443.782 479.68 435.201 478.712 430.995 477.971C422.073 460.317 419.8 444.827 419.175 435.374C418.436 423.984 417.583 411.056 424.232 398.3C429.347 388.505 434.291 387.593 454.977 371.762C486.063 348.014 489.189 339.13 505.215 335.827C518.342 333.15 529.992 336.283 536.982 338.902Z" fill="#EC615B"/>
<path opacity="0.22" d="M515.728 335.087C516.012 341.693 515.5 352.057 510.215 362.65C505.783 371.591 499.872 377.969 480.38 391.181C463.047 402.913 449.237 411.968 440.315 417.776C445.998 436.854 451.681 455.932 457.364 475.01C459.069 474.44 461.115 473.586 463.217 472.39C467.082 470.169 469.81 467.493 471.571 465.442C469.071 460.089 466.57 454.11 464.354 447.561C460.717 437.082 458.444 427.287 457.023 418.801C471.117 410.943 481.005 405.817 486.802 402.913C495.44 398.585 499.702 396.421 504.078 394.313C505.555 393.63 508.851 392.092 513.17 389.815C518.001 387.309 520.388 386.113 522.547 384.632C524.309 383.436 528.742 380.304 532.322 375.122C537.437 367.718 537.891 359.973 538.232 354.335C538.46 350.691 538.403 345.394 537.039 339.187C534.084 337.934 530.106 336.567 525.332 335.77C521.638 335.087 518.399 334.973 515.728 335.087Z" fill="#6D6C6C"/>
<path opacity="0.11" d="M538.176 350.292C537.266 353.31 535.618 357.695 532.72 362.422C523.798 376.773 510.159 382.468 500.611 387.252C489.302 392.947 474.072 402.343 457.137 418.574C461.91 415.897 467.764 412.708 474.583 409.063C486.631 402.628 492.598 399.439 498.793 396.478C503.623 394.2 509.136 391.751 517.376 387.366C523.286 384.234 526.526 382.297 529.594 378.71C533.061 374.666 534.595 370.623 535.618 367.889C536.869 364.472 538.63 358.379 538.176 350.292Z" fill="#6D6C6C"/>
<path opacity="0.17" d="M456.909 419.143C456.966 423.927 457.307 429.052 457.932 434.462C459.523 448.301 462.876 460.203 466.457 469.828C467.48 469.258 468.673 468.461 469.923 467.379C470.719 466.695 471.401 466.012 471.912 465.386C469.525 460.431 467.195 454.907 464.979 448.927C461.058 438.107 458.557 428.027 456.909 419.143Z" fill="#6D6C6C"/>
<path d="M499.531 227.397C492.428 229.788 491.177 238.274 486.404 247.955C486.404 247.955 478.902 263.331 462.478 275.974C456.511 280.587 443.611 288.73 422.073 290.154C419.97 289.3 416.731 288.161 412.639 287.478C406.785 286.509 398.602 285.086 393.09 289.812C390.589 291.977 387.804 296.077 389.055 298.583C390.589 301.658 397.409 300.462 408.604 299.949C424.118 299.266 423.38 300.974 434.177 300.291C443.838 299.665 459.069 298.753 474.924 289.471C490.098 280.644 497.94 268.855 499.815 265.837C503.452 260.142 505.1 255.529 508.453 246.247C512.886 234.06 512.147 231.326 510.897 229.731C508.738 226.77 503.509 226.03 499.531 227.397Z" fill="white" stroke="#161616" stroke-width="2" stroke-miterlimit="10"/>
<path d="M415.31 291.92C411.73 292.603 406.558 292.774 403.944 295.735C402.466 297.444 402.694 300.462 405.422 300.462C406.217 300.462 406.274 299.152 405.422 299.152C404.058 297.728 404.171 296.589 405.876 295.792C406.444 295.393 407.07 295.109 407.751 294.824C408.49 294.539 409.229 294.368 409.968 294.197C411.843 293.799 413.719 293.457 415.651 293.115C416.446 293.002 416.105 291.806 415.31 291.92Z" fill="#161616"/>
<path d="M388.487 297.216C391.84 301.43 397.068 296.532 401.103 297.614C401.898 297.842 402.239 296.589 401.444 296.362C399.682 295.906 398.148 296.134 396.386 296.703C394.056 297.444 391.214 298.696 389.339 296.305C388.884 295.678 387.975 296.589 388.487 297.216Z" fill="#161616"/>
<path d="M390.532 292.033C390.646 293.742 391.782 294.425 393.43 294.425C397.124 294.425 400.364 292.945 404.058 294.141C404.853 294.368 405.194 293.172 404.399 292.888C402.523 292.261 400.705 292.204 398.772 292.375C397.409 292.489 391.953 294.027 391.839 291.977C391.726 291.236 390.475 291.236 390.532 292.033Z" fill="#161616"/>
<path d="M396.102 288.503C396.67 289.869 397.636 290.496 399.114 290.724C402.012 291.122 404.513 291.236 407.184 292.432C407.922 292.774 408.604 291.635 407.809 291.35C406.331 290.724 404.854 290.154 403.262 289.869C401.444 289.528 398.091 290.097 397.295 288.161C397.011 287.421 395.761 287.762 396.102 288.503Z" fill="#161616"/>
<path opacity="0.16" d="M506.408 227.567C503.168 228.365 504.134 237.078 502.43 245.165C499.588 258.206 490.325 266.35 480.096 275.347C473.162 281.441 465.036 288.617 452.647 291.806C448.385 292.888 441.338 294.084 433.78 294.482C423.55 294.995 418.492 295.28 418.151 295.223C416.447 295.052 412.298 294.596 407.865 296.532C406.956 296.931 404.455 298.013 404.626 298.81C404.853 300.006 410.764 299.665 424.062 299.551C433.893 299.494 432.87 299.665 435.882 299.551C441.565 299.323 451.453 298.981 462.592 294.938C478.448 289.243 488.222 279.163 492.712 274.493C497.031 269.937 499.418 266.406 500.156 265.324C503.68 260.028 505.328 255.301 508.567 246.019C512.318 235.199 512.318 232.351 510.84 230.13C509.817 228.82 507.942 227.169 506.408 227.567Z" fill="#6D6C6C"/>
<path opacity="0.13" d="M390.021 299.038C390.419 298.013 392.124 293.799 396.67 291.578C403.49 288.332 410.139 292.717 410.423 292.888C408.945 293.685 407.695 294.254 406.786 294.596C405.365 295.223 404.797 295.336 404.285 295.906C403.433 296.988 403.66 298.583 403.887 299.551C402.069 299.949 399.682 300.234 396.841 300.12C394.113 300.063 391.783 299.551 390.021 299.038Z" fill="#6D6C6C"/>
<path opacity="0.14" d="M510.784 236.907C508.397 244.88 503.169 258.32 491.689 271.304C476.061 289.015 457.705 295.906 449.351 298.469C455.773 297.33 479.641 292.261 496.463 270.393C506.408 257.409 509.59 244.196 510.784 236.907Z" fill="#6D6C6C"/>
<path d="M497.599 227.852C494.019 231.782 491.461 236.964 489.813 256.099C487.37 284.061 491.234 290.496 486.915 304.334C484.926 310.656 480.834 319.824 471.344 329.677C478.05 334.005 488.904 339.927 503.452 343.344C517.83 346.704 530.049 346.192 538.005 345.281C548.234 313.788 547.382 288.332 545.279 272.671C543.29 257.75 538.8 223.41 520.956 219.082C512.488 216.975 502.884 222.1 497.599 227.852Z" fill="white" stroke="#161616" stroke-width="2" stroke-miterlimit="10"/>
<path opacity="0.12" d="M516.41 219.196C516.126 221.531 515.728 225.005 515.33 229.162C512.659 257.01 515.785 262.078 513.739 278.48C512.602 287.819 510.216 305.302 497.94 321.59C492.826 328.367 487.427 333.094 483.562 335.998C489.757 339.13 499.191 343.06 511.238 344.882C522.036 346.476 531.186 345.85 537.664 344.882C539.483 339.643 541.642 332.524 543.347 323.982C546.53 308.15 546.757 294.653 546.359 285.313C545.62 267.261 543.972 228.536 524.196 220.62C521.127 219.424 518.342 219.196 516.41 219.196Z" fill="#6D6C6C"/>
<path opacity="0.24" d="M545.961 300.974C545.279 300.861 543.688 307.922 541.358 314.3C538.403 322.558 532.833 333.663 521.297 345.679C526.866 345.394 532.492 345.167 538.062 344.882C539.937 338.845 542.324 329.847 544.256 318.742C545.506 311.282 546.813 301.145 545.961 300.974Z" fill="#6D6C6C"/>
<path d="M531.356 227.112C537.778 228.365 540.505 238.558 542.779 247.499C545.052 256.497 549.428 274.835 543.29 298.981C540.733 308.947 538.459 318.23 530.56 327.626C520.274 339.927 507.146 344.711 501.009 346.476C494.189 351.203 490.666 353.595 488.677 354.848C487.256 355.759 486.404 356.272 484.869 357.354C482.653 358.948 482.255 359.461 481.175 359.916C480.039 360.372 478.22 360.714 475.492 359.859C475.265 359.916 473.503 360.144 472.196 358.834C471.401 358.037 471.23 357.126 471.23 356.727C471.06 356.727 469.98 356.613 469.241 355.702C468.559 354.848 468.502 353.652 469.014 352.627C468.786 352.171 468.559 351.545 468.559 350.748C468.275 346.761 472.992 343.572 475.606 341.75C478.391 339.813 483.903 336.738 492.428 335.941C497.031 333.492 503.907 329.107 509.988 321.761C511.92 319.483 524.82 303.423 523.797 281.84C523.4 272.785 520.16 255.928 518.342 240.21C518.228 239.071 517.887 235.996 519.535 233.034C521.922 228.991 527.378 226.371 531.356 227.112Z" fill="white" stroke="#161616" stroke-width="2" stroke-miterlimit="10"/>
<path d="M469.185 353.026C469.98 353.026 470.037 351.716 469.185 351.716C468.389 351.716 468.389 353.026 469.185 353.026Z" fill="#161616"/>
<path d="M468.559 352.342V352.741C468.616 353.424 469.355 353.595 469.753 353.083C472.026 350.064 475.095 347.843 478.675 346.704C479.471 346.476 479.13 345.224 478.334 345.451C474.413 346.704 471.117 349.096 468.616 352.399C469.014 352.513 469.412 352.627 469.81 352.741C469.81 352.627 469.81 352.513 469.81 352.342C469.81 351.545 468.503 351.545 468.559 352.342Z" fill="#161616"/>
<path d="M471.742 356.955C474.64 353.652 478.221 351.146 482.312 349.495C483.051 349.21 482.767 347.957 481.971 348.242C477.652 349.95 473.902 352.513 470.833 355.987C470.321 356.67 471.231 357.581 471.742 356.955Z" fill="#161616"/>
<path d="M476.004 360.03C478.959 356.67 482.369 353.88 486.233 351.602C486.915 351.203 486.29 350.064 485.608 350.52C481.687 352.855 478.164 355.702 475.152 359.176C474.583 359.746 475.493 360.657 476.004 360.03Z" fill="#161616"/>
<path opacity="0.13" d="M528.856 229.276C526.696 232.408 530.219 237.932 532.208 242.032C535.107 248.069 535.561 254.618 536.471 267.716C538.119 291.464 527.094 311.795 526.298 313.218C516.239 331.157 500.611 341.921 495.724 345.224C487.427 350.805 475.663 356.898 476.629 359.233C476.97 360.087 478.846 360.201 479.641 360.144C482.369 360.03 483.506 357.923 487.313 355.247C489.302 353.823 489.245 354.279 492.655 352.228C494.644 351.032 497.486 349.21 500.839 346.647C508.454 344.597 514.08 341.465 517.603 339.187C522.718 335.884 532.549 328.31 538.573 315.098C540.619 310.599 541.415 307.011 543.006 299.892C544.654 292.432 547.268 280.188 545.791 264.584C545.109 257.523 543.915 252.796 542.267 246.588C539.71 236.622 537.38 228.023 532.947 227.454C531.47 227.226 529.708 228.08 528.856 229.276Z" fill="#6D6C6C"/>
<path opacity="0.16" d="M545.052 260.427C544.54 260.427 544.654 266.407 542.21 282.295C539.994 296.532 538.857 303.822 535.732 310.485C531.185 320.166 524.991 326.26 521.979 329.164C513.398 337.479 508.226 338.048 495.099 347.729C488.222 352.798 483.108 357.411 480.096 360.258C486.915 355.702 493.678 351.146 500.497 346.647C506.749 344.825 519.592 340.041 529.935 327.797C537.039 319.369 539.823 311.111 541.983 304.676C549.371 281.726 545.961 260.427 545.052 260.427Z" fill="#6D6C6C"/>
<path d="M505.84 202.282C503.282 204.048 502.828 207.465 502.43 211.223C502.032 215.039 501.975 221.702 505.442 229.959C507.601 229.959 510.272 229.788 513.227 229.219C515.557 228.763 517.603 228.137 519.308 227.51C519.081 219.936 518.91 212.362 518.683 204.788C513.909 201.257 508.908 200.175 505.84 202.282Z" fill="white" stroke="#161616" stroke-width="2" stroke-miterlimit="10"/>
<path d="M492.314 164.297C488.336 166.575 486.631 170.391 483.278 177.794C479.527 186.223 476.913 193.512 475.89 198.865C475.72 199.662 476.118 200.46 476.856 200.801C477.822 201.257 479.527 201.428 480.437 201.656C480.437 203.877 480.721 207.692 482.71 211.793C486.347 219.253 493.053 222.271 495.042 223.068C501.35 221.986 506.01 219.822 508.795 218.171C511.352 216.747 514.648 214.811 517.887 211.052C520.786 207.635 522.32 204.218 523.116 201.94C524.309 201.94 526.128 201.826 528.003 200.801C531.867 198.694 535.163 193.17 533.118 189.81C531.583 187.362 527.378 186.336 523.059 187.931C523.116 186.109 523.059 183.603 522.434 180.642C522.263 179.901 521.07 174.491 518.342 170.676C513.114 163.329 500.384 159.684 492.314 164.297Z" fill="white" stroke="#161616" stroke-width="2" stroke-miterlimit="10"/>
<path d="M477.993 190.095C476.572 187.874 473.447 182.293 473.901 174.89C474.072 172.384 474.413 167.6 477.879 163.101C482.085 157.634 487.938 156.211 489.643 155.869C490.439 154.559 491.803 152.623 494.076 151.028C494.985 150.402 497.485 148.864 503.623 148.522C506.862 148.352 511.806 148.465 517.717 150.174C522.32 151.541 525.389 153.477 527.264 155.015C534.482 160.709 533.913 165.208 543.063 174.434C545.165 176.541 546.643 177.282 549.825 180.414C553.178 183.66 555.849 186.792 557.327 188.671C560.68 192.942 566.988 201.029 568.181 211.963C568.579 215.665 569.716 226.087 563.237 234.06C554.429 244.937 534.538 245.791 522.434 237.135C520.16 235.54 510.727 228.706 511.238 217.715C511.693 207.806 519.933 201.883 521.07 201.029C522.036 201.428 524.025 202.054 525.957 201.371C529.992 199.89 531.697 193.683 529.594 190.551C528.742 189.298 527.378 188.785 526.98 188.671C523.684 187.532 520.615 189.981 520.388 190.152C515.955 186.906 512.602 183.774 510.272 181.325C507.09 178.079 505.498 175.915 504.93 175.118C503.168 172.612 501.861 170.334 501.009 168.625C498.395 169.252 494.985 170.448 491.405 172.783C490.552 173.295 487.711 175.231 484.756 178.591C484.415 178.99 482.767 180.869 481.005 183.717C479.698 186.166 478.675 188.33 477.993 190.095Z" fill="#5222D0"/>
<path d="M489.586 195.164C489.586 195.107 489.586 195.107 489.586 195.164C489.586 195.221 489.643 195.334 489.643 195.448V195.505C489.586 195.619 489.529 195.676 489.472 195.79C489.586 195.676 489.472 195.733 489.245 195.904C489.131 195.847 489.018 195.847 488.904 195.79C488.847 195.733 488.79 195.733 488.79 195.676C488.734 195.562 488.734 195.448 488.677 195.334V195.277C488.734 195.164 488.79 195.107 488.847 194.993C488.961 194.993 489.075 194.936 489.188 194.936L489.643 195.391V195.562C489.359 195.619 489.075 195.733 488.79 195.79L488.734 195.733C488.677 195.619 488.62 195.562 488.563 195.448C488.62 195.277 488.734 195.107 488.79 194.993C488.904 194.936 489.018 194.936 489.131 194.879H489.075C488.734 194.936 488.449 195.164 488.449 195.505C488.449 195.847 488.734 196.189 489.075 196.132C489.416 196.075 489.757 195.904 489.813 195.505C489.927 195.164 489.757 194.765 489.416 194.594C489.075 194.423 488.734 194.537 488.563 194.822C488.222 195.277 488.449 196.018 489.018 196.075C489.529 196.132 489.984 195.733 489.984 195.22C489.984 194.708 489.472 194.366 488.961 194.48C488.449 194.651 488.222 195.164 488.449 195.676C488.62 196.018 489.075 196.075 489.302 195.904C489.7 195.847 489.7 195.448 489.586 195.164Z" fill="#161616"/>
<path d="M494.587 193.797C494.701 194.366 494.473 194.309 493.962 193.626C494.076 193.569 494.132 193.512 494.246 193.455C494.473 193.455 494.644 193.569 494.758 193.854C494.814 193.512 494.417 193.227 494.132 193.227C493.735 193.227 493.507 193.512 493.507 193.854C493.45 194.366 493.962 194.765 494.417 194.708C494.985 194.708 495.326 194.138 495.155 193.626C494.985 193.113 494.417 192.829 493.905 193.113C493.394 193.398 493.337 193.911 493.564 194.423C493.678 194.765 494.189 194.822 494.417 194.651C494.701 194.48 494.758 194.138 494.587 193.797Z" fill="#161616"/>
<path d="M492.996 197.555C493.337 197.555 493.394 197.669 493.167 197.954C493.167 198.182 493.11 198.296 492.939 198.296C492.883 198.068 492.882 197.783 492.826 197.555C492.996 197.498 493.11 197.498 493.28 197.612C492.712 196.986 491.803 197.897 492.371 198.523C492.769 198.979 493.508 198.865 493.792 198.353C494.076 197.84 493.792 197.214 493.28 197.043C492.712 196.872 492.144 197.271 492.087 197.84C492.087 198.467 492.712 198.922 493.28 198.808C494.133 198.58 493.792 197.328 492.996 197.555Z" fill="#161616"/>
<path d="M482.482 209.97C486.006 209.344 489.075 207.294 491.064 204.275C491.518 203.592 490.439 202.965 489.984 203.649C488.165 206.382 485.438 208.148 482.198 208.774C481.346 208.888 481.687 210.084 482.482 209.97Z" fill="#161616"/>
<path opacity="0.1" d="M501.804 170.505C502.827 172.555 504.134 175.288 505.612 178.534C510.158 188.444 510.67 191.177 510.84 193.569C511.068 197.157 510.443 199.89 509.931 201.827C507.317 212.419 499.645 219.481 495.837 222.556C497.713 222.328 499.986 221.929 502.486 221.075C506.351 219.765 509.363 218 511.409 216.519C511.238 218.285 511.238 221.018 512.261 224.093C513.398 227.738 515.444 230.016 517.148 232.18C518.456 233.832 520.786 236.451 524.479 238.558C528.06 240.666 531.413 241.406 533.458 241.748C538.232 242.83 542.21 242.716 544.881 242.488C548.575 242.146 554.429 241.634 559.884 237.42C561.248 236.337 564.374 233.889 566.249 229.561C566.704 228.535 567.386 226.599 567.727 221.474C568.124 215.437 568.409 211.223 566.988 205.87C565.51 200.346 562.839 196.075 560.225 192.942C555.679 205.186 544.711 212.248 534.822 210.767C527.094 209.572 522.434 203.478 521.07 201.599C524.082 202.282 527.15 201.371 528.912 199.15C531.015 196.644 531.64 192.145 528.912 189.753C526.753 187.874 523.172 187.817 520.501 189.924C517.262 187.589 513.568 184.514 509.817 180.528C506.464 177.054 503.85 173.58 501.804 170.505Z" fill="#6D6C6C"/>
<path d="M488.677 189.013C488.336 188.444 488.279 187.589 488.847 187.134C488.677 187.191 488.563 187.248 488.393 187.305H488.563C488.393 187.248 488.279 187.191 488.108 187.134C488.677 187.589 488.222 189.355 487.995 189.867C488.108 189.753 488.222 189.696 488.393 189.583C488.336 189.583 488.279 189.64 488.279 189.64C488.449 189.64 488.62 189.696 488.79 189.696C488.449 189.526 488.506 188.614 488.563 188.387C488.62 187.874 488.734 187.418 488.961 187.02C488.677 187.077 488.393 187.191 488.108 187.248C488.393 187.475 488.449 187.931 488.393 188.273C488.393 188.444 488.336 188.614 488.279 188.728C488.222 189.013 488.108 189.013 488.393 189.07C488.506 189.184 488.62 189.241 488.79 189.355C488.79 189.298 488.734 189.298 488.734 189.241C488.222 188.614 487.142 189.241 487.654 189.867C487.938 190.209 488.336 190.437 488.79 190.266C489.302 190.095 489.472 189.583 489.586 189.127C489.87 187.988 489.87 186.849 488.847 186.109C488.563 185.881 488.108 186.052 487.995 186.336C487.426 187.475 487.086 189.241 487.824 190.38C488.108 190.835 488.734 191.063 489.188 190.722C489.7 190.323 489.757 189.298 489.813 188.728C489.927 187.874 489.757 185.425 488.279 186.166C487.086 186.792 487.199 188.728 487.768 189.696C487.995 190.38 489.131 189.696 488.677 189.013Z" fill="#161616"/>
<path d="M486.063 183.204C489.075 182.692 491.632 184.343 493.962 186.109C494.644 186.621 495.269 185.482 494.587 185.027C491.973 183.033 489.132 181.496 485.722 182.008C484.926 182.065 485.267 183.318 486.063 183.204Z" fill="#161616"/>
<path d="M489.472 203.706C490.098 204.104 490.666 204.617 491.177 205.186C491.746 205.813 492.655 204.902 492.087 204.275C491.518 203.649 490.836 203.079 490.098 202.567C489.416 202.111 488.79 203.25 489.472 203.706Z" fill="#161616"/>
</g>
<defs>
<clipPath id="clip0_1_30641">
<rect width="570" height="545" fill="white"/>
</clipPath>
</defs>
</svg>
