<svg width="1230" height="88" viewBox="0 0 1230 88" fill="none" xmlns="http://www.w3.org/2000/svg">
<path fill-rule="evenodd" clip-rule="evenodd" d="M-456.186 192.018L-367.553 149.218C-278.921 107.157 -101.655 21.5574 75.6105 21.5574C252.876 21.5574 430.142 107.157 607.407 99.7773C784.672 92.3981 961.938 -6.48375 1139.2 0.895485C1316.47 7.5368 1493.73 121.177 1582.37 177.997L1671 234.079V276.879H1582.37C1493.73 276.879 1316.47 276.879 1139.2 276.879C961.938 276.879 784.672 276.879 607.407 276.879C430.142 276.879 252.876 276.879 75.6105 276.879C-101.655 276.879 -278.921 276.879 -367.553 276.879H-456.186V192.018Z" fill="url(#paint0_linear_1_30135)"/>
<defs>
<linearGradient id="paint0_linear_1_30135" x1="-456.186" y1="136.349" x2="1671" y2="136.349" gradientUnits="userSpaceOnUse">
<stop stop-color="#FC4E58"/>
<stop offset="1" stop-color="#FFD965"/>
</linearGradient>
</defs>
</svg>
