<svg width="809" height="743" viewBox="0 0 809 743" fill="none" xmlns="http://www.w3.org/2000/svg">
<path d="M66.7306 685.448C155.282 685.448 243.903 685.448 332.454 685.448C420.587 685.448 508.65 685.448 596.783 685.448C646.389 685.448 695.994 685.448 745.669 685.448C746.993 685.448 746.993 683.355 745.669 683.355C657.118 683.355 568.497 683.355 479.946 683.355C391.813 683.355 303.749 683.355 215.616 683.355C166.011 683.355 116.406 683.355 66.7306 683.355C65.3372 683.355 65.3372 685.448 66.7306 685.448Z" fill="#E8E8E8"/>
<path d="M218.543 700.448C283.893 700.448 349.314 700.448 414.665 700.448C433.197 700.448 451.73 700.448 470.332 700.448C471.655 700.448 471.655 698.355 470.332 698.355C404.981 698.355 339.56 698.355 274.209 698.355C255.677 698.355 237.145 698.355 218.543 698.355C217.219 698.355 217.219 700.448 218.543 700.448Z" fill="#E8E8E8"/>
<path d="M438.005 715.378C500.917 715.378 563.829 715.378 626.672 715.378C644.577 715.378 662.413 715.378 680.318 715.378C681.642 715.378 681.642 713.285 680.318 713.285C617.406 713.285 554.493 713.285 491.651 713.285C473.745 713.285 455.91 713.285 438.005 713.285C436.681 713.285 436.681 715.378 438.005 715.378Z" fill="#E8E8E8"/>
<path d="M77.7389 703.588C104.214 703.588 130.688 703.588 157.163 703.588C158.487 703.588 158.487 701.495 157.163 701.495C130.688 701.495 104.214 701.495 77.7389 701.495C76.3455 701.495 76.3455 703.588 77.7389 703.588Z" fill="#E8E8E8"/>
<path d="M132.639 620.845C135.496 641.705 140.233 662.286 146.852 682.239C147.27 683.495 149.29 682.937 148.872 681.681C142.254 661.658 137.516 641.147 134.66 620.286C134.451 618.961 132.43 619.519 132.639 620.845Z" fill="#E8E8E8"/>
<path d="M133.475 621.682C158.278 630.821 185.519 631.798 210.948 624.472C212.272 624.124 211.715 622.1 210.391 622.449C185.31 629.705 158.556 628.658 134.032 619.658C132.778 619.17 132.221 621.193 133.475 621.682Z" fill="#E8E8E8"/>
<path d="M209.625 623.845C208.022 644.147 205.235 664.239 201.125 684.193C200.846 685.518 202.867 686.076 203.145 684.751C207.326 664.658 210.182 644.356 211.715 623.845C211.854 622.519 209.764 622.519 209.625 623.845Z" fill="#E8E8E8"/>
<path d="M155.561 625.31C147.897 618.821 142.881 610.031 141.139 600.124C140.93 600.543 140.651 600.961 140.442 601.38C142.254 600.961 143.647 601.171 145.249 602.077C146.155 602.636 147.131 601.519 146.713 600.612C145.528 598.38 144.413 596.217 143.229 593.985C142.672 592.868 142.045 591.822 141.487 590.706C140.582 588.752 139.676 583.659 143.438 584.427C144.274 584.566 144.901 583.938 144.692 583.171C142.254 570.962 139.885 558.543 139.118 546.125C138.77 540.404 138.84 534.543 140.164 528.892C140.791 526.171 141.696 523.52 142.881 521.009C143.717 519.264 144.274 517.102 147.061 518.497C148.036 518.985 149.012 520.241 149.778 521.078C157.093 528.753 160.856 539.078 163.573 549.125C166.778 560.636 169.425 572.357 171.724 584.078C174.511 598.31 176.183 612.752 175.695 627.333C175.626 628.659 177.716 628.659 177.786 627.333C178.273 613.101 176.601 598.868 173.954 584.845C171.446 571.45 168.45 557.985 164.479 544.939C161.343 534.613 156.745 523.729 148.106 516.753C140.024 510.265 137.098 533.427 136.889 537.892C136.262 553.101 139.606 568.869 142.602 583.729C143.02 583.31 143.438 582.892 143.856 582.473C140.791 581.845 138.422 584.147 138.282 587.217C138.213 589.45 139.397 591.543 140.373 593.426C141.836 596.217 143.229 598.938 144.692 601.729C145.18 601.24 145.668 600.752 146.155 600.264C144.065 599.078 142.045 598.798 139.746 599.357C139.188 599.496 138.909 600.124 139.049 600.612C140.86 610.798 146.086 620.008 153.958 626.705C155.143 627.612 156.606 626.147 155.561 625.31Z" fill="#E8E8E8"/>
<path d="M174.511 585.124C174.302 577.52 177.855 570.683 181.617 564.264C185.31 557.915 189.56 551.915 194.228 546.195C193.67 546.055 193.043 545.915 192.486 545.706C192.834 546.683 193.183 547.729 193.601 548.706C193.879 549.543 194.994 549.753 195.482 548.985C200.916 540.962 206.768 533.288 213.108 525.962C212.481 525.683 211.924 525.474 211.297 525.195C211.576 535.241 210.809 545.218 208.789 555.055C207.186 562.729 205.584 574.869 197.432 578.357C196.387 578.845 197.084 580.171 197.99 580.31C205.863 581.287 197.363 596.636 195.9 600.612C192.625 609.473 189.769 618.542 186.982 627.542C186.564 628.798 188.584 629.356 189.002 628.1C192.347 617.496 195.621 606.752 199.801 596.426C200.986 593.566 202.797 590.706 203.424 587.636C204.26 583.38 202.797 578.776 198.06 578.217C198.269 578.845 198.408 579.543 198.617 580.171C206.699 576.682 208.649 565.799 210.391 558.194C212.83 547.381 213.875 536.288 213.526 525.195C213.526 524.358 212.342 523.73 211.715 524.427C205.305 531.892 199.314 539.706 193.74 547.869C194.367 547.939 194.994 548.008 195.621 548.148C195.273 547.171 194.924 546.125 194.506 545.148C194.297 544.45 193.322 544.032 192.765 544.66C187.748 550.799 183.15 557.287 179.248 564.194C175.556 570.613 172.281 577.45 172.49 585.054C172.421 586.52 174.511 586.52 174.511 585.124Z" fill="#E8E8E8"/>
<path d="M134.172 621.403C136.541 620.635 139.258 621.682 141.627 622.031C144.274 622.379 146.922 622.589 149.569 622.659C150.893 622.659 150.893 620.566 149.569 620.566C146.225 620.496 142.95 620.217 139.676 619.589C137.586 619.24 135.705 618.682 133.615 619.38C132.36 619.798 132.848 621.821 134.172 621.403Z" fill="#E8E8E8"/>
<path d="M190.117 624.194C196.945 624.333 203.772 624.612 210.53 625.031C211.854 625.101 211.854 623.008 210.53 622.938C203.703 622.519 196.945 622.24 190.117 622.101C188.793 622.031 188.793 624.124 190.117 624.194Z" fill="#E8E8E8"/>
<path d="M142.532 623.077C145.389 623.775 148.245 624.473 151.032 625.1C152.356 625.449 152.913 623.426 151.589 623.077C148.733 622.38 145.876 621.682 143.09 621.054C141.766 620.775 141.209 622.798 142.532 623.077Z" fill="#E8E8E8"/>
<path d="M190.047 622.868C188.445 623.217 187.957 625.379 189.56 626.147C191.092 626.845 194.228 626.007 195.83 625.938C198.268 625.798 200.707 625.589 203.145 625.449C204.469 625.379 204.469 623.286 203.145 623.356C200.916 623.496 198.617 623.635 196.387 623.845C195.342 623.914 194.297 623.984 193.252 624.054C192.764 624.124 192.207 624.124 191.719 624.193C190.814 623.914 190.465 624.193 190.674 624.961C191.928 624.612 191.371 622.589 190.047 622.868Z" fill="#E8E8E8"/>
<path d="M143.925 670.728C146.852 675.96 150.753 680.565 155.491 684.263C156.536 685.1 157.999 683.635 156.954 682.797C152.356 679.17 148.593 674.844 145.737 669.682C145.11 668.426 143.298 669.542 143.925 670.728Z" fill="#E8E8E8"/>
<path d="M136.331 641.426C146.433 657.612 158.974 672.053 173.675 684.263C174.72 685.1 176.183 683.635 175.138 682.797C160.577 670.728 148.106 656.495 138.073 640.379C137.446 639.193 135.635 640.24 136.331 641.426Z" fill="#E8E8E8"/>
<path d="M140.233 623.287C146.921 635.147 153.888 647.007 163.154 657.054C172.908 667.588 184.683 676.519 196.109 685.03C197.223 685.867 198.199 683.984 197.154 683.216C185.797 674.774 174.232 665.984 164.618 655.589C155.491 645.682 148.663 633.891 142.044 622.24C141.348 621.054 139.536 622.101 140.233 623.287Z" fill="#E8E8E8"/>
<path d="M160.716 628.031C171.585 645.263 186.355 659.705 203.912 670.1C205.096 670.798 206.141 668.984 204.957 668.286C187.748 658.03 173.187 643.868 162.527 626.914C161.761 625.868 159.95 626.914 160.716 628.031Z" fill="#E8E8E8"/>
<path d="M184.404 629.286C190.256 637.868 197.293 645.542 205.444 651.96C206.489 652.798 207.953 651.333 206.907 650.495C198.895 644.147 191.928 636.682 186.215 628.24C185.449 627.124 183.638 628.17 184.404 629.286Z" fill="#E8E8E8"/>
<path d="M199.592 627.542C202.24 631.31 205.235 634.659 208.58 637.728C209.555 638.635 211.088 637.17 210.043 636.263C206.768 633.333 203.912 630.054 201.334 626.496C200.637 625.449 198.756 626.496 199.592 627.542Z" fill="#E8E8E8"/>
<path d="M597.55 629.775C599.849 648.193 603.332 666.472 608.209 684.402C608.558 685.728 610.578 685.169 610.23 683.844C605.423 666.123 601.939 648.054 599.64 629.775C599.431 628.449 597.341 628.449 597.55 629.775Z" fill="#E8E8E8"/>
<path d="M598.734 630.263C617.545 635.426 637.332 635.496 656.143 630.472C657.466 630.123 656.909 628.1 655.585 628.449C637.123 633.403 617.754 633.333 599.292 628.24C597.968 627.891 597.48 629.844 598.734 630.263Z" fill="#E8E8E8"/>
<path d="M655.098 629.775C653.913 648.333 650.36 666.542 644.438 684.123C644.02 685.379 646.04 685.937 646.458 684.681C652.38 666.891 656.003 648.472 657.188 629.775C657.257 628.449 655.167 628.449 655.098 629.775Z" fill="#E8E8E8"/>
<path d="M616.082 631.659C612.459 626.845 609.603 621.542 607.861 615.752C607.025 612.961 606.398 610.17 605.98 607.24C605.631 604.589 604.099 599.077 608.07 599.217C608.697 599.217 609.324 598.519 609.045 597.891C608.14 595.101 607.582 592.45 607.443 589.519C607.164 589.868 606.955 590.217 606.676 590.496C608.697 589.799 609.533 588.194 609.881 586.171C610.578 582.124 610.23 577.659 610.299 573.543C610.578 564.055 610.787 554.566 611.066 545.008C610.508 545.287 610.021 545.636 609.463 545.915C615.594 550.101 618.451 558.613 620.82 565.38C623.258 572.496 624.93 579.892 625.975 587.287C628.135 602.496 627.926 617.914 627.16 633.263C627.09 634.589 629.18 634.589 629.25 633.263C630.016 616.938 630.225 600.473 627.578 584.357C626.254 576.334 624.303 568.38 621.307 560.845C618.869 554.706 616.152 548.008 610.508 544.171C609.812 543.683 608.976 544.311 608.906 545.078C608.697 552.334 608.558 559.59 608.349 566.776C608.279 570.403 608.139 574.031 608.07 577.659C608 579.961 608.976 587.496 606.049 588.543C605.631 588.682 605.283 589.101 605.283 589.519C605.422 592.589 605.98 595.519 606.955 598.45C607.303 598.031 607.652 597.543 607.931 597.124C605.84 597.054 603.681 597.543 603.332 599.775C602.845 603.333 603.681 607.659 604.377 611.217C605.98 619.031 609.394 626.356 614.131 632.775C615.037 633.821 616.848 632.775 616.082 631.659Z" fill="#E8E8E8"/>
<path d="M628.205 584.147C630.016 577.868 632.106 571.659 634.266 565.52C633.778 565.729 633.221 565.938 632.733 566.148C633.43 566.566 634.127 567.055 634.893 567.473C635.381 567.752 636.008 567.543 636.356 567.124C641.372 558.752 646.389 550.45 651.405 542.078C650.778 541.869 650.081 541.729 649.454 541.52C652.45 572.357 647.573 603.612 635.311 632.147C634.754 633.403 636.565 634.449 637.123 633.193C649.524 604.38 654.54 572.775 651.544 541.52C651.475 540.543 650.151 540.055 649.594 540.962C644.577 549.334 639.561 557.636 634.545 566.008C635.032 565.868 635.52 565.729 636.008 565.659C635.311 565.241 634.614 564.752 633.848 564.334C633.221 563.985 632.524 564.334 632.315 564.962C630.086 571.101 628.065 577.31 626.254 583.589C625.836 584.845 627.856 585.403 628.205 584.147Z" fill="#E8E8E8"/>
<path d="M599.71 630.333C603.681 630.473 607.582 630.682 611.554 630.821C612.877 630.891 612.877 628.798 611.554 628.728C607.582 628.589 603.681 628.38 599.71 628.24C598.386 628.17 598.386 630.263 599.71 630.333Z" fill="#E8E8E8"/>
<path d="M609.394 630.751C610.717 631.31 612.111 631.798 613.504 632.007C614.828 632.217 615.385 630.193 614.062 629.984C612.808 629.775 611.554 629.426 610.439 628.938C609.185 628.449 608.14 630.193 609.394 630.751Z" fill="#E8E8E8"/>
<path d="M638.168 631.519C643.95 630.682 649.663 630.124 655.516 629.775C656.839 629.705 656.839 627.612 655.516 627.682C649.524 628.031 643.532 628.589 637.61 629.496C636.287 629.705 636.844 631.728 638.168 631.519Z" fill="#E8E8E8"/>
<path d="M637.471 632.496C640.536 632.008 643.672 631.728 646.807 631.449C648.13 631.38 648.13 629.287 646.807 629.356C643.463 629.566 640.188 629.984 636.914 630.473C635.59 630.682 636.147 632.635 637.471 632.496Z" fill="#E8E8E8"/>
<path d="M600.476 640.449C605.074 640.31 608.836 643.03 613.295 643.658C618.242 644.356 621.307 640.24 625.975 640.31C630.643 640.379 634.684 643.449 639.421 643.449C641.512 643.449 643.602 643.03 645.483 642.193C648.27 641.077 650.847 638.844 653.983 640.1C655.237 640.589 655.794 638.565 654.54 638.077C650.22 636.403 646.737 639.961 642.696 640.937C636.983 642.333 632.454 638.914 627.02 638.286C621.934 637.728 618.381 642.263 613.434 641.565C608.975 640.868 605.144 638.217 600.476 638.426C599.082 638.426 599.082 640.519 600.476 640.449Z" fill="#E8E8E8"/>
<path d="M601.382 651.472C618.242 658.17 637.123 658.379 654.122 652.03C655.376 651.542 654.819 649.519 653.565 650.007C636.844 656.216 618.521 656.007 601.939 649.449C600.685 648.961 600.128 650.984 601.382 651.472Z" fill="#E8E8E8"/>
<path d="M3.81836 352.104C3.81836 394.592 3.81836 437.01 3.81836 479.498C3.81836 480.823 5.90848 480.823 5.90848 479.498C5.90848 437.01 5.90848 394.592 5.90848 352.104C5.90848 350.708 3.81836 350.708 3.81836 352.104Z" fill="#E8E8E8"/>
<path d="M5.21155 352.871C34.1248 352.871 63.038 352.871 91.9512 352.871C93.275 352.871 93.275 350.778 91.9512 350.778C63.038 350.778 34.1248 350.778 5.21155 350.778C3.88782 350.778 3.88782 352.871 5.21155 352.871Z" fill="#E8E8E8"/>
<path d="M92.1606 351.825C92.1606 393.964 92.1606 436.103 92.1606 478.311C92.1606 479.637 94.2508 479.637 94.2508 478.311C94.2508 436.172 94.2508 394.033 94.2508 351.825C94.2508 350.429 92.1606 350.429 92.1606 351.825Z" fill="#E8E8E8"/>
<path d="M5.83899 480.823C34.8219 480.823 63.8744 480.823 92.8573 480.823C94.1811 480.823 94.1811 478.73 92.8573 478.73C63.8744 478.73 34.8219 478.73 5.83899 478.73C4.51526 478.73 4.51526 480.823 5.83899 480.823Z" fill="#E8E8E8"/>
<path d="M85.4023 362.499C84.3572 362.22 83.2425 361.383 83.3122 360.127C83.3819 358.732 84.7753 357.894 86.0293 358.453C87.0744 358.941 87.9104 360.127 87.7014 361.243C87.6318 362.29 86.308 363.197 85.4023 362.499C84.3572 361.592 82.8245 363.057 83.8696 363.964C85.6113 365.36 88.1891 364.871 89.3735 362.918C90.6276 360.685 89.2342 357.825 87.1441 356.708C84.9146 355.522 82.1975 356.639 81.4311 359.081C80.6647 361.522 82.4762 363.964 84.8449 364.522C86.1687 364.801 86.726 362.778 85.4023 362.499Z" fill="#E8E8E8"/>
<path d="M82.6157 469.87C81.6403 469.033 81.3616 467.358 82.337 466.381C83.382 465.265 85.3328 465.614 86.0992 466.87C86.5869 467.707 87.2836 469.87 86.0992 470.498C85.4722 470.847 84.6361 470.288 84.1484 469.94C83.4517 469.521 82.755 469.172 81.9886 468.893C80.7346 468.405 80.1772 470.428 81.4313 470.916C82.755 471.405 83.8001 472.381 85.1935 472.66C86.3082 472.87 87.4926 472.381 88.1197 471.474C89.4434 469.521 88.677 466.381 87.0746 464.777C85.3328 463.102 82.1977 463.242 80.6649 465.126C79.1321 466.94 79.4108 469.8 81.1526 471.335C82.128 472.312 83.6607 470.777 82.6157 469.87Z" fill="#E8E8E8"/>
<path d="M10.7159 360.475C28.0639 360.406 45.4118 360.406 62.6901 360.336C64.0138 360.336 64.0138 358.243 62.6901 358.243C45.3421 358.313 27.9942 358.313 10.7159 358.382C9.39221 358.382 9.39221 360.475 10.7159 360.475Z" fill="#E8E8E8"/>
<path d="M10.7159 365.499C17.8223 365.987 25.0681 367.103 32.1744 365.778C33.4982 365.499 32.9408 363.545 31.6171 363.755C24.7894 365.01 17.6133 363.894 10.7159 363.406C9.39221 363.336 9.39221 365.429 10.7159 365.499Z" fill="#E8E8E8"/>
<path d="M11.7607 472.172C11.2034 471.963 10.9943 471.195 11.064 470.637C11.2034 469.87 11.9697 469.591 12.6664 469.73C13.5721 469.87 14.2689 470.498 14.3385 471.405C14.4082 472.102 13.5722 473.219 12.8058 472.591C11.7607 471.754 10.2976 473.219 11.3427 474.056C13.0148 475.382 15.5229 474.754 16.2893 472.661C16.986 470.637 15.7319 468.405 13.7115 467.777C11.9001 467.219 9.74027 467.986 9.18291 469.87C8.62555 471.614 9.53126 473.568 11.273 474.126C12.5271 474.614 13.0845 472.661 11.7607 472.172Z" fill="#E8E8E8"/>
<path d="M13.0148 382.382C31.6168 382.382 50.2885 382.382 68.8905 382.382C70.2142 382.382 70.2142 380.289 68.8905 380.289C50.2885 380.289 31.6168 380.289 13.0148 380.289C11.691 380.289 11.691 382.382 13.0148 382.382Z" fill="#E8E8E8"/>
<path d="M16.15 389.289C30.7808 389.289 45.4813 389.289 60.112 389.289C61.4358 389.289 61.4358 387.196 60.112 387.196C45.4813 387.196 30.7808 387.196 16.15 387.196C14.8263 387.196 14.8263 389.289 16.15 389.289Z" fill="#E8E8E8"/>
<path d="M15.5231 401.289C29.6662 401.289 43.8093 401.289 57.8827 401.289C59.2064 401.289 59.2064 399.196 57.8827 399.196C43.7396 399.196 29.5965 399.196 15.5231 399.196C14.1993 399.196 14.1993 401.289 15.5231 401.289Z" fill="#E8E8E8"/>
<path d="M76 279.303C76 277.101 76 274.899 76 272.697C76 271.768 75 271.768 75 272.697C75 274.899 75 277.101 75 279.303C75 280.232 76 280.232 76 279.303Z" fill="#E8E8E8"/>
<path d="M76.6702 273C116.649 273 156.628 273 196.606 273C207.848 273 219.089 273 230.33 273C231.223 273 231.223 271 230.33 271C190.351 271 150.372 271 110.393 271C99.1524 271 87.9113 271 76.6702 271C75.7766 271 75.7766 273 76.6702 273Z" fill="#E8E8E8"/>
<path d="M75.7067 280C115.846 280 155.986 280 196.125 280C207.526 280 218.928 280 230.329 280C231.224 280 231.224 279 230.329 279C190.189 279 150.05 279 109.91 279C98.5089 279 87.1078 279 75.7067 279C74.7644 279 74.7644 280 75.7067 280Z" fill="#E8E8E8"/>
<path d="M230 272.673C230 274.891 230 277.109 230 279.327C230 280.224 231 280.224 231 279.327C231 277.109 231 274.891 231 272.673C231 271.776 230 271.776 230 272.673Z" fill="#E8E8E8"/>
<path d="M152 271.364C152 268.106 152 264.894 152 261.636C152 260.788 150 260.788 150 261.636C150 264.894 150 268.106 150 271.364C150 272.212 152 272.212 152 271.364Z" fill="#E8E8E8"/>
<path d="M156 260.728C156 264.271 156 267.765 156 271.308C156 272.231 157 272.231 157 271.308C157 267.765 157 264.271 157 260.728C157 259.757 156 259.757 156 260.728Z" fill="#E8E8E8"/>
<path d="M156.668 261C167.54 261 178.413 261 189.332 261C190.223 261 190.223 260 189.332 260C178.46 260 167.587 260 156.668 260C155.777 260 155.777 261 156.668 261Z" fill="#E8E8E8"/>
<path d="M190 260.322C190 246.758 190 233.242 190 219.678C190 218.774 189 218.774 189 219.678C189 233.242 189 246.758 189 260.322C189 261.226 190 261.226 190 260.322Z" fill="#E8E8E8"/>
<path d="M189.329 219C166.443 219 143.557 219 120.671 219C119.776 219 119.776 221 120.671 221C143.557 221 166.443 221 189.329 221C190.224 221 190.224 219 189.329 219Z" fill="#E8E8E8"/>
<path d="M120 219.681C120 232.211 120 244.789 120 257.319C120 258.227 121 258.227 121 257.319C121 244.789 121 232.211 121 219.681C121 218.773 120 218.773 120 219.681Z" fill="#E8E8E8"/>
<path d="M151.313 261C141.088 261 130.864 261 120.687 261C119.771 261 119.771 262 120.687 262C130.912 262 141.136 262 151.313 262C152.229 262 152.229 261 151.313 261Z" fill="#E8E8E8"/>
<path d="M120 255.665C120 257.206 120 258.794 120 260.335C120 261.222 121 261.222 121 260.335C121 258.794 121 257.206 121 255.665C121 254.778 120 254.778 120 255.665Z" fill="#E8E8E8"/>
<path d="M124 223.674C124 234.891 124 246.109 124 257.326C124 258.225 126 258.225 126 257.326C126 246.109 126 234.891 126 223.674C126 222.775 124 222.775 124 223.674Z" fill="#E8E8E8"/>
<path d="M124.67 258C144.557 258 164.443 258 184.33 258C185.223 258 185.223 256 184.33 256C164.443 256 144.557 256 124.67 256C123.777 256 123.777 258 124.67 258Z" fill="#E8E8E8"/>
<path d="M186 256.33C186 245.792 186 235.208 186 224.67C186 223.777 184 223.777 184 224.67C184 235.208 184 245.792 184 256.33C184 257.223 186 257.223 186 256.33Z" fill="#E8E8E8"/>
<path d="M124.715 224C144.933 224 165.103 224 185.321 224C186.226 224 186.226 222 185.321 222C165.103 222 144.933 222 124.715 222C123.762 222 123.762 224 124.715 224Z" fill="#E8E8E8"/>
<path d="M184 223.811C184 223.919 184 224.027 184 224.189C184 224.622 184.467 225 185 225C185.533 225 186 224.622 186 224.189C186 224.081 186 223.973 186 223.811C186 223.378 185.533 223 185 223C184.467 223.054 184 223.378 184 223.811Z" fill="#E8E8E8"/>
<path d="M580.55 323.43C589.816 326.081 599.849 326.36 609.324 327.406C620.053 328.592 630.782 329.709 641.512 330.895C662.761 333.197 683.941 335.43 705.19 337.732C706.514 337.871 706.514 335.778 705.19 335.639C684.429 333.406 663.667 331.174 642.905 328.941C632.664 327.825 622.352 326.709 612.111 325.662C601.869 324.546 591.001 324.337 581.108 321.476C579.853 321.058 579.296 323.081 580.55 323.43Z" fill="black"/>
<path d="M729.575 291.267C722.747 306.825 714.735 321.825 705.608 336.197C704.912 337.313 706.723 338.36 707.42 337.243C716.547 322.871 724.559 307.872 731.386 292.314C731.944 291.128 730.132 290.081 729.575 291.267Z" fill="black"/>
<path d="M581.804 322.732C596.017 312.476 609.812 301.592 622.979 290.081C624.024 289.174 622.492 287.709 621.516 288.616C608.418 299.988 594.833 310.802 580.759 320.918C579.714 321.685 580.759 323.569 581.804 322.732Z" fill="black"/>
<path d="M622.701 289.802C640.397 287.709 658.302 289.104 676.068 290.011C694.113 290.918 712.227 291.825 730.272 292.732C731.596 292.802 731.596 290.709 730.272 290.639C712.227 289.732 694.113 288.825 676.068 287.918C658.302 287.011 640.397 285.616 622.701 287.709C621.377 287.848 621.377 289.941 622.701 289.802Z" fill="black"/>
<path d="M645.413 303.058C644.299 304.941 643.114 306.755 641.999 308.639C641.581 309.267 642.139 310.244 642.905 310.244C645.413 310.174 647.922 310.174 650.43 310.523C651.823 310.662 654.192 311.639 655.655 311.151C657.884 310.383 659.417 306.267 660.323 304.453C660.95 303.267 659.139 302.22 658.512 303.406C657.884 304.592 657.257 306.127 656.421 307.174C654.958 308.918 653.565 308.918 651.475 308.569C648.618 308.151 645.762 308.081 642.905 308.151C643.184 308.709 643.532 309.197 643.811 309.755C644.926 307.872 646.11 306.058 647.225 304.174C647.922 302.988 646.11 301.941 645.413 303.058Z" fill="#E8E8E8"/>
<path d="M646.807 304.104C650.848 303.058 654.749 303.058 658.651 304.732C659.905 305.29 660.95 303.476 659.696 302.918C655.237 300.965 650.848 300.825 646.18 302.081C644.926 302.43 645.483 304.453 646.807 304.104Z" fill="#E8E8E8"/>
<path d="M614.619 305.709C618.311 305.569 621.864 305.918 625.418 306.825C626.741 307.174 627.299 305.151 625.975 304.802C622.213 303.895 618.451 303.476 614.619 303.616C613.295 303.685 613.295 305.778 614.619 305.709Z" fill="#E8E8E8"/>
<path d="M615.037 304.802C617.267 302.36 619.635 300.058 622.074 297.825C623.049 296.918 621.586 295.453 620.611 296.36C618.172 298.593 615.873 300.965 613.574 303.337C612.668 304.313 614.131 305.848 615.037 304.802Z" fill="#E8E8E8"/>
<path d="M620.68 297.895C623.746 299.43 627.717 299.011 631.131 299.081C632.455 299.151 632.455 297.058 631.131 296.988C628.274 296.918 624.373 297.407 621.725 296.081C620.541 295.523 619.496 297.267 620.68 297.895Z" fill="#E8E8E8"/>
<path d="M629.598 297.755C627.926 300.058 626.254 302.43 624.721 304.871C624.024 305.988 625.836 307.034 626.533 305.918C628.065 303.476 629.668 301.104 631.409 298.802C632.176 297.686 630.364 296.639 629.598 297.755Z" fill="#E8E8E8"/>
<path d="M714.735 199.036C714.735 220.175 714.735 241.384 714.735 262.523C714.735 263.849 716.825 263.849 716.825 262.523C716.825 241.384 716.825 220.175 716.825 199.036C716.825 197.64 714.735 197.64 714.735 199.036Z" fill="#E8E8E8"/>
<path d="M716.268 263.57C746.714 263.57 777.23 263.57 807.676 263.57C809 263.57 809 261.477 807.676 261.477C777.23 261.477 746.714 261.477 716.268 261.477C714.875 261.477 714.875 263.57 716.268 263.57Z" fill="#E8E8E8"/>
<path d="M808.79 262.384C808.581 241.314 808.303 220.245 808.094 199.245C808.094 197.919 806.003 197.919 806.003 199.245C806.212 220.314 806.491 241.384 806.7 262.384C806.7 263.709 808.79 263.709 808.79 262.384Z" fill="#E8E8E8"/>
<path d="M716.059 199.524C745.948 199.524 775.836 199.524 805.655 199.524C806.979 199.524 806.979 197.431 805.655 197.431C775.767 197.431 745.878 197.431 716.059 197.431C714.735 197.431 714.735 199.524 716.059 199.524Z" fill="#E8E8E8"/>
<path d="M760.927 197.501C760.648 195.617 760.718 193.664 761.275 191.78C761.693 190.175 763.156 186.408 765.525 187.594C766.918 188.291 767.337 190.803 767.546 192.198C767.824 194.082 767.824 195.966 767.615 197.85C767.476 199.175 769.566 199.175 769.705 197.85C770.054 194.361 770.054 184.803 764.341 185.291C759.046 185.78 758.349 194.222 758.906 198.059C759.115 199.384 761.136 198.826 760.927 197.501Z" fill="#E8E8E8"/>
<path d="M605.98 82.316C605.98 107.99 605.98 133.594 605.98 159.269C605.98 160.594 608.07 160.594 608.07 159.269C608.07 133.594 608.07 107.99 608.07 82.316C608.07 80.9904 605.98 80.9904 605.98 82.316Z" fill="#E8E8E8"/>
<path d="M607.652 160.315C644.577 160.315 681.433 160.315 718.358 160.315C719.682 160.315 719.682 158.222 718.358 158.222C681.433 158.222 644.577 158.222 607.652 158.222C606.328 158.222 606.328 160.315 607.652 160.315Z" fill="#E8E8E8"/>
<path d="M719.543 159.059C719.264 133.525 718.985 108.06 718.707 82.5252C718.707 81.1996 716.617 81.1996 716.617 82.5252C716.895 108.06 717.174 133.525 717.453 159.059C717.453 160.385 719.543 160.385 719.543 159.059Z" fill="#E8E8E8"/>
<path d="M607.443 82.7346C643.602 82.7346 679.831 82.7346 715.99 82.7346C717.313 82.7346 717.313 80.6416 715.99 80.6416C679.831 80.6416 643.602 80.6416 607.443 80.6416C606.119 80.6416 606.119 82.7346 607.443 82.7346Z" fill="#E8E8E8"/>
<path d="M661.577 80.5718C661.228 78.1998 661.368 75.8277 661.995 73.5254C662.552 71.5022 664.364 66.758 667.499 68.2929C670.982 70.0371 670.495 77.7811 670.146 80.8509C670.007 82.1764 672.097 82.1764 672.236 80.8509C672.654 76.8044 672.724 65.2232 665.966 65.9208C659.696 66.5487 658.929 76.5951 659.626 81.13C659.765 82.4555 661.786 81.8974 661.577 80.5718Z" fill="#E8E8E8"/>
<path d="M611.902 88.1764C611.902 109.176 611.902 130.176 611.902 151.106C611.902 152.431 613.992 152.431 613.992 151.106C613.992 130.106 613.992 109.106 613.992 88.1764C613.992 86.781 611.902 86.781 611.902 88.1764Z" fill="#E8E8E8"/>
<path d="M612.947 153.548C645.553 153.548 678.158 153.548 710.764 153.548C712.088 153.548 712.088 151.455 710.764 151.455C678.158 151.455 645.553 151.455 612.947 151.455C611.623 151.455 611.553 153.548 612.947 153.548Z" fill="#E8E8E8"/>
<path d="M713.203 151.664C713.203 131.083 713.203 110.432 713.203 89.8506C713.203 88.5251 711.112 88.5251 711.112 89.8506C711.112 110.432 711.112 131.083 711.112 151.664C711.112 152.989 713.203 152.989 713.203 151.664Z" fill="#E8E8E8"/>
<path d="M613.783 88.9436C646.389 88.9436 678.994 88.9436 711.6 88.9436C712.924 88.9436 712.924 86.8506 711.6 86.8506C678.994 86.8506 646.389 86.8506 613.783 86.8506C612.459 86.8506 612.459 88.9436 613.783 88.9436Z" fill="#E8E8E8"/>
<path d="M624.651 446.777C658.302 446.777 691.953 446.777 725.604 446.777C726.927 446.777 726.927 444.684 725.604 444.684C691.953 444.684 658.302 444.684 624.651 444.684C623.258 444.684 623.258 446.777 624.651 446.777Z" fill="#E8E8E8"/>
<path d="M672.585 448.661C672.585 455.079 672.585 461.498 672.585 467.916C672.585 469.242 674.675 469.242 674.675 467.916C674.675 461.498 674.675 455.079 674.675 448.661C674.675 447.265 672.585 447.265 672.585 448.661Z" fill="#E8E8E8"/>
<path d="M657.327 471.823C673.978 471.823 690.629 471.823 707.35 471.823C708.674 471.823 708.674 469.73 707.35 469.73C690.699 469.73 674.048 469.73 657.327 469.73C656.003 469.73 655.933 471.823 657.327 471.823Z" fill="#E8E8E8"/>
<path d="M140.86 399.545C140.86 422.638 140.86 445.8 140.86 468.893C140.86 470.219 142.95 470.219 142.95 468.893C142.95 445.8 142.95 422.638 142.95 399.545C142.95 398.219 140.86 398.219 140.86 399.545Z" fill="#E8E8E8"/>
<path d="M141.905 400.592C175.904 400.592 209.834 400.592 243.833 400.592C245.157 400.592 245.157 398.499 243.833 398.499C209.834 398.499 175.904 398.499 141.905 398.499C140.512 398.499 140.512 400.592 141.905 400.592Z" fill="#E8E8E8"/>
<path d="M141.975 470.428C176.113 470.358 210.252 470.358 244.39 470.288C245.714 470.288 245.714 468.195 244.39 468.195C210.252 468.265 176.113 468.265 141.975 468.335C140.651 468.335 140.651 470.428 141.975 470.428Z" fill="#E8E8E8"/>
<path d="M243.415 399.824C243.415 422.428 243.415 445.033 243.415 467.707C243.415 469.033 245.505 469.033 245.505 467.707C245.505 445.103 245.505 422.498 245.505 399.824C245.505 398.498 243.415 398.498 243.415 399.824Z" fill="#E8E8E8"/>
<path d="M149.638 409.242C148.175 408.405 148.524 406.033 150.335 405.964C152.774 405.894 151.31 410.08 149.708 409.033C148.593 408.266 147.548 410.08 148.663 410.847C152.565 413.498 156.118 405.615 151.519 404.08C149.708 403.452 147.618 404.498 146.852 406.243C146.085 408.056 146.921 410.08 148.524 411.056C149.778 411.754 150.823 409.94 149.638 409.242Z" fill="#E8E8E8"/>
<path d="M154.167 416.987C174.232 416.987 194.297 416.987 214.362 416.987C215.686 416.987 215.686 414.894 214.362 414.894C194.297 414.894 174.232 414.894 154.167 414.894C152.774 414.894 152.774 416.987 154.167 416.987Z" fill="#E8E8E8"/>
<path d="M155.073 424.382C166.638 424.382 178.203 424.382 189.769 424.382C191.093 424.382 191.093 422.289 189.769 422.289C178.203 422.289 166.638 422.289 155.073 422.289C153.679 422.289 153.679 424.382 155.073 424.382Z" fill="#E8E8E8"/>
<path d="M157.024 468.544C157.024 461.149 157.024 453.684 157.024 446.289C157.024 444.963 154.934 444.963 154.934 446.289C154.934 453.684 154.934 461.149 154.934 468.544C154.934 469.87 157.024 469.87 157.024 468.544Z" fill="#E8E8E8"/>
<path d="M156.188 446.638C172.978 446.638 189.838 446.638 206.629 446.638C207.953 446.638 207.953 444.544 206.629 444.544C189.838 444.544 172.978 444.544 156.188 444.544C154.864 444.544 154.864 446.638 156.188 446.638Z" fill="#E8E8E8"/>
<path d="M205.584 446.079C205.584 453.405 205.584 460.73 205.584 468.125C205.584 469.451 207.674 469.451 207.674 468.125C207.674 460.8 207.674 453.474 207.674 446.079C207.674 444.684 205.584 444.684 205.584 446.079Z" fill="#E8E8E8"/>
<path d="M166.499 468.265C166.499 463.381 166.499 458.498 166.499 453.684C166.499 452.358 164.409 452.358 164.409 453.684C164.409 458.567 164.409 463.451 164.409 468.265C164.409 469.66 166.499 469.66 166.499 468.265Z" fill="#E8E8E8"/>
<path d="M174.859 468.265C174.859 463.381 174.859 458.498 174.859 453.684C174.859 452.358 172.769 452.358 172.769 453.684C172.769 458.567 172.769 463.451 172.769 468.265C172.769 469.66 174.859 469.66 174.859 468.265Z" fill="#E8E8E8"/>
<path d="M182.941 468.056C182.941 463.591 182.941 459.126 182.941 454.591C182.941 453.265 180.851 453.265 180.851 454.591C180.851 459.056 180.851 463.521 180.851 468.056C180.851 469.381 182.941 469.381 182.941 468.056Z" fill="#E8E8E8"/>
<path d="M191.301 468.754C191.301 464.149 191.301 459.475 191.301 454.87C191.301 453.544 189.211 453.544 189.211 454.87C189.211 459.475 189.211 464.149 189.211 468.754C189.211 470.079 191.301 470.079 191.301 468.754Z" fill="#E8E8E8"/>
<path d="M200.289 467.567C200.289 463.242 200.289 458.916 200.289 454.591C200.289 453.265 198.199 453.265 198.199 454.591C198.199 458.916 198.199 463.242 198.199 467.567C198.199 468.963 200.289 468.963 200.289 467.567Z" fill="#E8E8E8"/>
<path d="M237.493 406.521C236.657 406.173 236.518 404.708 237.493 404.359C237.911 404.219 238.608 404.289 238.747 404.777C238.886 405.056 238.608 405.754 238.19 405.684C237.632 405.615 237.075 405.824 236.936 406.382C236.796 406.87 237.075 407.568 237.632 407.638C239.304 407.917 240.768 406.661 240.837 404.987C240.907 403.382 239.374 402.126 237.841 402.126C236.309 402.126 235.055 403.103 234.706 404.638C234.428 406.033 234.985 407.638 236.309 408.266C237.632 408.894 238.677 407.08 237.493 406.521Z" fill="#E8E8E8"/>
<path d="M590.234 386.568C595.429 386.568 599.64 382.351 599.64 377.15C599.64 371.948 595.429 367.731 590.234 367.731C585.04 367.731 580.829 371.948 580.829 377.15C580.829 382.351 585.04 386.568 590.234 386.568Z" fill="#EC615B"/>
<path d="M608.836 365.917C611.568 365.917 613.783 363.7 613.783 360.964C613.783 358.228 611.568 356.01 608.836 356.01C606.104 356.01 603.89 358.228 603.89 360.964C603.89 363.7 606.104 365.917 608.836 365.917Z" fill="#EC615B"/>
<path d="M507.884 36.9675C514.579 36.9675 520.007 31.5325 520.007 24.8281C520.007 18.1237 514.579 12.6887 507.884 12.6887C501.189 12.6887 495.761 18.1237 495.761 24.8281C495.761 31.5325 501.189 36.9675 507.884 36.9675Z" fill="#5222D0"/>
<path d="M140.442 339.615C144.097 339.615 147.061 336.648 147.061 332.987C147.061 329.327 144.097 326.36 140.442 326.36C136.787 326.36 133.823 329.327 133.823 332.987C133.823 336.648 136.787 339.615 140.442 339.615Z" fill="#5222D0"/>
<path d="M149.081 326.22C153.006 326.22 156.187 323.034 156.187 319.104C156.187 315.174 153.006 311.988 149.081 311.988C145.156 311.988 141.975 315.174 141.975 319.104C141.975 323.034 145.156 326.22 149.081 326.22Z" fill="#EC615B"/>
<path d="M496.249 33.8978C502.098 33.8978 506.839 29.15 506.839 23.2933C506.839 17.4365 502.098 12.6887 496.249 12.6887C490.4 12.6887 485.659 17.4365 485.659 23.2933C485.659 29.15 490.4 33.8978 496.249 33.8978Z" fill="#EC615B"/>
<path d="M533.174 184.036C533.314 182.571 534.01 181.943 535.195 182.013C535.822 181.873 536.519 181.803 537.146 181.943C537.912 181.943 538.678 182.082 539.375 181.943C540.49 181.733 541.465 181.385 542.232 180.547C542.998 179.64 543.137 178.524 543.346 177.408C543.973 173.71 546.621 174.966 549.059 175.594C551.776 176.292 554.006 175.664 555.817 173.501C556.793 172.315 557.42 170.85 558.116 169.455C558.952 167.78 562.993 162.617 564.387 166.803C564.805 168.059 566.825 167.501 566.407 166.245C565.292 162.966 561.321 162.617 558.883 164.71C556.723 166.594 556.166 169.524 554.493 171.687C551.637 175.524 548.641 172.315 545.018 172.455C543.555 172.524 542.441 173.292 541.814 174.617C540.838 176.641 541.883 177.548 539.654 178.943C537.633 180.268 537.076 179.501 534.916 179.78C532.129 180.199 529.203 183.687 532.199 185.78C533.174 186.617 534.219 184.803 533.174 184.036Z" fill="#EC615B"/>
<path d="M542.441 189.826C541.326 188.361 541.744 187.594 543.625 187.384C544.74 186.478 545.994 186.338 547.318 186.896C547.945 186.966 548.641 187.105 549.268 187.175C550.871 187.315 552.125 187.036 553.518 186.408C554.076 186.129 554.145 185.431 553.867 184.943C551.428 179.989 559.022 179.152 561.6 179.012C563.76 178.943 565.92 179.012 568.01 178.245C570.657 177.199 572.469 175.315 572.747 172.454C572.887 171.129 570.796 171.129 570.657 172.454C570.03 179.222 558.883 175.803 554.842 178.315C552.055 179.989 550.662 183.059 552.125 186.059C552.264 185.571 552.403 185.082 552.473 184.594C548.92 186.268 543.625 182.64 540.629 186.198C539.166 187.943 539.375 190.454 541.326 191.71C542.58 192.338 543.625 190.524 542.441 189.826Z" fill="#EC615B"/>
<path d="M288.074 56.2232C286.471 50.0837 293.926 44.9907 298.594 50.0139C303.262 55.0371 297.619 62.0836 291.627 60.0603C290.373 59.6417 289.816 61.665 291.07 62.0836C299.151 64.8045 306.119 54.9674 300.057 48.5488C293.996 42.0605 283.894 48.6186 286.053 56.7813C286.402 58.1069 288.422 57.5487 288.074 56.2232Z" fill="#5222D0"/>
<path d="M289.606 562.241C295.18 571.659 305.7 577.24 316.639 576.473C317.962 576.403 317.962 574.31 316.639 574.38C306.397 575.078 296.643 569.985 291.418 561.194C290.721 560.008 288.91 561.055 289.606 562.241Z" fill="#5222D0"/>
<path d="M285.357 574.24C292.672 581.775 302.356 586.17 312.876 586.659C314.2 586.729 314.2 584.636 312.876 584.566C302.914 584.077 293.787 579.892 286.82 572.706C285.914 571.799 284.381 573.333 285.357 574.24Z" fill="#5222D0"/>
<path d="M754.865 97.0367C750.267 102.827 755.005 112.106 762.46 111.269C766.082 110.85 770.611 108.688 772.074 113.641C772.771 115.943 772.353 118.455 772.91 120.757C773.676 124.106 776.394 127.664 780.156 126.408C781.41 125.99 780.852 123.967 779.598 124.385C774.512 126.06 774.861 117.199 774.373 114.339C773.955 111.827 772.91 109.455 770.402 108.548C766.779 107.223 763.017 110.223 759.464 108.897C755.493 107.432 753.681 101.851 756.398 98.5018C757.165 97.525 755.702 95.9902 754.865 97.0367Z" fill="#E8E8E8"/>
<path d="M745.181 111.199C743.439 114.06 744.763 117.06 747.202 119.083C750.337 121.594 753.89 121.385 757.722 121.734C760.996 122.013 763.574 122.92 765.316 125.85C766.5 127.873 766.918 130.245 768.172 132.199C769.914 134.85 772.98 136.804 776.115 135.478C777.369 134.99 776.812 132.966 775.557 133.455C771.099 135.338 769.217 129.548 767.963 126.618C766.918 124.106 765.525 122.013 762.947 120.827C760.718 119.78 758.14 119.711 755.701 119.571C752.566 119.362 743.857 117.548 746.993 112.315C747.689 111.129 745.878 110.083 745.181 111.199Z" fill="#E8E8E8"/>
<path d="M36.6331 511.241C37.5388 508.869 38.7232 508.171 40.1166 509.218C40.674 509.427 41.2314 509.776 41.6494 510.195C42.4854 510.822 43.1821 511.52 44.0182 512.148C44.9936 512.846 46.1083 513.613 47.2927 513.892C49.2435 514.381 50.9852 513.753 52.3786 512.357C53.981 510.753 54.3991 507.753 56.2105 506.357C57.9522 505.032 59.067 507.125 60.321 508.311C61.5751 509.427 62.8988 510.474 64.2226 511.45C65.3373 512.218 66.3824 510.404 65.2676 509.636C62.7595 507.823 60.5301 505.73 58.4399 503.427C58.2309 503.148 57.7432 503.078 57.3949 503.148C55.1654 503.846 53.981 505.59 52.8663 507.613C51.8909 509.427 51.3336 510.962 49.1738 511.52C46.387 512.218 44.7845 509.916 42.6944 508.381C40.6043 506.846 37.9568 505.73 35.6577 507.543C34.125 508.799 33.7069 510.543 34.6127 512.288C35.5184 513.474 37.3298 512.427 36.6331 511.241Z" fill="#E8E8E8"/>
<path d="M37.2602 520.66C38.0266 524.357 41.5101 527.287 45.4116 526.729C47.6411 526.45 49.1739 524.915 51.055 523.799C54.4688 521.706 58.231 521.706 61.5752 523.869C62.6899 524.567 63.735 522.753 62.6202 522.055C59.4154 520.032 55.5835 519.404 51.9607 520.869C50.2886 521.567 49.0345 522.753 47.5018 523.66C44.0879 525.613 40.047 524.078 39.211 520.032C39.002 518.776 36.9815 519.334 37.2602 520.66Z" fill="#E8E8E8"/>
<path d="M173.535 24.6187C179.248 25.1769 184.125 28.6652 186.703 33.7581C187.33 34.9442 189.141 33.8977 188.514 32.7116C185.588 26.921 180.015 23.1536 173.535 22.5257C172.212 22.3862 172.212 24.4792 173.535 24.6187Z" fill="#161616"/>
<path d="M174.093 4.3866C183.568 8.92144 191.023 16.6655 195.064 26.3631C195.551 27.6189 197.572 27.0608 197.084 25.805C192.834 15.5493 185.101 7.3168 175.138 2.57267C173.953 2.01453 172.908 3.82847 174.093 4.3866Z" fill="#161616"/>
<path d="M196.596 1.87493C200.916 6.75859 203.076 12.7585 203.006 19.3166C203.006 20.6422 205.096 20.6422 205.096 19.3166C205.166 12.2702 202.727 5.71209 198.059 0.409827C197.223 -0.636673 195.76 0.828426 196.596 1.87493Z" fill="#161616"/>
<path d="M514.642 589.31C513.736 583.101 520.703 577.31 525.928 582.333C530.736 586.938 524.814 594.403 519.449 590.915C518.334 590.147 517.289 591.961 518.404 592.729C525.441 597.333 533.592 587.915 528.019 581.496C521.539 573.961 511.437 581.357 512.621 589.938C512.83 591.194 514.851 590.636 514.642 589.31Z" fill="#EC615B"/>
<path d="M523.211 556.45C522.097 552.892 526.695 550.032 528.994 553.241C531.084 556.171 527.601 559.59 524.605 558.055C523.42 557.427 522.375 559.241 523.56 559.869C528.646 562.52 534.219 556.52 530.527 551.845C526.765 547.032 519.449 551.357 521.191 557.008C521.609 558.264 523.629 557.776 523.211 556.45Z" fill="#EC615B"/>
<path d="M411.46 583.938C409.231 584.078 407.628 585.194 404.493 587.426C400.87 590.008 396.481 593.775 392.301 599.217C393.903 606.263 396.342 614.356 400.174 622.798C410.694 646.1 426.3 661.17 436.82 669.542C438.283 667.797 440.304 665.007 441.209 661.239C442.464 656.007 441.07 651.681 440.304 649.449C437.726 641.147 435.984 632.565 433.755 624.124C429.087 606.612 431.456 604.659 426.788 596.566C425.325 594.124 419.054 583.38 411.46 583.938Z" fill="#161616"/>
<path d="M461.623 386.429C464.131 391.452 467.126 398.219 469.913 406.522C476.741 426.963 477.577 443.777 477.786 449.358C477.995 456.335 478.134 476.777 469.913 501.334C460.577 529.171 445.668 547.101 435.844 558.543C426.16 569.915 416.824 578.287 410.066 583.868C410.066 585.543 410.345 588.682 412.226 591.752C416.755 598.868 426.021 598.729 426.648 598.729C432.291 594.752 439.258 589.38 446.713 582.543C459.532 570.822 467.823 560.287 471.167 555.892C476.811 548.497 486.983 534.822 495.134 514.381C503.982 492.265 506.421 472.242 506.908 458.428C507.466 443.428 505.794 432.824 503.425 417.824C499.593 393.196 494.716 383.22 491.232 377.22C488.028 371.778 484.823 367.662 482.524 365.01C475.557 372.127 468.59 379.243 461.623 386.429Z" fill="white"/>
<path d="M460.996 389.289C475 416.01 480.086 447.265 475.139 477.056C470.61 504.265 457.861 529.52 440.861 551.008C431.456 562.869 420.796 573.613 409.231 583.31C408.186 584.147 409.718 585.682 410.694 584.775C432.013 566.776 450.615 545.148 463.156 520.171C476.254 494.009 481.688 464.777 477.856 435.684C475.696 419.149 470.61 403.033 462.877 388.243C462.18 387.057 460.369 388.103 460.996 389.289Z" fill="#161616"/>
<path d="M486.147 370.034C501.892 399.475 508.232 433.591 505.097 466.8C501.892 500.986 488.237 532.729 466.639 559.241C454.656 573.962 440.791 586.938 425.882 598.659C424.837 599.496 426.3 600.961 427.345 600.124C454.377 578.845 478.553 552.752 492.905 521.148C506.769 490.66 510.88 456.056 505.864 423.056C502.937 404.149 496.946 385.801 487.958 368.987C487.331 367.801 485.52 368.848 486.147 370.034Z" fill="#161616"/>
<path d="M408.673 583.868C409.858 593.287 417.591 603.473 428.111 599.426C429.365 598.938 428.808 596.915 427.554 597.403C418.357 600.961 411.808 592.031 410.763 583.868C410.624 582.543 408.534 582.543 408.673 583.868Z" fill="#161616"/>
<path d="M408.046 583.659C401.358 587.147 395.854 592.101 391.534 598.24C390.768 599.357 392.579 600.403 393.346 599.287C397.456 593.426 402.821 588.752 409.091 585.473C410.276 584.845 409.231 583.031 408.046 583.659Z" fill="#161616"/>
<path d="M391.743 600.124C398.153 627.473 413.55 652.379 435.705 669.751C436.75 670.588 438.213 669.123 437.168 668.286C415.292 651.123 400.104 626.635 393.764 599.566C393.415 598.24 391.395 598.798 391.743 600.124Z" fill="#161616"/>
<path d="M426.3 599.705C429.365 611.287 432.501 622.798 435.566 634.379C438.423 644.914 444.345 659.216 436.124 668.774C435.218 669.821 436.751 671.286 437.587 670.239C445.25 661.309 441.767 649.309 439.05 639.123C435.497 625.798 431.874 612.473 428.32 599.147C427.972 597.822 425.952 598.38 426.3 599.705Z" fill="#161616"/>
<path d="M469.635 403.871C475.069 394.731 485.101 389.289 495.691 389.708C497.015 389.778 497.015 387.685 495.691 387.615C484.335 387.196 473.606 393.057 467.823 402.824C467.127 403.94 468.938 404.987 469.635 403.871Z" fill="#161616"/>
<path d="M477.438 434.01C481.897 428.568 487.888 425.219 494.786 424.103C496.109 423.894 495.552 421.87 494.228 422.08C486.983 423.196 480.573 426.893 475.975 432.545C475.139 433.591 476.602 435.056 477.438 434.01Z" fill="#161616"/>
<path d="M480.782 412.94C486.356 408.266 493.253 405.964 500.429 406.243C501.753 406.312 501.753 404.219 500.429 404.15C492.626 403.871 485.241 406.452 479.25 411.475C478.274 412.312 479.737 413.777 480.782 412.94Z" fill="#161616"/>
<path d="M478.204 473.637C481.131 469.939 486.356 470.009 490.675 470.149C495.901 470.358 502.38 472.172 503.146 478.311C503.286 479.637 505.376 479.637 505.237 478.311C504.47 472.311 499.315 469.102 493.741 468.335C488.307 467.567 480.504 467.428 476.741 472.242C475.905 473.218 477.368 474.753 478.204 473.637Z" fill="#161616"/>
<path d="M422.259 572.776C422.747 580.869 426.718 591.403 435.984 592.45C437.308 592.589 437.308 590.496 435.984 590.357C428.042 589.45 424.767 579.613 424.349 572.776C424.279 571.45 422.189 571.45 422.259 572.776Z" fill="#161616"/>
<path d="M436.193 558.473C437.447 564.613 440.861 569.776 445.947 573.473C447.062 574.241 448.107 572.427 446.992 571.659C442.394 568.31 439.398 563.497 438.214 557.915C437.935 556.59 435.915 557.148 436.193 558.473Z" fill="#161616"/>
<path d="M448.037 557.776C451.311 561.962 455.004 566.218 460.438 567.264C461.762 567.543 462.319 565.52 460.996 565.241C455.91 564.264 452.565 560.148 449.5 556.241C448.664 555.195 447.201 556.729 448.037 557.776Z" fill="#161616"/>
<path d="M463.852 517.66C472.84 517.311 481.339 520.451 488.028 526.52C489.003 527.427 490.536 525.962 489.491 525.055C482.454 518.637 473.397 515.218 463.852 515.637C462.528 515.637 462.528 517.73 463.852 517.66Z" fill="#161616"/>
<path d="M477.229 498.474C482.454 497.986 487.401 499.381 491.581 502.66C492.626 503.497 494.089 502.032 493.044 501.195C488.515 497.567 483.011 495.892 477.229 496.381C475.905 496.451 475.905 498.544 477.229 498.474Z" fill="#161616"/>
<path opacity="0.13" d="M481.339 375.545C484.266 384.545 487.819 397.243 490.397 412.801C492.974 428.498 496.388 448.8 492.905 473.218C489.491 497.358 480.991 514.381 474.791 526.59C458.488 558.683 436.402 581.636 417.452 597.124C414.595 592.589 411.739 588.054 408.882 583.52C414.386 580.031 422.12 574.52 429.992 566.427C437.517 558.683 441.976 551.915 448.594 541.729C456.955 528.892 461.344 522.125 465.664 512.497C476.463 488.497 477.577 467.149 477.717 461.637C478.344 444.056 475.139 430.521 471.655 415.801C469.147 405.196 466.36 396.475 464.131 390.126C469.983 385.313 475.696 380.429 481.339 375.545Z" fill="#666666"/>
<path opacity="0.13" d="M475.836 389.708C477.299 393.545 479.25 399.057 480.852 405.824C483.499 416.847 484.614 427.87 484.405 441.056C483.987 465.963 483.569 488.916 474.373 513.055C458.697 554.008 425.812 577.031 409.997 586.589C417.382 578.706 427.554 567.334 438.632 552.822C452.148 535.311 458.836 526.52 464.27 515.567C482.942 477.893 477.995 440.707 476.323 430.451C473.885 415.382 469.426 403.382 465.733 395.219C469.147 393.405 472.492 391.522 475.836 389.708Z" fill="#666666"/>
<path d="M366.523 403.452C363.596 406.801 363.736 410.638 362.621 425.289C361.019 446.498 360.392 442.103 359.556 456.335C356.908 502.102 360.879 542.427 360.879 542.427C362.064 554.845 366.314 593.077 377.879 632.914C383.871 653.495 394.042 681.89 394.46 683.146C397.456 691.518 400.034 698.495 401.846 703.239C402.264 703.518 412.923 709.518 420.587 704.565C421.771 703.797 425.046 701.634 425.812 697.588C426.439 694.239 425.046 691.518 424.488 690.611C422.189 683.635 418.845 673.239 415.292 660.472C409.37 639.123 400.731 607.101 397.387 565.659C396.133 549.822 396.133 538.52 396.063 519.334C396.063 500.986 396.063 480.474 398.71 454.242C399.964 441.684 402.124 424.661 406.095 404.429C396.272 400.731 374.674 394.243 366.523 403.452Z" fill="white"/>
<path d="M401.636 704.635C402.681 707.355 403.866 711.123 404.214 715.727C404.562 719.285 404.353 722.425 404.005 724.867C409.857 728.146 414.804 729.96 418.357 730.936C420.587 731.564 422.955 732.123 427.066 733.099C431.804 734.216 435.426 734.983 436.82 735.262C451.451 738.332 458.836 739.867 467.475 740.494C470.958 740.774 476.184 740.983 482.663 740.704C483.917 738.68 486.425 734.006 484.823 729.611C483.569 726.123 480.433 724.448 474.79 721.588C463.016 715.518 457.094 712.518 456.955 712.448C449.709 709.588 439.467 704.355 426.718 693.96C425.673 695.844 422.816 700.1 417.382 702.89C410.345 706.518 403.517 705.053 401.636 704.635Z" fill="#161616"/>
<path d="M361.924 420.196C352.101 495.265 358.301 572.217 379.829 644.705C385.891 665.007 393.137 684.96 401.497 704.425C402.054 705.681 403.796 704.565 403.308 703.379C373.489 634.1 358.58 558.683 359.486 483.265C359.764 462.195 361.297 441.056 364.014 420.196C364.154 418.87 362.064 418.94 361.924 420.196Z" fill="#161616"/>
<path d="M399.964 427.452C392.579 496.73 392.649 567.613 407.698 635.915C411.948 655.1 417.382 673.937 424.001 692.356C424.488 693.612 426.509 693.053 426.021 691.798C402.263 626.217 395.157 555.822 397.735 486.405C398.432 466.73 399.964 447.056 402.054 427.452C402.194 426.056 400.104 426.056 399.964 427.452Z" fill="#161616"/>
<path d="M402.473 704.844C411.878 707.704 422.398 702.96 426.439 693.89C426.996 692.704 425.185 691.588 424.628 692.844C421.005 701.007 411.599 705.402 403.03 702.821C401.776 702.402 401.218 704.425 402.473 704.844Z" fill="#161616"/>
<path d="M401.079 704.634C402.681 710.355 403.448 716.216 403.308 722.146C403.308 723.472 405.398 723.472 405.398 722.146C405.538 716.007 404.771 710.007 403.099 704.076C402.751 702.751 400.73 703.309 401.079 704.634Z" fill="#161616"/>
<path d="M403.378 724.239C413.132 731.913 426.578 733.239 438.353 735.75C452.496 738.75 466.987 742.866 481.548 741.96C482.872 741.89 482.872 739.797 481.548 739.867C467.614 740.704 453.819 736.867 440.234 734.006C428.529 731.564 414.525 730.448 404.841 722.774C403.796 721.936 402.333 723.402 403.378 724.239Z" fill="#161616"/>
<path d="M426.3 694.379C435.496 702.751 446.365 708.681 457.442 714.192C463.086 716.983 468.729 719.634 474.303 722.495C477.09 723.89 480.085 725.355 482.106 727.797C485.241 731.634 483.499 736.448 481.757 740.564C481.27 741.82 483.011 742.866 483.569 741.611C485.729 736.448 487.61 730.657 483.36 726.053C479.04 721.239 471.586 718.797 465.873 716.006C452.496 709.518 438.91 702.96 427.763 692.914C426.787 692.007 425.324 693.472 426.3 694.379Z" fill="#161616"/>
<path d="M359.416 457.66C371.121 463.73 384.637 465.056 397.317 461.358C398.571 461.009 398.083 458.986 396.759 459.335C384.637 462.893 371.678 461.707 360.461 455.846C359.277 455.219 358.232 457.033 359.416 457.66Z" fill="#161616"/>
<path d="M358.58 479.079C365.895 482.358 373.629 483.614 381.641 482.637C382.965 482.497 382.965 480.404 381.641 480.544C374.117 481.521 366.592 480.404 359.625 477.265C358.441 476.707 357.396 478.521 358.58 479.079Z" fill="#161616"/>
<path d="M358.998 527.009C364.293 530.636 370.633 531.543 376.973 530.846C383.383 530.148 391.255 528.683 396.759 525.264C397.874 524.567 396.829 522.753 395.714 523.45C390.559 526.66 382.965 528.055 376.973 528.753C371.051 529.45 365.059 528.613 360.043 525.195C358.928 524.427 357.883 526.241 358.998 527.009Z" fill="#161616"/>
<path d="M362.83 557.427C374.256 562.031 387.215 560.985 397.805 554.636C398.989 553.938 397.944 552.125 396.76 552.822C386.588 558.892 374.326 559.799 363.387 555.404C362.133 554.915 361.646 556.938 362.83 557.427Z" fill="#161616"/>
<path d="M373.49 614.984C384.289 618.821 394.809 613.938 403.936 608.357C405.05 607.659 404.005 605.845 402.891 606.543C394.182 611.845 384.289 616.589 374.047 612.961C372.793 612.543 372.236 614.566 373.49 614.984Z" fill="#161616"/>
<path d="M409.091 643.1C405.608 646.937 401.288 649.519 396.341 650.775C395.018 651.123 395.575 653.147 396.899 652.798C402.263 651.472 406.931 648.682 410.624 644.635C411.46 643.589 409.997 642.124 409.091 643.1Z" fill="#161616"/>
<path d="M391.813 677.565C396.341 676.868 400.591 675.402 404.562 673.17C405.747 672.472 404.702 670.728 403.517 671.356C399.685 673.519 395.645 674.914 391.325 675.542C389.932 675.751 390.489 677.775 391.813 677.565Z" fill="#161616"/>
<path opacity="0.11" d="M388.817 413.359C386.1 422.847 382.756 436.661 380.805 453.614C378.018 477.753 379.481 495.823 381.293 516.543C387.702 587.915 391.047 624.124 398.919 647.495C406.444 669.821 415.222 687.123 421.562 698.355C421.284 698.704 415.292 705.89 407.489 704.425C404.702 703.867 402.682 702.471 401.428 701.425C395.924 688.937 388.678 671.077 381.78 649.03C376.067 630.751 358.789 572.008 358.162 491.916C358.023 472.172 358.789 445.87 362.691 414.894C371.4 414.335 380.108 413.847 388.817 413.359Z" fill="#666666"/>
<path opacity="0.11" d="M362.691 431.498C363.666 469.312 366.453 501.125 369.24 525.195C373.977 566.915 377.461 595.659 388.887 631.938C398.083 661.24 409.091 684.472 417.521 700.448C412.505 701.286 407.489 702.123 402.403 702.96C397.595 692.704 393.067 681.96 388.817 670.728C355.584 582.613 354.539 497.916 362.691 431.498Z" fill="#666666"/>
<path d="M502.728 209.57C501.335 210.477 499.593 212.849 500.499 221.151C501.822 232.872 506.769 241.593 507.117 242.151C525.58 274.523 521.26 270.825 526.973 278.081C533.801 286.662 543.416 298.802 560.415 306.267C567.731 309.476 577.624 313.871 588.562 310.941C597.898 308.499 605.144 303.197 605.144 303.197C607.861 301.174 610.717 298.593 615.943 296.011C618.938 294.476 621.586 293.569 623.397 292.941C624.651 293.639 626.533 294.476 628.901 294.616C632.524 294.825 633.639 293.29 637.471 292.941C638.028 292.872 642.557 292.593 646.876 294.895C651.335 297.267 652.171 300.616 654.052 300.127C656.073 299.639 656.769 295.383 656.839 293.22C656.909 290.011 655.655 287.639 654.888 286.314C653.077 282.965 650.429 281.011 648.827 279.965C648.548 278.849 647.782 276.546 645.762 274.453C643.323 271.872 640.536 271.104 639.422 270.825C639.213 269.709 638.725 268.104 637.471 266.709C634.127 262.942 628.274 263.988 626.672 264.198C621.098 265.174 617.754 269.011 616.709 270.267C616.012 269.849 614.131 268.872 611.762 269.151C608.697 269.57 606.955 271.872 606.258 272.779C603.472 276.407 604.168 280.732 604.308 281.639C599.709 282.128 596.296 283.383 594.066 284.43C589.816 286.453 588.423 288.407 584.382 289.941C582.361 290.709 578.878 291.965 574.698 291.337C571.075 290.779 568.497 289.104 566.964 287.988C554.772 279.267 547.387 268.104 547.387 268.104C526.416 236.5 528.506 240.895 526.416 236.849C519.588 223.803 514.851 210.477 507.117 208.942C506.49 208.873 504.4 208.454 502.728 209.57Z" fill="white"/>
<path d="M510.879 209.151C520.006 229.314 531.502 248.43 545.088 265.942C556.653 280.872 572.05 299.778 593.369 295.732C594.693 295.453 594.136 293.43 592.812 293.709C571.005 297.825 555.051 275.918 543.764 260.709C531.572 244.384 521.191 226.733 512.761 208.105C512.134 206.849 510.322 207.896 510.879 209.151Z" fill="#161616"/>
<path d="M571.145 291.267C574.14 291.965 577.206 292.662 580.271 292.174C583.267 291.686 585.845 290.081 588.423 288.616C595.39 284.709 602.984 282.616 610.996 282.476C612.32 282.476 612.32 280.383 610.996 280.383C604.726 280.523 598.525 281.709 592.673 284.151C589.816 285.337 587.238 287.011 584.521 288.406C580.202 290.639 576.3 290.36 571.702 289.244C570.378 288.965 569.821 290.918 571.145 291.267Z" fill="#161616"/>
<path d="M502.937 235.384C512.273 255.267 521.887 275.639 537.633 291.337C551.428 305.011 571.911 316.522 591.767 310.732C597.131 309.197 602.148 306.546 606.816 303.546C612.041 300.127 617.127 294.895 623.746 294.825C625.069 294.825 625.069 292.732 623.746 292.732C614.758 292.872 607.721 301.104 600.127 305.081C589.537 310.592 578.39 311.569 567.034 307.802C547.317 301.244 532.547 285.058 521.887 267.825C515.338 257.151 509.974 245.779 504.679 234.407C504.191 233.081 502.38 234.198 502.937 235.384Z" fill="#161616"/>
<path d="M610.648 281.848C616.918 282.127 626.045 285.337 624.233 293.43C623.955 294.755 625.975 295.313 626.254 293.988C628.414 284.43 618.381 280.104 610.648 279.755C609.324 279.686 609.324 281.779 610.648 281.848Z" fill="#161616"/>
<path d="M605.701 280.802C606.189 278.29 606.398 275.639 607.234 273.267C608.418 269.849 613.295 270.686 616.152 271.174C617.475 271.383 618.033 269.36 616.709 269.151C613.783 268.662 609.185 267.825 606.746 270.128C604.308 272.43 604.308 277.244 603.681 280.314C603.402 281.569 605.422 282.127 605.701 280.802Z" fill="#161616"/>
<path d="M612.598 275.081C616.36 272.779 619.844 270.197 623.327 267.546C625.905 265.593 628.553 264.197 631.897 264.965C635.032 265.732 637.331 267.895 639.003 270.476C639.77 271.593 641.581 270.546 640.815 269.43C637.958 265.174 633.43 261.825 627.995 262.802C625.208 263.29 623.118 265.035 620.959 266.709C617.893 269.081 614.758 271.244 611.483 273.267C610.438 273.965 611.483 275.779 612.598 275.081Z" fill="#161616"/>
<path d="M627.647 276.407C630.713 275.779 633.221 274.593 636.008 273.407C637.54 272.779 639.282 272.221 640.815 272.779C641.79 273.128 642.557 273.825 643.393 274.453C644.925 275.639 646.388 276.965 647.712 278.36C648.688 279.337 650.151 277.802 649.175 276.895C646.737 274.453 643.044 270.407 639.282 270.267C637.68 270.197 636.286 270.965 634.893 271.662C632.315 272.988 629.877 273.895 627.02 274.453C625.766 274.662 626.323 276.686 627.647 276.407Z" fill="#161616"/>
<path d="M632.524 282.755C635.868 282.476 639.143 281.918 642.487 281.151C644.995 280.593 647.503 279.965 649.803 281.499C651.753 282.755 652.938 284.848 654.122 286.802C654.819 287.918 656.63 286.872 655.934 285.755C653.983 282.616 651.614 279.127 647.643 278.43C645.692 278.081 643.741 278.709 641.86 279.127C638.725 279.825 635.659 280.383 632.454 280.662C631.2 280.732 631.2 282.825 632.524 282.755Z" fill="#161616"/>
<path d="M625.975 295.453C630.225 297.057 633.918 295.174 638.028 294.197C644.368 292.732 648.827 296.709 653.008 300.825C653.983 301.802 655.446 300.267 654.471 299.36C651.126 296.081 647.504 292.662 642.696 291.895C637.123 290.988 631.967 295.523 626.463 293.43C625.279 292.941 624.721 294.964 625.975 295.453Z" fill="#161616"/>
<path d="M641.651 287.29C645.135 287.22 648.966 287.639 652.102 289.313C656.212 291.546 656.909 296.569 653.286 299.569C652.241 300.406 653.704 301.871 654.749 301.034C658.024 298.313 658.929 293.499 656.282 290.011C653.147 285.825 646.528 284.988 641.651 285.127C640.327 285.197 640.327 287.29 641.651 287.29Z" fill="#161616"/>
<path d="M653.774 286.453C654.401 287.779 654.749 289.174 654.819 290.569C654.888 291.895 656.979 291.895 656.909 290.569C656.77 288.755 656.352 287.011 655.585 285.337C655.028 284.221 653.216 285.267 653.774 286.453Z" fill="#161616"/>
<path d="M512.412 251.43C514.085 244.802 519.798 239.849 526.625 239.291C527.949 239.151 527.949 237.058 526.625 237.198C518.822 237.826 512.273 243.268 510.392 250.872C510.113 252.198 512.134 252.756 512.412 251.43Z" fill="#161616"/>
<path d="M520.494 264.895C520.494 260.988 521.957 257.5 524.674 254.849C525.649 253.872 524.186 252.407 523.211 253.384C520.076 256.453 518.404 260.57 518.404 264.965C518.404 266.221 520.494 266.221 520.494 264.895Z" fill="#161616"/>
<path d="M526.416 273.825C527.113 266.36 532.129 259.942 539.236 257.5C540.49 257.081 539.932 255.058 538.678 255.477C530.666 258.267 525.092 265.383 524.326 273.825C524.187 275.151 526.277 275.151 526.416 273.825Z" fill="#161616"/>
<path d="M536.867 287.918C537.424 280.383 542.998 274.174 550.383 272.709C551.707 272.43 551.149 270.407 549.826 270.686C541.535 272.29 535.334 279.476 534.777 287.848C534.707 289.244 536.797 289.244 536.867 287.918Z" fill="#161616"/>
<path d="M552.125 301.523C552.821 295.174 556.583 289.732 562.087 286.662C563.272 286.034 562.227 284.221 561.042 284.848C554.772 288.337 550.801 294.407 550.034 301.523C549.895 302.848 551.985 302.848 552.125 301.523Z" fill="#161616"/>
<path d="M569.542 290.778C573.444 296.29 573.931 303.267 570.587 309.197C569.96 310.383 571.702 311.429 572.399 310.243C576.022 303.685 575.673 295.802 571.354 289.662C570.587 288.616 568.776 289.662 569.542 290.778Z" fill="#161616"/>
<path d="M593.648 284.569C593.857 285.616 594.345 285.895 595.32 286.244C597.271 287.011 599.082 287.151 600.894 288.337C604.726 290.918 606.955 295.244 606.885 299.778C606.885 301.104 608.976 301.104 608.976 299.778C609.045 296.011 607.791 292.453 605.353 289.523C604.168 288.127 602.775 286.941 601.242 286.034C600.545 285.616 595.738 284.29 595.668 283.941C595.39 282.686 593.369 283.244 593.648 284.569Z" fill="#161616"/>
<path opacity="0.11" d="M507.535 219.477C511.158 219.198 513.388 233.919 520.076 249.686C525.719 262.872 537.981 291.616 562.854 299.569C575.464 303.616 593.718 302.988 608.139 295.523C614.549 292.174 617.893 288.686 626.254 286.941C635.659 284.988 649.872 285.616 653.913 293.499C655.097 295.802 655.167 298.174 654.888 300.058C650.987 295.244 647.434 293.848 644.856 293.499C641.163 293.011 639.143 294.616 633.778 295.034C629.598 295.313 626.045 294.685 623.746 294.058C619.983 295.383 614.34 297.755 608.139 301.592C602.217 305.29 600.824 307.243 596.574 309.127C589.259 312.336 582.361 311.429 576.439 310.662C562.087 308.709 552.055 301.941 547.247 298.592C543.067 295.662 536.658 290.639 528.158 279.965C520.773 270.686 510.461 255.546 502.519 233.64C503.425 226.942 504.958 219.686 507.535 219.477Z" fill="#666666"/>
<path d="M344.298 236.64C345.134 240.895 346.179 246.756 347.224 253.732C347.851 258.197 350.289 275.709 350.498 300.616C350.707 327.127 348.408 349.871 345.761 367.173C343.601 381.615 340.953 393.614 338.863 402.475C344.367 407.707 353.285 414.963 365.756 420.684C377.67 426.126 388.469 428.219 395.923 429.056C422.607 387.126 442.812 356.15 455.143 337.452C483.011 294.964 502.449 266.29 510.322 222.198C511.785 214.175 512.482 207.477 512.83 202.942C503.494 200.57 489.839 197.989 473.258 198.547C470.401 198.617 463.364 198.966 449.291 201.477C434.451 204.058 415.361 208.454 393.346 215.989C379.899 220.523 363.109 227.151 344.298 236.64Z" fill="#161616"/>
<path d="M399.477 242.988C400.173 248.988 400.94 257.011 401.497 266.569C402.194 278.29 402.194 287.569 402.194 294.267C402.054 322.313 400.452 349.871 400.173 355.103C398.989 374.987 397.387 400.172 395.087 429.544C408.394 424.172 419.054 419.009 426.439 415.172C453.193 401.428 472.352 387.475 485.798 377.568C496.319 369.824 504.749 363.057 510.392 358.452C511.925 343.661 512.97 330.894 513.806 320.848C514.851 308.011 515.826 295.802 516.523 279.546C516.941 269.918 517.15 265.034 517.22 258.337C517.359 235.802 515.478 220.663 514.851 215.989C514.154 210.547 513.388 206.082 512.831 203.012C494.159 206.57 472.491 212.082 449.012 220.802C430.201 227.709 413.689 235.384 399.477 242.988Z" fill="white"/>
<path d="M344.785 236.988C384.916 216.686 427.763 204.826 472.282 199.245C473.606 199.105 473.606 197.012 472.282 197.152C449.709 200.012 427.345 204.059 405.468 210.547C384.219 216.896 363.527 225.128 343.74 235.175C342.486 235.802 343.531 237.616 344.785 236.988Z" fill="#161616"/>
<path d="M344.367 237.895C353.773 237.407 363.109 238.872 372.444 240.128C381.362 241.384 390.28 242.57 399.268 243.826C400.591 244.035 401.149 242.012 399.825 241.802C390.419 240.477 381.084 239.221 371.678 237.895C362.621 236.64 353.564 235.314 344.367 235.803C343.044 235.872 343.044 237.965 344.367 237.895Z" fill="#161616"/>
<path d="M471.168 199.663C485.311 198.756 499.384 200.222 513.109 203.849C514.433 204.198 514.99 202.175 513.667 201.826C499.802 198.129 485.52 196.663 471.168 197.57C469.844 197.71 469.844 199.803 471.168 199.663Z" fill="#161616"/>
<path d="M401.149 243.058C436.611 225.477 474.233 212.5 512.97 204.407C514.294 204.128 513.736 202.105 512.413 202.384C473.467 210.547 435.705 223.593 400.034 241.244C398.92 241.872 399.965 243.686 401.149 243.058Z" fill="#161616"/>
<path d="M397.596 242.849C403.657 290.569 400.661 338.778 397.596 386.568C396.69 400.661 395.784 414.754 393.764 428.707C393.555 430.033 395.575 430.591 395.784 429.265C399.268 405.405 400.173 381.126 401.497 357.057C402.821 332.848 403.726 308.639 402.96 284.43C402.472 270.546 401.497 256.593 399.686 242.849C399.477 241.523 397.387 241.523 397.596 242.849Z" fill="#161616"/>
<path d="M344.089 236.291C352.728 290.778 350.986 346.661 338.864 400.521C338.585 401.847 340.605 402.405 340.884 401.08C353.076 346.871 354.818 290.639 346.109 235.733C345.9 234.407 343.88 234.965 344.089 236.291Z" fill="#161616"/>
<path d="M338.585 402.126C353.634 417.196 373.211 427.103 394.252 430.172C395.575 430.382 396.133 428.358 394.809 428.149C374.117 425.079 354.888 415.451 340.048 400.591C339.073 399.754 337.609 401.219 338.585 402.126Z" fill="#161616"/>
<path d="M511.507 204.268C520.494 255.267 514.642 307.174 508.789 358.243C508.65 359.568 510.74 359.568 510.88 358.243C516.732 307.034 522.584 254.988 513.527 203.71C513.318 202.384 511.298 202.942 511.507 204.268Z" fill="#161616"/>
<path d="M508.86 358.103C474.164 387.266 435.357 411.266 393.834 429.335C392.58 429.893 393.694 431.707 394.879 431.149C436.542 413.01 475.487 388.87 510.323 359.638C511.368 358.731 509.905 357.266 508.86 358.103Z" fill="#161616"/>
<path d="M406.792 250.314C405.608 249.337 405.05 247.523 405.956 246.197C406.792 244.872 408.882 244.383 410.206 245.29C411.46 246.128 411.878 248.081 411.112 249.407C410.067 251.081 407.698 251.221 406.304 249.965C405.538 249.267 404.423 250.383 405.19 251.081C407.14 252.825 410.206 252.895 411.948 250.872C413.62 248.988 413.341 245.849 411.39 244.244C409.509 242.709 406.583 243.058 404.981 244.802C403.309 246.756 403.727 249.825 405.677 251.43C406.513 252.058 407.628 250.942 406.792 250.314Z" fill="#161616"/>
<path d="M408.534 261.616C408.882 269.569 409.231 277.523 409.579 285.476C409.649 286.453 411.181 286.523 411.181 285.476C410.833 277.523 410.485 269.569 410.136 261.616C410.067 260.639 408.464 260.639 408.534 261.616Z" fill="#161616"/>
<path d="M409.37 261.965C431.734 252.267 454.865 244.314 478.413 238.105C479.389 237.825 478.971 236.36 477.995 236.57C454.307 242.849 431.107 250.872 408.603 260.569C407.628 261.058 408.464 262.383 409.37 261.965Z" fill="#161616"/>
<path d="M410.903 285.686C429.087 275.988 448.177 268.174 467.893 262.384C468.869 262.105 468.451 260.57 467.475 260.849C447.619 266.709 428.39 274.593 410.137 284.36C409.231 284.779 409.997 286.104 410.903 285.686Z" fill="#161616"/>
<path d="M477.438 237.547C474.163 245.5 470.819 253.454 467.545 261.407C467.127 262.314 468.659 262.733 469.077 261.826C472.352 253.872 475.696 245.919 478.971 237.965C479.319 237.058 477.786 236.64 477.438 237.547Z" fill="#161616"/>
<path d="M481.13 237.198C478.065 244.872 474.93 252.547 471.655 260.151C471.237 261.058 472.63 261.895 472.979 260.919C476.253 253.174 479.528 245.43 482.593 237.616C483.081 236.709 481.548 236.291 481.13 237.198Z" fill="#161616"/>
<path d="M472.909 261.546C479.389 258.756 485.798 255.965 492.278 253.174C493.183 252.756 492.417 251.43 491.511 251.849C485.032 254.639 478.622 257.43 472.143 260.221C471.237 260.57 472.004 261.965 472.909 261.546Z" fill="#161616"/>
<path d="M482.872 237.756C486.774 236.151 490.815 234.895 494.995 234.058C495.97 233.849 495.552 232.314 494.577 232.523C490.397 233.36 486.356 234.546 482.454 236.221C481.549 236.57 481.897 238.105 482.872 237.756Z" fill="#161616"/>
<path d="M494.368 233.919C492.975 239.709 491.86 245.57 490.954 251.5C490.815 252.477 492.348 252.895 492.487 251.919C493.393 245.988 494.507 240.128 495.901 234.337C496.11 233.361 494.577 232.942 494.368 233.919Z" fill="#161616"/>
<path d="M500.011 355.522C483.081 365.15 466.151 374.778 449.152 384.405C448.246 384.894 449.082 386.289 449.918 385.731C466.848 376.103 483.778 366.475 500.778 356.848C501.683 356.359 500.847 355.034 500.011 355.522Z" fill="#161616"/>
<path d="M450.894 350.15C451.381 355.731 450.545 361.522 450.127 367.173C449.709 373.173 449.291 379.173 448.804 385.173C448.734 386.15 450.267 386.15 450.406 385.173C450.824 379.173 451.242 373.173 451.73 367.173C452.148 361.592 452.984 355.801 452.496 350.15C452.357 349.173 450.754 349.173 450.894 350.15Z" fill="#161616"/>
<path d="M451.869 350.15C468.381 340.871 485.729 333.127 503.704 327.127C504.679 326.778 504.261 325.313 503.286 325.592C485.171 331.662 467.684 339.406 451.033 348.755C450.197 349.243 451.033 350.638 451.869 350.15Z" fill="#161616"/>
<path d="M503.355 326.918C502.519 336.615 501.126 346.243 499.036 355.731C498.827 356.708 500.359 357.127 500.568 356.15C502.659 346.522 504.122 336.755 504.958 326.918C505.027 325.941 503.495 325.941 503.355 326.918Z" fill="#161616"/>
<path d="M346.458 237.267C358.511 238.105 370.355 240.058 382.059 242.918C383.383 243.267 383.94 241.244 382.617 240.895C370.703 237.965 358.65 236.012 346.458 235.174C345.134 235.035 345.134 237.128 346.458 237.267Z" fill="white"/>
<path opacity="0.1" d="M464.898 216.198C461.484 222.407 456.189 232.384 450.406 244.802C434.8 278.36 395.994 361.801 421.841 387.057C426.579 391.661 437.099 397.87 463.225 392.429C440.722 404.847 418.218 417.335 395.715 429.754C399.059 398.568 400.661 371.847 401.497 350.917C402.055 336.964 402.752 318.755 402.334 294.476C401.985 274.314 400.94 257.011 399.825 243.477C407.559 239.291 415.989 235.105 425.116 231.058C439.189 224.849 452.566 219.965 464.898 216.198Z" fill="#666666"/>
<path d="M190.674 69.8974C189.42 71.6416 191.023 74.7113 191.789 76.2462C193.182 78.8973 196.736 84.3391 206.141 88.3856C202.658 89.153 201.264 90.5483 200.637 91.7344C199.383 94.0367 200.916 95.6413 200.916 101.153C200.916 105.199 200.01 105.827 200.359 109.176C200.637 112.036 201.543 114.339 202.309 115.804C202.449 117.129 202.658 119.013 203.145 121.315C203.494 122.99 203.703 123.827 203.981 124.385C205.444 127.036 209.555 128.432 213.108 127.734C217.567 126.757 219.518 122.711 219.727 122.222C221.608 125.013 223.419 125.85 224.674 126.06C226.973 126.478 228.505 125.153 232.964 124.106C235.194 123.548 237.005 123.339 238.19 123.269C238.05 125.85 237.841 129.687 237.632 134.362C237.005 149.78 236.657 157.873 237.354 167.571C237.563 170.64 238.329 179.78 240.976 191.361C242.579 198.477 245.087 209.221 250.939 221.5C254.562 229.105 260.205 241.035 272.189 252.477C277.623 257.639 290.651 269.779 311.692 274.314C327.368 277.662 340.466 275.36 347.851 273.476C353.564 270.407 359.277 267.407 364.99 264.337C365.826 263.151 367.219 260.639 367.219 257.43C367.219 252.616 364.223 248.081 359.486 245.57C355.863 246.477 350.847 247.523 344.855 248.081C339.003 248.57 327.437 249.477 313.921 245.291C308.139 243.547 292.811 238.593 281.037 224.291C275.463 217.524 273.025 211.454 268.914 201.059C264.037 188.85 262.087 179.222 260.066 169.245C255.816 147.757 253.656 136.943 255.677 126.408C256.722 120.967 258.673 114.478 257.349 105.409C256.025 96.5483 252.611 92.0134 251.566 90.7576C248.71 87.1995 245.226 85.1065 243.276 83.8507C239.722 81.6182 240.419 82.874 234.427 79.7345C233.382 79.1764 232.198 78.5485 230.596 78.6182C228.714 78.7578 227.251 79.8043 226.485 80.5717C222.096 79.3159 218.403 78.1299 215.686 77.2229C209.485 75.1997 206.35 74.2229 204.887 73.3857C201.195 71.2927 199.871 69.4788 196.318 68.9904C195.203 68.6416 191.928 68.1532 190.674 69.8974Z" fill="white"/>
<path d="M256.304 109.036C254.005 124.315 254.284 139.734 256.374 155.013C258.464 170.431 261.947 186.059 267.312 200.64C271.841 212.989 278.39 224.57 288.631 233.081C297.549 240.477 308.278 245.36 319.565 247.732C332.454 250.453 345.97 249.825 358.58 246.058C359.834 245.639 359.347 243.616 358.023 244.035C336.146 250.593 311.065 247.314 292.533 233.57C281.943 225.686 274.836 214.593 270.169 202.384C265.083 189.338 261.878 175.384 259.509 161.64C256.583 144.408 255.747 126.827 258.325 109.525C258.534 108.269 256.513 107.711 256.304 109.036Z" fill="#161616"/>
<path d="M236.935 123.408C234.358 157.803 235.472 193.873 251.497 225.198C264.943 251.5 288.631 272.639 318.659 276.267C334.962 278.221 351.822 274.802 365.338 265.244C366.453 264.477 365.408 262.663 364.293 263.43C339.978 280.662 306.188 276.965 282.848 259.872C258.185 241.733 244.878 212.152 240.28 182.571C237.214 163.036 237.563 143.083 239.026 123.408C239.165 122.083 237.075 122.083 236.935 123.408Z" fill="#161616"/>
<path d="M357.953 245.988C365.268 248.919 367.637 257.36 363.318 263.849C362.551 264.965 364.363 266.011 365.129 264.895C370.285 257.221 367.01 247.384 358.51 243.965C357.256 243.477 356.699 245.5 357.953 245.988Z" fill="#161616"/>
<path d="M243.067 99.5483C245.505 95.0135 238.678 95.5019 236.448 94.8042C233.522 93.8275 230.247 91.2461 228.157 89.0136C225.022 85.6648 224.744 78.7579 231.293 80.0137C244.321 82.5951 258.185 94.5252 256.165 108.827C255.956 110.153 257.976 110.711 258.185 109.385C260.415 93.3391 245.645 81.0602 231.223 77.8509C225.928 76.6649 222.514 81.6881 224.117 86.5718C225.092 89.502 227.67 91.6647 230.038 93.4089C231.502 94.5252 233.104 95.6414 234.776 96.4089C235.542 96.6879 241.464 97.874 241.116 98.5019C240.628 99.6879 242.44 100.734 243.067 99.5483Z" fill="#161616"/>
<path d="M224.534 78.688C216.244 76.7345 208.162 73.8741 200.568 69.9672C197.084 68.1532 189.908 64.8742 189.769 71.7811C189.699 77.2927 194.646 82.874 198.756 85.9437C204.957 90.6181 212.69 92.3622 220.145 93.4785C221.469 93.6878 222.026 91.6646 220.702 91.4553C209.904 89.7809 195.76 86.0135 192.277 73.9439C191.998 73.2462 191.859 72.5485 191.859 71.7811C193.183 69.5486 194.646 69.0602 196.457 70.1765C197.711 70.7346 198.826 71.4323 200.08 72.0602C202.379 73.1764 204.678 74.2927 207.047 75.2694C212.551 77.5717 218.194 79.3857 223.977 80.7112C225.301 81.0601 225.858 79.0368 224.534 78.688Z" fill="#161616"/>
<path d="M204.33 87.5483C200.428 88.6646 198.826 93.4785 198.965 97.1761C199.174 101.92 202.24 105.897 206.211 108.269C209.834 110.502 215.338 112.246 219.17 109.385C221.957 107.292 222.584 103.316 220.145 100.734C219.239 99.7575 217.776 101.223 218.682 102.199C220.354 103.944 219.518 106.595 217.776 107.781C216.244 108.827 214.154 108.757 212.412 108.478C209.695 107.99 207.047 106.525 204.957 104.711C202.937 102.897 201.543 100.595 201.195 97.9436C200.777 95.0831 201.613 90.4785 204.887 89.5018C206.211 89.2227 205.654 87.1995 204.33 87.5483Z" fill="#161616"/>
<path d="M200.22 101.502C197.92 107.292 199.453 114.409 204.4 118.455C206.629 120.269 209.695 121.385 212.551 120.897C215.408 120.339 217.08 118.316 218.752 116.083C219.518 114.967 217.707 113.92 216.94 115.037C215.129 117.478 213.039 119.362 209.834 118.734C207.187 118.246 204.957 116.502 203.494 114.339C201.056 110.711 200.707 106.176 202.31 102.13C202.728 100.804 200.707 100.246 200.22 101.502Z" fill="#161616"/>
<path d="M200.916 115.664C201.125 121.385 203.354 128.013 209.764 129.269C216.592 130.594 220.284 123.618 222.026 118.176C222.444 116.92 220.424 116.362 220.006 117.618C218.612 121.943 215.756 128.362 210.043 127.106C204.748 125.99 203.145 120.339 203.006 115.664C203.006 114.339 200.916 114.269 200.916 115.664Z" fill="#161616"/>
<path d="M219.1 122.083C219.797 125.153 222.932 126.269 225.788 126.688C230.317 127.385 233.661 125.083 238.05 124.595C239.374 124.455 239.374 122.362 238.05 122.502C235.891 122.781 234.01 123.618 231.85 124.176C229.133 124.943 222.026 125.571 221.12 121.525C220.842 120.199 218.821 120.757 219.1 122.083Z" fill="#161616"/>
<path d="M238.12 124.176C245.087 126.897 252.96 124.315 257.14 118.176C257.906 117.06 256.095 116.013 255.329 117.129C251.636 122.571 244.669 124.525 238.677 122.153C237.423 121.664 236.936 123.687 238.12 124.176Z" fill="#161616"/>
<path d="M316.987 248.081C319.704 250.733 319.077 257.639 318.868 261.128C318.589 265.663 317.266 269.988 314.061 273.337C313.155 274.314 314.618 275.779 315.524 274.802C319.077 271.035 320.61 266.221 320.889 261.128C321.167 256.942 321.725 249.826 318.45 246.547C317.475 245.64 316.012 247.105 316.987 248.081Z" fill="#161616"/>
<path d="M337.679 249.407C341.929 257.291 341.999 266.639 337.888 274.593C337.261 275.779 339.073 276.825 339.7 275.639C344.159 266.988 344.089 256.942 339.491 248.36C338.864 247.105 337.052 248.221 337.679 249.407Z" fill="#161616"/>
<path d="M238.12 166.524C245.087 168.896 252.472 168.129 258.882 164.431C260.066 163.733 259.021 161.919 257.837 162.617C251.915 166.036 245.226 166.664 238.677 164.501C237.423 164.082 236.866 166.105 238.12 166.524Z" fill="#161616"/>
<path d="M244.53 207.407C253.378 209.291 262.366 206.012 267.87 198.826C268.706 197.78 266.894 196.733 266.058 197.78C261.111 204.128 252.96 207.128 245.087 205.384C243.763 205.105 243.206 207.128 244.53 207.407Z" fill="#161616"/>
<path d="M282.639 227.431C282.918 231.337 281.594 234.896 278.877 237.686C277.902 238.663 279.435 240.128 280.34 239.151C283.475 236.012 285.008 231.826 284.73 227.361C284.66 226.105 282.57 226.105 282.639 227.431Z" fill="#161616"/>
<path d="M239.304 186.617C242.37 188.012 245.644 188.291 248.849 187.315C250.173 186.966 249.616 184.943 248.292 185.292C245.644 186.059 242.927 185.919 240.349 184.803C239.165 184.245 238.05 186.059 239.304 186.617Z" fill="#161616"/>
<path d="M237.702 137.571C243.694 139.036 249.546 138.408 255.189 135.897C256.444 135.338 255.329 133.525 254.144 134.083C249.058 136.385 243.694 136.804 238.26 135.548C236.936 135.199 236.378 137.222 237.702 137.571Z" fill="#161616"/>
<path d="M256.652 233.919C266.615 236.221 276.16 230.989 279.574 221.361C279.992 220.105 278.041 219.547 277.554 220.803C274.558 229.314 265.988 233.919 257.21 231.896C255.886 231.547 255.329 233.57 256.652 233.919Z" fill="#161616"/>
<path d="M299.221 240.965C302.217 249.826 293.09 258.756 286.193 262.523C285.008 263.151 286.054 264.965 287.238 264.337C294.971 260.151 304.586 250.174 301.242 240.477C300.824 239.151 298.803 239.709 299.221 240.965Z" fill="#161616"/>
<path opacity="0.13" d="M208.092 91.4553C210.6 94.0367 207.605 98.3622 209.764 101.153C210.949 102.618 213.596 103.734 220.076 102.478C220.076 103.595 220.145 105.269 220.772 107.153C220.772 107.153 222.166 111.618 226.067 114.478C230.596 117.827 237.354 117.897 243.415 114.827C243.694 119.013 244.182 124.943 244.739 132.199C248.013 173.64 249.267 181.105 251.079 188.222C253.169 196.594 255.816 206.989 262.714 218.57C267.033 225.756 281.525 249.198 311.344 258.546C336.634 266.5 358.371 259.663 365.965 256.872C365.547 259.733 365.06 262.663 364.642 265.523C361.298 267.546 356.49 270.128 350.359 272.221C349.593 272.5 335.798 276.965 320.401 275.57C291.348 272.918 271.144 250.733 266.128 245.221C248.013 225.268 242.858 203.431 240.489 193.524C237.006 178.664 236.727 164.989 236.518 155.152C236.239 142.664 237.005 132.129 237.842 124.455C236.587 125.083 233.383 126.408 229.202 125.781C224.465 125.083 221.469 122.362 220.563 121.455C220.354 122.013 219.24 125.432 215.547 127.106C215.338 127.246 211.367 128.92 207.883 127.106C204.748 125.501 203.912 122.013 202.24 115.106C201.195 110.92 200.986 107.92 200.568 103.106C199.732 92.5716 200.847 91.3158 201.543 90.7577C203.215 89.4321 206.49 89.7809 208.092 91.4553Z" fill="#666666"/>
<path opacity="0.15" d="M251.357 220.802C253.448 223.244 256.652 226.802 260.693 230.779C267.8 237.826 283.963 253.942 302.008 261.476C327.159 271.941 353.146 264.686 364.92 260.5C364.502 261.965 364.014 263.36 363.596 264.825C360.113 266.709 327.089 283.872 292.045 267.128C262.783 253.244 253.03 225.826 251.357 220.802Z" fill="#666666"/>
<path d="M409.022 179.71C408.325 183.617 408.046 187.035 407.976 189.547C407.907 191.082 407.698 196.803 408.813 204.338C409.3 207.826 409.997 210.756 410.554 212.919C413.411 213.686 417.521 214.454 422.538 214.175C429.156 213.826 434.242 211.803 437.308 210.338C437.168 208.454 437.029 205.454 436.681 201.756C435.914 193.454 435.287 190.524 435.218 185.082C435.148 182.78 435.218 179.291 435.636 175.036C432.71 174.268 426.927 173.152 420.029 174.826C414.944 175.943 411.251 178.105 409.022 179.71Z" fill="white"/>
<path d="M408.116 178.943C405.747 189.966 407.28 201.059 409.022 212.082C409.231 213.407 411.251 212.849 411.042 211.524C409.37 200.919 407.837 190.105 410.136 179.501C410.415 178.175 408.395 177.617 408.116 178.943Z" fill="#161616"/>
<path d="M409.509 180.408C412.645 177.617 417.243 176.64 421.214 175.803C425.743 174.896 430.201 174.757 434.73 175.594C436.054 175.873 436.611 173.85 435.287 173.571C430.41 172.594 425.534 172.803 420.657 173.78C416.198 174.687 411.46 175.803 407.977 178.943C407.071 179.85 408.534 181.315 409.509 180.408Z" fill="#161616"/>
<path d="M434.521 174.896C433.685 186.617 434.312 198.338 436.263 209.919C436.472 211.244 438.492 210.686 438.283 209.361C436.332 197.919 435.775 186.408 436.611 174.896C436.681 173.57 434.59 173.57 434.521 174.896Z" fill="#161616"/>
<path d="M409.44 212.779C412.853 215.5 418.636 215.151 422.816 215.012C428.042 214.872 433.127 213.756 437.656 211.105C438.84 210.407 437.795 208.593 436.611 209.291C432.709 211.593 428.46 212.64 424.001 212.919C420.447 213.128 413.898 213.616 410.972 211.314C409.858 210.477 408.395 211.942 409.44 212.779Z" fill="#161616"/>
<path d="M409.091 191.919C411.669 188.291 415.989 187.105 420.169 186.198C424.837 185.152 429.644 184.175 433.964 186.826C435.148 187.524 436.193 185.71 435.009 185.012C430.202 182.082 424.837 182.989 419.612 184.175C414.874 185.291 410.276 186.756 407.28 190.873C406.514 191.919 408.325 192.966 409.091 191.919Z" fill="#161616"/>
<path d="M409.509 203.849C416.615 198.059 425.882 195.756 434.939 197.57C436.263 197.849 436.82 195.826 435.496 195.547C425.673 193.594 415.849 196.035 408.046 202.384C407.001 203.221 408.464 204.686 409.509 203.849Z" fill="#161616"/>
<path d="M421.144 206.71C423.513 205.663 425.952 205.314 428.599 205.314C430.411 205.314 434.451 205.105 435.706 206.57C436.611 207.617 438.074 206.082 437.169 205.105C435.566 203.222 431.943 203.431 429.714 203.291C426.37 203.152 423.234 203.64 420.099 204.966C418.845 205.454 419.89 207.198 421.144 206.71Z" fill="#161616"/>
<path d="M343.392 171.966C349.314 175.315 358.58 179.78 370.494 182.222C383.313 184.873 393.276 184.035 404.493 183.059C408.952 182.64 423.792 181.175 443.578 175.384C455.84 171.756 472.282 165.826 490.606 155.71C491.999 148.803 493.253 140.85 493.811 131.99C494.438 122.431 494.229 113.78 493.602 106.315C489.7 101.99 484.962 97.3155 479.319 92.6411C474.164 88.3156 469.147 84.8272 464.549 81.9668C424.14 111.966 383.801 141.966 343.392 171.966Z" fill="#161616"/>
<path d="M464.34 81.8972C465.315 85.3855 466.569 90.339 467.545 96.4784C468.172 100.316 470.123 114.269 467.754 132.618C467.127 137.78 465.942 144.617 463.713 152.501C461.205 154.036 457.721 156.059 453.471 158.292C439.398 165.617 427.554 169.106 423.374 170.292C420.378 171.129 406.095 175.036 386.379 175.873C375.51 176.291 360.461 175.943 342.765 172.245C344.019 150.966 345.343 129.757 346.597 108.478C350.568 106.525 356.072 103.943 362.83 101.223C367.15 99.4784 387.145 91.525 415.849 86.432C428.669 84.1297 445.041 82.1065 464.34 81.8972Z" fill="white"/>
<path d="M345.97 108.408C344.507 129.617 343.044 150.896 341.65 172.105C341.58 173.431 343.671 173.431 343.74 172.105C345.203 150.896 346.666 129.617 348.06 108.408C348.13 107.013 346.039 107.013 345.97 108.408Z" fill="#161616"/>
<path d="M348.13 108.688C384.149 92.0832 423.513 83.3624 463.155 83.1531C464.479 83.1531 464.479 81.0601 463.155 81.0601C423.095 81.2694 383.452 90.06 347.084 106.874C345.9 107.432 346.945 109.246 348.13 108.688Z" fill="#161616"/>
<path d="M342.417 172.733C383.801 182.849 427.972 176.012 464.2 153.548C465.315 152.85 464.27 151.036 463.155 151.734C427.345 173.85 383.801 180.687 342.974 170.71C341.65 170.361 341.093 172.384 342.417 172.733Z" fill="#161616"/>
<path d="M462.807 82.246C469.356 105.478 469.147 130.036 462.249 153.199C461.831 154.524 463.852 155.013 464.27 153.757C471.307 130.315 471.516 105.269 464.827 81.6879C464.479 80.3623 462.458 80.9204 462.807 82.246Z" fill="#161616"/>
<path d="M463.991 82.5251C474.929 89.5715 484.544 98.2923 492.626 108.478C493.462 109.525 494.925 108.06 494.089 107.013C485.868 96.6877 476.114 87.8971 465.036 80.7809C463.922 79.9437 462.876 81.7576 463.991 82.5251Z" fill="#161616"/>
<path d="M492.208 107.85C493.671 124.106 492.765 140.362 489.491 156.408C489.212 157.734 491.232 158.292 491.511 156.966C494.855 140.78 495.761 124.315 494.298 107.92C494.159 106.525 492.068 106.525 492.208 107.85Z" fill="#161616"/>
<path d="M342.556 173.361C348.339 175.734 354.121 178.036 359.904 180.408C364.223 182.152 368.682 182.85 373.211 183.408C383.871 184.873 394.739 185.222 405.468 184.245C423.513 182.71 441.349 177.547 458.279 171.338C469.704 167.152 480.782 162.129 491.442 156.338C492.626 155.711 491.581 153.897 490.397 154.524C473.397 163.734 455.492 170.641 436.959 175.943C417.452 181.524 397.526 183.966 377.252 181.733C372.375 181.175 366.941 180.827 362.342 179.082C355.863 176.641 349.453 173.85 343.044 171.268C341.859 170.85 341.302 172.873 342.556 173.361Z" fill="#161616"/>
<path d="M462.737 155.222C472.073 157.036 481.479 157.385 490.954 156.268C492.278 156.129 492.278 154.036 490.954 154.175C481.688 155.292 472.491 154.943 463.295 153.199C461.971 152.989 461.414 154.943 462.737 155.222Z" fill="#161616"/>
<path d="M367.289 123.618C365.477 122.781 365.756 120.199 365.686 118.595C365.617 117.757 365.547 116.92 365.617 116.013C365.617 115.036 365.756 114.199 366.174 113.292C366.662 112.176 367.428 112.037 368.334 112.734C369.936 113.292 369.727 113.711 369.727 115.246C369.727 116.153 369.658 116.99 369.588 117.897C369.518 118.804 369.518 119.781 369.449 120.688C369.449 120.967 368.682 125.781 367.359 123.827C366.592 122.711 364.781 123.757 365.547 124.874C367.568 127.874 370.772 125.501 371.33 122.781C371.817 120.339 371.817 117.478 371.817 114.967C371.817 113.362 371.539 111.548 370.145 110.571C367.01 108.339 363.945 112.037 363.596 114.967C363.248 117.967 362.9 123.967 366.244 125.501C367.428 125.99 368.473 124.176 367.289 123.618Z" fill="#161616"/>
<path d="M366.313 111.897C365.129 116.222 365.407 120.618 367.08 124.804C367.498 125.85 369.17 125.78 369.1 124.525C369.03 120.478 369.239 116.501 369.727 112.525C369.03 112.525 368.334 112.525 367.637 112.525C367.846 114.199 367.985 115.804 367.985 117.478C367.985 118.176 368.055 119.083 367.916 119.711C367.846 120.199 367.219 121.943 367.498 120.269C367.707 118.943 365.617 118.943 365.408 120.269C365.129 122.292 367.08 125.362 369.239 123.269C370.075 122.432 370.006 120.827 370.075 119.711C370.215 117.269 370.075 114.897 369.797 112.525C369.657 111.199 367.916 111.199 367.707 112.525C367.149 116.501 366.94 120.478 367.08 124.525C367.776 124.455 368.473 124.315 369.1 124.246C367.567 120.408 367.289 116.501 368.334 112.455C368.682 111.199 366.662 110.641 366.313 111.897Z" fill="#161616"/>
<path d="M365.547 113.641C364.99 115.036 364.92 116.501 365.129 117.966C365.199 118.525 365.895 118.804 366.383 118.664C367.01 118.525 367.219 117.966 367.08 117.408C366.94 116.292 367.149 115.246 367.498 114.199C368.055 112.943 366.035 112.385 365.547 113.641Z" fill="#161616"/>
<path d="M425.116 113.013C423.304 112.176 423.583 109.595 423.513 107.99C423.443 107.153 423.374 106.385 423.443 105.548C423.443 105.06 423.443 104.571 423.583 104.153C423.652 102.548 424.976 102.06 427.415 102.758C428.111 103.804 427.484 106.734 427.415 107.851C427.345 108.618 427.345 109.385 427.275 110.153C427.275 110.432 426.509 115.246 425.185 113.292C424.419 112.176 422.607 113.223 423.374 114.339C425.394 117.339 428.599 114.967 429.156 112.246C429.644 109.874 429.574 107.153 429.644 104.781C429.644 103.176 429.505 101.292 428.181 100.176C425.185 97.5948 421.911 101.083 421.423 104.013C420.935 107.013 420.657 113.292 424.001 114.897C425.325 115.385 426.37 113.641 425.116 113.013Z" fill="#161616"/>
<path d="M424.21 101.362C423.025 105.688 423.304 110.083 424.976 114.269C425.394 115.316 427.066 115.246 426.997 113.99C426.927 109.943 427.136 105.967 427.624 101.99C426.927 101.99 426.23 101.99 425.533 101.99C425.742 103.664 425.882 105.269 425.882 106.944C425.882 107.641 425.952 108.548 425.812 109.176C425.742 109.664 425.115 111.409 425.394 109.734C425.603 108.409 423.513 108.409 423.304 109.734C423.025 111.757 424.976 114.827 427.136 112.734C427.972 111.897 427.902 110.292 427.972 109.176C428.111 106.734 427.972 104.362 427.693 101.99C427.554 100.665 425.812 100.665 425.603 101.99C425.046 105.967 424.837 109.943 424.976 113.99C425.673 113.92 426.37 113.781 426.997 113.711C425.464 109.874 425.185 105.967 426.23 101.92C426.579 100.595 424.558 100.037 424.21 101.362Z" fill="#161616"/>
<path d="M423.443 103.036C422.886 104.432 422.816 105.897 423.025 107.362C423.095 107.92 423.792 108.199 424.279 108.06C424.907 107.92 425.116 107.362 424.976 106.804C424.837 105.688 425.046 104.641 425.394 103.595C425.952 102.339 423.931 101.85 423.443 103.036Z" fill="#161616"/>
<path d="M384.149 134.641C390.28 135.478 398.432 134.711 403.866 131.501C405.05 130.804 404.005 128.99 402.821 129.687C397.874 132.548 390.28 133.385 384.707 132.618C383.453 132.478 382.826 134.501 384.149 134.641Z" fill="#161616"/>
<path d="M383.174 134.78C385.055 138.966 389.653 144.827 394.948 144.129C400.174 143.501 403.309 136.106 404.423 131.711C404.772 130.385 402.751 129.827 402.403 131.152C401.637 134.292 399.407 140.152 396.063 141.548C391.186 143.571 386.727 137.431 385.055 133.664C384.428 132.548 382.617 133.594 383.174 134.78Z" fill="#161616"/>
<path d="M384.915 135.618C390.28 138.129 398.292 136.804 402.821 133.176C402.333 132.687 401.845 132.199 401.358 131.711C398.71 133.873 395.436 135.129 391.952 135.059C390.071 135.059 388.538 134.083 387.006 135.338C386.727 135.618 386.657 136.036 386.727 136.385C387.075 138.269 389.653 139.176 391.255 139.455C394.6 140.013 397.665 138.408 400.313 136.455C399.895 135.897 399.477 135.338 399.059 134.78C396.69 137.501 390.628 138.966 388.051 135.687C387.284 134.711 385.891 135.966 386.379 136.943C387.842 139.594 390.071 142.245 393.415 142.036C396.899 141.897 399.059 138.897 400.8 136.245C401.497 135.199 400.034 134.292 399.128 134.99C397.526 136.245 396.411 136.455 394.669 137.083C393.555 137.501 392.719 137.292 393.137 138.687C393.485 139.804 394.669 140.152 395.645 140.152C398.641 140.013 401.706 135.687 403.03 133.385C403.587 132.408 402.194 131.222 401.358 132.129C398.71 134.99 397.177 139.594 392.928 140.222C391.604 140.431 392.161 142.455 393.485 142.245C398.292 141.478 399.895 136.734 402.821 133.594C402.263 133.176 401.706 132.757 401.149 132.339C400.173 133.943 398.501 136.594 396.62 137.362C395.157 137.92 395.366 137.571 394.251 136.385C393.973 136.036 393.764 135.618 393.415 135.408C392.161 134.641 390.907 135.338 390.489 136.594C390.35 136.943 390.489 137.362 390.768 137.641C393.764 140.92 397.665 138.687 400.522 136.525C399.964 136.106 399.407 135.687 398.85 135.269C397.456 137.362 396.202 139.385 393.555 139.734C390.837 140.152 389.305 138.129 388.12 135.897C387.563 136.315 387.006 136.734 386.448 137.152C389.723 141.269 397.247 139.804 400.382 136.245C401.149 135.408 400.104 133.873 399.128 134.571C396.899 136.245 394.182 137.85 391.325 137.222C390.35 137.152 389.444 136.664 388.678 135.966C388.887 136.594 389.305 136.873 389.792 136.943C390.559 137.292 391.952 137.152 392.788 137.083C396.481 136.873 399.825 135.408 402.681 133.106C403.726 132.269 402.263 130.804 401.218 131.641C397.595 134.501 390.21 135.827 385.821 133.734C384.706 133.245 383.661 135.059 384.915 135.618Z" fill="#161616"/>
<path d="M392.37 140.641C393.973 139.455 395.505 138.199 396.829 136.734C396.272 136.315 395.714 135.896 395.157 135.478C394.53 136.664 393.624 137.85 393.136 139.106C392.927 139.734 392.858 140.431 393.415 140.989C393.903 141.478 394.669 141.478 395.296 141.199C396.481 140.641 397.526 139.664 398.571 138.896C398.083 138.408 397.595 137.92 397.108 137.431C396.69 138.478 395.296 140.501 396.481 141.478C397.804 142.594 398.989 140.641 399.686 139.803C400.522 138.757 399.058 137.292 398.222 138.338C397.944 138.617 397.386 139.664 396.968 139.734C397.317 139.803 397.665 139.943 398.013 140.013C397.944 139.943 397.874 139.873 397.874 139.803C397.944 140.082 398.083 140.292 398.153 140.571C398.153 139.943 398.71 139.106 398.919 138.548C399.267 137.71 398.431 136.455 397.456 137.082C397.038 137.362 394.739 139.385 394.391 139.245C394.6 139.385 394.809 139.594 395.018 139.734C394.948 139.664 394.948 139.524 394.878 139.455C394.948 139.734 394.948 140.013 395.018 140.292C395.227 139.036 396.341 137.641 396.968 136.524C397.526 135.478 396.132 134.362 395.296 135.268C394.042 136.594 392.718 137.78 391.255 138.827C390.21 139.594 391.255 141.408 392.37 140.641Z" fill="#161616"/>
<path d="M351.683 111.967C350.08 130.734 348.965 149.571 348.269 168.408C348.199 169.733 350.289 169.733 350.359 168.408C351.056 149.571 352.17 130.734 353.773 111.967C353.912 110.641 351.822 110.641 351.683 111.967Z" fill="#161616"/>
<path d="M458.836 89.8505C464.131 109.664 460.787 130.106 456.119 149.64C455.77 150.966 457.791 151.524 458.139 150.199C462.946 130.315 466.291 109.455 460.856 89.2923C460.508 88.0365 458.488 88.5947 458.836 89.8505Z" fill="#161616"/>
<path d="M465.733 153.408C471.864 154.524 478.065 155.641 484.196 156.757C485.519 156.966 486.077 155.013 484.753 154.734C478.622 153.617 472.421 152.501 466.29 151.385C464.967 151.175 464.409 153.199 465.733 153.408Z" fill="white"/>
<path d="M473.676 110.292C473.118 111.199 472.491 112.525 472.073 114.06C471.446 116.571 471.586 118.734 471.725 120.06C467.545 124.315 456.746 134.152 440.095 136.525C433.476 137.501 427.693 137.013 423.374 136.176C422.886 137.99 422.538 140.292 423.722 141.269C424.488 141.966 425.603 141.687 427.484 141.617C430.619 141.478 432.292 142.106 433.824 142.245C438.144 142.734 449.57 140.711 461.971 133.734C465.315 131.85 469.914 128.92 474.93 124.525C475.278 125.013 477.786 128.013 481.549 128.013C486.774 127.943 489.212 122.222 489.421 121.664C490.675 118.594 490.745 114.339 488.167 111.199C485.798 108.269 482.454 107.781 481.549 107.711C477.229 107.292 474.163 109.804 473.676 110.292Z" fill="white" stroke="black" stroke-width="2" stroke-miterlimit="10"/>
<path d="M477.438 111.687C474.233 116.711 476.184 124.036 482.942 123.897C483.639 123.897 483.639 122.85 482.942 122.85C476.95 122.99 475.626 116.432 478.344 112.176C478.762 111.618 477.856 111.129 477.438 111.687Z" fill="black"/>
<path d="M482.176 118.455C481.27 117.757 480.782 116.571 481.061 115.455C481.34 114.408 482.663 113.362 483.778 113.92C484.962 114.478 485.38 116.362 484.823 117.478C484.335 118.594 482.663 119.083 481.827 117.967C481.409 117.408 480.504 117.967 480.922 118.525C481.897 119.85 483.917 119.99 485.171 118.804C486.565 117.408 486.426 114.827 485.032 113.432C483.708 112.106 481.549 112.664 480.573 114.129C479.459 115.734 479.946 117.967 481.479 119.153C481.967 119.571 482.663 118.874 482.176 118.455Z" fill="black"/>
<path d="M438.074 136.873C439.189 138.269 439.467 140.152 438.701 141.757C438.422 142.385 439.328 142.873 439.607 142.315C440.512 140.362 440.303 138.129 438.98 136.385C438.562 135.827 437.656 136.315 438.074 136.873Z" fill="black"/>
<path d="M426.23 137.013C426.857 138.199 426.927 139.594 426.3 140.85C426.021 141.478 426.927 141.966 427.206 141.408C427.972 139.803 427.902 138.059 427.136 136.524C426.788 135.897 425.882 136.385 426.23 137.013Z" fill="black"/>
<path d="M429.296 137.78C430.062 138.548 430.132 139.873 429.435 140.71C429.017 141.199 429.783 141.966 430.201 141.478C431.246 140.152 431.246 138.269 430.062 137.083C429.574 136.524 428.878 137.292 429.296 137.78Z" fill="black"/>
<path d="M432.71 137.85C433.894 138.687 433.824 140.501 432.779 141.338C432.292 141.757 432.988 142.524 433.546 142.106C435.148 140.78 434.939 138.129 433.267 136.943C432.71 136.594 432.222 137.501 432.71 137.85Z" fill="black"/>
<path d="M449.43 90.8273C447.967 90.2691 448.455 88.4552 449.43 87.7575C450.406 87.0599 451.66 87.2692 452.287 88.3157C453.611 90.618 450.475 92.5017 448.873 90.6179C448.246 89.8505 447.131 90.9668 447.758 91.7342C449.082 93.2691 451.59 93.4086 453.123 92.0831C454.656 90.6877 454.516 88.1761 453.123 86.7808C451.66 85.2459 449.221 85.5947 447.828 87.1296C446.365 88.8738 446.853 91.5947 449.012 92.3621C449.988 92.6412 450.336 91.1761 449.43 90.8273Z" fill="black"/>
<path opacity="0.16" d="M452.217 82.1763C452.705 90.8273 453.61 100.176 455.213 110.222C456.258 116.92 457.512 123.339 458.905 129.269C457.373 130.245 455.77 131.222 454.098 132.199C445.877 136.873 437.935 139.873 430.759 141.827C434.451 141.966 439.049 141.757 444.344 140.78C450.684 139.594 455.84 137.571 459.602 135.757C454.028 141.897 446.643 149.013 437.168 155.78C423.583 165.547 410.484 171.198 400.591 174.617C408.185 177.268 415.779 179.919 423.304 182.57C423.861 192.896 424.419 203.221 424.976 213.617C428.808 212.64 432.64 211.663 436.541 210.617C435.984 204.128 435.496 197.431 435.217 190.454C435.078 186.547 434.939 182.71 434.869 178.873C441.488 177.059 446.922 175.315 451.033 173.919C466.221 168.757 477.02 163.524 480.015 162.059C485.032 159.617 489.073 157.385 491.859 155.78C492.626 150.966 493.322 145.943 493.81 140.571C494.995 128.152 495.064 116.781 494.437 106.595C491.163 102.548 486.913 98.0133 481.618 93.4087C475.975 88.525 470.471 84.8972 465.803 82.1763C461.204 82.1763 456.676 82.1763 452.217 82.1763Z" fill="#666666"/>
<path opacity="0.3" d="M194.576 346.382C195.133 372.126 195.621 397.87 196.178 423.614C224.046 431.428 256.652 438.544 293.368 442.939C345.621 449.149 391.743 448.102 429.086 444.544C430.131 418.242 431.246 392.01 432.291 365.708C400.243 364.452 367.289 362.568 333.499 360.057C285.356 356.429 239.025 351.824 194.576 346.382Z" fill="#EC615B"/>
<path opacity="0.3" d="M203.285 358.661C242.37 367.173 282.152 372.057 322.142 373.243C323.466 373.312 323.466 371.219 322.142 371.15C282.361 369.964 242.718 365.15 203.842 356.638C202.518 356.359 201.961 358.382 203.285 358.661Z" fill="#EC615B"/>
<path opacity="0.3" d="M205.026 372.964C222.932 378.336 241.255 381.894 259.857 383.708C261.181 383.847 261.181 381.754 259.857 381.615C241.464 379.801 223.28 376.243 205.584 370.94C204.26 370.522 203.703 372.545 205.026 372.964Z" fill="#EC615B"/>
<path opacity="0.3" d="M259.021 428.288C307.93 435.753 357.605 443.149 407.14 437.498C408.464 437.358 408.464 435.265 407.14 435.405C357.744 441.056 308.348 433.73 259.578 426.265C258.255 426.056 257.697 428.079 259.021 428.288Z" fill="#EC615B"/>
<path opacity="0.3" d="M335.17 424.8C360.252 429.335 385.751 430.451 411.111 428.009C412.435 427.87 412.435 425.777 411.111 425.916C385.96 428.288 360.6 427.242 335.728 422.777C334.404 422.568 333.847 424.521 335.17 424.8Z" fill="#EC615B"/>
<path opacity="0.3" d="M385.403 375.196C386.587 384.684 385.96 394.173 383.592 403.451C383.383 404.149 383.94 404.707 384.567 404.777C390.559 405.265 396.481 405.754 402.472 406.242C405.05 406.451 410.833 408.265 412.435 405.405C413.271 403.94 413.062 401.428 413.201 399.824C413.341 397.312 413.41 394.8 413.55 392.289C413.828 386.568 414.316 380.917 416.128 375.405C416.337 374.777 415.779 374.01 415.152 374.08C406.095 374.777 397.108 374.359 388.19 372.824C387.354 372.684 386.796 373.312 386.936 374.08C387.075 374.917 387.075 374.917 387.563 375.615C388.329 376.731 390.141 375.684 389.374 374.568C389.235 374.219 389.096 373.87 388.956 373.522C388.538 373.94 388.12 374.359 387.702 374.777C396.829 376.382 405.956 376.801 415.222 376.103C414.874 375.684 414.525 375.196 414.246 374.777C411.46 383.08 411.738 391.731 411.181 400.312C411.111 401.079 411.181 403.382 410.833 403.87C410.066 404.917 408.325 404.498 407.349 404.428C404.841 404.219 402.333 404.01 399.755 403.8C394.739 403.382 389.653 402.963 384.637 402.544C384.985 402.963 385.333 403.451 385.612 403.87C388.05 394.452 388.747 384.754 387.493 375.056C387.354 373.87 385.264 373.87 385.403 375.196Z" fill="#EC615B"/>
<path opacity="0.38" d="M87.144 55.595C87.7711 90.1993 88.3981 124.873 89.0252 159.478C136.958 165.547 184.822 171.547 232.755 177.617C234.009 135.966 235.263 94.3853 236.587 52.7346C186.773 53.7114 136.958 54.6881 87.144 55.595Z" fill="#5222D0"/>
<path d="M212.272 166.384C212.969 165.059 214.571 162.966 214.78 161.431C214.92 160.315 213.875 159.199 213.317 158.292C211.018 154.454 208.719 150.547 206.489 146.71C205.375 144.827 203.981 142.873 203.076 140.92C201.961 138.548 203.006 137.78 204.19 135.757C206.071 132.548 207.674 129.199 208.998 125.78C213.735 113.222 214.502 98.7806 208.858 86.3622C199.662 66.0601 177.437 61.4555 157.302 61.0369C136.471 60.5485 115.43 68.3624 103.029 85.804C88.6768 105.967 97.2463 134.222 116.684 147.617C136.958 161.64 165.314 161.012 186.494 149.641C187.678 149.013 186.633 147.199 185.449 147.827C168.31 157.036 148.315 158.501 129.991 152.013C111.041 145.315 96.4799 126.548 97.8733 105.827C99.4758 82.525 122.328 67.5252 143.438 64.0369C149.847 62.9904 156.257 62.9904 162.736 63.3392C171.585 63.8276 180.502 65.0834 188.584 68.8508C200.01 74.153 207.744 84.4087 210.043 96.8272C212.76 111.478 208.162 126.548 200.01 138.617C199.801 138.896 199.801 139.385 200.01 139.664C202.518 143.92 205.026 148.175 207.535 152.431C208.649 154.385 209.834 156.268 210.948 158.222C211.645 159.408 212.551 160.385 212.411 161.85C212.342 162.896 211.088 164.431 210.6 165.408C209.834 166.524 211.645 167.64 212.272 166.384Z" fill="#5222D0"/>
<path d="M185.798 150.617C193.461 156.966 201.891 161.989 211.157 165.687C212.412 166.175 212.969 164.152 211.715 163.664C202.867 160.105 194.646 155.222 187.261 149.152C186.216 148.245 184.752 149.71 185.798 150.617Z" fill="#5222D0"/>
<path d="M123.582 115.315C126.352 115.315 128.598 112.036 128.598 107.99C128.598 103.944 126.352 100.664 123.582 100.664C120.811 100.664 118.565 103.944 118.565 107.99C118.565 112.036 120.811 115.315 123.582 115.315Z" fill="#5222D0" stroke="#5222D0" stroke-miterlimit="10"/>
<path d="M152.286 114.408C155.056 114.408 157.302 111.129 157.302 107.083C157.302 103.037 155.056 99.7573 152.286 99.7573C149.515 99.7573 147.27 103.037 147.27 107.083C147.27 111.129 149.515 114.408 152.286 114.408Z" fill="#5222D0" stroke="#5222D0" stroke-miterlimit="10"/>
<path d="M180.224 113.571C182.994 113.571 185.24 110.291 185.24 106.245C185.24 102.2 182.994 98.9199 180.224 98.9199C177.453 98.9199 175.208 102.2 175.208 106.245C175.208 110.291 177.453 113.571 180.224 113.571Z" fill="#5222D0" stroke="#5222D0" stroke-miterlimit="10"/>
</svg>
